<?xml version="1.0" encoding="utf-8"?>
<!-- Generator: Adobe Illustrator 22.0.1, SVG Export Plug-In . SVG Version: 6.00 Build 0)  -->
<svg version="1.1" id="Layer_2_1_" xmlns="http://www.w3.org/2000/svg" xmlns:xlink="http://www.w3.org/1999/xlink" x="0px" y="0px"
	 viewBox="0 0 821.7 189.2" style="enable-background:new 0 0 821.7 189.2;" xml:space="preserve">
<style type="text/css">
	.st0{fill-rule:evenodd;clip-rule:evenodd;fill:#FFFFFF;}
</style>
<g>
	<g>
		<rect class="st0" width="821.7" height="87.3"/>
		<rect y="97.4" class="st0" width="821.7" height="87.3"/>
	</g>
	<g>
		<g>
			<polygon points="78.7,10.5 37.3,10.5 26.4,73.9 47,73.9 54.9,28.6 75.6,28.6 			"/>
			<path d="M81.3,40.4c-0.9,4.8-1.6,8.6-2.2,11.4c-0.6,2.8-1.2,4.9-1.8,6.3c-0.6,1.4-1.2,2.3-1.8,2.7c-0.6,0.4-1.3,0.6-2.2,0.6
				c-1,0-1.7-0.1-2.2-0.3c-0.3-0.1-0.6-0.2-0.8-0.4l-2.2,12.7c0.8,0.3,1.7,0.6,2.6,0.8c0.8,0.2,1.8,0.3,2.8,0.5
				c1.1,0.1,2.2,0.2,3.5,0.2c1.9,0,3.7-0.1,5.2-0.4c1.5-0.3,2.9-0.8,4.2-1.7c1.3-0.8,2.4-2,3.5-3.6c1-1.5,2-3.5,2.9-6
				c0.9-2.5,1.8-5.5,2.7-9.1c0.8-3.6,1.7-7.9,2.7-12.9l0.2-1.3h6.6l-5.8,33.9h19.4l8.2-47.4H83.8L81.3,40.4z"/>
			<path d="M163.4,32.5c-0.3-0.7-0.7-1.4-1.2-2.3c-0.5-0.8-1.2-1.6-2.1-2.4c-0.9-0.7-2-1.3-3.2-1.8c-1.3-0.5-2.8-0.7-4.5-0.7
				c-3.8,0-7.1,1-9.9,2.9c-2.8,2-5.2,4.5-7,7.6c-1.9,3.1-3.3,6.5-4.2,10.3c-0.9,3.8-1.4,7.5-1.4,11.2c0,5.3,1.2,9.6,3.6,12.8
				c2.4,3.2,5.8,4.8,10.2,4.8c3.5,0,6.6-0.8,9.1-2.5c2.5-1.7,4.5-3.9,6.1-6.6h0.3l-1.4,8.1h18l8.2-47.4h-19.4L163.4,32.5z M161,49.6
				c-0.3,1.8-0.7,3.4-1.2,4.8c-0.4,1.2-0.9,2.2-1.4,2.9c-0.5,0.7-1,1.2-1.5,1.6c-0.5,0.4-0.9,0.6-1.4,0.7c-0.4,0.1-0.8,0.1-1.1,0.1
				c-0.3,0-0.7-0.1-1.1-0.2c-0.4-0.1-0.8-0.4-1.2-0.7c-0.4-0.4-0.7-0.9-1-1.6c-0.3-0.7-0.4-1.7-0.4-2.9c0-1.7,0.2-3.6,0.7-5.8
				c0.5-2.1,1-3.9,1.7-5.3c0.2-0.2,0.3-0.6,0.6-1c0.2-0.4,0.5-0.9,0.9-1.3c0.4-0.4,0.8-0.8,1.4-1c0.5-0.3,1.1-0.4,1.8-0.4
				c0.3,0,0.6,0,1,0.1c0.4,0.1,0.8,0.3,1.2,0.7c0.4,0.4,0.7,0.9,1,1.6c0.3,0.7,0.4,1.7,0.4,2.9C161.5,46.2,161.4,47.8,161,49.6z"/>
			<path d="M229.3,27.6c-1.3-0.6-2.5-1-3.8-1c-1.3-0.1-2.3-0.1-2.9-0.1h-11.5h-17.6l-8.2,47.4H215c2.9,0,5.4-0.5,7.5-1.4
				c2.1-0.9,3.9-2.1,5.3-3.6c1.4-1.5,2.5-3.1,3.2-5c0.7-1.8,1-3.7,1-5.5c0-2.7-0.7-4.8-2.2-6.4c-1.5-1.6-3.4-2.6-5.6-2.9v-0.3
				c1.7-0.5,3.2-1.3,4.5-2.2c1.3-0.9,2.3-1.9,3-3.1c0.8-1.2,1.3-2.4,1.7-3.8c0.4-1.3,0.5-2.6,0.5-3.9c0-2.4-0.5-4.2-1.4-5.4
				C231.7,29.1,230.6,28.2,229.3,27.6z M213.6,60.1c-0.2,0.6-0.5,1.2-1,1.8c-0.5,0.5-1.2,1-2,1.4c-0.8,0.4-1.9,0.5-3.2,0.5h-2.8
				l1.6-9.4h2.8c0.4,0,0.9,0,1.5,0c0.6,0,1.1,0.2,1.6,0.4c0.5,0.2,0.9,0.6,1.3,1.2c0.4,0.5,0.5,1.3,0.5,2.3
				C213.9,58.8,213.8,59.4,213.6,60.1z M216.1,41.3c-0.1,0.5-0.4,1.1-0.8,1.6c-0.4,0.5-1,1-1.8,1.4c-0.8,0.4-1.9,0.5-3.2,0.5h-2.4
				l1.5-8.2h2.4c0.4,0,0.8,0,1.3,0c0.5,0,1,0.2,1.5,0.4c0.5,0.2,0.9,0.6,1.2,1c0.3,0.5,0.5,1.1,0.5,1.9
				C216.3,40.3,216.2,40.7,216.1,41.3z"/>
			<polygon points="269.1,42.8 262.2,42.8 265,26.4 245.6,26.4 237.4,73.9 256.8,73.9 259.8,56.4 266.7,56.4 263.7,73.9 283.1,73.9 
				291.3,26.4 272,26.4 			"/>
			<polygon points="342.2,73.9 361.6,73.9 369.8,26.4 350.4,26.4 			"/>
			<path d="M337.6,43.9c-1.3-1.1-3-2-5.2-2.6c-2.1-0.6-4.8-0.9-7.9-0.9h-6.8l2.4-13.9h-19.4l-8.1,47.4h26.2c3.8,0,7.2-0.5,10-1.5
				c2.8-1,5.2-2.4,7-4.2c1.8-1.8,3.2-4,4.1-6.6c0.9-2.6,1.3-5.4,1.3-8.6c0-1.9-0.3-3.6-0.9-5.1C339.9,46.3,338.9,45,337.6,43.9z
				 M320.2,60.8c-1,1.2-2.4,1.9-4.1,1.9h-2.5l1.8-10.7h2.5c2.5,0,3.8,1.2,3.8,3.7C321.7,57.8,321.2,59.5,320.2,60.8z"/>
			<path d="M416.7,29.5c-1.6-1.3-3.6-2.3-6.1-3c-2.5-0.8-5.5-1.1-9-1.1c-4.4,0-8.3,0.8-11.9,2.4c-3.5,1.6-6.6,3.7-9.1,6.4
				c-2.5,2.7-4.5,5.9-5.8,9.5c-1.4,3.6-2.1,7.4-2.1,11.5c0,3.1,0.4,5.9,1.3,8.3c0.8,2.5,2.2,4.6,4,6.3c1.8,1.7,4.1,3,6.9,3.9
				c2.8,0.9,6.2,1.4,10.2,1.4c2.7,0,5.6-0.2,8.9-0.6c3.3-0.4,6.6-1.1,10-2.1l2.2-12.3c-1.1,0.4-2.3,0.8-3.7,1.2
				c-1.4,0.4-2.8,0.7-4.2,1c-1.4,0.3-2.9,0.5-4.3,0.7c-1.4,0.2-2.7,0.3-3.9,0.3c-2.7,0-4.7-0.6-6-1.7c-1.3-1.1-2-2.7-2.2-4.7
				c6.1-0.4,11-1.1,14.8-2.1c3.8-1,6.8-2.3,9-3.8c2.2-1.5,3.6-3.3,4.4-5.3c0.8-2,1.2-4.2,1.2-6.6c0-1.7-0.4-3.5-1.1-5.1
				C419.4,32.2,418.2,30.8,416.7,29.5z M404,42c-0.3,0.7-0.9,1.3-1.8,1.9c-0.9,0.6-2.1,1.1-3.6,1.6c-1.5,0.5-3.5,0.8-6,1.1
				c0.7-3.7,1.8-6.3,3.3-7.9c1.5-1.6,3.1-2.4,4.9-2.4c1.2,0,2.1,0.3,2.7,1c0.6,0.6,0.9,1.5,0.9,2.5C404.5,40.6,404.3,41.3,404,42z"
				/>
			<path d="M494.7,30.6c-0.3-0.5-0.7-1.1-1.3-1.7c-0.5-0.6-1.2-1.2-2-1.7c-0.8-0.5-1.8-1-2.9-1.3c-1.1-0.3-2.5-0.5-4-0.5
				c-3.5,0-6.5,0.9-8.9,2.7c-2.4,1.8-4.4,4-5.9,6.7h-0.3l1.5-8.2h-18.3l-8.2,47.4h19.4l4.7-27.3c0.5-2.9,1.2-4.8,2.2-5.6
				c0.6-0.5,1.4-0.8,2.3-0.8c0.9,0,1.6,0.3,2,0.9c0.4,0.6,0.7,1.4,0.7,2.4c0,0.5,0,1.1-0.1,1.6c-0.1,0.5-0.2,1-0.3,1.6l-4.7,27.3
				H490l5.7-33c0.1-0.8,0.2-1.5,0.3-2.3c0.1-0.7,0.2-1.4,0.2-2.2c0-1-0.1-2.1-0.3-3.1C495.5,32.4,495.2,31.4,494.7,30.6z"/>
			<path d="M547.5,31.6c-1.7-1.9-3.9-3.4-6.6-4.6c-2.7-1.1-6.1-1.7-10.1-1.7c-4.9,0-9.2,0.9-13,2.6c-3.7,1.8-6.8,4-9.3,6.9
				c-2.5,2.8-4.3,6.1-5.6,9.6c-1.2,3.6-1.8,7.3-1.8,11c0,1.6,0.2,3.5,0.7,5.7c0.5,2.2,1.4,4.4,3,6.4c1.5,2.1,3.7,3.8,6.5,5.2
				c2.8,1.4,6.7,2.1,11.5,2.1c4.6,0,8.7-0.8,12.4-2.4c3.6-1.6,6.7-3.8,9.3-6.5c2.5-2.7,4.5-5.9,5.8-9.4c1.3-3.6,2-7.2,2-11
				c0-2.5-0.4-5-1.1-7.4C550.4,35.7,549.2,33.5,547.5,31.6z M531,50c-0.4,2.4-0.9,4.3-1.4,6c-0.2,0.6-0.4,1.2-0.7,1.9
				c-0.3,0.6-0.6,1.2-1,1.8s-0.8,1-1.4,1.3c-0.5,0.3-1.2,0.5-2,0.5c-0.6,0-1.2-0.3-1.9-0.9c-0.6-0.6-1-1.8-1-3.6
				c0-1,0.1-2.1,0.2-3.4c0.2-1.3,0.4-2.7,0.6-4c0.3-1.4,0.5-2.6,0.8-3.8c0.3-1.2,0.6-2.2,0.9-2.9c0.2-0.3,0.3-0.7,0.5-1.1
				c0.2-0.5,0.5-0.9,0.8-1.3c0.4-0.4,0.8-0.7,1.3-1c0.5-0.3,1-0.4,1.7-0.4c0.7,0,1.3,0.2,1.7,0.5c0.4,0.3,0.7,0.7,0.9,1.2
				c0.2,0.5,0.3,1,0.3,1.5c0.1,0.5,0.1,1,0.1,1.3C531.7,45.4,531.5,47.6,531,50z"/>
			<path d="M600.6,6.4c-2.2,0.2-4.4,0.5-6.6,0.6c-2.2,0.2-4.3,0.5-6.5,0.9c-2.2,0.4-4.3,1-6.4,1.8c-2.1,0.8-4.2,1.9-6.3,3.4
				c-2.8,1.9-5.2,4.3-7.3,7.4c-2.1,3.1-3.9,6.5-5.3,10.1c-1.4,3.7-2.5,7.5-3.2,11.5c-0.7,4-1.1,7.9-1.1,11.5c0,2,0.2,4.2,0.7,6.7
				c0.4,2.5,1.4,4.8,2.8,6.9c1.4,2.1,3.5,3.9,6.3,5.4c2.7,1.4,6.4,2.2,11,2.2c5.5,0,10.2-0.9,14-2.7c3.8-1.8,6.9-4.1,9.2-6.8
				c2.3-2.7,4-5.7,5-8.9c1-3.2,1.5-6.2,1.5-9c0-3.1-0.5-5.7-1.4-7.9c-0.9-2.2-2.3-4-3.9-5.5c-1.7-1.4-3.6-2.5-5.9-3.2
				c-2.3-0.7-4.7-1-7.3-1c-1.2,0-2.5,0.1-3.8,0.3c-1.4,0.2-2.8,0.6-4.3,1.2c-1.5,0.6-2.9,1.5-4.4,2.6c-1.5,1.1-2.9,2.6-4.2,4.4h-0.5
				l0.5-2.2c0.4-1.9,1-3.6,1.7-4.9c0.7-1.3,1.6-2.4,2.5-3.3c0.9-0.9,1.9-1.6,3-2.1c1-0.5,2-0.9,2.9-1.2c2.1-0.7,4.3-1.1,6.7-1.4
				c2.4-0.2,5-0.5,7.7-0.6c1.4-0.1,2.6-0.2,3.7-0.3c1.1-0.1,2.1-0.3,3-0.5c0.9-0.2,1.8-0.5,2.6-0.9c0.8-0.4,1.6-0.8,2.5-1.4
				l2.8-16.3c-2.1,1-4,1.8-5.8,2.2C604.7,5.8,602.8,6.2,600.6,6.4z M578.2,54.8c0.1-0.9,0.2-1.8,0.4-2.8c0.2-0.9,0.3-1.8,0.5-2.7
				c0.2-0.9,0.4-1.6,0.6-2.2c0.6-1.8,1.3-3,2.2-3.6c0.8-0.6,1.7-0.9,2.4-0.9c0.7,0,1.3,0.1,1.7,0.4c0.4,0.3,0.7,0.6,1,1.1
				c0.2,0.5,0.4,0.9,0.4,1.4c0.1,0.5,0.1,1,0.1,1.4c0,1.8-0.2,3.4-0.5,5.1c-0.2,1-0.4,2.1-0.6,3.2c-0.3,1.1-0.6,2.1-1,3
				c-0.4,0.9-1,1.7-1.7,2.3c-0.7,0.6-1.5,0.9-2.5,0.9c-1.4,0-2.3-0.5-2.7-1.4c-0.4-1-0.6-1.9-0.6-2.9C578,56.4,578,55.7,578.2,54.8z
				"/>
			<path d="M656.2,29.5c-1.6-1.3-3.6-2.3-6.1-3c-2.5-0.8-5.5-1.1-9-1.1c-4.4,0-8.3,0.8-11.9,2.4c-3.5,1.6-6.6,3.7-9.1,6.4
				c-2.5,2.7-4.5,5.9-5.8,9.5c-1.4,3.6-2.1,7.4-2.1,11.5c0,3.1,0.4,5.9,1.3,8.3c0.8,2.5,2.2,4.6,4,6.3c1.8,1.7,4.1,3,6.9,3.9
				c2.8,0.9,6.2,1.4,10.2,1.4c2.7,0,5.6-0.2,8.9-0.6c3.3-0.4,6.6-1.1,10-2.1l2.2-12.3c-1.1,0.4-2.3,0.8-3.7,1.2
				c-1.4,0.4-2.8,0.7-4.2,1c-1.4,0.3-2.9,0.5-4.3,0.7c-1.4,0.2-2.7,0.3-3.9,0.3c-2.7,0-4.7-0.6-6-1.7c-1.3-1.1-2-2.7-2.2-4.7
				c6.1-0.4,11-1.1,14.8-2.1c3.8-1,6.8-2.3,9-3.8c2.2-1.5,3.6-3.3,4.4-5.3c0.8-2,1.2-4.2,1.2-6.6c0-1.7-0.4-3.5-1.1-5.1
				C658.9,32.2,657.7,30.8,656.2,29.5z M643.5,42c-0.3,0.7-0.9,1.3-1.8,1.9c-0.9,0.6-2.1,1.1-3.6,1.6c-1.5,0.5-3.5,0.8-6,1.1
				c0.7-3.7,1.8-6.3,3.3-7.9c1.5-1.6,3.1-2.4,4.9-2.4c1.2,0,2.1,0.3,2.7,1c0.6,0.6,0.9,1.5,0.9,2.5C644,40.6,643.8,41.3,643.5,42z"
				/>
			<path d="M698.9,35.3h-0.3c-0.4-3.1-1.6-5.6-3.6-7.3c-2-1.8-4.7-2.7-7.8-2.7c-3.5,0-6.6,1-9.4,2.9c-2.8,1.9-5.1,4.4-7.1,7.4
				c-1.9,3-3.4,6.5-4.5,10.3c-1,3.9-1.6,7.7-1.6,11.6c0,4.9,1.3,8.9,3.8,11.9c2.5,3,6.1,4.5,10.7,4.5c0.9,0,1.8-0.1,2.8-0.3
				c1-0.2,2.1-0.5,3.2-1c1.1-0.5,2.3-1.2,3.5-2.1c1.2-0.9,2.5-2.1,3.8-3.5h0.3l-0.5,2.3c-0.9,3.9-2.6,6.8-5,8.9
				c-2.4,2-5.6,3.1-9.8,3.1c-2.2,0-4.5-0.4-6.9-1.3c-2.5-0.9-4.9-2.1-7.2-3.6l-2.7,14.9c4.2,1.5,7.7,2.5,10.7,2.9
				c2.9,0.4,5.6,0.6,8,0.6c3.3,0,6.6-0.3,10-0.9c3.4-0.6,6.5-1.9,9.5-3.8c2.9-1.9,5.5-4.7,7.8-8.4c2.3-3.7,3.9-8.6,5-14.7l7.1-40.6
				h-18.4L698.9,35.3z M695.9,49.7c-0.3,1.4-0.6,2.5-0.9,3.6c-0.5,1.5-1.1,2.9-1.9,4.1c-0.8,1.2-2.1,1.8-3.7,1.8
				c-1.2,0-2.1-0.4-2.8-1.2c-0.7-0.8-1-1.9-1-3.3c0-1.7,0.1-3.3,0.4-4.8c0.3-1.5,0.6-2.8,1-3.9c0.5-1.5,1.1-2.9,1.9-4.1
				c0.8-1.2,2.1-1.8,3.7-1.8c1.1,0,1.9,0.4,2.6,1.2c0.7,0.8,1,2.1,1,4C696.4,46.8,696.2,48.3,695.9,49.7z"/>
			<polygon points="777.9,26.4 769.7,73.9 789.1,73.9 797.3,26.4 			"/>
			<path d="M765.1,43.9c-1.3-1.1-3-2-5.2-2.6c-2.1-0.6-4.8-0.9-7.9-0.9h-6.8l2.4-13.9h-19.4l-8.1,47.4h26.2c3.8,0,7.2-0.5,10-1.5
				c2.8-1,5.2-2.4,7-4.2c1.8-1.8,3.2-4,4.1-6.6c0.9-2.6,1.3-5.4,1.3-8.6c0-1.9-0.3-3.6-0.9-5.1C767.4,46.3,766.4,45,765.1,43.9z
				 M747.7,60.8c-1,1.2-2.4,1.9-4.1,1.9h-2.5l1.8-10.7h2.5c2.5,0,3.8,1.2,3.8,3.7C749.2,57.8,748.7,59.5,747.7,60.8z"/>
		</g>
		<g>
			<polygon points="60.8,134 53.3,134 56.3,116.3 35.3,116.3 26.4,167.7 47.4,167.7 50.7,148.8 58.2,148.8 54.9,167.7 76,167.7 
				84.9,116.3 63.9,116.3 			"/>
			<path d="M124.5,122.8c-0.3-0.7-0.8-1.5-1.3-2.5c-0.6-0.9-1.3-1.8-2.3-2.6c-0.9-0.8-2.1-1.4-3.5-2c-1.4-0.5-3-0.8-4.9-0.8
				c-4.1,0-7.7,1.1-10.8,3.2c-3.1,2.1-5.6,4.9-7.6,8.2c-2,3.3-3.5,7.1-4.5,11.1c-1,4.1-1.5,8.1-1.5,12.1c0,5.8,1.3,10.4,3.9,13.9
				c2.6,3.5,6.3,5.3,11.1,5.3c3.8,0,7.1-0.9,9.8-2.7c2.7-1.8,4.9-4.2,6.6-7.2h0.3l-1.5,8.7h19.5l8.8-51.5h-21L124.5,122.8z
				 M122,141.4c-0.3,2-0.8,3.7-1.3,5.3c-0.4,1.3-0.9,2.4-1.5,3.1c-0.6,0.8-1.1,1.3-1.6,1.7c-0.5,0.4-1,0.6-1.5,0.7
				c-0.5,0.1-0.9,0.1-1.2,0.1c-0.3,0-0.7-0.1-1.2-0.2c-0.4-0.1-0.9-0.4-1.3-0.8c-0.4-0.4-0.8-1-1-1.8c-0.3-0.8-0.4-1.8-0.4-3.2
				c0-1.8,0.3-3.9,0.8-6.2c0.5-2.3,1.1-4.2,1.8-5.7c0.2-0.3,0.4-0.6,0.6-1.1c0.3-0.5,0.6-0.9,1-1.4c0.4-0.5,0.9-0.8,1.5-1.1
				c0.6-0.3,1.2-0.4,2-0.4c0.3,0,0.6,0.1,1.1,0.1c0.4,0.1,0.9,0.3,1.3,0.7c0.4,0.4,0.8,1,1.1,1.7c0.3,0.8,0.5,1.8,0.5,3.1
				C122.5,137.7,122.3,139.4,122,141.4z"/>
			<path d="M206.9,146c-0.3,1.8-0.8,3.4-1.5,4.8c-0.7,1.4-1.9,2.2-3.5,2.2c-0.6,0-1.1-0.1-1.5-0.4c-0.4-0.3-0.6-0.6-0.8-1
				c-0.2-0.4-0.3-0.8-0.4-1.2c-0.1-0.4-0.1-0.8-0.1-1.1c0-0.5,0-1,0.1-1.5c0.1-0.5,0.1-1,0.3-1.6l5.1-29.7h-20.2l-5.1,29.7
				c-0.1,0.7-0.3,1.5-0.5,2.3c-0.2,0.8-0.5,1.6-0.8,2.3c-0.4,0.7-0.8,1.3-1.3,1.7c-0.5,0.5-1.2,0.7-2,0.7c-0.7,0-1.3-0.3-2-0.8
				c-0.7-0.5-1-1.5-1-3.1c0-0.5,0-1,0.1-1.5c0.1-0.5,0.1-1,0.3-1.6l5.1-29.7h-20.2l-5.3,30.8c-0.3,1.5-0.5,3-0.8,4.4
				c-0.3,1.4-0.4,2.9-0.4,4.4c0,2.3,0.4,4.3,1.1,5.9c0.7,1.6,1.7,3,2.9,4c1.2,1,2.6,1.8,4.2,2.4c1.6,0.5,3.2,0.8,4.8,0.8
				c0.9,0,1.9-0.1,3-0.3c1.1-0.2,2.3-0.6,3.6-1.1c1.3-0.6,2.5-1.3,3.8-2.4c1.3-1,2.6-2.4,3.8-4.1c0.7,1.7,1.5,3.1,2.4,4.1
				c0.9,1,1.9,1.9,2.9,2.4c1,0.6,2,0.9,3,1.1c1,0.2,1.8,0.2,2.6,0.2c3.8,0,7.2-0.9,10-2.7c2.8-1.8,5.1-4.3,6.9-7.4h0.3l-1.6,8.9h19
				l8.9-51.5H212L206.9,146z"/>
			<path d="M283.2,119.6c-1.7-1.4-3.9-2.5-6.6-3.3c-2.7-0.8-5.9-1.2-9.7-1.2c-4.7,0-9,0.9-12.9,2.6c-3.8,1.7-7.1,4-9.8,7
				c-2.7,2.9-4.8,6.4-6.3,10.3c-1.5,3.9-2.3,8-2.3,12.4c0,3.3,0.5,6.4,1.4,9c0.9,2.7,2.4,5,4.3,6.8c1.9,1.9,4.5,3.3,7.5,4.3
				c3.1,1,6.8,1.5,11.1,1.5c2.9,0,6.1-0.2,9.6-0.6c3.5-0.4,7.1-1.2,10.8-2.3l2.3-13.4c-1.2,0.5-2.5,0.9-4,1.3
				c-1.5,0.4-3,0.8-4.6,1.1c-1.6,0.3-3.1,0.6-4.7,0.8c-1.6,0.2-3,0.3-4.3,0.3c-3,0-5.1-0.6-6.5-1.8c-1.4-1.2-2.2-2.9-2.3-5.1
				c6.6-0.4,11.9-1.1,16.1-2.3c4.1-1.1,7.4-2.5,9.7-4.2c2.3-1.7,3.9-3.6,4.8-5.8c0.9-2.2,1.3-4.6,1.3-7.1c0-1.9-0.4-3.7-1.2-5.5
				C286.1,122.6,284.9,121,283.2,119.6z M269.5,133.2c-0.3,0.8-1,1.5-1.9,2.1c-0.9,0.7-2.3,1.2-3.9,1.8c-1.7,0.5-3.8,0.9-6.5,1.2
				c0.8-4,2-6.8,3.6-8.5c1.6-1.7,3.4-2.6,5.3-2.6c1.3,0,2.3,0.3,3,1c0.6,0.7,1,1.6,1,2.7C270,131.7,269.8,132.4,269.5,133.2z"/>
			<path d="M329.4,118.9c-1.5-1.2-3.5-2.1-5.8-2.8c-2.4-0.7-5.3-1-8.8-1c-1.4,0-2.9,0.1-4.5,0.3c-1.6,0.2-3.3,0.5-4.9,0.8
				c-1.6,0.4-3.1,0.8-4.5,1.2c-1.4,0.4-2.6,0.9-3.6,1.3l-1.8,15.3c1.2-0.7,2.5-1.3,3.9-1.9c1.4-0.6,2.9-1.2,4.3-1.7
				c1.4-0.5,2.9-0.9,4.3-1.2c1.4-0.3,2.7-0.4,3.9-0.4c1.1,0,1.8,0.1,2.2,0.4c0.4,0.3,0.5,0.7,0.5,1.2c0,0.9-0.6,1.7-1.7,2.5
				c-1.1,0.8-3.1,1.8-5.8,3.1c-3.2,1.6-5.9,3.1-7.9,4.6c-2.1,1.5-3.7,3-4.8,4.5c-1.2,1.5-2,3.1-2.4,4.7c-0.4,1.6-0.7,3.3-0.7,5.1
				c0,2,0.3,3.8,1,5.5c0.7,1.7,1.8,3.2,3.3,4.4c1.5,1.2,3.5,2.2,5.9,2.9c2.4,0.7,5.4,1.1,8.8,1.1c1.7,0,3.4-0.1,5.3-0.3
				c1.9-0.2,3.6-0.5,5.3-0.9c1.7-0.4,3.3-0.8,4.7-1.2c1.4-0.4,2.5-0.8,3.3-1.2l1.8-15.3c-1.3,0.9-2.8,1.7-4.4,2.3
				c-1.6,0.6-3.1,1.2-4.6,1.6c-1.5,0.5-2.9,0.8-4.2,1c-1.3,0.2-2.4,0.3-3.2,0.3c-2,0-3-0.9-3-2.7c0-1,0.5-2,1.6-2.7
				c1.1-0.8,2.8-1.7,5.1-2.8c3.1-1.4,5.6-2.8,7.7-4.2c2.1-1.3,3.7-2.7,4.9-4.2c1.2-1.4,2-3,2.5-4.7c0.5-1.7,0.8-3.6,0.8-5.8
				c0-1.8-0.3-3.4-1-5C332,121.5,330.9,120.1,329.4,118.9z"/>
			<path d="M386.9,121.9c-1.8-2.1-4.2-3.7-7.2-5c-3-1.2-6.6-1.9-10.9-1.9c-5.3,0-10,0.9-14.1,2.8c-4,1.9-7.4,4.4-10.1,7.5
				c-2.7,3.1-4.7,6.6-6.1,10.5c-1.3,3.9-2,7.9-2,11.9c0,1.7,0.3,3.8,0.8,6.2c0.5,2.4,1.6,4.7,3.2,7c1.6,2.2,4,4.1,7.1,5.6
				c3.1,1.5,7.2,2.3,12.5,2.3c5,0,9.5-0.9,13.4-2.7c4-1.8,7.3-4.1,10.1-7.1c2.8-2.9,4.9-6.3,6.3-10.2c1.4-3.9,2.2-7.9,2.2-12
				c0-2.7-0.4-5.4-1.2-8.1C390.1,126.3,388.7,124,386.9,121.9z M369,141.8c-0.5,2.6-1,4.7-1.5,6.5c-0.2,0.7-0.4,1.3-0.7,2
				c-0.3,0.7-0.7,1.3-1.1,1.9c-0.4,0.6-0.9,1.1-1.5,1.4c-0.6,0.4-1.3,0.5-2.1,0.5c-0.7,0-1.3-0.3-2-0.9c-0.7-0.6-1-1.9-1-3.9
				c0-1,0.1-2.3,0.3-3.7c0.2-1.4,0.4-2.9,0.7-4.4c0.3-1.5,0.6-2.9,0.9-4.2c0.3-1.3,0.7-2.4,1-3.1c0.2-0.3,0.4-0.7,0.6-1.2
				c0.2-0.5,0.5-0.9,0.9-1.4c0.4-0.4,0.8-0.8,1.4-1.1c0.5-0.3,1.1-0.4,1.8-0.4c0.8,0,1.4,0.2,1.8,0.5c0.4,0.4,0.8,0.8,1,1.3
				c0.2,0.5,0.3,1.1,0.4,1.6c0.1,0.6,0.1,1,0.1,1.4C369.7,136.9,369.5,139.2,369,141.8z"/>
			<path d="M451.3,115.1c-4.2,0-7.9,0.5-11.1,1.6c-3.2,1-6,2.4-8.4,4.2c-2.4,1.7-4.5,3.7-6.1,5.9c-1.6,2.2-3,4.6-4,7
				c-1,2.4-1.7,4.8-2.2,7.2c-0.4,2.4-0.7,4.6-0.7,6.6c0,3.5,0.5,6.4,1.5,8.8c1,2.4,2.2,4.4,3.7,6c1.5,1.6,3.2,2.8,5,3.7
				c1.8,0.9,3.6,1.5,5.3,1.9c1.7,0.4,3.3,0.7,4.8,0.8c1.4,0.1,2.5,0.1,3.2,0.1c2.4,0,4.9-0.1,7.4-0.4c2.5-0.3,5.3-1,8.3-2.1
				l2.6-14.8c-1.5,0.7-3.1,1.3-4.8,1.9c-1.7,0.5-3.4,0.8-5.1,0.8c-0.3,0-1-0.1-2-0.2c-1-0.1-2-0.5-3-1.1c-1-0.6-1.9-1.5-2.8-2.7
				c-0.8-1.2-1.2-3-1.2-5.2c0-1.7,0.3-3.5,0.8-5.3c0.5-1.8,1.3-3.4,2.5-4.9c1.1-1.5,2.5-2.7,4.2-3.6c1.7-0.9,3.6-1.4,5.9-1.4
				c0.9,0,2.1,0.1,3.6,0.4c1.4,0.3,3.1,0.9,5,1.9l2.5-14.7c-1.8-0.6-4-1.1-6.4-1.6C457.3,115.3,454.5,115.1,451.3,115.1z"/>
			<path d="M522.7,120.8c-0.3-0.6-0.8-1.2-1.4-1.9c-0.6-0.7-1.3-1.3-2.2-1.9c-0.9-0.6-1.9-1.1-3.2-1.4c-1.2-0.4-2.7-0.5-4.3-0.5
				c-3.8,0-7,1-9.6,2.9c-2.6,1.9-4.8,4.3-6.4,7.2h-0.3l1.6-8.9H477l-8.9,51.5h21l5.1-29.7c0.5-3.1,1.3-5.2,2.4-6.1
				c0.7-0.6,1.5-0.9,2.5-0.9s1.7,0.3,2.2,1c0.5,0.7,0.7,1.5,0.7,2.6c0,0.6,0,1.2-0.1,1.7c-0.1,0.6-0.2,1.1-0.3,1.7l-5.1,29.7h21
				l6.2-35.7c0.1-0.9,0.2-1.7,0.3-2.5c0.1-0.8,0.2-1.6,0.2-2.4c0-1.1-0.1-2.2-0.4-3.3C523.6,122.7,523.2,121.7,522.7,120.8z"/>
			<path d="M582.9,128.9c-0.8-2.6-2.1-5-4-7c-1.8-2.1-4.2-3.7-7.2-5c-3-1.2-6.6-1.9-10.9-1.9c-5.3,0-10,0.9-14.1,2.8
				c-4,1.9-7.4,4.4-10.1,7.5c-2.7,3.1-4.7,6.6-6.1,10.5c-1.3,3.9-2,7.9-2,11.9c0,1.7,0.3,3.8,0.8,6.2c0.5,2.4,1.6,4.7,3.2,7
				c1.6,2.2,4,4.1,7.1,5.6c3.1,1.5,7.2,2.3,12.5,2.3c5,0,9.5-0.9,13.4-2.7c4-1.8,7.3-4.1,10.1-7.1c2.8-2.9,4.9-6.3,6.3-10.2
				c1.4-3.9,2.2-7.9,2.2-12C584.1,134.2,583.7,131.5,582.9,128.9z M561.1,141.8c-0.5,2.6-1,4.7-1.5,6.5c-0.2,0.7-0.4,1.3-0.7,2
				c-0.3,0.7-0.7,1.3-1.1,1.9c-0.4,0.6-0.9,1.1-1.5,1.4c-0.6,0.4-1.3,0.5-2.1,0.5c-0.7,0-1.3-0.3-2-0.9c-0.7-0.6-1-1.9-1-3.9
				c0-1,0.1-2.3,0.3-3.7c0.2-1.4,0.4-2.9,0.7-4.4c0.3-1.5,0.6-2.9,0.9-4.2c0.3-1.3,0.7-2.4,1-3.1c0.2-0.3,0.4-0.7,0.6-1.2
				c0.2-0.5,0.5-0.9,0.9-1.4c0.4-0.4,0.8-0.8,1.4-1.1c0.5-0.3,1.1-0.4,1.8-0.4c0.8,0,1.4,0.2,1.8,0.5c0.4,0.4,0.8,0.8,1,1.3
				c0.2,0.5,0.3,1.1,0.4,1.6c0.1,0.6,0.1,1,0.1,1.4C561.8,136.9,561.5,139.2,561.1,141.8z"/>
			<path d="M639.6,117.9c-1.6-1.3-3.3-2.1-5-2.4c-1.7-0.3-3-0.4-4-0.4c-3.2,0-6.1,0.8-8.9,2.4c-2.8,1.6-5.2,4.1-7.2,7.6h-0.3
				l1.5-8.7h-19.5l-12.7,73h21l4.9-28.1c0.7,1.7,1.5,3.1,2.5,4.1c1,1,2.1,1.8,3.2,2.4c1.1,0.5,2.2,0.9,3.3,1c1.1,0.2,2.1,0.2,3,0.2
				c3.4,0,6.6-0.8,9.5-2.4c2.9-1.6,5.5-3.9,7.7-6.9c2.2-3,3.9-6.6,5.2-10.8c1.3-4.2,1.9-8.9,1.9-14.1c0-4.6-0.6-8.3-1.8-10.9
				C642.7,121.1,641.3,119.2,639.6,117.9z M622.5,142.6c-0.3,2-0.8,3.7-1.3,5.3c-0.8,2.3-1.8,3.8-2.8,4.6c-1.1,0.8-2.1,1.1-3,1.1
				c-0.4,0-0.8-0.1-1.3-0.2c-0.4-0.1-0.9-0.4-1.3-0.8c-0.4-0.4-0.7-1-1-1.8c-0.3-0.8-0.4-1.7-0.4-2.9c0-1.6,0.2-3.3,0.5-5.3
				c0.3-1.9,0.8-3.7,1.4-5.3c0.8-2.2,1.7-3.7,2.7-4.5c1-0.8,2-1.2,3-1.2c0.3,0,0.6,0.1,1.1,0.1c0.4,0.1,0.9,0.3,1.3,0.7
				c0.4,0.4,0.8,1,1.1,1.7c0.3,0.8,0.5,1.8,0.5,3.1C623,138.8,622.9,140.6,622.5,142.6z"/>
			<path d="M732.4,123c-0.7-2-2-3.9-4.1-5.5c-2.1-1.6-5.1-2.5-9-2.5c-0.9,0-1.9,0.1-3,0.3c-1.1,0.2-2.4,0.6-3.6,1.1
				c-1.3,0.6-2.6,1.4-3.9,2.4c-1.3,1-2.6,2.4-3.8,4c-0.7-1.7-1.5-3.1-2.5-4.1c-1-1-2-1.8-3.1-2.4c-1.1-0.6-2.2-0.9-3.3-1.1
				c-1.1-0.2-2-0.2-2.8-0.2c-3.8,0-7.2,0.9-10.1,2.7c-2.9,1.8-5.2,4.3-7,7.4h-0.3l1.6-8.9h-19.9l-8.9,51.5h21l5.1-29.7
				c0.3-1.8,0.8-3.4,1.5-4.8c0.7-1.4,1.9-2.2,3.5-2.2c1.2,0,2,0.5,2.3,1.4c0.3,0.9,0.5,1.8,0.5,2.4c0,0.5,0,1-0.1,1.6
				c-0.1,0.5-0.1,1-0.3,1.6l-5.1,29.7h21l5.1-29.7c0.1-0.7,0.3-1.5,0.5-2.3c0.2-0.8,0.5-1.6,0.9-2.3c0.4-0.7,0.8-1.3,1.3-1.7
				c0.5-0.5,1.2-0.7,2-0.7c0.7,0,1.3,0.3,2,0.8c0.7,0.5,1,1.5,1,3c0,0.5,0,1-0.1,1.6c-0.1,0.5-0.1,1-0.3,1.6l-5.1,29.7h21l5.3-30.8
				c0.3-1.5,0.5-3,0.8-4.4c0.3-1.4,0.4-2.9,0.4-4.4c0-0.9-0.1-1.7-0.2-2.6C732.9,124.7,732.7,123.8,732.4,123z"/>
			<path d="M776.3,116.3l-1.1,6.6c-0.3-0.7-0.8-1.5-1.3-2.5c-0.6-0.9-1.3-1.8-2.3-2.6c-0.9-0.8-2.1-1.4-3.5-2
				c-1.4-0.5-3-0.8-4.9-0.8c-4.1,0-7.7,1.1-10.8,3.2c-3.1,2.1-5.6,4.9-7.6,8.2c-2,3.3-3.5,7.1-4.5,11.1c-1,4.1-1.5,8.1-1.5,12.1
				c0,5.8,1.3,10.4,3.9,13.9c2.6,3.5,6.3,5.3,11.1,5.3c3.8,0,7.1-0.9,9.8-2.7c2.7-1.8,4.9-4.2,6.6-7.2h0.3l-1.5,8.7h19.5l8.8-51.5
				H776.3z M772.6,141.4c-0.3,2-0.8,3.7-1.3,5.3c-0.4,1.3-0.9,2.4-1.5,3.1c-0.6,0.8-1.1,1.3-1.6,1.7c-0.5,0.4-1,0.6-1.5,0.7
				c-0.5,0.1-0.9,0.1-1.2,0.1c-0.3,0-0.7-0.1-1.2-0.2c-0.4-0.1-0.9-0.4-1.3-0.8c-0.4-0.4-0.8-1-1-1.8c-0.3-0.8-0.4-1.8-0.4-3.2
				c0-1.8,0.3-3.9,0.8-6.2c0.5-2.3,1.1-4.2,1.8-5.7c0.2-0.3,0.4-0.6,0.6-1.1c0.3-0.5,0.6-0.9,1-1.4c0.4-0.5,0.9-0.8,1.5-1.1
				c0.6-0.3,1.2-0.4,2-0.4c0.3,0,0.6,0.1,1.1,0.1c0.4,0.1,0.9,0.3,1.3,0.7c0.4,0.4,0.8,1,1.1,1.7c0.3,0.8,0.5,1.8,0.5,3.1
				C773.1,137.7,773,139.4,772.6,141.4z"/>
		</g>
	</g>
</g>
</svg>
