<?xml version="1.0" encoding="utf-8"?>
<!-- Generator: Adobe Illustrator 22.0.1, SVG Export Plug-In . SVG Version: 6.00 Build 0)  -->
<svg version="1.1" id="Layer_2_1_" xmlns="http://www.w3.org/2000/svg" xmlns:xlink="http://www.w3.org/1999/xlink" x="0px" y="0px"
	 viewBox="0 0 578.9 161.3" style="enable-background:new 0 0 578.9 161.3;" xml:space="preserve">
<style type="text/css">
	.st0{fill-rule:evenodd;clip-rule:evenodd;fill:#FFFFFF;}
</style>
<g>
	<g>
		<rect x="141.6" class="st0" width="295.6" height="75.4"/>
		<rect y="84.5" class="st0" width="578.9" height="74"/>
	</g>
	<g>
		<polygon points="206.6,32.7 226.9,6.9 206.4,6.9 191.6,28.6 191.4,28.6 195.1,6.9 177.2,6.9 167.6,62 185.6,62 189.6,38.6 
			189.9,38.6 197.4,62 218.8,62 		"/>
		<path d="M247.7,20.8l-8.8,26h-0.2l-0.3-26H221l5.6,42.3l-0.5,1.3c-0.4,0.8-0.8,1.4-1.3,1.9c-0.5,0.5-1,0.8-1.6,1.1
			c-0.6,0.2-1.1,0.4-1.6,0.5c-0.5,0.1-0.9,0.1-1.2,0.1c-0.8,0-1.7-0.1-2.5-0.2c-0.8-0.1-1.7-0.4-2.5-0.7l-2,11.7
			c1.8,0.5,3.5,0.9,5.3,1.2c1.7,0.3,3.3,0.4,4.6,0.4c2.5,0,4.7-0.3,6.8-0.9c2.1-0.6,4-1.6,5.8-3c1.8-1.3,3.4-3,4.9-5.1
			c1.5-2.1,2.9-4.6,4.2-7.5l19.3-42.9H247.7z"/>
		<path d="M300.7,3.3c-1.9,0.2-3.8,0.4-5.7,0.6c-1.9,0.2-3.8,0.4-5.7,0.8c-1.9,0.4-3.7,0.9-5.6,1.6c-1.9,0.7-3.7,1.7-5.5,2.9
			c-2.4,1.6-4.5,3.8-6.4,6.5c-1.8,2.7-3.4,5.6-4.6,8.8c-1.2,3.2-2.2,6.6-2.8,10c-0.6,3.5-1,6.8-1,10c0,1.7,0.2,3.7,0.6,5.8
			c0.4,2.2,1.2,4.2,2.4,6c1.2,1.9,3.1,3.4,5.5,4.7c2.4,1.3,5.6,1.9,9.6,1.9c4.8,0,8.9-0.8,12.2-2.4c3.3-1.6,6-3.6,8-5.9
			c2-2.4,3.5-5,4.4-7.8c0.9-2.8,1.3-5.4,1.3-7.8c0-2.7-0.4-5-1.2-6.9c-0.8-1.9-2-3.5-3.4-4.8c-1.5-1.3-3.2-2.2-5.2-2.8
			c-2-0.6-4.1-0.9-6.4-0.9c-1,0-2.1,0.1-3.3,0.3c-1.2,0.2-2.4,0.5-3.7,1.1c-1.3,0.5-2.6,1.3-3.9,2.2c-1.3,1-2.5,2.2-3.6,3.8h-0.5
			l0.4-1.9c0.4-1.7,0.9-3.1,1.5-4.3c0.6-1.2,1.4-2.1,2.2-2.9c0.8-0.8,1.7-1.4,2.6-1.8c0.9-0.4,1.7-0.8,2.5-1.1
			c1.8-0.6,3.7-1,5.8-1.2c2.1-0.2,4.3-0.4,6.7-0.6c1.2-0.1,2.3-0.1,3.2-0.3c1-0.1,1.8-0.3,2.6-0.5c0.8-0.2,1.6-0.4,2.3-0.7
			c0.7-0.3,1.4-0.7,2.1-1.2l2.5-14.2c-1.8,0.9-3.5,1.5-5,1.9C304.2,2.8,302.5,3.1,300.7,3.3z M281.1,45.4c0.1-0.8,0.2-1.6,0.3-2.4
			c0.1-0.8,0.3-1.6,0.5-2.4c0.2-0.8,0.4-1.4,0.5-1.9c0.5-1.6,1.2-2.6,1.9-3.2c0.7-0.5,1.4-0.8,2.1-0.8c0.6,0,1.1,0.1,1.5,0.4
			c0.4,0.2,0.6,0.6,0.8,0.9c0.2,0.4,0.3,0.8,0.4,1.3c0,0.4,0.1,0.9,0.1,1.2c0,1.5-0.1,3-0.4,4.4c-0.1,0.9-0.3,1.8-0.5,2.8
			c-0.2,1-0.5,1.9-0.9,2.6c-0.4,0.8-0.9,1.4-1.4,2c-0.6,0.5-1.3,0.8-2.1,0.8c-1.2,0-2-0.4-2.3-1.3c-0.3-0.8-0.5-1.7-0.5-2.5
			C281,46.9,281,46.2,281.1,45.4z"/>
		<path d="M352.4,25.3c-1.5-1.7-3.4-3-5.8-4c-2.4-1-5.3-1.5-8.8-1.5c-4.3,0-8,0.8-11.3,2.3c-3.2,1.5-5.9,3.5-8.1,6
			c-2.2,2.5-3.8,5.3-4.9,8.4c-1.1,3.1-1.6,6.3-1.6,9.6c0,1.4,0.2,3,0.6,5c0.4,1.9,1.3,3.8,2.6,5.6c1.3,1.8,3.2,3.3,5.7,4.5
			s5.8,1.9,10,1.9c4,0,7.6-0.7,10.8-2.1c3.2-1.4,5.9-3.3,8.1-5.7c2.2-2.4,3.9-5.1,5.1-8.2c1.2-3.1,1.7-6.3,1.7-9.6
			c0-2.2-0.3-4.4-1-6.5C354.9,28.8,353.8,26.9,352.4,25.3z M338,41.2c-0.4,2-0.8,3.8-1.2,5.2c-0.1,0.5-0.3,1.1-0.6,1.6
			c-0.2,0.6-0.5,1.1-0.9,1.5c-0.3,0.5-0.7,0.9-1.2,1.1c-0.5,0.3-1,0.4-1.7,0.4c-0.5,0-1.1-0.2-1.6-0.7c-0.6-0.5-0.8-1.5-0.8-3.1
			c0-0.8,0.1-1.8,0.2-3c0.1-1.2,0.3-2.3,0.5-3.5c0.2-1.2,0.5-2.3,0.7-3.3c0.3-1.1,0.5-1.9,0.8-2.5c0.1-0.3,0.3-0.6,0.5-1
			c0.2-0.4,0.4-0.8,0.7-1.1c0.3-0.3,0.7-0.6,1.1-0.9c0.4-0.2,0.9-0.4,1.4-0.4c0.6,0,1.1,0.1,1.5,0.4c0.4,0.3,0.6,0.6,0.8,1.1
			c0.2,0.4,0.3,0.9,0.3,1.3c0,0.4,0.1,0.8,0.1,1.1C338.6,37.3,338.4,39.2,338,41.2z"/>
		<polygon points="411.2,20.8 392.9,20.8 380.2,38.8 380,38.8 383.1,20.8 366.5,20.8 359.3,62 375.9,62 379.1,43.8 379.3,43.8 
			385.8,62 404.4,62 396,41 		"/>
	</g>
	<g>
		<polygon points="73.9,101.9 76.1,88.9 53.3,88.9 35.6,88.9 26.1,144 43.6,144 67.1,144 69.3,131 45.9,131 47.4,122.5 69.3,122.5 
			71.5,109.8 49.5,109.8 50.9,101.9 		"/>
		<path d="M113.9,103.8c-1.1-0.5-2.2-0.8-3.3-0.9c-1.1-0.1-2-0.1-2.5-0.1H98H82.7L75.5,144h25.9c2.5,0,4.7-0.4,6.5-1.2
			c1.9-0.8,3.4-1.9,4.7-3.2c1.2-1.3,2.2-2.7,2.8-4.3c0.6-1.6,0.9-3.2,0.9-4.8c0-2.3-0.6-4.2-1.9-5.6c-1.3-1.4-2.9-2.3-4.9-2.5v-0.2
			c1.5-0.5,2.8-1.1,3.9-1.9c1.1-0.8,2-1.7,2.6-2.7c0.7-1,1.2-2.1,1.5-3.3c0.3-1.2,0.5-2.3,0.5-3.4c0-2-0.4-3.6-1.2-4.7
			S115,104.3,113.9,103.8z M100.2,132c-0.2,0.6-0.4,1.1-0.9,1.5c-0.4,0.5-1,0.9-1.7,1.2c-0.7,0.3-1.7,0.5-2.8,0.5h-2.4l1.4-8.2h2.4
			c0.4,0,0.8,0,1.3,0c0.5,0,0.9,0.1,1.4,0.4c0.4,0.2,0.8,0.6,1.1,1c0.3,0.5,0.5,1.1,0.5,2C100.5,130.9,100.4,131.5,100.2,132z
			 M102.4,115.7c-0.1,0.5-0.3,0.9-0.7,1.4c-0.4,0.5-0.9,0.9-1.6,1.2c-0.7,0.3-1.6,0.5-2.8,0.5h-2.1l1.3-7.2h2.1c0.3,0,0.7,0,1.1,0
			c0.4,0,0.9,0.1,1.3,0.4c0.4,0.2,0.8,0.5,1.1,0.9c0.3,0.4,0.4,0.9,0.4,1.6C102.6,114.8,102.5,115.2,102.4,115.7z"/>
		<path d="M164.1,104.1c-1.3-1-2.7-1.7-4-1.9c-1.4-0.2-2.4-0.4-3.2-0.4c-2.5,0-4.9,0.6-7.2,1.9c-2.2,1.3-4.2,3.3-5.8,6.1h-0.3l1.2-7
			h-15.7l-10.2,58.5H136l4-22.5c0.5,1.4,1.2,2.5,2,3.3c0.8,0.8,1.7,1.5,2.6,1.9c0.9,0.4,1.8,0.7,2.6,0.8c0.9,0.1,1.7,0.2,2.4,0.2
			c2.7,0,5.3-0.6,7.6-1.9c2.4-1.3,4.4-3.1,6.2-5.6c1.8-2.4,3.1-5.3,4.2-8.7c1-3.4,1.5-7.1,1.5-11.3c0-3.7-0.5-6.6-1.5-8.7
			C166.6,106.6,165.4,105.1,164.1,104.1z M150.4,123.9c-0.3,1.6-0.6,3-1.1,4.2c-0.7,1.9-1.4,3.1-2.3,3.7c-0.8,0.6-1.7,0.9-2.4,0.9
			c-0.3,0-0.6-0.1-1-0.2c-0.4-0.1-0.7-0.3-1-0.7c-0.3-0.3-0.6-0.8-0.8-1.4s-0.3-1.4-0.3-2.3c0-1.3,0.1-2.7,0.4-4.2
			c0.2-1.5,0.6-2.9,1.1-4.2c0.6-1.7,1.3-3,2.2-3.6c0.8-0.7,1.6-1,2.4-1c0.2,0,0.5,0,0.9,0.1c0.4,0.1,0.7,0.3,1,0.6s0.6,0.8,0.9,1.4
			c0.2,0.6,0.4,1.4,0.4,2.5C150.8,120.9,150.7,122.3,150.4,123.9z"/>
		<path d="M213.5,107.3c-1.5-1.7-3.4-3-5.8-4c-2.4-1-5.3-1.5-8.8-1.5c-4.3,0-8,0.8-11.3,2.3c-3.2,1.5-5.9,3.5-8.1,6
			c-2.2,2.5-3.8,5.3-4.9,8.4c-1.1,3.1-1.6,6.3-1.6,9.6c0,1.4,0.2,3,0.6,5c0.4,1.9,1.3,3.8,2.6,5.6c1.3,1.8,3.2,3.3,5.7,4.5
			s5.8,1.9,10,1.9c4,0,7.6-0.7,10.8-2.1c3.2-1.4,5.9-3.3,8.1-5.7c2.2-2.4,3.9-5.1,5.1-8.2c1.2-3.1,1.7-6.3,1.7-9.6
			c0-2.2-0.3-4.4-1-6.5C216,110.8,214.9,108.9,213.5,107.3z M199.1,123.2c-0.4,2-0.8,3.8-1.2,5.2c-0.1,0.5-0.3,1.1-0.6,1.6
			c-0.2,0.6-0.5,1.1-0.9,1.5c-0.3,0.5-0.7,0.9-1.2,1.1c-0.5,0.3-1,0.4-1.7,0.4c-0.5,0-1.1-0.2-1.6-0.7c-0.6-0.5-0.8-1.5-0.8-3.1
			c0-0.8,0.1-1.8,0.2-3c0.1-1.2,0.3-2.3,0.5-3.5c0.2-1.2,0.5-2.3,0.7-3.3c0.3-1.1,0.5-1.9,0.8-2.5c0.1-0.3,0.3-0.6,0.5-1
			c0.2-0.4,0.4-0.8,0.7-1.1c0.3-0.3,0.7-0.6,1.1-0.9c0.4-0.2,0.9-0.4,1.4-0.4c0.6,0,1.1,0.1,1.5,0.4c0.4,0.3,0.6,0.6,0.8,1.1
			c0.2,0.4,0.3,0.9,0.3,1.3c0,0.4,0.1,0.8,0.1,1.1C199.7,119.3,199.5,121.2,199.1,123.2z"/>
		<path d="M264.3,106.4c-0.3-0.5-0.6-1-1.1-1.5c-0.5-0.5-1.1-1-1.8-1.5c-0.7-0.5-1.6-0.9-2.5-1.1c-1-0.3-2.1-0.4-3.5-0.4
			c-3,0-5.6,0.8-7.7,2.3c-2.1,1.5-3.8,3.5-5.1,5.8h-0.3l1.3-7.2h-15.9l-7.2,41.3h16.9l4.1-23.8c0.4-2.5,1-4.1,1.9-4.9
			c0.5-0.5,1.2-0.7,2-0.7s1.4,0.3,1.8,0.8c0.4,0.5,0.6,1.2,0.6,2c0,0.5,0,0.9-0.1,1.4c-0.1,0.4-0.1,0.9-0.2,1.4l-4.1,23.8h16.9
			l5-28.7c0.1-0.7,0.2-1.3,0.3-2c0.1-0.6,0.1-1.3,0.1-1.9c0-0.9-0.1-1.8-0.3-2.7C265,107.9,264.7,107.1,264.3,106.4z"/>
		<polygon points="311.9,144 328.8,144 335.9,102.8 319.1,102.8 		"/>
		<path d="M307.9,117.9c-1.1-1-2.6-1.7-4.5-2.2c-1.9-0.5-4.1-0.8-6.9-0.8h-5.9l2.1-12.1h-16.9l-7,41.3h22.8c3.3,0,6.3-0.4,8.7-1.3
			c2.5-0.9,4.5-2.1,6.1-3.7c1.6-1.6,2.8-3.5,3.6-5.7c0.8-2.2,1.2-4.7,1.2-7.5c0-1.6-0.3-3.1-0.8-4.5
			C309.9,120,309.1,118.9,307.9,117.9z M292.8,132.7c-0.9,1.1-2.1,1.6-3.5,1.6H287l1.6-9.3h2.2c2.2,0,3.3,1.1,3.3,3.2
			C294.1,130.1,293.6,131.6,292.8,132.7z"/>
		<polygon points="341.5,128.3 364.1,128.3 367,112.5 344.4,112.5 		"/>
		<polygon points="374.3,104.3 378.9,116.5 391,108.3 384.8,144 401.6,144 411.2,88.9 396.8,88.9 		"/>
		<path d="M441.4,87.9c-3,0-6,0.6-8.8,1.7c-2.8,1.1-5.4,2.7-7.6,4.8c-2.2,2-4,4.5-5.3,7.4c-1.3,2.9-2,6.1-2,9.6
			c0,4.2,1.2,7.5,3.6,10c2.4,2.4,5.7,3.7,9.9,3.7c2.7,0,4.8-0.4,6.3-1.1c1.5-0.7,2.8-1.5,3.9-2.2h0.3c-0.5,2.7-1.3,4.8-2.5,6.2
			c-1.2,1.5-2.5,2.6-3.9,3.3c-1.4,0.7-2.6,1.1-3.9,1.3c-1.2,0.2-2.1,0.2-2.6,0.2c-2.1,0-4.1-0.2-5.9-0.6c-1.8-0.4-3.6-0.8-5.5-1.3
			l-2.2,12.7c3.5,0.7,6.3,1.2,8.5,1.3c2.2,0.1,3.8,0.2,4.9,0.2c4.6,0,8.9-1,12.7-3c3.8-2,7-4.6,9.7-8c2.7-3.4,4.8-7.2,6.2-11.7
			c1.5-4.4,2.2-9.1,2.2-13.9c0-6.5-1.6-11.5-4.8-15.1C451.5,89.7,447,87.9,441.4,87.9z M443.7,108.6c-0.3,1.2-0.8,2.2-1.4,3.1
			c-0.6,0.9-1.4,1.6-2.2,2.1c-0.9,0.5-1.8,0.8-2.8,0.8c-1.3,0-2.4-0.5-3.2-1.4c-0.8-0.9-1.2-2.2-1.2-4c0-1.2,0.2-2.4,0.5-3.5
			c0.4-1.1,0.8-2.1,1.5-3c0.6-0.9,1.4-1.6,2.2-2.1c0.8-0.5,1.8-0.8,2.8-0.8c1.3,0,2.4,0.4,3.2,1.3c0.8,0.9,1.2,2.2,1.2,3.9
			C444.2,106.2,444,107.4,443.7,108.6z"/>
		<path d="M494.2,87.9c-4.6,0-8.9,1-12.7,3c-3.8,2-7,4.6-9.7,8c-2.7,3.4-4.8,7.2-6.2,11.7c-1.5,4.4-2.2,9.1-2.2,13.9
			c0,6.5,1.6,11.5,4.8,15.1c3.2,3.6,7.6,5.4,13.3,5.4c3,0,6-0.6,8.8-1.7c2.8-1.1,5.4-2.7,7.6-4.8c2.2-2,4-4.5,5.3-7.4
			c1.3-2.9,2-6.1,2-9.6c0-4.2-1.2-7.5-3.6-10c-2.4-2.4-5.7-3.7-9.9-3.7c-2.7,0-4.8,0.4-6.3,1.1c-1.5,0.7-2.8,1.5-3.9,2.2h-0.3
			c0.5-2.7,1.3-4.8,2.5-6.2c1.2-1.5,2.5-2.6,3.9-3.3c1.4-0.7,2.6-1.1,3.9-1.3c1.2-0.2,2.1-0.2,2.6-0.2c2.1,0,4.1,0.2,5.9,0.6
			c1.8,0.4,3.6,0.8,5.5,1.3l2.2-12.7c-3.5-0.7-6.3-1.2-8.5-1.3C496.9,88,495.2,87.9,494.2,87.9z M482.8,119.1
			c0.9-0.5,1.8-0.8,2.8-0.8c1.3,0,2.4,0.5,3.2,1.4c0.8,0.9,1.2,2.2,1.2,4c0,1.2-0.2,2.4-0.5,3.5c-0.4,1.1-0.8,2.1-1.5,3
			c-0.6,0.9-1.4,1.6-2.2,2.1c-0.8,0.5-1.8,0.8-2.8,0.8c-1.3,0-2.4-0.4-3.2-1.3c-0.8-0.9-1.2-2.2-1.2-3.9c0-1.2,0.2-2.4,0.5-3.5
			c0.3-1.2,0.8-2.2,1.4-3.1C481.2,120.4,481.9,119.7,482.8,119.1z"/>
		<path d="M548.7,92.3c-2.8-2.9-6.7-4.4-11.9-4.4c-3.2,0-6,0.6-8.5,1.7c-2.5,1.1-4.7,2.6-6.7,4.5c-1.9,1.9-3.6,4.1-5,6.6
			c-1.4,2.5-2.5,5.3-3.4,8.1c-0.9,2.9-1.5,5.8-1.9,8.9c-0.4,3.1-0.6,6.1-0.6,9c0,6.3,1.4,10.9,4.2,13.9c2.8,2.9,6.8,4.4,11.9,4.4
			c3.1,0,5.9-0.6,8.5-1.7c2.5-1.1,4.8-2.6,6.7-4.5c1.9-1.9,3.6-4.1,5-6.6c1.4-2.5,2.5-5.3,3.4-8.1c0.9-2.9,1.5-5.8,1.9-8.9
			c0.4-3.1,0.6-6.1,0.6-9C552.8,99.9,551.4,95.2,548.7,92.3z M537.6,115.1c-0.5,3-1.1,5.8-1.9,8.3c-0.8,2.5-1.8,4.7-3,6.3
			c-1.2,1.7-2.4,2.5-3.8,2.5c-1.1,0-2-0.4-2.7-1.1c-0.7-0.8-1-2.3-1-4.6c0-2.7,0.2-5.5,0.7-8.5c0.4-3,1.1-5.8,1.9-8.3
			c0.8-2.6,1.8-4.7,2.9-6.4c1.1-1.7,2.4-2.5,3.7-2.5c0.6,0,1.1,0.1,1.6,0.2c0.5,0.2,0.9,0.5,1.2,0.9c0.3,0.4,0.6,1,0.8,1.8
			c0.2,0.8,0.3,1.7,0.3,2.9C538.3,109.2,538,112,537.6,115.1z"/>
	</g>
</g>
</svg>
