<?xml version="1.0" encoding="utf-8"?>
<!-- Generator: Adobe Illustrator 22.0.1, SVG Export Plug-In . SVG Version: 6.00 Build 0)  -->
<svg version="1.1" id="Layer_2_1_" xmlns="http://www.w3.org/2000/svg" xmlns:xlink="http://www.w3.org/1999/xlink" x="0px" y="0px"
	 viewBox="0 0 917.1 161.7" style="enable-background:new 0 0 917.1 161.7;" xml:space="preserve">
<style type="text/css">
	.st0{fill-rule:evenodd;clip-rule:evenodd;fill:#FFFFFF;}
</style>
<g>
	<g>
		<rect y="1.3" class="st0" width="917.1" height="72.2"/>
		<rect x="85.1" y="82.9" class="st0" width="746.9" height="75"/>
	</g>
	<g>
		<path d="M72.3,10.4c-1.1-1.2-2.5-2.2-4.3-2.9c-1.8-0.8-4-1.1-6.6-1.1h-12h-17l-9.5,55.2h16.9h12.4c3.5,0,6.4-0.5,9-1.6
			c2.5-1.1,4.6-2.5,6.3-4.2c1.6-1.7,2.9-3.6,3.7-5.7c0.8-2.1,1.2-4.1,1.2-6.1c0-1.2-0.2-2.3-0.5-3.5c-0.4-1.2-0.9-2.2-1.6-3.2
			c-0.7-1-1.6-1.8-2.7-2.4c-1.1-0.6-2.3-1-3.8-1.2l0.1-0.3c1.7-0.4,3.2-1,4.6-1.9c1.4-0.9,2.7-2,3.7-3.3c1-1.3,1.8-2.8,2.4-4.4
			c0.6-1.6,0.9-3.3,0.9-5.1c0-1.4-0.2-2.9-0.7-4.3C74.2,12.9,73.4,11.5,72.3,10.4z M53.8,45.9c-0.2,0.8-0.7,1.5-1.3,2.1
			c-0.6,0.7-1.4,1.2-2.4,1.6c-1,0.4-2.3,0.6-3.8,0.6h-4.6L43.6,39h4.8c0.9,0,1.8,0.1,2.8,0.3c1,0.2,1.7,0.9,2.4,2.1
			c0.4,0.7,0.5,1.5,0.5,2.4C54.1,44.4,54,45.1,53.8,45.9z M55.7,26.2c-1.3,1.3-3.3,1.9-6,1.9h-4.3l1.9-10.6h4.7
			c1.4,0,2.4,0.2,3.2,0.6c0.7,0.4,1.3,0.8,1.7,1.3c0.4,0.5,0.6,1,0.6,1.5c0.1,0.5,0.1,0.9,0.1,1.2C57.6,23.6,57,25,55.7,26.2z"/>
		<path d="M122.1,30.3c-0.6-2.1-1.7-4-3.2-5.6c-1.5-1.7-3.4-3-5.8-4c-2.4-1-5.3-1.5-8.8-1.5c-4.3,0-8,0.8-11.3,2.3
			c-3.2,1.5-5.9,3.5-8.1,6c-2.2,2.5-3.8,5.3-4.9,8.4c-1.1,3.1-1.6,6.3-1.6,9.6c0,1.4,0.2,3,0.6,5c0.4,1.9,1.3,3.8,2.6,5.6
			c1.3,1.8,3.2,3.3,5.7,4.5c2.5,1.2,5.8,1.9,10,1.9c4,0,7.6-0.7,10.8-2.1c3.2-1.4,5.9-3.3,8.1-5.7c2.2-2.4,3.9-5.1,5.1-8.2
			c1.2-3.1,1.7-6.3,1.7-9.6C123.1,34.6,122.7,32.4,122.1,30.3z M104.5,40.7c-0.4,2-0.8,3.8-1.2,5.2c-0.1,0.5-0.3,1.1-0.6,1.6
			c-0.2,0.6-0.5,1.1-0.9,1.5c-0.3,0.5-0.7,0.9-1.2,1.1c-0.5,0.3-1,0.4-1.7,0.4c-0.5,0-1.1-0.2-1.6-0.7c-0.6-0.5-0.8-1.5-0.8-3.1
			c0-0.8,0.1-1.8,0.2-3c0.1-1.2,0.3-2.3,0.5-3.5c0.2-1.2,0.5-2.3,0.7-3.3c0.3-1.1,0.5-1.9,0.8-2.5c0.1-0.3,0.3-0.6,0.5-1
			c0.2-0.4,0.4-0.8,0.7-1.1c0.3-0.3,0.7-0.6,1.1-0.9c0.4-0.2,0.9-0.4,1.4-0.4c0.6,0,1.1,0.1,1.5,0.4c0.4,0.3,0.6,0.6,0.8,1.1
			c0.2,0.4,0.3,0.9,0.3,1.3c0,0.4,0.1,0.8,0.1,1.1C105.1,36.7,104.9,38.6,104.5,40.7z"/>
		<path d="M134.4,32.3c-0.8,4.2-1.4,7.5-1.9,9.9c-0.5,2.4-1.1,4.2-1.6,5.5c-0.5,1.2-1,2-1.6,2.4c-0.5,0.3-1.2,0.5-1.9,0.5
			c-0.8,0-1.5-0.1-1.9-0.2c-0.3-0.1-0.5-0.2-0.7-0.3l-1.9,11c0.7,0.3,1.5,0.5,2.3,0.7c0.7,0.2,1.5,0.3,2.4,0.4
			c0.9,0.1,1.9,0.2,3,0.2c1.7,0,3.2-0.1,4.6-0.4c1.3-0.2,2.6-0.7,3.7-1.5c1.1-0.7,2.1-1.8,3-3.1c0.9-1.3,1.7-3.1,2.5-5.2
			c0.8-2.2,1.6-4.8,2.3-8c0.7-3.2,1.5-6.9,2.3-11.2l0.2-1.1h5.8L150,61.5h16.9l7.2-41.3h-37.5L134.4,32.3z"/>
		<path d="M215.1,22.8c-1.4-1.1-3.1-2-5.3-2.6c-2.2-0.7-4.8-1-7.8-1c-3.8,0-7.2,0.7-10.3,2c-3.1,1.4-5.7,3.2-7.9,5.6
			c-2.2,2.4-3.9,5.1-5.1,8.2c-1.2,3.1-1.8,6.4-1.8,10c0,2.7,0.4,5.1,1.1,7.2c0.7,2.2,1.9,4,3.4,5.5c1.6,1.5,3.6,2.6,6,3.4
			c2.5,0.8,5.4,1.2,8.9,1.2c2.3,0,4.9-0.2,7.7-0.5c2.8-0.3,5.7-1,8.7-1.9l1.9-10.7c-0.9,0.4-2,0.7-3.2,1.1c-1.2,0.3-2.4,0.6-3.7,0.9
			c-1.3,0.3-2.5,0.5-3.8,0.6c-1.3,0.2-2.4,0.2-3.4,0.2c-2.4,0-4.1-0.5-5.2-1.5c-1.1-1-1.7-2.3-1.9-4.1c5.3-0.3,9.6-0.9,12.9-1.8
			c3.3-0.9,5.9-2,7.8-3.3c1.9-1.3,3.2-2.9,3.9-4.6c0.7-1.8,1-3.7,1-5.7c0-1.5-0.3-3-1-4.5C217.5,25.2,216.5,24,215.1,22.8z
			 M204.1,33.8c-0.3,0.6-0.8,1.2-1.5,1.7c-0.8,0.5-1.8,1-3.1,1.4c-1.3,0.4-3.1,0.7-5.2,0.9c0.6-3.2,1.6-5.5,2.9-6.9
			c1.3-1.4,2.7-2,4.3-2c1.1,0,1.9,0.3,2.4,0.8c0.5,0.6,0.8,1.3,0.8,2.2C204.5,32.5,204.4,33.2,204.1,33.8z"/>
		<path d="M247.6,44c-0.1,0.5-0.2,1-0.3,1.7c-0.1,0.6-0.3,1.2-0.6,1.9c-0.3,0.6-0.7,1.1-1.1,1.5c-0.5,0.4-1.1,0.6-1.8,0.6
			c-0.5,0-0.9-0.1-1.2-0.4c-0.3-0.2-0.5-0.5-0.7-0.8c-0.2-0.3-0.2-0.6-0.3-0.9c0-0.3,0-0.5,0-0.6c0-1.1,0.1-2.1,0.3-3l4.2-23.9h-17
			l-5,28.8c-0.1,0.7-0.2,1.3-0.2,2s-0.1,1.3-0.1,2c0,1.7,0.3,3.2,0.8,4.4c0.5,1.2,1.2,2.2,2.1,3c0.9,0.8,1.9,1.3,3.1,1.7
			c1.2,0.3,2.4,0.5,3.8,0.5c0.8,0,1.7-0.1,2.8-0.2c1.1-0.1,2.2-0.5,3.4-1s2.4-1.4,3.7-2.4c1.2-1.1,2.4-2.5,3.4-4.4h0.1l-1.2,7.1
			h15.9l7.2-41.3h-16.9L247.6,44z"/>
		<path d="M249.4,15.8c4.3,0,7.8-1.1,10.3-3.3c2.5-2.2,4.2-5.4,5.1-9.5l-7.8-1.4c-0.5,2.1-1.3,3.6-2.3,4.4c-1,0.8-2.3,1.3-3.8,1.3
			c-1.5,0-2.6-0.4-3.3-1.1c-0.8-0.7-1.1-1.9-1.1-3.6c0-0.2,0-0.3,0-0.5c0-0.2,0-0.3,0-0.6L238.2,3C238,3.9,238,4.8,238,5.7
			c0,3.3,0.9,5.8,2.7,7.5C242.6,14.9,245.4,15.8,249.4,15.8z"/>
		<path d="M308.9,2.8c-1.9,0.2-3.8,0.4-5.7,0.6c-1.9,0.2-3.8,0.4-5.7,0.8c-1.9,0.4-3.7,0.9-5.6,1.6c-1.9,0.7-3.7,1.7-5.5,2.9
			c-2.4,1.6-4.5,3.8-6.4,6.5c-1.8,2.7-3.4,5.6-4.6,8.8c-1.2,3.2-2.2,6.6-2.8,10c-0.6,3.5-1,6.8-1,10c0,1.7,0.2,3.7,0.6,5.8
			c0.4,2.2,1.2,4.2,2.4,6c1.2,1.9,3.1,3.4,5.5,4.7c2.4,1.3,5.6,1.9,9.6,1.9c4.8,0,8.9-0.8,12.2-2.4c3.3-1.6,6-3.6,8-5.9
			c2-2.4,3.5-5,4.4-7.8c0.9-2.8,1.3-5.4,1.3-7.8c0-2.7-0.4-5-1.2-6.9c-0.8-1.9-2-3.5-3.4-4.8c-1.5-1.3-3.2-2.2-5.2-2.8
			c-2-0.6-4.1-0.9-6.4-0.9c-1,0-2.1,0.1-3.3,0.3c-1.2,0.2-2.4,0.5-3.7,1.1c-1.3,0.5-2.6,1.3-3.9,2.2c-1.3,1-2.5,2.2-3.6,3.8h-0.5
			l0.4-1.9c0.4-1.7,0.9-3.1,1.5-4.3c0.6-1.2,1.4-2.1,2.2-2.9c0.8-0.8,1.7-1.4,2.6-1.8c0.9-0.4,1.7-0.8,2.5-1.1
			c1.8-0.6,3.7-1,5.8-1.2c2.1-0.2,4.3-0.4,6.7-0.6c1.2-0.1,2.3-0.1,3.2-0.3c1-0.1,1.8-0.3,2.6-0.5c0.8-0.2,1.6-0.4,2.3-0.7
			c0.7-0.3,1.4-0.7,2.1-1.2L319,0c-1.8,0.9-3.5,1.5-5,1.9C312.5,2.3,310.8,2.5,308.9,2.8z M289.3,44.8c0.1-0.8,0.2-1.6,0.3-2.4
			c0.1-0.8,0.3-1.6,0.5-2.4c0.2-0.8,0.4-1.4,0.5-1.9c0.5-1.6,1.2-2.6,1.9-3.2c0.7-0.5,1.4-0.8,2.1-0.8c0.6,0,1.1,0.1,1.5,0.4
			c0.4,0.2,0.6,0.6,0.8,0.9s0.3,0.8,0.4,1.3c0,0.4,0.1,0.9,0.1,1.2c0,1.5-0.1,3-0.4,4.4c-0.1,0.9-0.3,1.8-0.5,2.8
			c-0.2,1-0.5,1.9-0.9,2.6c-0.4,0.8-0.9,1.4-1.4,2c-0.6,0.5-1.3,0.8-2.1,0.8c-1.2,0-2-0.4-2.3-1.3c-0.3-0.8-0.5-1.7-0.5-2.5
			C289.2,46.3,289.3,45.6,289.3,44.8z"/>
		<path d="M363.8,30.3c-0.6-2.1-1.7-4-3.2-5.6c-1.5-1.7-3.4-3-5.8-4c-2.4-1-5.3-1.5-8.8-1.5c-4.3,0-8,0.8-11.3,2.3
			c-3.2,1.5-5.9,3.5-8.1,6c-2.2,2.5-3.8,5.3-4.9,8.4c-1.1,3.1-1.6,6.3-1.6,9.6c0,1.4,0.2,3,0.6,5c0.4,1.9,1.3,3.8,2.6,5.6
			c1.3,1.8,3.2,3.3,5.7,4.5c2.5,1.2,5.8,1.9,10,1.9c4,0,7.6-0.7,10.8-2.1c3.2-1.4,5.9-3.3,8.1-5.7s3.9-5.1,5.1-8.2
			c1.2-3.1,1.7-6.3,1.7-9.6C364.8,34.6,364.4,32.4,363.8,30.3z M346.2,40.7c-0.4,2-0.8,3.8-1.2,5.2c-0.1,0.5-0.3,1.1-0.6,1.6
			c-0.2,0.6-0.5,1.1-0.9,1.5c-0.3,0.5-0.7,0.9-1.2,1.1c-0.5,0.3-1,0.4-1.7,0.4c-0.5,0-1.1-0.2-1.6-0.7c-0.6-0.5-0.8-1.5-0.8-3.1
			c0-0.8,0.1-1.8,0.2-3c0.1-1.2,0.3-2.3,0.5-3.5c0.2-1.2,0.5-2.3,0.7-3.3c0.3-1.1,0.5-1.9,0.8-2.5c0.1-0.3,0.3-0.6,0.5-1
			c0.2-0.4,0.4-0.8,0.7-1.1c0.3-0.3,0.7-0.6,1.1-0.9c0.4-0.2,0.9-0.4,1.4-0.4c0.6,0,1.1,0.1,1.5,0.4c0.4,0.3,0.6,0.6,0.8,1.1
			c0.2,0.4,0.3,0.9,0.3,1.3c0,0.4,0.1,0.8,0.1,1.1C346.8,36.7,346.6,38.6,346.2,40.7z"/>
		<path d="M376.1,32.3c-0.8,4.2-1.4,7.5-1.9,9.9c-0.5,2.4-1.1,4.2-1.6,5.5c-0.5,1.2-1,2-1.6,2.4c-0.5,0.3-1.2,0.5-1.9,0.5
			c-0.8,0-1.5-0.1-1.9-0.2c-0.3-0.1-0.5-0.2-0.7-0.3l-1.9,11c0.7,0.3,1.5,0.5,2.3,0.7c0.7,0.2,1.5,0.3,2.4,0.4
			c0.9,0.1,1.9,0.2,3,0.2c1.7,0,3.2-0.1,4.6-0.4c1.3-0.2,2.6-0.7,3.7-1.5c1.1-0.7,2.1-1.8,3-3.1c0.9-1.3,1.7-3.1,2.5-5.2
			c0.8-2.2,1.6-4.8,2.3-8c0.7-3.2,1.5-6.9,2.3-11.2L391,32h5.8l-5.1,29.5h16.9l7.2-41.3h-37.5L376.1,32.3z"/>
		<path d="M456.3,35.3c-1.1-1-2.6-1.7-4.5-2.2c-1.9-0.5-4.1-0.8-6.9-0.8h-5.9l2.1-12.1h-16.9l-7,41.3H440c3.3,0,6.3-0.4,8.7-1.3
			c2.5-0.9,4.5-2.1,6.1-3.7c1.6-1.6,2.8-3.5,3.6-5.7c0.8-2.2,1.2-4.7,1.2-7.5c0-1.6-0.3-3.1-0.8-4.5
			C458.3,37.5,457.5,36.3,456.3,35.3z M441.2,50.1c-0.9,1.1-2.1,1.6-3.5,1.6h-2.2l1.6-9.3h2.2c2.2,0,3.3,1.1,3.3,3.2
			C442.5,47.5,442.1,49,441.2,50.1z"/>
		<polygon points="491.1,34.4 485,34.4 487.5,20.2 470.6,20.2 463.5,61.5 480.3,61.5 483,46.3 489,46.3 486.4,61.5 503.3,61.5 
			510.4,20.2 493.5,20.2 		"/>
		<path d="M553.7,24.7c-1.5-1.7-3.4-3-5.8-4c-2.4-1-5.3-1.5-8.8-1.5c-4.3,0-8,0.8-11.3,2.3c-3.2,1.5-5.9,3.5-8.1,6
			c-2.2,2.5-3.8,5.3-4.9,8.4c-1.1,3.1-1.6,6.3-1.6,9.6c0,1.4,0.2,3,0.6,5c0.4,1.9,1.3,3.8,2.6,5.6c1.3,1.8,3.2,3.3,5.7,4.5
			c2.5,1.2,5.8,1.9,10,1.9c4,0,7.6-0.7,10.8-2.1c3.2-1.4,5.9-3.3,8.1-5.7s3.9-5.1,5.1-8.2c1.2-3.1,1.7-6.3,1.7-9.6
			c0-2.2-0.3-4.4-1-6.5C556.2,28.2,555.2,26.4,553.7,24.7z M539.3,40.7c-0.4,2-0.8,3.8-1.2,5.2c-0.1,0.5-0.3,1.1-0.6,1.6
			c-0.2,0.6-0.5,1.1-0.9,1.5c-0.3,0.5-0.7,0.9-1.2,1.1c-0.5,0.3-1,0.4-1.7,0.4c-0.5,0-1.1-0.2-1.6-0.7c-0.6-0.5-0.8-1.5-0.8-3.1
			c0-0.8,0.1-1.8,0.2-3c0.1-1.2,0.3-2.3,0.5-3.5c0.2-1.2,0.5-2.3,0.7-3.3c0.3-1.1,0.5-1.9,0.8-2.5c0.1-0.3,0.3-0.6,0.5-1
			c0.2-0.4,0.4-0.8,0.7-1.1c0.3-0.3,0.7-0.6,1.1-0.9c0.4-0.2,0.9-0.4,1.4-0.4c0.6,0,1.1,0.1,1.5,0.4c0.4,0.3,0.6,0.6,0.8,1.1
			c0.2,0.4,0.3,0.9,0.3,1.3c0,0.4,0.1,0.8,0.1,1.1C539.9,36.7,539.7,38.6,539.3,40.7z"/>
		<path d="M600.2,22.8c-1.4-1.1-3.1-2-5.3-2.6c-2.2-0.7-4.8-1-7.8-1c-3.8,0-7.2,0.7-10.3,2c-3.1,1.4-5.7,3.2-7.9,5.6
			c-2.2,2.4-3.9,5.1-5.1,8.2c-1.2,3.1-1.8,6.4-1.8,10c0,2.7,0.4,5.1,1.1,7.2c0.7,2.2,1.9,4,3.4,5.5c1.6,1.5,3.6,2.6,6,3.4
			c2.5,0.8,5.4,1.2,8.9,1.2c2.3,0,4.9-0.2,7.7-0.5c2.8-0.3,5.7-1,8.7-1.9l1.9-10.7c-0.9,0.4-2,0.7-3.2,1.1c-1.2,0.3-2.4,0.6-3.7,0.9
			c-1.3,0.3-2.5,0.5-3.8,0.6c-1.3,0.2-2.4,0.2-3.4,0.2c-2.4,0-4.1-0.5-5.2-1.5c-1.1-1-1.7-2.3-1.9-4.1c5.3-0.3,9.6-0.9,12.9-1.8
			c3.3-0.9,5.9-2,7.8-3.3c1.9-1.3,3.2-2.9,3.9-4.6c0.7-1.8,1-3.7,1-5.7c0-1.5-0.3-3-1-4.5C602.6,25.2,601.6,24,600.2,22.8z
			 M589.2,33.8c-0.3,0.6-0.8,1.2-1.5,1.7c-0.8,0.5-1.8,1-3.1,1.4c-1.3,0.4-3.1,0.7-5.2,0.9c0.6-3.2,1.6-5.5,2.9-6.9
			c1.3-1.4,2.7-2,4.3-2c1.1,0,1.9,0.3,2.4,0.8c0.5,0.6,0.8,1.3,0.8,2.2C589.6,32.5,589.4,33.2,589.2,33.8z"/>
		<path d="M660.3,36c1.4-1.9,2.1-4.1,2.1-6.7c0-1.2-0.2-2.3-0.7-3.5c-0.4-1.2-1.2-2.3-2.3-3.3c-1.1-1-2.6-1.8-4.6-2.4
			c-1.9-0.6-4.4-0.9-7.4-0.9c-2.9,0-5.6,0.2-8.3,0.5c-2.7,0.3-5.5,1-8.5,2l-1.9,10.7c1.7-0.8,3.6-1.6,5.7-2.2
			c2.1-0.6,4.3-0.9,6.6-0.9c0.3,0,0.8,0,1.3,0.1c0.6,0.1,1.2,0.2,1.7,0.4c0.6,0.2,1.1,0.5,1.5,1c0.4,0.4,0.6,1.1,0.6,1.9
			c0,0.3,0,0.6-0.1,1c-0.1,0.4-0.3,0.8-0.6,1.3c-0.3,0.4-0.8,0.8-1.5,1.1c-0.7,0.3-1.6,0.4-2.8,0.4h-6.6l-1.3,7.9h5.7
			c0.2,0,0.6,0,1.1,0c0.5,0,1,0.1,1.5,0.4c0.5,0.2,0.9,0.5,1.3,1c0.4,0.4,0.6,1.1,0.6,1.9c0,0.4-0.1,0.9-0.2,1.5
			c-0.2,0.6-0.5,1.1-0.9,1.5c-0.4,0.5-1.1,0.9-1.9,1.2c-0.8,0.3-1.9,0.5-3.2,0.5c-1.7,0-3.5-0.2-5.6-0.7c-2.1-0.5-4.2-1.4-6.4-2.6
			l-1.9,10.7c3.2,1.2,6.1,2,8.6,2.2c2.5,0.3,4.7,0.4,6.7,0.4c3.5,0,6.5-0.3,9-0.9c2.5-0.6,4.6-1.4,6.3-2.3c1.7-0.9,3-2,4-3.1
			c1-1.2,1.7-2.3,2.1-3.4c0.5-1.1,0.8-2.1,0.9-3c0.1-0.9,0.2-1.6,0.2-2.2c0-1.9-0.5-3.7-1.5-5.1c-1-1.5-2.5-2.3-4.5-2.4v-0.2
			C657.1,39.2,658.9,38,660.3,36z"/>
		<path d="M710.2,30.3c-0.6-2.1-1.7-4-3.2-5.6c-1.5-1.7-3.4-3-5.8-4c-2.4-1-5.3-1.5-8.8-1.5c-4.3,0-8,0.8-11.3,2.3
			c-3.2,1.5-5.9,3.5-8.1,6c-2.2,2.5-3.8,5.3-4.9,8.4c-1.1,3.1-1.6,6.3-1.6,9.6c0,1.4,0.2,3,0.6,5c0.4,1.9,1.3,3.8,2.6,5.6
			c1.3,1.8,3.2,3.3,5.7,4.5c2.5,1.2,5.8,1.9,10,1.9c4,0,7.6-0.7,10.8-2.1c3.2-1.4,5.9-3.3,8.1-5.7c2.2-2.4,3.9-5.1,5.1-8.2
			c1.2-3.1,1.7-6.3,1.7-9.6C711.1,34.6,710.8,32.4,710.2,30.3z M692.6,40.7c-0.4,2-0.8,3.8-1.2,5.2c-0.1,0.5-0.3,1.1-0.6,1.6
			c-0.2,0.6-0.5,1.1-0.9,1.5c-0.3,0.5-0.7,0.9-1.2,1.1c-0.5,0.3-1,0.4-1.7,0.4c-0.5,0-1.1-0.2-1.6-0.7c-0.6-0.5-0.8-1.5-0.8-3.1
			c0-0.8,0.1-1.8,0.2-3c0.1-1.2,0.3-2.3,0.5-3.5c0.2-1.2,0.5-2.3,0.7-3.3c0.3-1.1,0.5-1.9,0.8-2.5c0.1-0.3,0.3-0.6,0.5-1
			c0.2-0.4,0.4-0.8,0.7-1.1c0.3-0.3,0.7-0.6,1.1-0.9c0.4-0.2,0.9-0.4,1.4-0.4c0.6,0,1.1,0.1,1.5,0.4c0.4,0.3,0.6,0.6,0.8,1.1
			c0.2,0.4,0.3,0.9,0.3,1.3c0,0.4,0.1,0.8,0.1,1.1C693.2,36.7,693,38.6,692.6,40.7z"/>
		<path d="M722.4,32.3c-0.8,4.2-1.4,7.5-1.9,9.9c-0.5,2.4-1.1,4.2-1.6,5.5c-0.5,1.2-1,2-1.6,2.4c-0.5,0.3-1.2,0.5-1.9,0.5
			c-0.8,0-1.5-0.1-1.9-0.2c-0.3-0.1-0.5-0.2-0.7-0.3l-1.9,11c0.7,0.3,1.5,0.5,2.3,0.7c0.7,0.2,1.5,0.3,2.4,0.4
			c0.9,0.1,1.9,0.2,3,0.2c1.7,0,3.2-0.1,4.6-0.4c1.3-0.2,2.6-0.7,3.7-1.5c1.1-0.7,2.1-1.8,3-3.1c0.9-1.3,1.7-3.1,2.5-5.2
			c0.8-2.2,1.6-4.8,2.3-8c0.7-3.2,1.5-6.9,2.3-11.2l0.2-1.1h5.8l-5.1,29.5h16.9l7.2-41.3h-37.5L722.4,32.3z"/>
		<path d="M805.4,24.7c-1.5-1.7-3.4-3-5.8-4c-2.4-1-5.3-1.5-8.8-1.5c-4.3,0-8,0.8-11.3,2.3c-3.2,1.5-5.9,3.5-8.1,6
			c-2.2,2.5-3.8,5.3-4.9,8.4c-1.1,3.1-1.6,6.3-1.6,9.6c0,1.4,0.2,3,0.6,5c0.4,1.9,1.3,3.8,2.6,5.6c1.3,1.8,3.2,3.3,5.7,4.5
			c2.5,1.2,5.8,1.9,10,1.9c4,0,7.6-0.7,10.8-2.1c3.2-1.4,5.9-3.3,8.1-5.7c2.2-2.4,3.9-5.1,5.1-8.2c1.2-3.1,1.7-6.3,1.7-9.6
			c0-2.2-0.3-4.4-1-6.5C807.9,28.2,806.8,26.4,805.4,24.7z M791,40.7c-0.4,2-0.8,3.8-1.2,5.2c-0.1,0.5-0.3,1.1-0.6,1.6
			c-0.2,0.6-0.5,1.1-0.9,1.5c-0.3,0.5-0.7,0.9-1.2,1.1c-0.5,0.3-1,0.4-1.7,0.4c-0.5,0-1.1-0.2-1.6-0.7c-0.6-0.5-0.8-1.5-0.8-3.1
			c0-0.8,0.1-1.8,0.2-3c0.1-1.2,0.3-2.3,0.5-3.5c0.2-1.2,0.5-2.3,0.7-3.3c0.3-1.1,0.5-1.9,0.8-2.5c0.1-0.3,0.3-0.6,0.5-1
			c0.2-0.4,0.4-0.8,0.7-1.1c0.3-0.3,0.7-0.6,1.1-0.9c0.4-0.2,0.9-0.4,1.4-0.4c0.6,0,1.1,0.1,1.5,0.4c0.4,0.3,0.6,0.6,0.8,1.1
			c0.2,0.4,0.3,0.9,0.3,1.3c0,0.4,0.1,0.8,0.1,1.1C791.6,36.7,791.4,38.6,791,40.7z"/>
		<polygon points="815.1,20.2 813,32 822.4,32 817.3,61.5 834.2,61.5 839.2,32 848.6,32 850.7,20.2 		"/>
		<path d="M893.3,30.3c-0.6-2.1-1.7-4-3.2-5.6c-1.5-1.7-3.4-3-5.8-4c-2.4-1-5.3-1.5-8.8-1.5c-4.3,0-8,0.8-11.3,2.3
			c-3.2,1.5-5.9,3.5-8.1,6c-2.2,2.5-3.8,5.3-4.9,8.4c-1.1,3.1-1.6,6.3-1.6,9.6c0,1.4,0.2,3,0.6,5c0.4,1.9,1.3,3.8,2.6,5.6
			c1.3,1.8,3.2,3.3,5.7,4.5c2.5,1.2,5.8,1.9,10,1.9c4,0,7.6-0.7,10.8-2.1c3.2-1.4,5.9-3.3,8.1-5.7c2.2-2.4,3.9-5.1,5.1-8.2
			c1.2-3.1,1.7-6.3,1.7-9.6C894.2,34.6,893.9,32.4,893.3,30.3z M875.7,40.7c-0.4,2-0.8,3.8-1.2,5.2c-0.1,0.5-0.3,1.1-0.6,1.6
			c-0.2,0.6-0.5,1.1-0.9,1.5c-0.3,0.5-0.7,0.9-1.2,1.1c-0.5,0.3-1,0.4-1.7,0.4c-0.5,0-1.1-0.2-1.6-0.7c-0.6-0.5-0.8-1.5-0.8-3.1
			c0-0.8,0.1-1.8,0.2-3c0.1-1.2,0.3-2.3,0.5-3.5c0.2-1.2,0.5-2.3,0.7-3.3c0.3-1.1,0.5-1.9,0.8-2.5c0.1-0.3,0.3-0.6,0.5-1
			c0.2-0.4,0.4-0.8,0.7-1.1c0.3-0.3,0.7-0.6,1.1-0.9c0.4-0.2,0.9-0.4,1.4-0.4c0.6,0,1.1,0.1,1.5,0.4c0.4,0.3,0.6,0.6,0.8,1.1
			c0.2,0.4,0.3,0.9,0.3,1.3c0,0.4,0.1,0.8,0.1,1.1C876.3,36.7,876.1,38.6,875.7,40.7z"/>
	</g>
	<g>
		<path d="M166.3,108.8c0-2.3-0.3-4.6-0.9-7.1c-0.6-2.5-1.8-4.8-3.4-6.9c-1.7-2.1-3.9-3.9-6.8-5.3c-2.9-1.4-6.5-2.1-10.9-2.1
			c-4.3,0-8.1,0.6-11.3,1.9c-3.3,1.2-6.1,2.9-8.4,4.9c-2.3,2-4.3,4.3-5.9,6.9c-1.6,2.6-2.8,5.2-3.8,7.8c-0.9,2.6-1.6,5.2-2,7.7
			c-0.4,2.5-0.6,4.7-0.6,6.5c0,2.5,0.3,5.1,1,7.6c0.7,2.5,1.9,4.8,3.5,6.9c1.7,2,3.9,3.7,6.7,5c2.8,1.3,6.3,1.9,10.4,1.9
			c4.4,0,8.2-0.6,11.6-1.9c3.3-1.3,6.2-2.9,8.6-4.9c2.4-2,4.4-4.3,5.9-6.9c1.6-2.5,2.8-5.1,3.7-7.8c0.9-2.7,1.6-5.2,1.9-7.7
			C166.2,112.8,166.3,110.6,166.3,108.8z M147.3,111.7c-0.1,1.3-0.3,2.7-0.6,4.1c-0.2,1.4-0.5,2.7-0.8,3.9s-0.5,2.3-0.8,3.1
			c-0.5,1.7-1.2,3.1-1.9,4.2c-0.7,1.1-1.5,1.9-2.2,2.6c-0.8,0.6-1.5,1.1-2.3,1.3s-1.4,0.4-2,0.4c-0.4,0-0.8-0.1-1.5-0.2
			c-0.6-0.1-1.2-0.4-1.8-0.9c-0.6-0.5-1.1-1.3-1.5-2.3c-0.4-1-0.6-2.4-0.6-4.2c0-1.1,0.1-2.3,0.2-3.6c0.1-1.3,0.3-2.6,0.5-3.9
			c0.2-1.3,0.5-2.6,0.8-3.8c0.3-1.2,0.6-2.3,0.8-3.2c0.6-1.8,1.3-3.3,2.1-4.4c0.8-1.1,1.5-2,2.3-2.6c0.8-0.6,1.5-1,2.2-1.2
			c0.7-0.2,1.3-0.3,1.8-0.3c0.4,0,0.9,0.1,1.6,0.2c0.6,0.2,1.2,0.5,1.8,1c0.6,0.5,1,1.2,1.5,2.2c0.4,1,0.6,2.3,0.6,4
			C147.5,109.1,147.4,110.3,147.3,111.7z"/>
		<path d="M175.4,114.3c-0.8,4.2-1.4,7.5-1.9,9.9c-0.5,2.4-1.1,4.2-1.6,5.5c-0.5,1.2-1,2-1.6,2.4c-0.5,0.3-1.2,0.5-1.9,0.5
			c-0.8,0-1.5-0.1-1.9-0.2c-0.3-0.1-0.5-0.2-0.7-0.3l-1.9,11c0.7,0.3,1.5,0.5,2.3,0.7c0.7,0.2,1.5,0.3,2.4,0.4
			c0.9,0.1,1.9,0.2,3,0.2c1.7,0,3.2-0.1,4.6-0.4c1.3-0.2,2.6-0.7,3.7-1.5c1.1-0.7,2.1-1.8,3-3.1c0.9-1.3,1.7-3.1,2.5-5.2
			c0.8-2.2,1.6-4.8,2.3-8c0.7-3.2,1.5-6.9,2.3-11.2l0.2-1.1h5.8l-5.1,29.5h16.9l7.2-41.3h-37.5L175.4,114.3z"/>
		<path d="M242.4,126c-0.1,0.5-0.2,1-0.3,1.7c-0.1,0.6-0.3,1.2-0.6,1.9c-0.3,0.6-0.7,1.1-1.1,1.5c-0.5,0.4-1.1,0.6-1.8,0.6
			c-0.5,0-0.9-0.1-1.2-0.4c-0.3-0.2-0.5-0.5-0.7-0.8c-0.2-0.3-0.2-0.6-0.3-0.9c0-0.3,0-0.5,0-0.6c0-1.1,0.1-2.1,0.3-3l4.2-23.9h-17
			l-5,28.8c-0.1,0.7-0.2,1.3-0.2,2c-0.1,0.6-0.1,1.3-0.1,2c0,1.7,0.3,3.2,0.8,4.4c0.5,1.2,1.2,2.2,2.1,3c0.9,0.8,1.9,1.3,3.1,1.7
			c1.2,0.3,2.4,0.5,3.8,0.5c0.8,0,1.7-0.1,2.8-0.2c1.1-0.1,2.2-0.5,3.4-1s2.4-1.4,3.6-2.4c1.2-1,2.4-2.5,3.4-4.4h0.1l-1.2,7.1h15.9
			l7.2-41.3h-16.9L242.4,126z"/>
		<polygon points="292.3,123.8 290.2,102.2 272.2,102.2 265,143.5 278.4,143.5 282.3,120.8 282.5,120.8 284,135.6 295.8,135.6 
			302.3,120.8 302.6,120.8 298.7,143.5 312.1,143.5 319.2,102.2 301.8,102.2 		"/>
		<path d="M364.7,105.8c-0.3-0.5-0.6-1-1.1-1.5c-0.5-0.5-1.1-1-1.8-1.5c-0.7-0.5-1.6-0.9-2.5-1.1c-1-0.3-2.1-0.4-3.5-0.4
			c-3,0-5.6,0.8-7.7,2.3c-2.1,1.6-3.8,3.5-5.1,5.8h-0.3l1.3-7.2H328l-7.2,41.3h16.9l4.1-23.8c0.4-2.5,1-4.1,1.9-4.9
			c0.5-0.5,1.2-0.7,2-0.7s1.4,0.3,1.8,0.8c0.4,0.5,0.6,1.2,0.6,2c0,0.5,0,0.9-0.1,1.4c-0.1,0.4-0.1,0.9-0.2,1.4l-4.1,23.8h16.9
			l5-28.7c0.1-0.7,0.2-1.3,0.3-2c0.1-0.6,0.1-1.3,0.1-1.9c0-0.9-0.1-1.8-0.3-2.7C365.4,107.3,365.1,106.5,364.7,105.8z"/>
		<path d="M395.1,126c-0.1,0.5-0.2,1-0.3,1.7c-0.1,0.6-0.3,1.2-0.6,1.9c-0.3,0.6-0.7,1.1-1.1,1.5c-0.5,0.4-1.1,0.6-1.8,0.6
			c-0.5,0-0.9-0.1-1.2-0.4c-0.3-0.2-0.5-0.5-0.7-0.8c-0.2-0.3-0.2-0.6-0.3-0.9c0-0.3,0-0.5,0-0.6c0-1.1,0.1-2.1,0.3-3l4.2-23.9h-17
			l-5,28.8c-0.1,0.7-0.2,1.3-0.2,2s-0.1,1.3-0.1,2c0,1.7,0.3,3.2,0.8,4.4c0.5,1.2,1.2,2.2,2.1,3c0.9,0.8,1.9,1.3,3.1,1.7
			c1.2,0.3,2.4,0.5,3.8,0.5c0.8,0,1.7-0.1,2.8-0.2c1.1-0.1,2.2-0.5,3.4-1c1.2-0.6,2.4-1.4,3.6-2.4c1.2-1,2.4-2.5,3.4-4.4h0.1
			l-1.2,7.1h15.9l7.2-41.3h-16.9L395.1,126z"/>
		<path d="M449.1,102.2l-0.9,5.3c-0.3-0.6-0.6-1.2-1.1-2c-0.4-0.7-1-1.4-1.8-2c-0.8-0.6-1.7-1.2-2.8-1.6c-1.1-0.4-2.4-0.6-4-0.6
			c-3.3,0-6.2,0.9-8.6,2.6c-2.5,1.7-4.5,3.9-6.1,6.6c-1.6,2.7-2.8,5.7-3.6,8.9c-0.8,3.3-1.2,6.5-1.2,9.7c0,4.6,1,8.3,3.1,11.1
			c2.1,2.8,5,4.2,8.9,4.2c3.1,0,5.7-0.7,7.9-2.2c2.2-1.5,4-3.4,5.3-5.8h0.3l-1.2,7h15.7l7.1-41.3H449.1z M446.2,122.3
			c-0.3,1.6-0.6,3-1.1,4.2c-0.4,1.1-0.8,1.9-1.2,2.5c-0.4,0.6-0.9,1.1-1.3,1.4c-0.4,0.3-0.8,0.5-1.2,0.6c-0.4,0.1-0.7,0.1-1,0.1
			s-0.6-0.1-0.9-0.2c-0.4-0.1-0.7-0.3-1-0.6c-0.3-0.3-0.6-0.8-0.8-1.4c-0.2-0.6-0.3-1.5-0.3-2.5c0-1.5,0.2-3.2,0.6-5
			c0.4-1.9,0.9-3.4,1.5-4.6c0.1-0.2,0.3-0.5,0.5-0.9c0.2-0.4,0.5-0.7,0.8-1.1c0.3-0.4,0.7-0.7,1.2-0.9c0.5-0.2,1-0.4,1.6-0.4
			c0.2,0,0.5,0,0.9,0.1c0.4,0.1,0.7,0.3,1,0.6c0.3,0.3,0.6,0.8,0.9,1.4c0.2,0.6,0.4,1.4,0.4,2.5
			C446.6,119.3,446.4,120.8,446.2,122.3z"/>
		<path d="M498.4,109.9h-0.3c-0.3-2.7-1.4-4.8-3.1-6.4c-1.8-1.5-4.1-2.3-6.8-2.3c-3,0-5.7,0.8-8.2,2.5c-2.4,1.7-4.5,3.8-6.1,6.4
			c-1.7,2.6-3,5.6-3.9,9c-0.9,3.4-1.4,6.7-1.4,10.1c0,4.3,1.1,7.8,3.3,10.4c2.2,2.6,5.3,3.9,9.4,3.9c0.8,0,1.6-0.1,2.5-0.2
			c0.9-0.2,1.8-0.5,2.8-0.9s2-1,3.1-1.8c1.1-0.8,2.2-1.8,3.3-3h0.3l-0.5,2c-0.8,3.4-2.2,6-4.3,7.7c-2.1,1.8-4.9,2.7-8.5,2.7
			c-1.9,0-3.9-0.4-6-1.1c-2.2-0.8-4.2-1.8-6.2-3.1l-2.3,13c3.6,1.3,6.7,2.2,9.3,2.5c2.6,0.4,4.9,0.6,7,0.6c2.9,0,5.8-0.3,8.7-0.8
			c2.9-0.5,5.7-1.6,8.2-3.3c2.5-1.7,4.8-4.1,6.8-7.3c2-3.2,3.4-7.5,4.4-12.8l6.2-35.3h-16L498.4,109.9z M495.8,122.4
			c-0.2,1.2-0.5,2.2-0.8,3.1c-0.4,1.3-1,2.5-1.7,3.6c-0.7,1.1-1.8,1.6-3.3,1.6c-1,0-1.8-0.3-2.4-1c-0.6-0.7-0.9-1.7-0.9-2.9
			c0-1.5,0.1-2.9,0.4-4.2c0.2-1.3,0.5-2.4,0.8-3.4c0.4-1.3,1-2.5,1.7-3.6c0.7-1.1,1.8-1.6,3.3-1.6c0.9,0,1.7,0.3,2.3,1
			c0.6,0.7,0.9,1.9,0.9,3.5C496.2,119.9,496.1,121.2,495.8,122.4z"/>
		<polygon points="560.3,143.5 577.2,143.5 584.4,102.2 567.5,102.2 		"/>
		<path d="M556.4,117.3c-1.1-1-2.6-1.7-4.5-2.2c-1.9-0.5-4.1-0.8-6.9-0.8h-5.9l2.1-12.1h-16.9l-7,41.3h22.8c3.3,0,6.3-0.4,8.7-1.3
			c2.5-0.9,4.5-2.1,6.1-3.7s2.8-3.5,3.6-5.7c0.8-2.2,1.2-4.7,1.2-7.5c0-1.6-0.3-3.1-0.8-4.5C558.3,119.5,557.5,118.3,556.4,117.3z
			 M541.2,132.1c-0.9,1.1-2.1,1.6-3.5,1.6h-2.2l1.6-9.3h2.2c2.2,0,3.3,1.1,3.3,3.2C542.5,129.5,542.1,131,541.2,132.1z"/>
		<polygon points="589.9,127.7 612.5,127.7 615.4,111.9 592.8,111.9 		"/>
		<path d="M661.8,92.2c-1.4-1.4-3.2-2.6-5.6-3.5c-2.4-0.9-5.5-1.3-9.3-1.3c-2.4,0-4.8,0.1-7.3,0.4c-2.5,0.2-5.1,0.7-7.9,1.4
			l-2.5,14.4c2.3-1,4.3-1.7,6-2c1.7-0.3,3.3-0.5,4.6-0.5c1.6,0,2.9,0.2,3.9,0.6c1,0.4,1.8,0.9,2.4,1.5c0.6,0.6,1,1.3,1.2,2
			c0.2,0.7,0.3,1.4,0.3,2.1c0,1.9-0.6,3.8-1.7,5.4c-1.2,1.7-2.6,3.2-4.4,4.6c-1.8,1.4-3.7,2.7-5.7,3.9c-2,1.2-3.9,2.3-5.7,3.2
			l-6.1,3.4l-2.7,15.5h37.1l2.3-13.2h-19.2l0.1-0.2c4.6-2.3,8.4-4.7,11.5-7.1c3.1-2.4,5.5-4.8,7.3-7.2c1.8-2.4,3.1-4.8,3.8-7.1
			c0.7-2.3,1.1-4.6,1.1-6.8c0-1.6-0.2-3.3-0.7-5C664.1,95.2,663.2,93.6,661.8,92.2z"/>
		<path d="M696.8,87.4c-3.2,0-6,0.6-8.5,1.7c-2.5,1.1-4.7,2.6-6.7,4.5c-1.9,1.9-3.6,4.1-5,6.6c-1.4,2.5-2.5,5.3-3.4,8.1
			c-0.9,2.9-1.5,5.8-1.9,8.9c-0.4,3.1-0.6,6.1-0.6,9c0,6.3,1.4,10.9,4.2,13.9c2.8,2.9,6.8,4.4,11.9,4.4c3.1,0,5.9-0.6,8.5-1.7
			c2.5-1.1,4.8-2.6,6.7-4.5c1.9-1.9,3.6-4.1,5-6.6c1.4-2.5,2.5-5.3,3.4-8.1c0.9-2.9,1.5-5.8,1.9-8.9c0.4-3.1,0.6-6.1,0.6-9
			c0-6.4-1.4-11-4.2-13.9C705.9,88.8,701.9,87.4,696.8,87.4z M697.6,114.5c-0.5,3-1.1,5.8-1.9,8.3c-0.8,2.5-1.8,4.7-3,6.3
			c-1.2,1.7-2.4,2.5-3.8,2.5c-1.1,0-2-0.4-2.7-1.1c-0.7-0.8-1-2.3-1-4.6c0-2.7,0.2-5.5,0.7-8.5c0.4-3,1.1-5.8,1.9-8.3
			c0.8-2.6,1.8-4.7,2.9-6.4c1.1-1.7,2.4-2.5,3.7-2.5c0.6,0,1.1,0.1,1.6,0.2c0.5,0.2,0.9,0.5,1.2,0.9c0.3,0.4,0.6,1,0.8,1.8
			c0.2,0.8,0.3,1.7,0.3,2.9C698.3,108.6,698.1,111.5,697.6,114.5z"/>
		<polygon points="719.2,103.7 723.8,115.9 735.9,107.7 729.7,143.5 746.5,143.5 756,88.3 741.6,88.3 		"/>
		<path d="M792.4,123c3.1-2.4,5.5-4.8,7.3-7.2c1.8-2.4,3.1-4.8,3.8-7.1c0.7-2.3,1.1-4.6,1.1-6.8c0-1.6-0.2-3.3-0.7-5
			c-0.5-1.7-1.4-3.3-2.8-4.7c-1.4-1.4-3.2-2.6-5.6-3.5c-2.4-0.9-5.5-1.3-9.3-1.3c-2.4,0-4.8,0.1-7.3,0.4c-2.5,0.2-5.1,0.7-7.9,1.4
			l-2.5,14.4c2.3-1,4.3-1.7,6-2c1.7-0.3,3.3-0.5,4.6-0.5c1.6,0,2.9,0.2,3.9,0.6c1,0.4,1.8,0.9,2.4,1.5c0.6,0.6,1,1.3,1.2,2
			c0.2,0.7,0.3,1.4,0.3,2.1c0,1.9-0.6,3.8-1.7,5.4c-1.2,1.7-2.6,3.2-4.4,4.6c-1.8,1.4-3.7,2.7-5.7,3.9c-2,1.2-3.9,2.3-5.7,3.2
			l-6.1,3.4l-2.7,15.5h37.1l2.3-13.2h-19.2l0.1-0.2C785.6,127.8,789.4,125.4,792.4,123z"/>
	</g>
</g>
</svg>
