<?xml version="1.0" encoding="utf-8"?>
<!-- Generator: Adobe Illustrator 22.0.1, SVG Export Plug-In . SVG Version: 6.00 Build 0)  -->
<svg version="1.1" id="Layer_2_1_" xmlns="http://www.w3.org/2000/svg" xmlns:xlink="http://www.w3.org/1999/xlink" x="0px" y="0px"
	 viewBox="0 0 816.8 247.7" style="enable-background:new 0 0 816.8 247.7;" xml:space="preserve">
<style type="text/css">
	.st0{fill-rule:evenodd;clip-rule:evenodd;fill:#FFFFFF;}
</style>
<g>
	<g>
		<rect x="93.3" y="1.3" class="st0" width="630.3" height="72.2"/>
		<rect y="82.9" class="st0" width="816.8" height="75"/>
		<rect x="189.7" y="166.9" class="st0" width="437.5" height="75"/>
	</g>
	<g>
		<path d="M167.2,10.4c-1.1-1.2-2.5-2.2-4.3-2.9c-1.8-0.8-4-1.1-6.6-1.1h-12h-17l-9.5,55.2h16.9h12.4c3.5,0,6.4-0.5,9-1.6
			c2.5-1.1,4.6-2.5,6.3-4.2c1.6-1.7,2.9-3.6,3.7-5.7c0.8-2.1,1.2-4.1,1.2-6.1c0-1.2-0.2-2.3-0.5-3.5c-0.4-1.2-0.9-2.2-1.6-3.2
			c-0.7-1-1.6-1.8-2.7-2.4c-1.1-0.6-2.3-1-3.8-1.2l0.1-0.3c1.7-0.4,3.2-1,4.6-1.9c1.4-0.9,2.7-2,3.7-3.3c1-1.3,1.8-2.8,2.4-4.4
			c0.6-1.6,0.9-3.3,0.9-5.1c0-1.4-0.2-2.9-0.7-4.3C169.1,12.9,168.3,11.5,167.2,10.4z M148.6,45.9c-0.2,0.8-0.7,1.5-1.3,2.1
			c-0.6,0.7-1.4,1.2-2.4,1.6c-1,0.4-2.3,0.6-3.8,0.6h-4.6l1.9-11.3h4.8c0.9,0,1.8,0.1,2.8,0.3c1,0.2,1.7,0.9,2.4,2.1
			c0.4,0.7,0.5,1.5,0.5,2.4C149,44.4,148.9,45.1,148.6,45.9z M150.6,26.2c-1.3,1.3-3.3,1.9-6,1.9h-4.3l1.9-10.6h4.7
			c1.4,0,2.4,0.2,3.2,0.6c0.7,0.4,1.3,0.8,1.7,1.3c0.4,0.5,0.6,1,0.6,1.5c0.1,0.5,0.1,0.9,0.1,1.2C152.5,23.6,151.9,25,150.6,26.2z"
			/>
		<path d="M217,30.3c-0.6-2.1-1.7-4-3.2-5.6c-1.5-1.7-3.4-3-5.8-4c-2.4-1-5.3-1.5-8.8-1.5c-4.3,0-8,0.8-11.3,2.3
			c-3.2,1.5-5.9,3.5-8.1,6c-2.2,2.5-3.8,5.3-4.9,8.4c-1.1,3.1-1.6,6.3-1.6,9.6c0,1.4,0.2,3,0.6,5c0.4,1.9,1.3,3.8,2.6,5.6
			c1.3,1.8,3.2,3.3,5.7,4.5c2.5,1.2,5.8,1.9,10,1.9c4,0,7.6-0.7,10.8-2.1c3.2-1.4,5.9-3.3,8.1-5.7s3.9-5.1,5.1-8.2
			c1.2-3.1,1.7-6.3,1.7-9.6C217.9,34.6,217.6,32.4,217,30.3z M199.4,40.7c-0.4,2-0.8,3.8-1.2,5.2c-0.1,0.5-0.3,1.1-0.6,1.6
			c-0.2,0.6-0.5,1.1-0.9,1.5c-0.3,0.5-0.7,0.9-1.2,1.1c-0.5,0.3-1,0.4-1.7,0.4c-0.5,0-1.1-0.2-1.6-0.7c-0.6-0.5-0.8-1.5-0.8-3.1
			c0-0.8,0.1-1.8,0.2-3c0.1-1.2,0.3-2.3,0.5-3.5c0.2-1.2,0.5-2.3,0.7-3.3c0.3-1.1,0.5-1.9,0.8-2.5c0.1-0.3,0.3-0.6,0.5-1
			c0.2-0.4,0.4-0.8,0.7-1.1c0.3-0.3,0.7-0.6,1.1-0.9c0.4-0.2,0.9-0.4,1.4-0.4c0.6,0,1.1,0.1,1.5,0.4c0.4,0.3,0.6,0.6,0.8,1.1
			c0.2,0.4,0.3,0.9,0.3,1.3c0,0.4,0.1,0.8,0.1,1.1C200,36.7,199.8,38.6,199.4,40.7z"/>
		<path d="M229.3,32.3c-0.8,4.2-1.4,7.5-1.9,9.9c-0.5,2.4-1.1,4.2-1.6,5.5c-0.5,1.2-1,2-1.6,2.4c-0.5,0.3-1.2,0.5-1.9,0.5
			c-0.8,0-1.5-0.1-1.9-0.2c-0.3-0.1-0.5-0.2-0.7-0.3l-1.9,11c0.7,0.3,1.5,0.5,2.3,0.7c0.7,0.2,1.5,0.3,2.4,0.4
			c0.9,0.1,1.9,0.2,3,0.2c1.7,0,3.2-0.1,4.6-0.4c1.3-0.2,2.6-0.7,3.7-1.5c1.1-0.7,2.1-1.8,3-3.1c0.9-1.3,1.7-3.1,2.5-5.2
			c0.8-2.2,1.6-4.8,2.3-8c0.7-3.2,1.5-6.9,2.3-11.2l0.2-1.1h5.8l-5.1,29.5h16.9l7.2-41.3h-37.5L229.3,32.3z"/>
		<path d="M310,22.8c-1.4-1.1-3.1-2-5.3-2.6c-2.2-0.7-4.8-1-7.8-1c-3.8,0-7.2,0.7-10.3,2c-3.1,1.4-5.7,3.2-7.9,5.6
			c-2.2,2.4-3.9,5.1-5.1,8.2c-1.2,3.1-1.8,6.4-1.8,10c0,2.7,0.4,5.1,1.1,7.2c0.7,2.2,1.9,4,3.4,5.5c1.6,1.5,3.6,2.6,6,3.4
			c2.5,0.8,5.4,1.2,8.9,1.2c2.3,0,4.9-0.2,7.7-0.5c2.8-0.3,5.7-1,8.7-1.9l1.9-10.7c-0.9,0.4-2,0.7-3.2,1.1c-1.2,0.3-2.4,0.6-3.7,0.9
			c-1.3,0.3-2.5,0.5-3.8,0.6c-1.3,0.2-2.4,0.2-3.4,0.2c-2.4,0-4.1-0.5-5.2-1.5c-1.1-1-1.7-2.3-1.9-4.1c5.3-0.3,9.6-0.9,12.9-1.8
			c3.3-0.9,5.9-2,7.8-3.3c1.9-1.3,3.2-2.9,3.9-4.6c0.7-1.8,1-3.7,1-5.7c0-1.5-0.3-3-1-4.5C312.4,25.2,311.4,24,310,22.8z M299,33.8
			c-0.3,0.6-0.8,1.2-1.5,1.7c-0.8,0.5-1.8,1-3.1,1.4c-1.3,0.4-3.1,0.7-5.2,0.9c0.6-3.2,1.6-5.5,2.9-6.9c1.3-1.4,2.7-2,4.3-2
			c1.1,0,1.9,0.3,2.4,0.8c0.5,0.6,0.8,1.3,0.8,2.2C299.4,32.5,299.2,33.2,299,33.8z"/>
		<path d="M344.2,15.8c4.3,0,7.8-1.1,10.3-3.3c2.5-2.2,4.2-5.4,5.1-9.5l-7.8-1.4c-0.5,2.1-1.3,3.6-2.3,4.4c-1,0.8-2.3,1.3-3.8,1.3
			c-1.5,0-2.6-0.4-3.3-1.1c-0.8-0.7-1.1-1.9-1.1-3.6c0-0.2,0-0.3,0-0.5c0-0.2,0-0.3,0-0.6L333.1,3c-0.1,0.9-0.2,1.8-0.2,2.7
			c0,3.3,0.9,5.8,2.7,7.5C337.4,14.9,340.3,15.8,344.2,15.8z"/>
		<path d="M342.5,44c-0.1,0.5-0.2,1-0.3,1.7c-0.1,0.6-0.3,1.2-0.6,1.9c-0.3,0.6-0.7,1.1-1.1,1.5c-0.5,0.4-1.1,0.6-1.8,0.6
			c-0.5,0-0.9-0.1-1.2-0.4c-0.3-0.2-0.5-0.5-0.7-0.8c-0.2-0.3-0.2-0.6-0.3-0.9c0-0.3,0-0.5,0-0.6c0-1.1,0.1-2.1,0.3-3l4.2-23.9h-17
			l-5,28.8c-0.1,0.7-0.2,1.3-0.2,2s-0.1,1.3-0.1,2c0,1.7,0.3,3.2,0.8,4.4c0.5,1.2,1.2,2.2,2.1,3c0.9,0.8,1.9,1.3,3.1,1.7
			c1.2,0.3,2.4,0.5,3.8,0.5c0.8,0,1.7-0.1,2.8-0.2c1.1-0.1,2.2-0.5,3.4-1c1.2-0.6,2.4-1.4,3.6-2.4c1.2-1,2.4-2.5,3.4-4.4h0.1
			l-1.2,7.1h15.9l7.2-41.3h-16.9L342.5,44z"/>
		<path d="M403.8,2.8c-1.9,0.2-3.8,0.4-5.7,0.6c-1.9,0.2-3.8,0.4-5.7,0.8c-1.9,0.4-3.7,0.9-5.6,1.6c-1.9,0.7-3.7,1.7-5.5,2.9
			c-2.4,1.6-4.5,3.8-6.4,6.5c-1.8,2.7-3.4,5.6-4.6,8.8c-1.2,3.2-2.2,6.6-2.8,10c-0.6,3.5-1,6.8-1,10c0,1.7,0.2,3.7,0.6,5.8
			c0.4,2.2,1.2,4.2,2.4,6c1.2,1.9,3.1,3.4,5.5,4.7c2.4,1.3,5.6,1.9,9.6,1.9c4.8,0,8.9-0.8,12.2-2.4c3.3-1.6,6-3.6,8-5.9
			c2-2.4,3.5-5,4.4-7.8c0.9-2.8,1.3-5.4,1.3-7.8c0-2.7-0.4-5-1.2-6.9c-0.8-1.9-2-3.5-3.4-4.8c-1.5-1.3-3.2-2.2-5.2-2.8
			c-2-0.6-4.1-0.9-6.4-0.9c-1,0-2.1,0.1-3.3,0.3c-1.2,0.2-2.4,0.5-3.7,1.1c-1.3,0.5-2.6,1.3-3.9,2.2c-1.3,1-2.5,2.2-3.6,3.8h-0.5
			l0.4-1.9c0.4-1.7,0.9-3.1,1.5-4.3c0.6-1.2,1.4-2.1,2.2-2.9c0.8-0.8,1.7-1.4,2.6-1.8c0.9-0.4,1.7-0.8,2.5-1.1
			c1.8-0.6,3.7-1,5.8-1.2c2.1-0.2,4.3-0.4,6.7-0.6c1.2-0.1,2.3-0.1,3.2-0.3c1-0.1,1.8-0.3,2.6-0.5c0.8-0.2,1.6-0.4,2.3-0.7
			c0.7-0.3,1.4-0.7,2.1-1.2L413.9,0c-1.8,0.9-3.5,1.5-5,1.9C407.4,2.3,405.7,2.5,403.8,2.8z M384.2,44.8c0.1-0.8,0.2-1.6,0.3-2.4
			c0.1-0.8,0.3-1.6,0.5-2.4c0.2-0.8,0.4-1.4,0.5-1.9c0.5-1.6,1.2-2.6,1.9-3.2c0.7-0.5,1.4-0.8,2.1-0.8c0.6,0,1.1,0.1,1.5,0.4
			c0.4,0.2,0.6,0.6,0.8,0.9s0.3,0.8,0.4,1.3c0,0.4,0.1,0.9,0.1,1.2c0,1.5-0.1,3-0.4,4.4c-0.1,0.9-0.3,1.8-0.5,2.8
			c-0.2,1-0.5,1.9-0.9,2.6c-0.4,0.8-0.9,1.4-1.4,2c-0.6,0.5-1.3,0.8-2.1,0.8c-1.2,0-2-0.4-2.3-1.3c-0.3-0.8-0.5-1.7-0.5-2.5
			C384.1,46.3,384.1,45.6,384.2,44.8z"/>
		<path d="M458.7,30.3c-0.6-2.1-1.7-4-3.2-5.6c-1.5-1.7-3.4-3-5.8-4c-2.4-1-5.3-1.5-8.8-1.5c-4.3,0-8,0.8-11.3,2.3
			c-3.2,1.5-5.9,3.5-8.1,6c-2.2,2.5-3.8,5.3-4.9,8.4c-1.1,3.1-1.6,6.3-1.6,9.6c0,1.4,0.2,3,0.6,5c0.4,1.9,1.3,3.8,2.6,5.6
			c1.3,1.8,3.2,3.3,5.7,4.5c2.5,1.2,5.8,1.9,10,1.9c4,0,7.6-0.7,10.8-2.1c3.2-1.4,5.9-3.3,8.1-5.7s3.9-5.1,5.1-8.2
			c1.2-3.1,1.7-6.3,1.7-9.6C459.6,34.6,459.3,32.4,458.7,30.3z M441.1,40.7c-0.4,2-0.8,3.8-1.2,5.2c-0.1,0.5-0.3,1.1-0.6,1.6
			c-0.2,0.6-0.5,1.1-0.9,1.5c-0.3,0.5-0.7,0.9-1.2,1.1c-0.5,0.3-1,0.4-1.7,0.4c-0.5,0-1.1-0.2-1.6-0.7c-0.6-0.5-0.8-1.5-0.8-3.1
			c0-0.8,0.1-1.8,0.2-3c0.1-1.2,0.3-2.3,0.5-3.5c0.2-1.2,0.5-2.3,0.7-3.3c0.3-1.1,0.5-1.9,0.8-2.5c0.1-0.3,0.3-0.6,0.5-1
			c0.2-0.4,0.4-0.8,0.7-1.1c0.3-0.3,0.7-0.6,1.1-0.9c0.4-0.2,0.9-0.4,1.4-0.4c0.6,0,1.1,0.1,1.5,0.4c0.4,0.3,0.6,0.6,0.8,1.1
			c0.2,0.4,0.3,0.9,0.3,1.3c0,0.4,0.1,0.8,0.1,1.1C441.7,36.7,441.5,38.6,441.1,40.7z"/>
		<path d="M471,32.3c-0.8,4.2-1.4,7.5-1.9,9.9c-0.5,2.4-1.1,4.2-1.6,5.5c-0.5,1.2-1,2-1.6,2.4c-0.5,0.3-1.2,0.5-1.9,0.5
			c-0.8,0-1.5-0.1-1.9-0.2c-0.3-0.1-0.5-0.2-0.7-0.3l-1.9,11c0.7,0.3,1.5,0.5,2.3,0.7c0.7,0.2,1.5,0.3,2.4,0.4
			c0.9,0.1,1.9,0.2,3,0.2c1.7,0,3.2-0.1,4.6-0.4c1.3-0.2,2.6-0.7,3.7-1.5c1.1-0.7,2.1-1.8,3-3.1c0.9-1.3,1.7-3.1,2.5-5.2
			c0.8-2.2,1.6-4.8,2.3-8s1.5-6.9,2.3-11.2l0.2-1.1h5.8l-5.1,29.5h16.9l7.2-41.3h-37.5L471,32.3z"/>
		<path d="M551.2,35.3c-1.1-1-2.6-1.7-4.5-2.2c-1.9-0.5-4.1-0.8-6.9-0.8H534l2.1-12.1h-16.9l-7,41.3h22.8c3.3,0,6.3-0.4,8.7-1.3
			c2.5-0.9,4.5-2.1,6.1-3.7c1.6-1.6,2.8-3.5,3.6-5.7c0.8-2.2,1.2-4.7,1.2-7.5c0-1.6-0.3-3.1-0.8-4.5
			C553.2,37.5,552.4,36.3,551.2,35.3z M536.1,50.1c-0.9,1.1-2.1,1.6-3.5,1.6h-2.2l1.6-9.3h2.2c2.2,0,3.3,1.1,3.3,3.2
			C537.4,47.5,536.9,49,536.1,50.1z"/>
		<polygon points="585.9,34.4 579.9,34.4 582.4,20.2 565.5,20.2 558.4,61.5 575.2,61.5 577.8,46.3 583.9,46.3 581.3,61.5 
			598.1,61.5 605.3,20.2 588.4,20.2 		"/>
		<path d="M648.6,24.7c-1.5-1.7-3.4-3-5.8-4c-2.4-1-5.3-1.5-8.8-1.5c-4.3,0-8,0.8-11.3,2.3c-3.2,1.5-5.9,3.5-8.1,6
			c-2.2,2.5-3.8,5.3-4.9,8.4c-1.1,3.1-1.6,6.3-1.6,9.6c0,1.4,0.2,3,0.6,5c0.4,1.9,1.3,3.8,2.6,5.6c1.3,1.8,3.2,3.3,5.7,4.5
			c2.5,1.2,5.8,1.9,10,1.9c4,0,7.6-0.7,10.8-2.1c3.2-1.4,5.9-3.3,8.1-5.7c2.2-2.4,3.9-5.1,5.1-8.2c1.2-3.1,1.7-6.3,1.7-9.6
			c0-2.2-0.3-4.4-1-6.5C651.1,28.2,650,26.4,648.6,24.7z M634.2,40.7c-0.4,2-0.8,3.8-1.2,5.2c-0.1,0.5-0.3,1.1-0.6,1.6
			c-0.2,0.6-0.5,1.1-0.9,1.5c-0.3,0.5-0.7,0.9-1.2,1.1c-0.5,0.3-1,0.4-1.7,0.4c-0.5,0-1.1-0.2-1.6-0.7c-0.6-0.5-0.8-1.5-0.8-3.1
			c0-0.8,0.1-1.8,0.2-3c0.1-1.2,0.3-2.3,0.5-3.5c0.2-1.2,0.5-2.3,0.7-3.3c0.3-1.1,0.5-1.9,0.8-2.5c0.1-0.3,0.3-0.6,0.5-1
			c0.2-0.4,0.4-0.8,0.7-1.1c0.3-0.3,0.7-0.6,1.1-0.9c0.4-0.2,0.9-0.4,1.4-0.4c0.6,0,1.1,0.1,1.5,0.4c0.4,0.3,0.6,0.6,0.8,1.1
			c0.2,0.4,0.3,0.9,0.3,1.3c0,0.4,0.1,0.8,0.1,1.1C634.8,36.7,634.6,38.6,634.2,40.7z"/>
		<path d="M698.1,26.7c-0.6-1.4-1.7-2.7-3-3.8c-1.4-1.1-3.1-2-5.3-2.6c-2.2-0.7-4.8-1-7.8-1c-3.8,0-7.2,0.7-10.3,2
			c-3.1,1.4-5.7,3.2-7.9,5.6c-2.2,2.4-3.9,5.1-5.1,8.2c-1.2,3.1-1.8,6.4-1.8,10c0,2.7,0.4,5.1,1.1,7.2c0.7,2.2,1.9,4,3.4,5.5
			c1.6,1.5,3.6,2.6,6,3.4c2.5,0.8,5.4,1.2,8.9,1.2c2.3,0,4.9-0.2,7.7-0.5c2.8-0.3,5.7-1,8.7-1.9l1.9-10.7c-0.9,0.4-2,0.7-3.2,1.1
			c-1.2,0.3-2.4,0.6-3.7,0.9c-1.3,0.3-2.5,0.5-3.8,0.6c-1.3,0.2-2.4,0.2-3.4,0.2c-2.4,0-4.1-0.5-5.2-1.5c-1.1-1-1.7-2.3-1.9-4.1
			c5.3-0.3,9.6-0.9,12.9-1.8c3.3-0.9,5.9-2,7.8-3.3c1.9-1.3,3.2-2.9,3.9-4.6c0.7-1.8,1-3.7,1-5.7C699.1,29.6,698.7,28.1,698.1,26.7z
			 M684.1,33.8c-0.3,0.6-0.8,1.2-1.5,1.7c-0.8,0.5-1.8,1-3.1,1.4c-1.3,0.4-3.1,0.7-5.2,0.9c0.6-3.2,1.6-5.5,2.9-6.9
			c1.3-1.4,2.7-2,4.3-2c1.1,0,1.9,0.3,2.4,0.8c0.5,0.6,0.8,1.3,0.8,2.2C684.5,32.5,684.3,33.2,684.1,33.8z"/>
	</g>
	<g>
		<path d="M62.3,118c1.4-1.9,2.1-4.1,2.1-6.7c0-1.2-0.2-2.3-0.7-3.5c-0.4-1.2-1.2-2.3-2.3-3.3c-1.1-1-2.6-1.8-4.6-2.4
			c-1.9-0.6-4.4-0.9-7.4-0.9c-2.9,0-5.6,0.2-8.3,0.5c-2.7,0.3-5.5,1-8.5,2l-1.9,10.7c1.7-0.8,3.6-1.6,5.7-2.2s4.3-0.9,6.6-0.9
			c0.3,0,0.8,0,1.3,0.1c0.6,0.1,1.2,0.2,1.7,0.4c0.6,0.2,1.1,0.5,1.5,1c0.4,0.4,0.6,1.1,0.6,1.9c0,0.3,0,0.6-0.1,1
			c-0.1,0.4-0.3,0.8-0.6,1.3c-0.3,0.4-0.8,0.8-1.5,1.1c-0.7,0.3-1.6,0.4-2.8,0.4h-6.6l-1.3,7.9h5.7c0.2,0,0.6,0,1.1,0
			c0.5,0,1,0.1,1.5,0.4c0.5,0.2,0.9,0.5,1.3,1c0.4,0.4,0.6,1.1,0.6,1.9c0,0.4-0.1,0.9-0.2,1.5c-0.2,0.6-0.5,1.1-0.9,1.5
			c-0.4,0.5-1.1,0.9-1.9,1.2c-0.8,0.3-1.9,0.5-3.2,0.5c-1.7,0-3.5-0.2-5.6-0.7c-2.1-0.5-4.2-1.4-6.4-2.6l-1.9,10.7
			c3.2,1.2,6.1,2,8.6,2.2c2.5,0.3,4.7,0.4,6.7,0.4c3.5,0,6.5-0.3,9-0.9c2.5-0.6,4.6-1.4,6.3-2.3c1.7-0.9,3-2,4-3.1
			c1-1.2,1.7-2.3,2.1-3.4c0.5-1.1,0.8-2.1,0.9-3c0.1-0.9,0.2-1.6,0.2-2.2c0-1.9-0.5-3.7-1.5-5.1c-1-1.5-2.5-2.3-4.5-2.4v-0.2
			C59.1,121.2,60.9,120,62.3,118z"/>
		<path d="M112.2,112.3c-0.6-2.1-1.7-4-3.2-5.6c-1.5-1.7-3.4-3-5.8-4c-2.4-1-5.3-1.5-8.8-1.5c-4.3,0-8,0.8-11.3,2.3
			c-3.2,1.5-5.9,3.5-8.1,6c-2.2,2.5-3.8,5.3-4.9,8.4c-1.1,3.1-1.6,6.3-1.6,9.6c0,1.4,0.2,3,0.6,5c0.4,1.9,1.3,3.8,2.6,5.6
			c1.3,1.8,3.2,3.3,5.7,4.5c2.5,1.2,5.8,1.9,10,1.9c4,0,7.6-0.7,10.8-2.1c3.2-1.4,5.9-3.3,8.1-5.7c2.2-2.4,3.9-5.1,5.1-8.2
			c1.2-3.1,1.7-6.3,1.7-9.6C113.1,116.6,112.8,114.4,112.2,112.3z M94.6,122.7c-0.4,2-0.8,3.8-1.2,5.2c-0.1,0.5-0.3,1.1-0.6,1.6
			c-0.2,0.6-0.5,1.1-0.9,1.5s-0.7,0.9-1.2,1.1c-0.5,0.3-1,0.4-1.7,0.4c-0.5,0-1.1-0.2-1.6-0.7c-0.6-0.5-0.8-1.5-0.8-3.1
			c0-0.8,0.1-1.8,0.2-3c0.1-1.2,0.3-2.3,0.5-3.5c0.2-1.2,0.5-2.3,0.7-3.3c0.3-1.1,0.5-1.9,0.8-2.5c0.1-0.3,0.3-0.6,0.5-1
			c0.2-0.4,0.4-0.8,0.7-1.1c0.3-0.3,0.7-0.6,1.1-0.9c0.4-0.2,0.9-0.4,1.4-0.4c0.6,0,1.1,0.1,1.5,0.4c0.4,0.3,0.6,0.6,0.8,1.1
			c0.2,0.4,0.3,0.9,0.3,1.3c0,0.4,0.1,0.8,0.1,1.1C95.2,118.7,95,120.6,94.6,122.7z"/>
		<path d="M124.4,114.3c-0.8,4.2-1.4,7.5-1.9,9.9c-0.5,2.4-1.1,4.2-1.6,5.5c-0.5,1.2-1,2-1.6,2.4c-0.5,0.3-1.2,0.5-1.9,0.5
			c-0.8,0-1.5-0.1-1.9-0.2c-0.3-0.1-0.5-0.2-0.7-0.3l-1.9,11c0.7,0.3,1.5,0.5,2.3,0.7c0.7,0.2,1.5,0.3,2.4,0.4
			c0.9,0.1,1.9,0.2,3,0.2c1.7,0,3.2-0.1,4.6-0.4s2.6-0.7,3.7-1.5c1.1-0.7,2.1-1.8,3-3.1c0.9-1.3,1.7-3.1,2.5-5.2
			c0.8-2.2,1.6-4.8,2.3-8s1.5-6.9,2.3-11.2l0.2-1.1h5.8l-5.1,29.5h16.9l7.2-41.3h-37.5L124.4,114.3z"/>
		<path d="M207.4,106.7c-1.5-1.7-3.4-3-5.8-4c-2.4-1-5.3-1.5-8.8-1.5c-4.3,0-8,0.8-11.3,2.3c-3.2,1.5-5.9,3.5-8.1,6
			c-2.2,2.5-3.8,5.3-4.9,8.4c-1.1,3.1-1.6,6.3-1.6,9.6c0,1.4,0.2,3,0.6,5c0.4,1.9,1.3,3.8,2.6,5.6c1.3,1.8,3.2,3.3,5.7,4.5
			c2.5,1.2,5.8,1.9,10,1.9c4,0,7.6-0.7,10.8-2.1c3.2-1.4,5.9-3.3,8.1-5.7s3.9-5.1,5.1-8.2c1.2-3.1,1.7-6.3,1.7-9.6
			c0-2.2-0.3-4.4-1-6.5C209.9,110.2,208.8,108.4,207.4,106.7z M193,122.7c-0.4,2-0.8,3.8-1.2,5.2c-0.1,0.5-0.3,1.1-0.6,1.6
			c-0.2,0.6-0.5,1.1-0.9,1.5s-0.7,0.9-1.2,1.1c-0.5,0.3-1,0.4-1.7,0.4c-0.5,0-1.1-0.2-1.6-0.7c-0.6-0.5-0.8-1.5-0.8-3.1
			c0-0.8,0.1-1.8,0.2-3c0.1-1.2,0.3-2.3,0.5-3.5c0.2-1.2,0.5-2.3,0.7-3.3c0.3-1.1,0.5-1.9,0.8-2.5c0.1-0.3,0.3-0.6,0.5-1
			c0.2-0.4,0.4-0.8,0.7-1.1c0.3-0.3,0.7-0.6,1.1-0.9c0.4-0.2,0.9-0.4,1.4-0.4c0.6,0,1.1,0.1,1.5,0.4c0.4,0.3,0.6,0.6,0.8,1.1
			c0.2,0.4,0.3,0.9,0.3,1.3c0,0.4,0.1,0.8,0.1,1.1C193.6,118.7,193.4,120.6,193,122.7z"/>
		<polygon points="217.1,102.2 215,114 224.4,114 219.3,143.5 236.2,143.5 241.2,114 250.6,114 252.7,102.2 		"/>
		<path d="M292.1,106.7c-1.5-1.7-3.4-3-5.8-4c-2.4-1-5.3-1.5-8.8-1.5c-4.3,0-8,0.8-11.3,2.3c-3.2,1.5-5.9,3.5-8.1,6
			c-2.2,2.5-3.8,5.3-4.9,8.4c-1.1,3.1-1.6,6.3-1.6,9.6c0,1.4,0.2,3,0.6,5c0.4,1.9,1.3,3.8,2.6,5.6c1.3,1.8,3.2,3.3,5.7,4.5
			c2.5,1.2,5.8,1.9,10,1.9c4,0,7.6-0.7,10.8-2.1c3.2-1.4,5.9-3.3,8.1-5.7s3.9-5.1,5.1-8.2c1.2-3.1,1.7-6.3,1.7-9.6
			c0-2.2-0.3-4.4-1-6.5C294.6,110.2,293.5,108.4,292.1,106.7z M277.7,122.7c-0.4,2-0.8,3.8-1.2,5.2c-0.1,0.5-0.3,1.1-0.6,1.6
			c-0.2,0.6-0.5,1.1-0.9,1.5c-0.3,0.5-0.7,0.9-1.2,1.1c-0.5,0.3-1,0.4-1.7,0.4c-0.5,0-1.1-0.2-1.6-0.7c-0.6-0.5-0.8-1.5-0.8-3.1
			c0-0.8,0.1-1.8,0.2-3c0.1-1.2,0.3-2.3,0.5-3.5c0.2-1.2,0.5-2.3,0.7-3.3c0.3-1.1,0.5-1.9,0.8-2.5c0.1-0.3,0.3-0.6,0.5-1
			c0.2-0.4,0.4-0.8,0.7-1.1c0.3-0.3,0.7-0.6,1.1-0.9c0.4-0.2,0.9-0.4,1.4-0.4c0.6,0,1.1,0.1,1.5,0.4c0.4,0.3,0.6,0.6,0.8,1.1
			c0.2,0.4,0.3,0.9,0.3,1.3c0,0.4,0.1,0.8,0.1,1.1C278.3,118.7,278.1,120.6,277.7,122.7z"/>
		<path d="M373.6,108.8c0-2.3-0.3-4.6-0.9-7.1c-0.6-2.5-1.8-4.8-3.4-6.9c-1.7-2.1-3.9-3.9-6.8-5.3c-2.9-1.4-6.5-2.1-10.9-2.1
			c-4.3,0-8.1,0.6-11.3,1.9c-3.3,1.2-6.1,2.9-8.4,4.9c-2.3,2-4.3,4.3-5.9,6.9c-1.6,2.6-2.8,5.2-3.8,7.8c-0.9,2.6-1.6,5.2-2,7.7
			c-0.4,2.5-0.6,4.7-0.6,6.5c0,2.5,0.3,5.1,1,7.6c0.7,2.5,1.9,4.8,3.5,6.9c1.7,2,3.9,3.7,6.7,5c2.8,1.3,6.3,1.9,10.4,1.9
			c4.4,0,8.2-0.6,11.6-1.9c3.3-1.3,6.2-2.9,8.6-4.9c2.4-2,4.4-4.3,5.9-6.9c1.6-2.5,2.8-5.1,3.7-7.8c0.9-2.7,1.6-5.2,1.9-7.7
			C373.4,112.8,373.6,110.6,373.6,108.8z M354.5,111.7c-0.1,1.3-0.3,2.7-0.6,4.1c-0.2,1.4-0.5,2.7-0.8,3.9c-0.3,1.3-0.5,2.3-0.8,3.1
			c-0.5,1.7-1.2,3.1-1.9,4.2c-0.7,1.1-1.5,1.9-2.2,2.6c-0.8,0.6-1.5,1.1-2.3,1.3c-0.7,0.2-1.4,0.4-2,0.4c-0.4,0-0.8-0.1-1.5-0.2
			c-0.6-0.1-1.2-0.4-1.8-0.9c-0.6-0.5-1.1-1.3-1.5-2.3c-0.4-1-0.6-2.4-0.6-4.2c0-1.1,0.1-2.3,0.2-3.6c0.1-1.3,0.3-2.6,0.5-3.9
			c0.2-1.3,0.5-2.6,0.8-3.8c0.3-1.2,0.6-2.3,0.8-3.2c0.6-1.8,1.3-3.3,2.1-4.4c0.8-1.1,1.5-2,2.3-2.6c0.8-0.6,1.5-1,2.2-1.2
			c0.7-0.2,1.3-0.3,1.8-0.3c0.4,0,0.9,0.1,1.6,0.2c0.6,0.2,1.2,0.5,1.8,1c0.6,0.5,1,1.2,1.5,2.2c0.4,1,0.6,2.3,0.6,4
			C354.7,109.1,354.6,110.3,354.5,111.7z"/>
		<path d="M382.6,114.3c-0.8,4.2-1.4,7.5-1.9,9.9c-0.5,2.4-1.1,4.2-1.6,5.5c-0.5,1.2-1,2-1.6,2.4c-0.5,0.3-1.2,0.5-1.9,0.5
			c-0.8,0-1.5-0.1-1.9-0.2c-0.3-0.1-0.5-0.2-0.7-0.3l-1.9,11c0.7,0.3,1.5,0.5,2.3,0.7c0.7,0.2,1.5,0.3,2.4,0.4
			c0.9,0.1,1.9,0.2,3,0.2c1.7,0,3.2-0.1,4.6-0.4c1.3-0.2,2.6-0.7,3.7-1.5c1.1-0.7,2.1-1.8,3-3.1c0.9-1.3,1.7-3.1,2.5-5.2
			c0.8-2.2,1.6-4.8,2.3-8s1.5-6.9,2.3-11.2l0.2-1.1h5.8l-5.1,29.5h16.9l7.2-41.3h-37.5L382.6,114.3z"/>
		<path d="M449.7,126c-0.1,0.5-0.2,1-0.3,1.7c-0.1,0.6-0.3,1.2-0.6,1.9c-0.3,0.6-0.7,1.1-1.1,1.5c-0.5,0.4-1.1,0.6-1.8,0.6
			c-0.5,0-0.9-0.1-1.2-0.4c-0.3-0.2-0.5-0.5-0.7-0.8c-0.2-0.3-0.2-0.6-0.3-0.9c0-0.3,0-0.5,0-0.6c0-1.1,0.1-2.1,0.3-3l4.2-23.9h-17
			l-5,28.8c-0.1,0.7-0.2,1.3-0.2,2c-0.1,0.6-0.1,1.3-0.1,2c0,1.7,0.3,3.2,0.8,4.4c0.5,1.2,1.2,2.2,2.1,3c0.9,0.8,1.9,1.3,3.1,1.7
			c1.2,0.3,2.4,0.5,3.8,0.5c0.8,0,1.7-0.1,2.8-0.2c1.1-0.1,2.2-0.5,3.4-1s2.4-1.4,3.7-2.4c1.2-1,2.4-2.5,3.4-4.4h0.1l-1.2,7.1h15.9
			l7.2-41.3h-16.9L449.7,126z"/>
		<polygon points="499.6,123.8 497.5,102.2 479.4,102.2 472.2,143.5 485.6,143.5 489.5,120.8 489.8,120.8 491.2,135.6 503,135.6 
			509.5,120.8 509.8,120.8 505.9,143.5 519.3,143.5 526.5,102.2 509.1,102.2 		"/>
		<path d="M571.9,105.8c-0.3-0.5-0.6-1-1.1-1.5c-0.5-0.5-1.1-1-1.8-1.5c-0.7-0.5-1.6-0.9-2.5-1.1c-1-0.3-2.1-0.4-3.5-0.4
			c-3,0-5.6,0.8-7.7,2.3c-2.1,1.6-3.8,3.5-5.1,5.8h-0.3l1.3-7.2h-15.9l-7.2,41.3h16.9l4.1-23.8c0.4-2.5,1-4.1,1.9-4.9
			c0.5-0.5,1.2-0.7,2-0.7s1.4,0.3,1.8,0.8c0.4,0.5,0.6,1.2,0.6,2c0,0.5,0,0.9-0.1,1.4c-0.1,0.4-0.1,0.9-0.2,1.4l-4.1,23.8h16.9
			l5-28.7c0.1-0.7,0.2-1.3,0.3-2c0.1-0.6,0.1-1.3,0.1-1.9c0-0.9-0.1-1.8-0.3-2.7C572.6,107.3,572.3,106.5,571.9,105.8z"/>
		<path d="M602.3,126c-0.1,0.5-0.2,1-0.3,1.7c-0.1,0.6-0.3,1.2-0.6,1.9c-0.3,0.6-0.7,1.1-1.1,1.5c-0.5,0.4-1.1,0.6-1.8,0.6
			c-0.5,0-0.9-0.1-1.2-0.4c-0.3-0.2-0.5-0.5-0.7-0.8c-0.2-0.3-0.2-0.6-0.3-0.9c0-0.3,0-0.5,0-0.6c0-1.1,0.1-2.1,0.3-3l4.2-23.9h-17
			l-5,28.8c-0.1,0.7-0.2,1.3-0.2,2c-0.1,0.6-0.1,1.3-0.1,2c0,1.7,0.3,3.2,0.8,4.4c0.5,1.2,1.2,2.2,2.1,3c0.9,0.8,1.9,1.3,3.1,1.7
			c1.2,0.3,2.4,0.5,3.8,0.5c0.8,0,1.7-0.1,2.8-0.2c1.1-0.1,2.2-0.5,3.4-1s2.4-1.4,3.6-2.4c1.2-1,2.4-2.5,3.4-4.4h0.1l-1.2,7.1h15.9
			l7.2-41.3h-16.9L602.3,126z"/>
		<path d="M656.3,102.2l-0.9,5.3c-0.3-0.6-0.6-1.2-1.1-2c-0.4-0.7-1-1.4-1.8-2c-0.8-0.6-1.7-1.2-2.8-1.6c-1.1-0.4-2.4-0.6-4-0.6
			c-3.3,0-6.2,0.9-8.6,2.6c-2.5,1.7-4.5,3.9-6.1,6.6c-1.6,2.7-2.8,5.7-3.7,8.9c-0.8,3.3-1.2,6.5-1.2,9.7c0,4.6,1,8.3,3.1,11.1
			c2.1,2.8,5,4.2,8.9,4.2c3.1,0,5.7-0.7,7.9-2.2c2.2-1.5,4-3.4,5.3-5.8h0.3l-1.2,7h15.7l7.1-41.3H656.3z M653.4,122.3
			c-0.3,1.6-0.6,3-1.1,4.2c-0.4,1.1-0.8,1.9-1.2,2.5c-0.4,0.6-0.9,1.1-1.3,1.4c-0.4,0.3-0.8,0.5-1.2,0.6c-0.4,0.1-0.7,0.1-1,0.1
			c-0.3,0-0.6-0.1-0.9-0.2c-0.4-0.1-0.7-0.3-1-0.6c-0.3-0.3-0.6-0.8-0.8-1.4c-0.2-0.6-0.3-1.5-0.3-2.5c0-1.5,0.2-3.2,0.6-5
			c0.4-1.9,0.9-3.4,1.5-4.6c0.1-0.2,0.3-0.5,0.5-0.9c0.2-0.4,0.5-0.7,0.8-1.1c0.3-0.4,0.7-0.7,1.2-0.9c0.5-0.2,1-0.4,1.6-0.4
			c0.2,0,0.5,0,0.9,0.1c0.4,0.1,0.7,0.3,1,0.6c0.3,0.3,0.6,0.8,0.9,1.4c0.2,0.6,0.4,1.4,0.4,2.5
			C653.8,119.3,653.7,120.8,653.4,122.3z"/>
		<path d="M705.6,109.9h-0.3c-0.3-2.7-1.4-4.8-3.1-6.4c-1.8-1.5-4.1-2.3-6.8-2.3c-3,0-5.7,0.8-8.2,2.5c-2.4,1.7-4.5,3.8-6.1,6.4
			c-1.7,2.6-3,5.6-3.9,9c-0.9,3.4-1.4,6.7-1.4,10.1c0,4.3,1.1,7.8,3.3,10.4c2.2,2.6,5.3,3.9,9.4,3.9c0.8,0,1.6-0.1,2.5-0.2
			c0.9-0.2,1.8-0.5,2.8-0.9s2-1,3.1-1.8c1.1-0.8,2.2-1.8,3.3-3h0.3l-0.5,2c-0.8,3.4-2.2,6-4.3,7.7c-2.1,1.8-4.9,2.7-8.5,2.7
			c-1.9,0-3.9-0.4-6-1.1c-2.2-0.8-4.2-1.8-6.2-3.1l-2.3,13c3.6,1.3,6.7,2.2,9.3,2.5c2.6,0.4,4.9,0.6,7,0.6c2.9,0,5.8-0.3,8.7-0.8
			c2.9-0.5,5.7-1.6,8.2-3.3c2.5-1.7,4.8-4.1,6.8-7.3c2-3.2,3.4-7.5,4.4-12.8l6.2-35.3h-16L705.6,109.9z M703.1,122.4
			c-0.2,1.2-0.5,2.2-0.8,3.1c-0.4,1.3-1,2.5-1.7,3.6c-0.7,1.1-1.8,1.6-3.3,1.6c-1,0-1.8-0.3-2.4-1c-0.6-0.7-0.9-1.7-0.9-2.9
			c0-1.5,0.1-2.9,0.4-4.2c0.2-1.3,0.5-2.4,0.8-3.4c0.4-1.3,1-2.5,1.7-3.6c0.7-1.1,1.8-1.6,3.3-1.6c0.9,0,1.7,0.3,2.3,1
			c0.6,0.7,0.9,1.9,0.9,3.5C703.4,119.9,703.3,121.2,703.1,122.4z"/>
		<path d="M763.6,117.3c-1.1-1-2.6-1.7-4.5-2.2c-1.9-0.5-4.1-0.8-6.9-0.8h-5.9l2.1-12.1h-16.9l-7,41.3h22.8c3.3,0,6.3-0.4,8.7-1.3
			c2.5-0.9,4.5-2.1,6.1-3.7s2.8-3.5,3.6-5.7c0.8-2.2,1.2-4.7,1.2-7.5c0-1.6-0.3-3.1-0.8-4.5C765.6,119.5,764.7,118.3,763.6,117.3z
			 M748.4,132.1c-0.9,1.1-2.1,1.6-3.5,1.6h-2.2l1.6-9.3h2.2c2.2,0,3.3,1.1,3.3,3.2C749.8,129.5,749.3,131,748.4,132.1z"/>
		<polygon points="774.7,102.2 767.6,143.5 784.5,143.5 791.6,102.2 		"/>
	</g>
	<g>
		<path d="M255.2,178.2c-1.4-1.4-3.2-2.6-5.6-3.5c-2.4-0.9-5.5-1.3-9.3-1.3c-2.4,0-4.8,0.1-7.3,0.4c-2.5,0.2-5.1,0.7-7.9,1.4
			l-2.5,14.4c2.3-1,4.3-1.7,6-2c1.7-0.3,3.3-0.5,4.6-0.5c1.6,0,2.9,0.2,3.9,0.6c1,0.4,1.8,0.9,2.4,1.5c0.6,0.6,1,1.3,1.2,2
			c0.2,0.7,0.3,1.4,0.3,2.1c0,1.9-0.6,3.8-1.7,5.4c-1.2,1.7-2.6,3.2-4.4,4.6c-1.8,1.4-3.7,2.7-5.7,3.9c-2,1.2-3.9,2.3-5.7,3.2
			l-6.1,3.4l-2.7,15.5h37.1l2.3-13.2h-19.2l0.1-0.2c4.6-2.3,8.4-4.7,11.5-7.1c3.1-2.4,5.5-4.8,7.3-7.2c1.8-2.4,3.1-4.8,3.8-7.1
			c0.7-2.3,1.1-4.6,1.1-6.8c0-1.6-0.2-3.3-0.7-5C257.5,181.2,256.6,179.6,255.2,178.2z"/>
		<path d="M290.1,173.4c-3.2,0-6,0.6-8.5,1.7c-2.5,1.1-4.7,2.6-6.7,4.5c-1.9,1.9-3.6,4.1-5,6.6c-1.4,2.5-2.5,5.3-3.4,8.1
			c-0.9,2.9-1.5,5.8-1.9,8.9s-0.6,6.1-0.6,9c0,6.3,1.4,10.9,4.2,13.9c2.8,2.9,6.8,4.4,11.9,4.4c3.1,0,5.9-0.6,8.5-1.7
			c2.5-1.1,4.8-2.6,6.7-4.5c1.9-1.9,3.6-4.1,5-6.6c1.4-2.5,2.5-5.3,3.4-8.1c0.9-2.9,1.5-5.8,1.9-8.9c0.4-3.1,0.6-6.1,0.6-9
			c0-6.4-1.4-11-4.2-13.9C299.3,174.8,295.3,173.4,290.1,173.4z M291,200.5c-0.5,3-1.1,5.8-1.9,8.3c-0.8,2.5-1.8,4.7-3,6.3
			c-1.2,1.7-2.4,2.5-3.8,2.5c-1.1,0-2-0.4-2.7-1.1c-0.7-0.8-1-2.3-1-4.6c0-2.7,0.2-5.5,0.7-8.5c0.4-3,1.1-5.8,1.9-8.3
			c0.8-2.6,1.8-4.7,2.9-6.4c1.1-1.7,2.4-2.5,3.7-2.5c0.6,0,1.1,0.1,1.6,0.2c0.5,0.2,0.9,0.5,1.2,0.9c0.3,0.4,0.6,1,0.8,1.8
			c0.2,0.8,0.3,1.7,0.3,2.9C291.7,194.6,291.4,197.5,291,200.5z"/>
		<polygon points="312.6,189.7 317.2,201.9 329.2,193.7 323,229.5 339.9,229.5 349.4,174.3 335,174.3 		"/>
		<path d="M394.5,178.2c-1.4-1.4-3.2-2.6-5.6-3.5c-2.4-0.9-5.5-1.3-9.3-1.3c-2.4,0-4.8,0.1-7.3,0.4c-2.5,0.2-5.1,0.7-7.9,1.4
			l-2.5,14.4c2.3-1,4.3-1.7,6-2c1.7-0.3,3.3-0.5,4.6-0.5c1.6,0,2.9,0.2,3.9,0.6c1,0.4,1.8,0.9,2.4,1.5c0.6,0.6,1,1.3,1.2,2
			c0.2,0.7,0.3,1.4,0.3,2.1c0,1.9-0.6,3.8-1.7,5.4c-1.2,1.7-2.6,3.2-4.4,4.6c-1.8,1.4-3.7,2.7-5.7,3.9c-2,1.2-3.9,2.3-5.7,3.2
			l-6.1,3.4l-2.7,15.5h37.1l2.3-13.2h-19.2l0.1-0.2c4.6-2.3,8.4-4.7,11.5-7.1c3.1-2.4,5.5-4.8,7.3-7.2c1.8-2.4,3.1-4.8,3.8-7.1
			c0.7-2.3,1.1-4.6,1.1-6.8c0-1.6-0.2-3.3-0.7-5C396.8,181.2,395.9,179.6,394.5,178.2z"/>
		<path d="M450.5,190.3c-1.2-0.9-2.8-1.7-4.7-2.2c-1.9-0.6-4.3-0.8-7-0.8c-1.1,0-2.3,0.1-3.6,0.2c-1.3,0.2-2.6,0.4-3.9,0.7
			c-1.3,0.3-2.5,0.6-3.7,0.9c-1.1,0.3-2.1,0.7-2.9,1.1l-1.5,12.3c0.9-0.5,2-1,3.1-1.5c1.1-0.5,2.3-0.9,3.4-1.3
			c1.2-0.4,2.3-0.7,3.4-0.9c1.1-0.2,2.2-0.4,3.1-0.4c0.9,0,1.5,0.1,1.8,0.4c0.3,0.2,0.4,0.6,0.4,1c0,0.7-0.4,1.3-1.3,2
			c-0.9,0.6-2.5,1.5-4.7,2.5c-2.6,1.3-4.7,2.5-6.4,3.7c-1.7,1.2-2.9,2.4-3.9,3.6c-0.9,1.2-1.6,2.5-1.9,3.8c-0.4,1.3-0.5,2.6-0.5,4.1
			c0,1.6,0.3,3,0.8,4.4c0.6,1.4,1.4,2.5,2.6,3.5c1.2,1,2.8,1.8,4.7,2.4c1.9,0.6,4.3,0.9,7.1,0.9c1.3,0,2.8-0.1,4.3-0.3
			c1.5-0.2,2.9-0.4,4.3-0.7c1.4-0.3,2.6-0.6,3.8-0.9c1.1-0.3,2-0.7,2.6-1l1.5-12.3c-1.1,0.7-2.2,1.4-3.5,1.9
			c-1.3,0.5-2.5,0.9-3.7,1.3c-1.2,0.4-2.3,0.6-3.4,0.8c-1,0.2-1.9,0.2-2.6,0.2c-1.6,0-2.4-0.7-2.4-2.1c0-0.8,0.4-1.6,1.3-2.2
			s2.2-1.4,4.1-2.3c2.5-1.2,4.5-2.3,6.2-3.3c1.7-1.1,3-2.2,3.9-3.3c1-1.2,1.6-2.4,2-3.8c0.4-1.4,0.6-2.9,0.6-4.6
			c0-1.4-0.3-2.8-0.8-4C452.5,192.3,451.7,191.2,450.5,190.3z"/>
		<path d="M496.9,192.7c-1.5-1.7-3.4-3-5.8-4c-2.4-1-5.3-1.5-8.8-1.5c-4.3,0-8,0.8-11.3,2.3c-3.2,1.5-5.9,3.5-8.1,6
			c-2.2,2.5-3.8,5.3-4.9,8.4c-1.1,3.1-1.6,6.3-1.6,9.6c0,1.4,0.2,3,0.6,5c0.4,1.9,1.3,3.8,2.6,5.6c1.3,1.8,3.2,3.3,5.7,4.5
			c2.5,1.2,5.8,1.9,10,1.9c4,0,7.6-0.7,10.8-2.1c3.2-1.4,5.9-3.3,8.1-5.7c2.2-2.4,3.9-5.1,5.1-8.2c1.2-3.1,1.7-6.3,1.7-9.6
			c0-2.2-0.3-4.4-1-6.5C499.5,196.2,498.4,194.4,496.9,192.7z M482.6,208.7c-0.4,2-0.8,3.8-1.2,5.2c-0.1,0.5-0.3,1.1-0.6,1.6
			c-0.2,0.6-0.5,1.1-0.9,1.5c-0.3,0.5-0.7,0.9-1.2,1.1c-0.5,0.3-1,0.4-1.7,0.4c-0.5,0-1.1-0.2-1.6-0.7c-0.6-0.5-0.8-1.5-0.8-3.1
			c0-0.8,0.1-1.8,0.2-3c0.1-1.2,0.3-2.3,0.5-3.5c0.2-1.2,0.5-2.3,0.7-3.3c0.3-1.1,0.5-1.9,0.8-2.5c0.1-0.3,0.3-0.6,0.5-1
			c0.2-0.4,0.4-0.8,0.7-1.1c0.3-0.3,0.7-0.6,1.1-0.9c0.4-0.2,0.9-0.4,1.4-0.4c0.6,0,1.1,0.1,1.5,0.4c0.4,0.3,0.6,0.6,0.8,1.1
			c0.2,0.4,0.3,0.9,0.3,1.3c0,0.4,0.1,0.8,0.1,1.1C483.1,204.7,483,206.6,482.6,208.7z"/>
		<path d="M534.8,195.9h-0.3c-0.3-2.7-1.4-4.8-3.1-6.4c-1.8-1.5-4.1-2.3-6.8-2.3c-3,0-5.7,0.8-8.2,2.5c-2.4,1.7-4.5,3.8-6.1,6.4
			c-1.7,2.6-3,5.6-3.9,9c-0.9,3.4-1.4,6.7-1.4,10.1c0,4.3,1.1,7.8,3.3,10.4c2.2,2.6,5.3,3.9,9.4,3.9c0.8,0,1.6-0.1,2.5-0.2
			c0.9-0.2,1.8-0.5,2.8-0.9s2-1,3.1-1.8c1.1-0.8,2.2-1.8,3.3-3h0.3l-0.5,2c-0.8,3.4-2.2,6-4.3,7.7c-2.1,1.8-4.9,2.7-8.5,2.7
			c-1.9,0-3.9-0.4-6-1.1c-2.2-0.8-4.2-1.8-6.2-3.1l-2.3,13c3.6,1.3,6.7,2.2,9.3,2.5c2.6,0.4,4.9,0.6,7,0.6c2.9,0,5.8-0.3,8.7-0.8
			c2.9-0.5,5.7-1.6,8.2-3.3c2.5-1.7,4.8-4.1,6.8-7.3c2-3.2,3.4-7.5,4.4-12.8l6.2-35.3h-16L534.8,195.9z M532.2,208.4
			c-0.2,1.2-0.5,2.2-0.8,3.1c-0.4,1.3-1,2.5-1.7,3.6c-0.7,1.1-1.8,1.6-3.3,1.6c-1,0-1.8-0.3-2.4-1c-0.6-0.7-0.9-1.7-0.9-2.9
			c0-1.5,0.1-2.9,0.4-4.2c0.2-1.3,0.5-2.4,0.8-3.4c0.4-1.3,1-2.5,1.7-3.6c0.7-1.1,1.8-1.6,3.3-1.6c0.9,0,1.7,0.3,2.3,1
			c0.6,0.7,0.9,1.9,0.9,3.5C532.6,205.9,532.4,207.2,532.2,208.4z"/>
		<path d="M585.1,188.2l-0.9,5.3c-0.3-0.6-0.6-1.2-1.1-2c-0.4-0.7-1-1.4-1.8-2c-0.8-0.6-1.7-1.2-2.8-1.6c-1.1-0.4-2.4-0.6-4-0.6
			c-3.3,0-6.2,0.9-8.6,2.6c-2.5,1.7-4.5,3.9-6.1,6.6c-1.6,2.7-2.8,5.7-3.7,8.9c-0.8,3.3-1.2,6.5-1.2,9.7c0,4.6,1,8.3,3.1,11.1
			c2.1,2.8,5,4.2,8.9,4.2c3.1,0,5.7-0.7,7.9-2.2c2.2-1.5,4-3.4,5.3-5.8h0.3l-1.2,7h15.7l7.1-41.3H585.1z M582.2,208.3
			c-0.3,1.6-0.6,3-1.1,4.2c-0.4,1.1-0.8,1.9-1.2,2.5c-0.4,0.6-0.9,1.1-1.3,1.4c-0.4,0.3-0.8,0.5-1.2,0.6c-0.4,0.1-0.7,0.1-1,0.1
			c-0.3,0-0.6-0.1-0.9-0.2c-0.4-0.1-0.7-0.3-1-0.6c-0.3-0.3-0.6-0.8-0.8-1.4c-0.2-0.6-0.3-1.5-0.3-2.5c0-1.5,0.2-3.2,0.6-5
			c0.4-1.9,0.9-3.4,1.5-4.6c0.1-0.2,0.3-0.5,0.5-0.9c0.2-0.4,0.5-0.7,0.8-1.1c0.3-0.4,0.7-0.7,1.2-0.9c0.5-0.2,1-0.4,1.6-0.4
			c0.2,0,0.5,0,0.9,0.1c0.4,0.1,0.7,0.3,1,0.6c0.3,0.3,0.6,0.8,0.9,1.4c0.2,0.6,0.4,1.4,0.4,2.5
			C582.6,205.3,582.5,206.8,582.2,208.3z"/>
	</g>
</g>
</svg>
