<?xml version="1.0" encoding="utf-8"?>
<!-- Generator: Adobe Illustrator 22.0.1, SVG Export Plug-In . SVG Version: 6.00 Build 0)  -->
<svg version="1.1" id="Layer_2_1_" xmlns="http://www.w3.org/2000/svg" xmlns:xlink="http://www.w3.org/1999/xlink" x="0px" y="0px"
	 viewBox="0 0 955.7 161.9" style="enable-background:new 0 0 955.7 161.9;" xml:space="preserve">
<style type="text/css">
	.st0{fill-rule:evenodd;clip-rule:evenodd;fill:#FFFFFF;}
</style>
<g>
	<g>
		<rect class="st0" width="955.7" height="74.7"/>
		<rect x="105.7" y="84.2" class="st0" width="744.2" height="73.3"/>
	</g>
	<g>
		<path d="M75.9,20.3l2.3-13.8H36.5L27,61.7l16.9,0.1h10.9c4.2,0,7.6-0.6,10.4-1.9c2.8-1.3,5.1-2.9,6.8-4.9c1.7-2,2.9-4.2,3.7-6.6
			c0.7-2.4,1.1-4.7,1.1-6.9c0-1.5-0.2-3.1-0.6-4.7c-0.4-1.6-1.2-3-2.3-4.3c-1.1-1.3-2.7-2.4-4.6-3.2c-1.9-0.8-4.5-1.3-7.5-1.3H49.9
			l1.3-7.6H75.9z M53.3,38.9c1.6,0,2.8,0.4,3.7,1.3c0.9,0.8,1.3,2,1.3,3.5c0,0.8-0.2,1.7-0.5,2.5c-0.3,0.8-0.7,1.6-1.3,2.2
			c-0.6,0.7-1.3,1.2-2.1,1.6c-0.8,0.4-1.8,0.6-2.8,0.6h-5.7l2-11.7H53.3z"/>
		<path d="M112,25.7c-0.3-0.6-0.6-1.2-1.1-2c-0.4-0.7-1-1.4-1.8-2c-0.8-0.6-1.7-1.2-2.8-1.6c-1.1-0.4-2.4-0.6-4-0.6
			c-3.3,0-6.2,0.9-8.6,2.6c-2.5,1.7-4.5,3.9-6.1,6.6c-1.6,2.7-2.8,5.7-3.7,8.9c-0.8,3.3-1.2,6.5-1.2,9.7c0,4.6,1,8.3,3.1,11.1
			c2.1,2.8,5,4.2,8.9,4.2c3.1,0,5.7-0.7,7.9-2.2c2.2-1.5,4-3.4,5.3-5.8h0.3l-1.2,7h15.7l7.1-41.3h-16.9L112,25.7z M109.9,40.6
			c-0.3,1.6-0.6,3-1.1,4.2c-0.4,1.1-0.8,1.9-1.2,2.5c-0.4,0.6-0.9,1.1-1.3,1.4c-0.4,0.3-0.8,0.5-1.2,0.6c-0.4,0.1-0.7,0.1-1,0.1
			c-0.3,0-0.6-0.1-0.9-0.2c-0.4-0.1-0.7-0.3-1-0.6c-0.3-0.3-0.6-0.8-0.8-1.4c-0.2-0.6-0.3-1.5-0.3-2.5c0-1.5,0.2-3.2,0.6-5
			c0.4-1.9,0.9-3.4,1.5-4.6c0.1-0.2,0.3-0.5,0.5-0.9c0.2-0.4,0.5-0.7,0.8-1.1c0.3-0.4,0.7-0.7,1.2-0.9s1-0.4,1.6-0.4
			c0.2,0,0.5,0,0.9,0.1c0.4,0.1,0.7,0.3,1,0.6c0.3,0.3,0.6,0.8,0.9,1.4c0.2,0.6,0.4,1.4,0.4,2.5C110.3,37.6,110.2,39,109.9,40.6z"/>
		<path d="M158.6,19.5c-3.3,0-6.3,0.4-8.9,1.3c-2.6,0.8-4.8,2-6.8,3.3c-1.9,1.4-3.6,3-4.9,4.8c-1.3,1.8-2.4,3.7-3.2,5.6
			c-0.8,1.9-1.4,3.9-1.7,5.8c-0.4,1.9-0.5,3.7-0.5,5.3c0,2.8,0.4,5.1,1.2,7.1c0.8,1.9,1.8,3.5,3,4.8c1.2,1.3,2.5,2.3,4,3
			c1.5,0.7,2.9,1.2,4.3,1.5c1.4,0.3,2.7,0.6,3.8,0.6c1.2,0.1,2,0.1,2.5,0.1c1.9,0,3.9-0.1,5.9-0.4c2-0.2,4.3-0.8,6.7-1.7l2.1-11.9
			c-1.2,0.6-2.5,1.1-3.9,1.5c-1.4,0.4-2.7,0.6-4.1,0.6c-0.3,0-0.8-0.1-1.6-0.2c-0.8-0.1-1.6-0.4-2.4-0.9c-0.8-0.5-1.6-1.2-2.2-2.2
			c-0.6-1-1-2.4-1-4.2c0-1.4,0.2-2.8,0.6-4.2c0.4-1.4,1.1-2.8,2-3.9c0.9-1.2,2-2.1,3.3-2.9c1.3-0.7,2.9-1.1,4.8-1.1
			c0.8,0,1.7,0.1,2.9,0.4c1.2,0.2,2.5,0.7,4,1.5l2-11.8c-1.5-0.5-3.2-0.9-5.2-1.3C163.4,19.7,161.1,19.5,158.6,19.5z"/>
		<polygon points="223.4,20.4 205.1,20.4 192.4,38.5 192.1,38.5 195.3,20.4 178.7,20.4 171.5,61.7 188.1,61.7 191.3,43.5 
			191.5,43.5 198,61.7 216.6,61.7 208.1,40.7 		"/>
		<path d="M259.9,23.1c-1.4-1.1-3.1-2-5.3-2.6c-2.2-0.7-4.8-1-7.8-1c-3.8,0-7.2,0.7-10.3,2c-3.1,1.4-5.7,3.2-7.9,5.6
			c-2.2,2.4-3.9,5.1-5.1,8.2c-1.2,3.1-1.8,6.4-1.8,10c0,2.7,0.4,5.1,1.1,7.2c0.7,2.2,1.9,4,3.4,5.5c1.6,1.5,3.6,2.6,6,3.4
			c2.5,0.8,5.4,1.2,8.9,1.2c2.3,0,4.9-0.2,7.7-0.5c2.8-0.3,5.7-1,8.7-1.9l1.9-10.7c-0.9,0.4-2,0.7-3.2,1.1c-1.2,0.3-2.4,0.6-3.7,0.9
			c-1.3,0.3-2.5,0.5-3.8,0.6c-1.3,0.2-2.4,0.2-3.4,0.2c-2.4,0-4.1-0.5-5.2-1.5c-1.1-1-1.7-2.3-1.9-4.1c5.3-0.3,9.6-0.9,12.9-1.8
			c3.3-0.9,5.9-2,7.8-3.3c1.9-1.3,3.2-2.9,3.9-4.6c0.7-1.8,1-3.7,1-5.7c0-1.5-0.3-3-1-4.5C262.3,25.5,261.3,24.2,259.9,23.1z
			 M248.9,34c-0.3,0.6-0.8,1.2-1.5,1.7c-0.8,0.5-1.8,1-3.1,1.4c-1.3,0.4-3.1,0.7-5.2,0.9c0.6-3.2,1.6-5.5,2.9-6.9
			c1.3-1.4,2.7-2,4.3-2c1.1,0,1.9,0.3,2.4,0.8c0.5,0.6,0.8,1.3,0.8,2.2C249.3,32.8,249.2,33.4,248.9,34z"/>
		<polygon points="268.1,32.2 277.4,32.2 272.4,61.7 289.2,61.7 294.3,32.2 303.7,32.2 305.8,20.4 270.1,20.4 		"/>
		<path d="M343.3,3c-1.9,0.2-3.8,0.4-5.7,0.6c-1.9,0.2-3.8,0.4-5.7,0.8c-1.9,0.4-3.7,0.9-5.6,1.6c-1.9,0.7-3.7,1.7-5.5,2.9
			c-2.4,1.6-4.5,3.8-6.4,6.5c-1.8,2.7-3.4,5.6-4.6,8.8c-1.2,3.2-2.2,6.6-2.8,10c-0.6,3.5-1,6.8-1,10c0,1.7,0.2,3.7,0.6,5.8
			c0.4,2.2,1.2,4.2,2.4,6c1.2,1.9,3.1,3.4,5.5,4.7c2.4,1.3,5.6,1.9,9.6,1.9c4.8,0,8.9-0.8,12.2-2.4c3.3-1.6,6-3.6,8-5.9
			c2-2.4,3.5-5,4.4-7.8c0.9-2.8,1.3-5.4,1.3-7.8c0-2.7-0.4-5-1.2-6.9c-0.8-1.9-2-3.5-3.4-4.8c-1.5-1.3-3.2-2.2-5.2-2.8
			c-2-0.6-4.1-0.9-6.4-0.9c-1,0-2.1,0.1-3.3,0.3c-1.2,0.2-2.4,0.5-3.7,1.1c-1.3,0.5-2.6,1.3-3.9,2.2c-1.3,1-2.5,2.2-3.6,3.8h-0.5
			l0.4-1.9c0.4-1.7,0.9-3.1,1.5-4.3c0.6-1.2,1.4-2.1,2.2-2.9c0.8-0.8,1.7-1.4,2.6-1.8c0.9-0.4,1.7-0.8,2.5-1.1
			c1.8-0.6,3.7-1,5.8-1.2c2.1-0.2,4.3-0.4,6.7-0.6c1.2-0.1,2.3-0.1,3.2-0.3c1-0.1,1.8-0.3,2.6-0.5c0.8-0.2,1.6-0.4,2.3-0.7
			c0.7-0.3,1.4-0.7,2.1-1.2l2.5-14.2c-1.8,0.9-3.5,1.5-5,1.9C346.9,2.5,345.2,2.8,343.3,3z M323.8,45.1c0.1-0.8,0.2-1.6,0.3-2.4
			c0.1-0.8,0.3-1.6,0.5-2.4c0.2-0.8,0.4-1.4,0.5-1.9c0.5-1.6,1.2-2.6,1.9-3.2c0.7-0.5,1.4-0.8,2.1-0.8c0.6,0,1.1,0.1,1.5,0.4
			c0.4,0.2,0.6,0.6,0.8,0.9c0.2,0.4,0.3,0.8,0.4,1.3c0,0.4,0.1,0.9,0.1,1.2c0,1.5-0.1,3-0.4,4.4c-0.1,0.9-0.3,1.8-0.5,2.8
			c-0.2,1-0.5,1.9-0.9,2.6c-0.4,0.8-0.9,1.4-1.4,2c-0.6,0.5-1.3,0.8-2.1,0.8c-1.2,0-2-0.4-2.3-1.3c-0.3-0.8-0.5-1.7-0.5-2.5
			C323.7,46.5,323.7,45.9,323.8,45.1z"/>
		<path d="M398.2,30.6c-0.6-2.1-1.7-4-3.2-5.6c-1.5-1.7-3.4-3-5.8-4c-2.4-1-5.3-1.5-8.8-1.5c-4.3,0-8,0.8-11.3,2.3
			c-3.2,1.5-5.9,3.5-8.1,6c-2.2,2.5-3.8,5.3-4.9,8.4c-1.1,3.1-1.6,6.3-1.6,9.6c0,1.4,0.2,3,0.6,5c0.4,1.9,1.3,3.8,2.6,5.6
			c1.3,1.8,3.2,3.3,5.7,4.5c2.5,1.2,5.8,1.9,10,1.9c4,0,7.6-0.7,10.8-2.1c3.2-1.4,5.9-3.3,8.1-5.7c2.2-2.4,3.9-5.1,5.1-8.2
			c1.2-3.1,1.7-6.3,1.7-9.6C399.2,34.8,398.9,32.7,398.2,30.6z M380.7,40.9c-0.4,2-0.8,3.8-1.2,5.2c-0.1,0.5-0.3,1.1-0.6,1.6
			c-0.2,0.6-0.5,1.1-0.9,1.5c-0.3,0.5-0.7,0.9-1.2,1.1c-0.5,0.3-1,0.4-1.7,0.4c-0.5,0-1.1-0.2-1.6-0.7c-0.6-0.5-0.8-1.5-0.8-3.1
			c0-0.8,0.1-1.8,0.2-3c0.1-1.2,0.3-2.3,0.5-3.5c0.2-1.2,0.5-2.3,0.7-3.3c0.3-1.1,0.5-1.9,0.8-2.5c0.1-0.3,0.3-0.6,0.5-1
			c0.2-0.4,0.4-0.8,0.7-1.1c0.3-0.3,0.7-0.6,1.1-0.9c0.4-0.2,0.9-0.4,1.4-0.4c0.6,0,1.1,0.1,1.5,0.4c0.4,0.3,0.6,0.6,0.8,1.1
			c0.2,0.4,0.3,0.9,0.3,1.3c0,0.4,0.1,0.8,0.1,1.1C381.3,37,381.1,38.9,380.7,40.9z"/>
		<path d="M410.5,32.6c-0.8,4.2-1.4,7.5-1.9,9.9c-0.5,2.4-1.1,4.2-1.6,5.5c-0.5,1.2-1,2-1.6,2.4c-0.5,0.3-1.2,0.5-1.9,0.5
			c-0.8,0-1.5-0.1-1.9-0.2c-0.3-0.1-0.5-0.2-0.7-0.3l-1.9,11c0.7,0.3,1.5,0.5,2.3,0.7c0.7,0.2,1.5,0.3,2.4,0.4
			c0.9,0.1,1.9,0.2,3,0.2c1.7,0,3.2-0.1,4.6-0.4c1.3-0.2,2.6-0.7,3.7-1.5c1.1-0.7,2.1-1.8,3-3.1c0.9-1.3,1.7-3.1,2.5-5.2
			c0.8-2.2,1.6-4.8,2.3-8c0.7-3.2,1.5-6.9,2.3-11.2l0.2-1.1h5.8l-5.1,29.5H443l7.2-41.3h-37.5L410.5,32.6z"/>
		<path d="M490.8,35.6c-1.1-1-2.6-1.7-4.5-2.2c-1.9-0.5-4.1-0.8-6.9-0.8h-5.9l2.1-12.1h-16.9l-7,41.3h22.8c3.3,0,6.3-0.4,8.7-1.3
			c2.5-0.9,4.5-2.1,6.1-3.7c1.6-1.6,2.8-3.5,3.6-5.7c0.8-2.2,1.2-4.7,1.2-7.5c0-1.6-0.3-3.1-0.8-4.5
			C492.8,37.7,491.9,36.6,490.8,35.6z M475.6,50.3c-0.9,1.1-2.1,1.6-3.5,1.6h-2.2l1.6-9.3h2.2c2.2,0,3.3,1.1,3.3,3.2
			C477,47.8,476.5,49.2,475.6,50.3z"/>
		<polygon points="525.5,34.7 519.5,34.7 522,20.4 505.1,20.4 497.9,61.7 514.8,61.7 517.4,46.5 523.4,46.5 520.8,61.7 537.7,61.7 
			544.9,20.4 528,20.4 		"/>
		<path d="M588.1,24.9c-1.5-1.7-3.4-3-5.8-4c-2.4-1-5.3-1.5-8.8-1.5c-4.3,0-8,0.8-11.3,2.3c-3.2,1.5-5.9,3.5-8.1,6
			c-2.2,2.5-3.8,5.3-4.9,8.4c-1.1,3.1-1.6,6.3-1.6,9.6c0,1.4,0.2,3,0.6,5c0.4,1.9,1.3,3.8,2.6,5.6c1.3,1.8,3.2,3.3,5.7,4.5
			c2.5,1.2,5.8,1.9,10,1.9c4,0,7.6-0.7,10.8-2.1c3.2-1.4,5.9-3.3,8.1-5.7c2.2-2.4,3.9-5.1,5.1-8.2c1.2-3.1,1.7-6.3,1.7-9.6
			c0-2.2-0.3-4.4-1-6.5C590.7,28.5,589.6,26.6,588.1,24.9z M573.8,40.9c-0.4,2-0.8,3.8-1.2,5.2c-0.1,0.5-0.3,1.1-0.6,1.6
			c-0.2,0.6-0.5,1.1-0.9,1.5c-0.3,0.5-0.7,0.9-1.2,1.1c-0.5,0.3-1,0.4-1.7,0.4c-0.5,0-1.1-0.2-1.6-0.7c-0.6-0.5-0.8-1.5-0.8-3.1
			c0-0.8,0.1-1.8,0.2-3c0.1-1.2,0.3-2.3,0.5-3.5c0.2-1.2,0.5-2.3,0.7-3.3c0.3-1.1,0.5-1.9,0.8-2.5c0.1-0.3,0.3-0.6,0.5-1
			c0.2-0.4,0.4-0.8,0.7-1.1c0.3-0.3,0.7-0.6,1.1-0.9c0.4-0.2,0.9-0.4,1.4-0.4c0.6,0,1.1,0.1,1.5,0.4c0.4,0.3,0.6,0.6,0.8,1.1
			c0.2,0.4,0.3,0.9,0.3,1.3c0,0.4,0.1,0.8,0.1,1.1C574.3,37,574.1,38.9,573.8,40.9z"/>
		<path d="M634.6,23.1c-1.4-1.1-3.1-2-5.3-2.6c-2.2-0.7-4.8-1-7.8-1c-3.8,0-7.2,0.7-10.3,2c-3.1,1.4-5.7,3.2-7.9,5.6
			c-2.2,2.4-3.9,5.1-5.1,8.2c-1.2,3.1-1.8,6.4-1.8,10c0,2.7,0.4,5.1,1.1,7.2c0.7,2.2,1.9,4,3.4,5.5c1.6,1.5,3.6,2.6,6,3.4
			c2.5,0.8,5.4,1.2,8.9,1.2c2.3,0,4.9-0.2,7.7-0.5c2.8-0.3,5.7-1,8.7-1.9l1.9-10.7c-0.9,0.4-2,0.7-3.2,1.1c-1.2,0.3-2.4,0.6-3.7,0.9
			c-1.3,0.3-2.5,0.5-3.8,0.6c-1.3,0.2-2.4,0.2-3.4,0.2c-2.4,0-4.1-0.5-5.2-1.5c-1.1-1-1.7-2.3-1.9-4.1c5.3-0.3,9.6-0.9,12.9-1.8
			c3.3-0.9,5.9-2,7.8-3.3c1.9-1.3,3.2-2.9,3.9-4.6c0.7-1.8,1-3.7,1-5.7c0-1.5-0.3-3-1-4.5C637,25.5,636,24.2,634.6,23.1z M623.6,34
			c-0.3,0.6-0.8,1.2-1.5,1.7c-0.8,0.5-1.8,1-3.1,1.4c-1.3,0.4-3.1,0.7-5.2,0.9c0.6-3.2,1.6-5.5,2.9-6.9c1.3-1.4,2.7-2,4.3-2
			c1.1,0,1.9,0.3,2.4,0.8c0.5,0.6,0.8,1.3,0.8,2.2C624,32.8,623.9,33.4,623.6,34z"/>
		<path d="M694.8,36.3c1.4-1.9,2.1-4.1,2.1-6.7c0-1.2-0.2-2.3-0.7-3.5c-0.4-1.2-1.2-2.3-2.3-3.3c-1.1-1-2.6-1.8-4.6-2.4
			c-1.9-0.6-4.4-0.9-7.4-0.9c-2.9,0-5.6,0.2-8.3,0.5c-2.7,0.3-5.5,1-8.5,2l-1.9,10.7c1.7-0.8,3.6-1.6,5.7-2.2
			c2.1-0.6,4.3-0.9,6.6-0.9c0.3,0,0.8,0,1.3,0.1c0.6,0.1,1.2,0.2,1.7,0.4c0.6,0.2,1.1,0.5,1.5,1c0.4,0.4,0.6,1.1,0.6,1.9
			c0,0.3,0,0.6-0.1,1c-0.1,0.4-0.3,0.8-0.6,1.3c-0.3,0.4-0.8,0.8-1.5,1.1c-0.7,0.3-1.6,0.4-2.8,0.4H669l-1.3,7.9h5.7
			c0.2,0,0.6,0,1.1,0c0.5,0,1,0.1,1.5,0.4c0.5,0.2,0.9,0.5,1.3,1c0.4,0.4,0.6,1.1,0.6,1.9c0,0.4-0.1,0.9-0.2,1.5
			c-0.2,0.6-0.5,1.1-0.9,1.5c-0.4,0.5-1.1,0.9-1.9,1.2c-0.8,0.3-1.9,0.5-3.2,0.5c-1.7,0-3.5-0.2-5.6-0.7c-2.1-0.5-4.2-1.4-6.4-2.6
			L657.6,60c3.2,1.2,6.1,2,8.6,2.2c2.5,0.3,4.7,0.4,6.7,0.4c3.5,0,6.5-0.3,9-0.9c2.5-0.6,4.6-1.4,6.3-2.3c1.7-0.9,3-2,4-3.1
			c1-1.2,1.7-2.3,2.1-3.4c0.5-1.1,0.8-2.1,0.9-3c0.1-0.9,0.2-1.6,0.2-2.2c0-1.9-0.5-3.7-1.5-5.1c-1-1.5-2.5-2.3-4.5-2.4V40
			C691.6,39.5,693.4,38.2,694.8,36.3z"/>
		<path d="M744.6,30.6c-0.6-2.1-1.7-4-3.2-5.6c-1.5-1.7-3.4-3-5.8-4c-2.4-1-5.3-1.5-8.8-1.5c-4.3,0-8,0.8-11.3,2.3
			c-3.2,1.5-5.9,3.5-8.1,6c-2.2,2.5-3.8,5.3-4.9,8.4c-1.1,3.1-1.6,6.3-1.6,9.6c0,1.4,0.2,3,0.6,5c0.4,1.9,1.3,3.8,2.6,5.6
			c1.3,1.8,3.2,3.3,5.7,4.5s5.8,1.9,10,1.9c4,0,7.6-0.7,10.8-2.1c3.2-1.4,5.9-3.3,8.1-5.7s3.9-5.1,5.1-8.2c1.2-3.1,1.7-6.3,1.7-9.6
			C745.6,34.8,745.3,32.7,744.6,30.6z M727.1,40.9c-0.4,2-0.8,3.8-1.2,5.2c-0.1,0.5-0.3,1.1-0.6,1.6c-0.2,0.6-0.5,1.1-0.9,1.5
			c-0.3,0.5-0.7,0.9-1.2,1.1c-0.5,0.3-1,0.4-1.7,0.4c-0.5,0-1.1-0.2-1.6-0.7c-0.6-0.5-0.8-1.5-0.8-3.1c0-0.8,0.1-1.8,0.2-3
			c0.1-1.2,0.3-2.3,0.5-3.5c0.2-1.2,0.5-2.3,0.7-3.3c0.3-1.1,0.5-1.9,0.8-2.5c0.1-0.3,0.3-0.6,0.5-1c0.2-0.4,0.4-0.8,0.7-1.1
			c0.3-0.3,0.7-0.6,1.1-0.9c0.4-0.2,0.9-0.4,1.4-0.4c0.6,0,1.1,0.1,1.5,0.4c0.4,0.3,0.6,0.6,0.8,1.1c0.2,0.4,0.3,0.9,0.3,1.3
			c0,0.4,0.1,0.8,0.1,1.1C727.6,37,727.4,38.9,727.1,40.9z"/>
		<path d="M756.9,32.6c-0.8,4.2-1.4,7.5-1.9,9.9c-0.5,2.4-1.1,4.2-1.6,5.5c-0.5,1.2-1,2-1.6,2.4c-0.5,0.3-1.2,0.5-1.9,0.5
			c-0.8,0-1.5-0.1-1.9-0.2c-0.3-0.1-0.5-0.2-0.7-0.3l-1.9,11c0.7,0.3,1.5,0.5,2.3,0.7c0.7,0.2,1.5,0.3,2.4,0.4
			c0.9,0.1,1.9,0.2,3,0.2c1.7,0,3.2-0.1,4.6-0.4c1.3-0.2,2.6-0.7,3.7-1.5c1.1-0.7,2.1-1.8,3-3.1c0.9-1.3,1.7-3.1,2.5-5.2
			c0.8-2.2,1.6-4.8,2.3-8c0.7-3.2,1.5-6.9,2.3-11.2l0.2-1.1h5.8l-5.1,29.5h16.9l7.2-41.3H759L756.9,32.6z"/>
		<path d="M839.8,24.9c-1.5-1.7-3.4-3-5.8-4c-2.4-1-5.3-1.5-8.8-1.5c-4.3,0-8,0.8-11.3,2.3c-3.2,1.5-5.9,3.5-8.1,6
			c-2.2,2.5-3.8,5.3-4.9,8.4c-1.1,3.1-1.6,6.3-1.6,9.6c0,1.4,0.2,3,0.6,5c0.4,1.9,1.3,3.8,2.6,5.6c1.3,1.8,3.2,3.3,5.7,4.5
			c2.5,1.2,5.8,1.9,10,1.9c4,0,7.6-0.7,10.8-2.1c3.2-1.4,5.9-3.3,8.1-5.7c2.2-2.4,3.9-5.1,5.1-8.2c1.2-3.1,1.7-6.3,1.7-9.6
			c0-2.2-0.3-4.4-1-6.5C842.3,28.5,841.3,26.6,839.8,24.9z M825.4,40.9c-0.4,2-0.8,3.8-1.2,5.2c-0.1,0.5-0.3,1.1-0.6,1.6
			c-0.2,0.6-0.5,1.1-0.9,1.5c-0.3,0.5-0.7,0.9-1.2,1.1c-0.5,0.3-1,0.4-1.7,0.4c-0.5,0-1.1-0.2-1.6-0.7c-0.6-0.5-0.8-1.5-0.8-3.1
			c0-0.8,0.1-1.8,0.2-3c0.1-1.2,0.3-2.3,0.5-3.5c0.2-1.2,0.5-2.3,0.7-3.3c0.3-1.1,0.5-1.9,0.8-2.5c0.1-0.3,0.3-0.6,0.5-1
			c0.2-0.4,0.4-0.8,0.7-1.1c0.3-0.3,0.7-0.6,1.1-0.9c0.4-0.2,0.9-0.4,1.4-0.4c0.6,0,1.1,0.1,1.5,0.4c0.4,0.3,0.6,0.6,0.8,1.1
			c0.2,0.4,0.3,0.9,0.3,1.3c0,0.4,0.1,0.8,0.1,1.1C826,37,825.8,38.9,825.4,40.9z"/>
		<polygon points="849.5,20.4 847.4,32.2 856.8,32.2 851.7,61.7 868.6,61.7 873.7,32.2 883.1,32.2 885.2,20.4 		"/>
		<path d="M927.7,30.6c-0.6-2.1-1.7-4-3.2-5.6c-1.5-1.7-3.4-3-5.8-4c-2.4-1-5.3-1.5-8.8-1.5c-4.3,0-8,0.8-11.3,2.3
			c-3.2,1.5-5.9,3.5-8.1,6c-2.2,2.5-3.8,5.3-4.9,8.4c-1.1,3.1-1.6,6.3-1.6,9.6c0,1.4,0.2,3,0.6,5c0.4,1.9,1.3,3.8,2.6,5.6
			c1.3,1.8,3.2,3.3,5.7,4.5c2.5,1.2,5.8,1.9,10,1.9c4,0,7.6-0.7,10.8-2.1c3.2-1.4,5.9-3.3,8.1-5.7s3.9-5.1,5.1-8.2
			c1.2-3.1,1.7-6.3,1.7-9.6C928.7,34.8,928.4,32.7,927.7,30.6z M910.2,40.9c-0.4,2-0.8,3.8-1.2,5.2c-0.1,0.5-0.3,1.1-0.6,1.6
			c-0.2,0.6-0.5,1.1-0.9,1.5s-0.7,0.9-1.2,1.1c-0.5,0.3-1,0.4-1.7,0.4c-0.5,0-1.1-0.2-1.6-0.7c-0.6-0.5-0.8-1.5-0.8-3.1
			c0-0.8,0.1-1.8,0.2-3c0.1-1.2,0.3-2.3,0.5-3.5c0.2-1.2,0.5-2.3,0.7-3.3c0.3-1.1,0.5-1.9,0.8-2.5c0.1-0.3,0.3-0.6,0.5-1
			c0.2-0.4,0.4-0.8,0.7-1.1c0.3-0.3,0.7-0.6,1.1-0.9c0.4-0.2,0.9-0.4,1.4-0.4c0.6,0,1.1,0.1,1.5,0.4c0.4,0.3,0.6,0.6,0.8,1.1
			c0.2,0.4,0.3,0.9,0.3,1.3c0,0.4,0.1,0.8,0.1,1.1C910.7,37,910.5,38.9,910.2,40.9z"/>
	</g>
	<g>
		<path d="M186.3,109c0-2.3-0.3-4.6-0.9-7.1c-0.6-2.5-1.8-4.8-3.4-6.9c-1.7-2.1-3.9-3.9-6.8-5.3c-2.9-1.4-6.5-2.1-10.9-2.1
			c-4.3,0-8.1,0.6-11.3,1.9c-3.3,1.2-6.1,2.9-8.4,4.9c-2.3,2-4.3,4.3-5.9,6.9c-1.6,2.6-2.8,5.2-3.8,7.8c-0.9,2.6-1.6,5.2-2,7.7
			c-0.4,2.5-0.6,4.7-0.6,6.5c0,2.5,0.3,5.1,1,7.6c0.7,2.5,1.9,4.8,3.5,6.9c1.7,2,3.9,3.7,6.7,5c2.8,1.3,6.3,1.9,10.4,1.9
			c4.4,0,8.2-0.6,11.6-1.9c3.3-1.3,6.2-2.9,8.6-4.9c2.4-2,4.4-4.3,5.9-6.9c1.6-2.5,2.8-5.1,3.7-7.8c0.9-2.7,1.6-5.2,1.9-7.7
			C186.1,113,186.3,110.9,186.3,109z M167.2,111.9c-0.1,1.3-0.3,2.7-0.6,4.1c-0.2,1.4-0.5,2.7-0.8,3.9s-0.5,2.3-0.8,3.1
			c-0.5,1.7-1.2,3.1-1.9,4.2c-0.7,1.1-1.5,1.9-2.2,2.6s-1.5,1.1-2.3,1.3c-0.7,0.2-1.4,0.4-2,0.4c-0.4,0-0.8-0.1-1.5-0.2
			c-0.6-0.1-1.2-0.4-1.8-0.9c-0.6-0.5-1.1-1.3-1.5-2.3c-0.4-1-0.6-2.4-0.6-4.2c0-1.1,0.1-2.3,0.2-3.6c0.1-1.3,0.3-2.6,0.5-3.9
			c0.2-1.3,0.5-2.6,0.8-3.8c0.3-1.2,0.6-2.3,0.8-3.2c0.6-1.8,1.3-3.3,2.1-4.4c0.8-1.1,1.5-2,2.3-2.6c0.8-0.6,1.5-1,2.2-1.2
			c0.7-0.2,1.3-0.3,1.8-0.3c0.4,0,0.9,0.1,1.6,0.2c0.6,0.2,1.2,0.5,1.8,1c0.6,0.5,1,1.2,1.5,2.2c0.4,1,0.6,2.3,0.6,4
			C167.4,109.4,167.3,110.6,167.2,111.9z"/>
		<path d="M195.3,114.6c-0.8,4.2-1.4,7.5-1.9,9.9c-0.5,2.4-1.1,4.2-1.6,5.5c-0.5,1.2-1,2-1.6,2.4c-0.5,0.3-1.2,0.5-1.9,0.5
			c-0.8,0-1.5-0.1-1.9-0.2c-0.3-0.1-0.5-0.2-0.7-0.3l-1.9,11c0.7,0.3,1.5,0.5,2.3,0.7c0.7,0.2,1.5,0.3,2.4,0.4
			c0.9,0.1,1.9,0.2,3,0.2c1.7,0,3.2-0.1,4.6-0.4c1.3-0.2,2.6-0.7,3.7-1.5c1.1-0.7,2.1-1.8,3-3.1c0.9-1.3,1.7-3.1,2.5-5.2
			c0.8-2.2,1.6-4.8,2.3-8c0.7-3.2,1.5-6.9,2.3-11.2l0.2-1.1h5.8l-5.1,29.5h16.9l7.2-41.3h-37.5L195.3,114.6z"/>
		<path d="M262.4,126.3c-0.1,0.5-0.2,1-0.3,1.7c-0.1,0.6-0.3,1.2-0.6,1.9c-0.3,0.6-0.7,1.1-1.1,1.5c-0.5,0.4-1.1,0.6-1.8,0.6
			c-0.5,0-0.9-0.1-1.2-0.4c-0.3-0.2-0.5-0.5-0.7-0.8c-0.2-0.3-0.2-0.6-0.3-0.9c0-0.3,0-0.5,0-0.6c0-1.1,0.1-2.1,0.3-3l4.2-23.9h-17
			l-5,28.8c-0.1,0.7-0.2,1.3-0.2,2c-0.1,0.6-0.1,1.3-0.1,2c0,1.7,0.3,3.2,0.8,4.4c0.5,1.2,1.2,2.2,2.1,3c0.9,0.8,1.9,1.3,3.1,1.7
			c1.2,0.3,2.4,0.5,3.8,0.5c0.8,0,1.7-0.1,2.8-0.2c1.1-0.1,2.2-0.5,3.4-1s2.4-1.4,3.7-2.4c1.2-1.1,2.4-2.5,3.4-4.4h0.1l-1.2,7.1
			h15.9l7.2-41.3h-16.9L262.4,126.3z"/>
		<polygon points="312.3,124 310.2,102.4 292.1,102.4 284.9,143.7 298.3,143.7 302.2,121 302.5,121 304,135.8 315.8,135.8 
			322.3,121 322.5,121 318.6,143.7 332,143.7 339.2,102.4 321.8,102.4 		"/>
		<path d="M384.6,106c-0.3-0.5-0.6-1-1.1-1.5c-0.5-0.5-1.1-1-1.8-1.5c-0.7-0.5-1.6-0.9-2.5-1.1c-1-0.3-2.1-0.4-3.5-0.4
			c-3,0-5.6,0.8-7.7,2.3c-2.1,1.6-3.8,3.5-5.1,5.8h-0.3l1.3-7.2h-15.9l-7.2,41.3h16.9l4.1-23.8c0.4-2.5,1-4.1,1.9-4.9
			c0.5-0.5,1.2-0.7,2-0.7s1.4,0.3,1.8,0.8c0.4,0.5,0.6,1.2,0.6,2c0,0.5,0,0.9-0.1,1.4c-0.1,0.4-0.1,0.9-0.2,1.4l-4.1,23.8h16.9
			l5-28.7c0.1-0.7,0.2-1.3,0.3-2c0.1-0.6,0.1-1.3,0.1-1.9c0-0.9-0.1-1.8-0.3-2.7C385.3,107.6,385,106.8,384.6,106z"/>
		<path d="M415,126.3c-0.1,0.5-0.2,1-0.3,1.7c-0.1,0.6-0.3,1.2-0.6,1.9c-0.3,0.6-0.7,1.1-1.1,1.5c-0.5,0.4-1.1,0.6-1.8,0.6
			c-0.5,0-0.9-0.1-1.2-0.4c-0.3-0.2-0.5-0.5-0.7-0.8c-0.2-0.3-0.2-0.6-0.3-0.9c0-0.3,0-0.5,0-0.6c0-1.1,0.1-2.1,0.3-3l4.2-23.9h-17
			l-5,28.8c-0.1,0.7-0.2,1.3-0.2,2s-0.1,1.3-0.1,2c0,1.7,0.3,3.2,0.8,4.4c0.5,1.2,1.2,2.2,2.1,3c0.9,0.8,1.9,1.3,3.1,1.7
			c1.2,0.3,2.4,0.5,3.8,0.5c0.8,0,1.7-0.1,2.8-0.2c1.1-0.1,2.2-0.5,3.4-1s2.4-1.4,3.6-2.4c1.2-1.1,2.4-2.5,3.4-4.4h0.1l-1.2,7.1
			h15.9l7.2-41.3h-16.9L415,126.3z"/>
		<path d="M469.1,102.4l-0.9,5.3c-0.3-0.6-0.6-1.2-1.1-2c-0.4-0.7-1-1.4-1.8-2c-0.8-0.6-1.7-1.2-2.8-1.6c-1.1-0.4-2.4-0.6-4-0.6
			c-3.3,0-6.2,0.9-8.6,2.6c-2.5,1.7-4.5,3.9-6.1,6.6c-1.6,2.7-2.8,5.7-3.7,8.9c-0.8,3.3-1.2,6.5-1.2,9.7c0,4.6,1,8.3,3.1,11.1
			c2.1,2.8,5,4.2,8.9,4.2c3.1,0,5.7-0.7,7.9-2.2c2.2-1.5,4-3.4,5.3-5.8h0.3l-1.2,7h15.7l7.1-41.3H469.1z M466.1,122.6
			c-0.3,1.6-0.6,3-1.1,4.2c-0.4,1.1-0.8,1.9-1.2,2.5c-0.4,0.6-0.9,1.1-1.3,1.4c-0.4,0.3-0.8,0.5-1.2,0.6c-0.4,0.1-0.7,0.1-1,0.1
			c-0.3,0-0.6-0.1-0.9-0.2c-0.4-0.1-0.7-0.3-1-0.6s-0.6-0.8-0.8-1.4c-0.2-0.6-0.3-1.5-0.3-2.5c0-1.5,0.2-3.2,0.6-5
			c0.4-1.9,0.9-3.4,1.5-4.6c0.1-0.2,0.3-0.5,0.5-0.9c0.2-0.4,0.5-0.7,0.8-1.1c0.3-0.4,0.7-0.7,1.2-0.9s1-0.4,1.6-0.4
			c0.2,0,0.5,0,0.9,0.1c0.4,0.1,0.7,0.3,1,0.6c0.3,0.3,0.6,0.8,0.9,1.4c0.2,0.6,0.4,1.4,0.4,2.5C466.5,119.6,466.4,121,466.1,122.6z
			"/>
		<path d="M518.3,110.2h-0.3c-0.3-2.7-1.4-4.8-3.1-6.4c-1.8-1.5-4.1-2.3-6.8-2.3c-3,0-5.7,0.8-8.2,2.5c-2.4,1.7-4.5,3.8-6.1,6.4
			c-1.7,2.6-3,5.6-3.9,9c-0.9,3.4-1.4,6.7-1.4,10.1c0,4.3,1.1,7.8,3.3,10.4c2.2,2.6,5.3,3.9,9.4,3.9c0.8,0,1.6-0.1,2.5-0.2
			c0.9-0.2,1.8-0.5,2.8-0.9c1-0.4,2-1,3.1-1.8c1.1-0.8,2.2-1.8,3.3-3h0.3l-0.5,2c-0.8,3.4-2.2,6-4.3,7.7c-2.1,1.8-4.9,2.7-8.5,2.7
			c-1.9,0-3.9-0.4-6-1.1c-2.2-0.8-4.2-1.8-6.2-3.1l-2.3,13c3.6,1.3,6.7,2.2,9.3,2.5c2.6,0.4,4.9,0.6,7,0.6c2.9,0,5.8-0.3,8.7-0.8
			c2.9-0.5,5.7-1.6,8.2-3.3c2.5-1.7,4.8-4.1,6.8-7.3c2-3.2,3.4-7.5,4.4-12.8l6.2-35.3h-16L518.3,110.2z M515.8,122.7
			c-0.2,1.2-0.5,2.2-0.8,3.1c-0.4,1.3-1,2.5-1.7,3.6c-0.7,1.1-1.8,1.6-3.3,1.6c-1,0-1.8-0.3-2.4-1c-0.6-0.7-0.9-1.7-0.9-2.9
			c0-1.5,0.1-2.9,0.4-4.2c0.2-1.3,0.5-2.4,0.8-3.4c0.4-1.3,1-2.5,1.7-3.6c0.7-1.1,1.8-1.6,3.3-1.6c0.9,0,1.7,0.3,2.3,1
			c0.6,0.7,0.9,1.9,0.9,3.5C516.1,120.2,516,121.5,515.8,122.7z"/>
		<polygon points="580.3,143.7 597.2,143.7 604.3,102.4 587.5,102.4 		"/>
		<path d="M576.3,117.6c-1.1-1-2.6-1.7-4.5-2.2c-1.9-0.5-4.1-0.8-6.9-0.8h-5.9l2.1-12.1h-16.9l-7,41.3H560c3.3,0,6.3-0.4,8.7-1.3
			c2.5-0.9,4.5-2.1,6.1-3.7c1.6-1.6,2.8-3.5,3.6-5.7c0.8-2.2,1.2-4.7,1.2-7.5c0-1.6-0.3-3.1-0.8-4.5
			C578.3,119.7,577.4,118.6,576.3,117.6z M561.1,132.3c-0.9,1.1-2.1,1.6-3.5,1.6h-2.2l1.6-9.3h2.2c2.2,0,3.3,1.1,3.3,3.2
			C562.5,129.8,562,131.2,561.1,132.3z"/>
		<polygon points="609.9,127.9 632.5,127.9 635.3,112.2 612.8,112.2 		"/>
		<polygon points="644.1,103.9 648.7,116.1 660.7,107.9 654.5,143.7 671.4,143.7 680.9,88.6 666.5,88.6 		"/>
		<path d="M712.4,87.6c-3,0-6,0.6-8.8,1.7c-2.8,1.1-5.4,2.7-7.6,4.8c-2.2,2-4,4.5-5.3,7.4c-1.3,2.9-2,6.1-2,9.6
			c0,4.2,1.2,7.5,3.6,10c2.4,2.4,5.7,3.7,9.9,3.7c2.7,0,4.8-0.4,6.3-1.1c1.5-0.7,2.8-1.5,3.9-2.2h0.3c-0.5,2.7-1.3,4.8-2.5,6.2
			c-1.2,1.5-2.5,2.6-3.9,3.3c-1.4,0.7-2.6,1.1-3.9,1.3s-2.1,0.2-2.6,0.2c-2.1,0-4.1-0.2-5.9-0.6c-1.8-0.4-3.6-0.8-5.5-1.3l-2.2,12.7
			c3.5,0.7,6.3,1.2,8.5,1.3c2.2,0.1,3.8,0.2,4.9,0.2c4.6,0,8.9-1,12.7-3c3.8-2,7-4.6,9.7-8c2.7-3.4,4.8-7.2,6.2-11.7
			s2.2-9.1,2.2-13.9c0-6.5-1.6-11.5-4.8-15.1C722.5,89.4,718.1,87.6,712.4,87.6z M714.7,108.2c-0.3,1.2-0.8,2.2-1.4,3.1
			c-0.6,0.9-1.4,1.6-2.2,2.1c-0.9,0.5-1.8,0.8-2.8,0.8c-1.3,0-2.4-0.5-3.2-1.4c-0.8-0.9-1.2-2.2-1.2-4c0-1.2,0.2-2.4,0.5-3.5
			c0.4-1.1,0.8-2.1,1.5-3c0.6-0.9,1.4-1.6,2.2-2.1c0.8-0.5,1.8-0.8,2.8-0.8c1.3,0,2.4,0.4,3.2,1.3c0.8,0.9,1.2,2.2,1.2,3.9
			C715.2,105.9,715.1,107.1,714.7,108.2z"/>
		<polygon points="740.5,88.6 738.3,101.3 762.3,101.3 734.8,143.7 752.3,143.7 778.1,101.3 780.3,88.6 		"/>
		<path d="M811.1,123.3c3.1-2.4,5.5-4.8,7.3-7.2c1.8-2.4,3.1-4.8,3.8-7.1c0.7-2.3,1.1-4.6,1.1-6.8c0-1.6-0.2-3.3-0.7-5
			c-0.5-1.7-1.4-3.3-2.8-4.7c-1.4-1.4-3.2-2.6-5.6-3.5c-2.4-0.9-5.5-1.3-9.3-1.3c-2.4,0-4.8,0.1-7.3,0.4c-2.5,0.2-5.1,0.7-7.9,1.4
			l-2.5,14.4c2.3-1,4.3-1.7,6-2c1.7-0.3,3.3-0.5,4.6-0.5c1.6,0,2.9,0.2,3.9,0.6c1,0.4,1.8,0.9,2.4,1.5c0.6,0.6,1,1.3,1.2,2
			c0.2,0.7,0.3,1.4,0.3,2.1c0,1.9-0.6,3.8-1.7,5.4c-1.2,1.7-2.6,3.2-4.4,4.6c-1.8,1.4-3.7,2.7-5.7,3.9c-2,1.2-3.9,2.3-5.7,3.2
			l-6.1,3.4l-2.7,15.5h37.1l2.3-13.2h-19.2l0.1-0.2C804.2,128,808,125.6,811.1,123.3z"/>
	</g>
</g>
</svg>
