<?xml version="1.0" encoding="utf-8"?>
<!-- Generator: Adobe Illustrator 22.0.1, SVG Export Plug-In . SVG Version: 6.00 Build 0)  -->
<svg version="1.1" id="Layer_2_1_" xmlns="http://www.w3.org/2000/svg" xmlns:xlink="http://www.w3.org/1999/xlink" x="0px" y="0px"
	 viewBox="0 0 824.6 246.5" style="enable-background:new 0 0 824.6 246.5;" xml:space="preserve">
<style type="text/css">
	.st0{fill-rule:evenodd;clip-rule:evenodd;fill:#FFFFFF;}
</style>
<g>
	<g>
		<rect x="85.1" class="st0" width="654.5" height="74.7"/>
		<rect y="83.1" class="st0" width="824.6" height="74.7"/>
		<rect x="193.6" y="167.3" class="st0" width="437.4" height="73.3"/>
	</g>
	<g>
		<path d="M155.4,20.3l2.3-13.8H116l-9.5,55.2l16.9,0.1h10.9c4.2,0,7.6-0.6,10.4-1.9c2.8-1.3,5.1-2.9,6.8-4.9c1.7-2,2.9-4.2,3.7-6.6
			c0.7-2.4,1.1-4.7,1.1-6.9c0-1.5-0.2-3.1-0.6-4.7c-0.4-1.6-1.2-3-2.3-4.3c-1.1-1.3-2.7-2.4-4.6-3.2c-1.9-0.8-4.5-1.3-7.5-1.3h-11.7
			l1.3-7.6H155.4z M132.8,38.9c1.6,0,2.8,0.4,3.7,1.3c0.9,0.8,1.3,2,1.3,3.5c0,0.8-0.2,1.7-0.5,2.5c-0.3,0.8-0.7,1.6-1.3,2.2
			c-0.6,0.7-1.3,1.2-2.1,1.6c-0.8,0.4-1.8,0.6-2.8,0.6h-5.7l2-11.7H132.8z"/>
		<path d="M191.5,25.7c-0.3-0.6-0.6-1.2-1.1-2c-0.4-0.7-1-1.4-1.8-2c-0.8-0.6-1.7-1.2-2.8-1.6c-1.1-0.4-2.4-0.6-4-0.6
			c-3.3,0-6.2,0.9-8.6,2.6c-2.5,1.7-4.5,3.9-6.1,6.6c-1.6,2.7-2.8,5.7-3.7,8.9c-0.8,3.3-1.2,6.5-1.2,9.7c0,4.6,1,8.3,3.1,11.1
			c2.1,2.8,5,4.2,8.9,4.2c3.1,0,5.7-0.7,7.9-2.2c2.2-1.5,4-3.4,5.3-5.8h0.3l-1.2,7h15.7l7.1-41.3h-16.9L191.5,25.7z M189.4,40.6
			c-0.3,1.6-0.6,3-1.1,4.2c-0.4,1.1-0.8,1.9-1.2,2.5c-0.4,0.6-0.9,1.1-1.3,1.4c-0.4,0.3-0.8,0.5-1.2,0.6c-0.4,0.1-0.7,0.1-1,0.1
			c-0.3,0-0.6-0.1-0.9-0.2c-0.4-0.1-0.7-0.3-1-0.6c-0.3-0.3-0.6-0.8-0.8-1.4c-0.2-0.6-0.3-1.5-0.3-2.5c0-1.5,0.2-3.2,0.6-5
			c0.4-1.9,0.9-3.4,1.5-4.6c0.1-0.2,0.3-0.5,0.5-0.9c0.2-0.4,0.5-0.7,0.8-1.1c0.3-0.4,0.7-0.7,1.2-0.9c0.5-0.2,1-0.4,1.6-0.4
			c0.2,0,0.5,0,0.9,0.1c0.4,0.1,0.7,0.3,1,0.6c0.3,0.3,0.6,0.8,0.9,1.4c0.2,0.6,0.4,1.4,0.4,2.5C189.8,37.6,189.7,39,189.4,40.6z"/>
		<path d="M238.1,19.5c-3.3,0-6.3,0.4-8.9,1.3c-2.6,0.8-4.8,2-6.8,3.3c-1.9,1.4-3.6,3-4.9,4.8c-1.3,1.8-2.4,3.7-3.2,5.6
			c-0.8,1.9-1.4,3.9-1.7,5.8c-0.4,1.9-0.5,3.7-0.5,5.3c0,2.8,0.4,5.1,1.2,7.1c0.8,1.9,1.8,3.5,3,4.8c1.2,1.3,2.5,2.3,4,3
			c1.5,0.7,2.9,1.2,4.3,1.5c1.4,0.3,2.7,0.6,3.8,0.6c1.2,0.1,2,0.1,2.5,0.1c1.9,0,3.9-0.1,5.9-0.4c2-0.2,4.3-0.8,6.7-1.7l2.1-11.9
			c-1.2,0.6-2.5,1.1-3.9,1.5c-1.4,0.4-2.7,0.6-4.1,0.6c-0.3,0-0.8-0.1-1.6-0.2c-0.8-0.1-1.6-0.4-2.4-0.9c-0.8-0.5-1.6-1.2-2.2-2.2
			c-0.6-1-1-2.4-1-4.2c0-1.4,0.2-2.8,0.6-4.2c0.4-1.4,1.1-2.8,2-3.9c0.9-1.2,2-2.1,3.3-2.9c1.3-0.7,2.9-1.1,4.8-1.1
			c0.8,0,1.7,0.1,2.9,0.4c1.2,0.2,2.5,0.7,4,1.5l2-11.8c-1.5-0.5-3.2-0.9-5.2-1.3C242.9,19.7,240.6,19.5,238.1,19.5z"/>
		<polygon points="302.9,20.4 284.6,20.4 271.9,38.5 271.6,38.5 274.8,20.4 258.2,20.4 251,61.7 267.6,61.7 270.8,43.5 271,43.5 
			277.5,61.7 296.1,61.7 287.7,40.7 		"/>
		<path d="M339.5,23.1c-1.4-1.1-3.1-2-5.3-2.6c-2.2-0.7-4.8-1-7.8-1c-3.8,0-7.2,0.7-10.3,2c-3.1,1.4-5.7,3.2-7.9,5.6
			c-2.2,2.4-3.9,5.1-5.1,8.2c-1.2,3.1-1.8,6.4-1.8,10c0,2.7,0.4,5.1,1.1,7.2c0.7,2.2,1.9,4,3.4,5.5c1.6,1.5,3.6,2.6,6,3.4
			c2.5,0.8,5.4,1.2,8.9,1.2c2.3,0,4.9-0.2,7.7-0.5c2.8-0.3,5.7-1,8.7-1.9l1.9-10.7c-0.9,0.4-2,0.7-3.2,1.1c-1.2,0.3-2.4,0.6-3.7,0.9
			c-1.3,0.3-2.5,0.5-3.8,0.6c-1.3,0.2-2.4,0.2-3.4,0.2c-2.4,0-4.1-0.5-5.2-1.5c-1.1-1-1.7-2.3-1.9-4.1c5.3-0.3,9.6-0.9,12.9-1.8
			c3.3-0.9,5.9-2,7.8-3.3c1.9-1.3,3.2-2.9,3.9-4.6c0.7-1.8,1-3.7,1-5.7c0-1.5-0.3-3-1-4.5C341.8,25.5,340.8,24.2,339.5,23.1z
			 M328.4,34c-0.3,0.6-0.8,1.2-1.5,1.7c-0.8,0.5-1.8,1-3.1,1.4c-1.3,0.4-3.1,0.7-5.2,0.9c0.6-3.2,1.6-5.5,2.9-6.9
			c1.3-1.4,2.7-2,4.3-2c1.1,0,1.9,0.3,2.4,0.8c0.5,0.6,0.8,1.3,0.8,2.2C328.8,32.8,328.7,33.4,328.4,34z"/>
		<polygon points="347.6,32.2 357,32.2 351.9,61.7 368.8,61.7 373.8,32.2 383.2,32.2 385.3,20.4 349.7,20.4 		"/>
		<path d="M422.9,3c-1.9,0.2-3.8,0.4-5.7,0.6c-1.9,0.2-3.8,0.4-5.7,0.8c-1.9,0.4-3.7,0.9-5.6,1.6c-1.9,0.7-3.7,1.7-5.5,2.9
			c-2.4,1.6-4.5,3.8-6.4,6.5c-1.8,2.7-3.4,5.6-4.6,8.8c-1.2,3.2-2.2,6.6-2.8,10c-0.6,3.5-1,6.8-1,10c0,1.7,0.2,3.7,0.6,5.8
			c0.4,2.2,1.2,4.2,2.4,6c1.2,1.9,3.1,3.4,5.5,4.7c2.4,1.3,5.6,1.9,9.6,1.9c4.8,0,8.9-0.8,12.2-2.4c3.3-1.6,6-3.6,8-5.9
			c2-2.4,3.5-5,4.4-7.8c0.9-2.8,1.3-5.4,1.3-7.8c0-2.7-0.4-5-1.2-6.9c-0.8-1.9-2-3.5-3.4-4.8c-1.5-1.3-3.2-2.2-5.2-2.8
			c-2-0.6-4.1-0.9-6.4-0.9c-1,0-2.1,0.1-3.3,0.3c-1.2,0.2-2.4,0.5-3.7,1.1c-1.3,0.5-2.6,1.3-3.9,2.2c-1.3,1-2.5,2.2-3.6,3.8h-0.5
			l0.4-1.9c0.4-1.7,0.9-3.1,1.5-4.3c0.6-1.2,1.4-2.1,2.2-2.9c0.8-0.8,1.7-1.4,2.6-1.8c0.9-0.4,1.7-0.8,2.5-1.1
			c1.8-0.6,3.7-1,5.8-1.2c2.1-0.2,4.3-0.4,6.7-0.6c1.2-0.1,2.3-0.1,3.2-0.3c1-0.1,1.8-0.3,2.6-0.5c0.8-0.2,1.6-0.4,2.3-0.7
			c0.7-0.3,1.4-0.7,2.1-1.2L433,0.2c-1.8,0.9-3.5,1.5-5,1.9C426.4,2.5,424.7,2.8,422.9,3z M403.3,45.1c0.1-0.8,0.2-1.6,0.3-2.4
			c0.1-0.8,0.3-1.6,0.5-2.4c0.2-0.8,0.4-1.4,0.5-1.9c0.5-1.6,1.2-2.6,1.9-3.2c0.7-0.5,1.4-0.8,2.1-0.8c0.6,0,1.1,0.1,1.5,0.4
			c0.4,0.2,0.6,0.6,0.8,0.9c0.2,0.4,0.3,0.8,0.4,1.3c0,0.4,0.1,0.9,0.1,1.2c0,1.5-0.1,3-0.4,4.4c-0.1,0.9-0.3,1.8-0.5,2.8
			c-0.2,1-0.5,1.9-0.9,2.6c-0.4,0.8-0.9,1.4-1.4,2c-0.6,0.5-1.3,0.8-2.1,0.8c-1.2,0-2-0.4-2.3-1.3c-0.3-0.8-0.5-1.7-0.5-2.5
			C403.2,46.5,403.2,45.9,403.3,45.1z"/>
		<path d="M477.8,30.6c-0.6-2.1-1.7-4-3.2-5.6c-1.5-1.7-3.4-3-5.8-4c-2.4-1-5.3-1.5-8.8-1.5c-4.3,0-8,0.8-11.3,2.3
			c-3.2,1.5-5.9,3.5-8.1,6c-2.2,2.5-3.8,5.3-4.9,8.4c-1.1,3.1-1.6,6.3-1.6,9.6c0,1.4,0.2,3,0.6,5c0.4,1.9,1.3,3.8,2.6,5.6
			c1.3,1.8,3.2,3.3,5.7,4.5c2.5,1.2,5.8,1.9,10,1.9c4,0,7.6-0.7,10.8-2.1c3.2-1.4,5.9-3.3,8.1-5.7c2.2-2.4,3.9-5.1,5.1-8.2
			c1.2-3.1,1.7-6.3,1.7-9.6C478.7,34.8,478.4,32.7,477.8,30.6z M460.2,40.9c-0.4,2-0.8,3.8-1.2,5.2c-0.1,0.5-0.3,1.1-0.6,1.6
			c-0.2,0.6-0.5,1.1-0.9,1.5c-0.3,0.5-0.7,0.9-1.2,1.1c-0.5,0.3-1,0.4-1.7,0.4c-0.5,0-1.1-0.2-1.6-0.7c-0.6-0.5-0.8-1.5-0.8-3.1
			c0-0.8,0.1-1.8,0.2-3c0.1-1.2,0.3-2.3,0.5-3.5c0.2-1.2,0.5-2.3,0.7-3.3c0.3-1.1,0.5-1.9,0.8-2.5c0.1-0.3,0.3-0.6,0.5-1
			c0.2-0.4,0.4-0.8,0.7-1.1c0.3-0.3,0.7-0.6,1.1-0.9c0.4-0.2,0.9-0.4,1.4-0.4c0.6,0,1.1,0.1,1.5,0.4c0.4,0.3,0.6,0.6,0.8,1.1
			c0.2,0.4,0.3,0.9,0.3,1.3c0,0.4,0.1,0.8,0.1,1.1C460.8,37,460.6,38.9,460.2,40.9z"/>
		<path d="M490,32.6c-0.8,4.2-1.4,7.5-1.9,9.9c-0.5,2.4-1.1,4.2-1.6,5.5c-0.5,1.2-1,2-1.6,2.4c-0.5,0.3-1.2,0.5-1.9,0.5
			c-0.8,0-1.5-0.1-1.9-0.2c-0.3-0.1-0.5-0.2-0.7-0.3l-1.9,11c0.7,0.3,1.5,0.5,2.3,0.7c0.7,0.2,1.5,0.3,2.4,0.4
			c0.9,0.1,1.9,0.2,3,0.2c1.7,0,3.2-0.1,4.6-0.4c1.3-0.2,2.6-0.7,3.7-1.5c1.1-0.7,2.1-1.8,3-3.1c0.9-1.3,1.7-3.1,2.5-5.2
			c0.8-2.2,1.6-4.8,2.3-8c0.7-3.2,1.5-6.9,2.3-11.2l0.2-1.1h5.8l-5.1,29.5h16.9l7.2-41.3h-37.5L490,32.6z"/>
		<path d="M570.3,35.6c-1.1-1-2.6-1.7-4.5-2.2c-1.9-0.5-4.1-0.8-6.9-0.8h-5.9l2.1-12.1h-16.9l-7,41.3H554c3.3,0,6.3-0.4,8.7-1.3
			c2.5-0.9,4.5-2.1,6.1-3.7c1.6-1.6,2.8-3.5,3.6-5.7c0.8-2.2,1.2-4.7,1.2-7.5c0-1.6-0.3-3.1-0.8-4.5
			C572.3,37.7,571.4,36.6,570.3,35.6z M555.1,50.3c-0.9,1.1-2.1,1.6-3.5,1.6h-2.2l1.6-9.3h2.2c2.2,0,3.3,1.1,3.3,3.2
			C556.5,47.8,556,49.2,555.1,50.3z"/>
		<polygon points="605,34.7 599,34.7 601.5,20.4 584.6,20.4 577.4,61.7 594.3,61.7 596.9,46.5 603,46.5 600.3,61.7 617.2,61.7 
			624.4,20.4 607.5,20.4 		"/>
		<path d="M667.7,24.9c-1.5-1.7-3.4-3-5.8-4c-2.4-1-5.3-1.5-8.8-1.5c-4.3,0-8,0.8-11.3,2.3c-3.2,1.5-5.9,3.5-8.1,6
			c-2.2,2.5-3.8,5.3-4.9,8.4c-1.1,3.1-1.6,6.3-1.6,9.6c0,1.4,0.2,3,0.6,5c0.4,1.9,1.3,3.8,2.6,5.6c1.3,1.8,3.2,3.3,5.7,4.5
			c2.5,1.2,5.8,1.9,10,1.9c4,0,7.6-0.7,10.8-2.1c3.2-1.4,5.9-3.3,8.1-5.7c2.2-2.4,3.9-5.1,5.1-8.2c1.2-3.1,1.7-6.3,1.7-9.6
			c0-2.2-0.3-4.4-1-6.5C670.2,28.5,669.1,26.6,667.7,24.9z M653.3,40.9c-0.4,2-0.8,3.8-1.2,5.2c-0.1,0.5-0.3,1.1-0.6,1.6
			c-0.2,0.6-0.5,1.1-0.9,1.5c-0.3,0.5-0.7,0.9-1.2,1.1c-0.5,0.3-1,0.4-1.7,0.4c-0.5,0-1.1-0.2-1.6-0.7c-0.6-0.5-0.8-1.5-0.8-3.1
			c0-0.8,0.1-1.8,0.2-3c0.1-1.2,0.3-2.3,0.5-3.5c0.2-1.2,0.5-2.3,0.7-3.3c0.3-1.1,0.5-1.9,0.8-2.5c0.1-0.3,0.3-0.6,0.5-1
			c0.2-0.4,0.4-0.8,0.7-1.1c0.3-0.3,0.7-0.6,1.1-0.9c0.4-0.2,0.9-0.4,1.4-0.4c0.6,0,1.1,0.1,1.5,0.4c0.4,0.3,0.6,0.6,0.8,1.1
			c0.2,0.4,0.3,0.9,0.3,1.3c0,0.4,0.1,0.8,0.1,1.1C653.9,37,653.7,38.9,653.3,40.9z"/>
		<path d="M717.2,26.9c-0.6-1.4-1.7-2.7-3-3.8c-1.4-1.1-3.1-2-5.3-2.6c-2.2-0.7-4.8-1-7.8-1c-3.8,0-7.2,0.7-10.3,2
			c-3.1,1.4-5.7,3.2-7.9,5.6c-2.2,2.4-3.9,5.1-5.1,8.2c-1.2,3.1-1.8,6.4-1.8,10c0,2.7,0.4,5.1,1.1,7.2c0.7,2.2,1.9,4,3.4,5.5
			c1.6,1.5,3.6,2.6,6,3.4c2.5,0.8,5.4,1.2,8.9,1.2c2.3,0,4.9-0.2,7.7-0.5c2.8-0.3,5.7-1,8.7-1.9l1.9-10.7c-0.9,0.4-2,0.7-3.2,1.1
			c-1.2,0.3-2.4,0.6-3.7,0.9c-1.3,0.3-2.5,0.5-3.8,0.6c-1.3,0.2-2.4,0.2-3.4,0.2c-2.4,0-4.1-0.5-5.2-1.5c-1.1-1-1.7-2.3-1.9-4.1
			c5.3-0.3,9.6-0.9,12.9-1.8c3.3-0.9,5.9-2,7.8-3.3c1.9-1.3,3.2-2.9,3.9-4.6c0.7-1.8,1-3.7,1-5.7C718.2,29.8,717.8,28.4,717.2,26.9z
			 M703.1,34c-0.3,0.6-0.8,1.2-1.5,1.7c-0.8,0.5-1.8,1-3.1,1.4c-1.3,0.4-3.1,0.7-5.2,0.9c0.6-3.2,1.6-5.5,2.9-6.9
			c1.3-1.4,2.7-2,4.3-2c1.1,0,1.9,0.3,2.4,0.8c0.5,0.6,0.8,1.3,0.8,2.2C703.6,32.8,703.4,33.4,703.1,34z"/>
	</g>
	<g>
		<g>
			<path d="M62.4,118.3c1.4-1.9,2.1-4.1,2.1-6.7c0-1.2-0.2-2.3-0.7-3.5c-0.4-1.2-1.2-2.3-2.3-3.3c-1.1-1-2.6-1.8-4.6-2.4
				c-1.9-0.6-4.4-0.9-7.4-0.9c-2.9,0-5.6,0.2-8.3,0.5c-2.7,0.3-5.5,1-8.5,2l-1.9,10.7c1.7-0.8,3.6-1.6,5.7-2.2
				c2.1-0.6,4.3-0.9,6.6-0.9c0.3,0,0.8,0,1.3,0.1c0.6,0.1,1.2,0.2,1.7,0.4c0.6,0.2,1.1,0.5,1.5,1c0.4,0.4,0.6,1.1,0.6,1.9
				c0,0.3,0,0.6-0.1,1c-0.1,0.4-0.3,0.8-0.6,1.3c-0.3,0.4-0.8,0.8-1.5,1.1c-0.7,0.3-1.6,0.4-2.8,0.4h-6.6l-1.3,7.9h5.7
				c0.2,0,0.6,0,1.1,0c0.5,0,1,0.1,1.5,0.4c0.5,0.2,0.9,0.5,1.3,1c0.4,0.4,0.6,1.1,0.6,1.9c0,0.4-0.1,0.9-0.2,1.5
				c-0.2,0.6-0.5,1.1-0.9,1.5c-0.4,0.5-1.1,0.9-1.9,1.2c-0.8,0.3-1.9,0.5-3.2,0.5c-1.7,0-3.5-0.2-5.6-0.7c-2.1-0.5-4.2-1.4-6.4-2.6
				L25.3,142c3.2,1.2,6.1,2,8.6,2.2c2.5,0.3,4.7,0.4,6.7,0.4c3.5,0,6.5-0.3,9-0.9c2.5-0.6,4.6-1.4,6.3-2.3c1.7-0.9,3-2,4-3.1
				c1-1.2,1.7-2.3,2.1-3.4c0.5-1.1,0.8-2.1,0.9-3c0.1-0.9,0.2-1.6,0.2-2.2c0-1.9-0.5-3.7-1.5-5.1c-1-1.5-2.5-2.3-4.5-2.4V122
				C59.2,121.5,61,120.2,62.4,118.3z"/>
			<path d="M112.2,112.6c-0.6-2.1-1.7-4-3.2-5.6c-1.5-1.7-3.4-3-5.8-4c-2.4-1-5.3-1.5-8.8-1.5c-4.3,0-8,0.8-11.3,2.3
				c-3.2,1.5-5.9,3.5-8.1,6c-2.2,2.5-3.8,5.3-4.9,8.4c-1.1,3.1-1.6,6.3-1.6,9.6c0,1.4,0.2,3,0.6,5c0.4,1.9,1.3,3.8,2.6,5.6
				c1.3,1.8,3.2,3.3,5.7,4.5c2.5,1.2,5.8,1.9,10,1.9c4,0,7.6-0.7,10.8-2.1c3.2-1.4,5.9-3.3,8.1-5.7c2.2-2.4,3.9-5.1,5.1-8.2
				c1.2-3.1,1.7-6.3,1.7-9.6C113.2,116.8,112.9,114.7,112.2,112.6z M94.7,122.9c-0.4,2-0.8,3.8-1.2,5.2c-0.1,0.5-0.3,1.1-0.6,1.6
				c-0.2,0.6-0.5,1.1-0.9,1.5c-0.3,0.5-0.7,0.9-1.2,1.1c-0.5,0.3-1,0.4-1.7,0.4c-0.5,0-1.1-0.2-1.6-0.7c-0.6-0.5-0.8-1.5-0.8-3.1
				c0-0.8,0.1-1.8,0.2-3c0.1-1.2,0.3-2.3,0.5-3.5c0.2-1.2,0.5-2.3,0.7-3.3c0.3-1.1,0.5-1.9,0.8-2.5c0.1-0.3,0.3-0.6,0.5-1
				c0.2-0.4,0.4-0.8,0.7-1.1c0.3-0.3,0.7-0.6,1.1-0.9c0.4-0.2,0.9-0.4,1.4-0.4c0.6,0,1.1,0.1,1.5,0.4c0.4,0.3,0.6,0.6,0.8,1.1
				c0.2,0.4,0.3,0.9,0.3,1.3c0,0.4,0.1,0.8,0.1,1.1C95.2,119,95,120.9,94.7,122.9z"/>
			<path d="M124.5,114.6c-0.8,4.2-1.4,7.5-1.9,9.9c-0.5,2.4-1.1,4.2-1.6,5.5c-0.5,1.2-1,2-1.6,2.4c-0.5,0.3-1.2,0.5-1.9,0.5
				c-0.8,0-1.5-0.1-1.9-0.2c-0.3-0.1-0.5-0.2-0.7-0.3l-1.9,11c0.7,0.3,1.5,0.5,2.3,0.7c0.7,0.2,1.5,0.3,2.4,0.4
				c0.9,0.1,1.9,0.2,3,0.2c1.7,0,3.2-0.1,4.6-0.4c1.3-0.2,2.6-0.7,3.7-1.5c1.1-0.7,2.1-1.8,3-3.1c0.9-1.3,1.7-3.1,2.5-5.2
				c0.8-2.2,1.6-4.8,2.3-8c0.7-3.2,1.5-6.9,2.3-11.2l0.2-1.1h5.8l-5.1,29.5H157l7.2-41.3h-37.5L124.5,114.6z"/>
			<path d="M207.4,106.9c-1.5-1.7-3.4-3-5.8-4c-2.4-1-5.3-1.5-8.8-1.5c-4.3,0-8,0.8-11.3,2.3c-3.2,1.5-5.9,3.5-8.1,6
				c-2.2,2.5-3.8,5.3-4.9,8.4c-1.1,3.1-1.6,6.3-1.6,9.6c0,1.4,0.2,3,0.6,5c0.4,1.9,1.3,3.8,2.6,5.6c1.3,1.8,3.2,3.3,5.7,4.5
				c2.5,1.2,5.8,1.9,10,1.9c4,0,7.6-0.7,10.8-2.1c3.2-1.4,5.9-3.3,8.1-5.7c2.2-2.4,3.9-5.1,5.1-8.2c1.2-3.1,1.7-6.3,1.7-9.6
				c0-2.2-0.3-4.4-1-6.5C210,110.5,208.9,108.6,207.4,106.9z M193.1,122.9c-0.4,2-0.8,3.8-1.2,5.2c-0.1,0.5-0.3,1.1-0.6,1.6
				c-0.2,0.6-0.5,1.1-0.9,1.5c-0.3,0.5-0.7,0.9-1.2,1.1c-0.5,0.3-1,0.4-1.7,0.4c-0.5,0-1.1-0.2-1.6-0.7c-0.6-0.5-0.8-1.5-0.8-3.1
				c0-0.8,0.1-1.8,0.2-3c0.1-1.2,0.3-2.3,0.5-3.5c0.2-1.2,0.5-2.3,0.7-3.3c0.3-1.1,0.5-1.9,0.8-2.5c0.1-0.3,0.3-0.6,0.5-1
				c0.2-0.4,0.4-0.8,0.7-1.1c0.3-0.3,0.7-0.6,1.1-0.9c0.4-0.2,0.9-0.4,1.4-0.4c0.6,0,1.1,0.1,1.5,0.4c0.4,0.3,0.6,0.6,0.8,1.1
				c0.2,0.4,0.3,0.9,0.3,1.3c0,0.4,0.1,0.8,0.1,1.1C193.6,119,193.4,120.9,193.1,122.9z"/>
			<polygon points="217.1,102.4 215.1,114.2 224.4,114.2 219.3,143.7 236.2,143.7 241.3,114.2 250.7,114.2 252.8,102.4 			"/>
			<path d="M295.3,112.6c-0.6-2.1-1.7-4-3.2-5.6c-1.5-1.7-3.4-3-5.8-4c-2.4-1-5.3-1.5-8.8-1.5c-4.3,0-8,0.8-11.3,2.3
				c-3.2,1.5-5.9,3.5-8.1,6c-2.2,2.5-3.8,5.3-4.9,8.4c-1.1,3.1-1.6,6.3-1.6,9.6c0,1.4,0.2,3,0.6,5c0.4,1.9,1.3,3.8,2.6,5.6
				c1.3,1.8,3.2,3.3,5.7,4.5c2.5,1.2,5.8,1.9,10,1.9c4,0,7.6-0.7,10.8-2.1c3.2-1.4,5.9-3.3,8.1-5.7c2.2-2.4,3.9-5.1,5.1-8.2
				c1.2-3.1,1.7-6.3,1.7-9.6C296.3,116.8,296,114.7,295.3,112.6z M277.8,122.9c-0.4,2-0.8,3.8-1.2,5.2c-0.1,0.5-0.3,1.1-0.6,1.6
				c-0.2,0.6-0.5,1.1-0.9,1.5c-0.3,0.5-0.7,0.9-1.2,1.1c-0.5,0.3-1,0.4-1.7,0.4c-0.5,0-1.1-0.2-1.6-0.7c-0.6-0.5-0.8-1.5-0.8-3.1
				c0-0.8,0.1-1.8,0.2-3c0.1-1.2,0.3-2.3,0.5-3.5c0.2-1.2,0.5-2.3,0.7-3.3c0.3-1.1,0.5-1.9,0.8-2.5c0.1-0.3,0.3-0.6,0.5-1
				c0.2-0.4,0.4-0.8,0.7-1.1c0.3-0.3,0.7-0.6,1.1-0.9c0.4-0.2,0.9-0.4,1.4-0.4c0.6,0,1.1,0.1,1.5,0.4c0.4,0.3,0.6,0.6,0.8,1.1
				c0.2,0.4,0.3,0.9,0.3,1.3c0,0.4,0.1,0.8,0.1,1.1C278.3,119,278.2,120.9,277.8,122.9z"/>
		</g>
		<g>
			<path d="M381.3,109c0-2.3-0.3-4.6-0.9-7.1c-0.6-2.5-1.8-4.8-3.4-6.9c-1.7-2.1-3.9-3.9-6.8-5.3c-2.9-1.4-6.5-2.1-10.9-2.1
				c-4.3,0-8.1,0.6-11.3,1.9c-3.3,1.2-6.1,2.9-8.4,4.9c-2.3,2-4.3,4.3-5.9,6.9c-1.6,2.6-2.8,5.2-3.8,7.8c-0.9,2.6-1.6,5.2-2,7.7
				c-0.4,2.5-0.6,4.7-0.6,6.5c0,2.5,0.3,5.1,1,7.6c0.7,2.5,1.9,4.8,3.5,6.9c1.7,2,3.9,3.7,6.7,5c2.8,1.3,6.3,1.9,10.4,1.9
				c4.4,0,8.2-0.6,11.6-1.9c3.3-1.3,6.2-2.9,8.6-4.9c2.4-2,4.4-4.3,5.9-6.9c1.6-2.5,2.8-5.1,3.7-7.8c0.9-2.7,1.6-5.2,1.9-7.7
				C381.2,113,381.3,110.8,381.3,109z M362.3,111.9c-0.1,1.3-0.3,2.7-0.6,4.1c-0.2,1.4-0.5,2.7-0.8,3.9s-0.5,2.3-0.8,3.1
				c-0.5,1.7-1.2,3.1-1.9,4.2c-0.7,1.1-1.5,1.9-2.2,2.6c-0.8,0.6-1.5,1.1-2.3,1.3c-0.7,0.2-1.4,0.4-2,0.4c-0.4,0-0.8-0.1-1.5-0.2
				c-0.6-0.1-1.2-0.4-1.8-0.9c-0.6-0.5-1.1-1.3-1.5-2.3c-0.4-1-0.6-2.4-0.6-4.2c0-1.1,0.1-2.3,0.2-3.6c0.1-1.3,0.3-2.6,0.5-3.9
				c0.2-1.3,0.5-2.6,0.8-3.8c0.3-1.2,0.6-2.3,0.8-3.2c0.6-1.8,1.3-3.3,2.1-4.4c0.8-1.1,1.5-2,2.3-2.6c0.8-0.6,1.5-1,2.2-1.2
				c0.7-0.2,1.3-0.3,1.8-0.3c0.4,0,0.9,0.1,1.6,0.2c0.6,0.2,1.2,0.5,1.8,1c0.6,0.5,1,1.2,1.5,2.2c0.4,1,0.6,2.3,0.6,4
				C362.5,109.4,362.4,110.5,362.3,111.9z"/>
			<path d="M390.4,114.5c-0.8,4.2-1.4,7.5-1.9,9.9c-0.5,2.4-1.1,4.2-1.6,5.5c-0.5,1.2-1,2-1.6,2.4c-0.5,0.3-1.2,0.5-1.9,0.5
				c-0.8,0-1.5-0.1-1.9-0.2c-0.3-0.1-0.5-0.2-0.7-0.3l-1.9,11c0.7,0.3,1.5,0.5,2.3,0.7c0.7,0.2,1.5,0.3,2.4,0.4
				c0.9,0.1,1.9,0.2,3,0.2c1.7,0,3.2-0.1,4.6-0.4c1.3-0.2,2.6-0.7,3.7-1.5c1.1-0.7,2.1-1.8,3-3.1c0.9-1.3,1.7-3.1,2.5-5.2
				c0.8-2.2,1.6-4.8,2.3-8c0.7-3.2,1.5-6.9,2.3-11.2l0.2-1.1h5.8l-5.1,29.5h16.9l7.2-41.3h-37.5L390.4,114.5z"/>
			<path d="M457.4,126.3c-0.1,0.5-0.2,1-0.3,1.7c-0.1,0.6-0.3,1.2-0.6,1.9c-0.3,0.6-0.7,1.1-1.1,1.5c-0.5,0.4-1.1,0.6-1.8,0.6
				c-0.5,0-0.9-0.1-1.2-0.4c-0.3-0.2-0.5-0.5-0.7-0.8c-0.2-0.3-0.2-0.6-0.3-0.9c0-0.3,0-0.5,0-0.6c0-1.1,0.1-2.1,0.3-3l4.2-23.9h-17
				l-5,28.8c-0.1,0.7-0.2,1.3-0.2,2c-0.1,0.6-0.1,1.3-0.1,2c0,1.7,0.3,3.2,0.8,4.4c0.5,1.2,1.2,2.2,2.1,3c0.9,0.8,1.9,1.3,3.1,1.7
				c1.2,0.3,2.4,0.5,3.8,0.5c0.8,0,1.7-0.1,2.8-0.2c1.1-0.1,2.2-0.5,3.4-1c1.2-0.6,2.4-1.4,3.7-2.4c1.2-1.1,2.4-2.5,3.4-4.4h0.1
				l-1.2,7.1h15.9l7.2-41.3h-16.9L457.4,126.3z"/>
			<polygon points="507.3,124 505.2,102.4 487.2,102.4 480,143.7 493.4,143.7 497.3,121 497.5,121 499,135.8 510.8,135.8 517.3,121 
				517.6,121 513.7,143.7 527.1,143.7 534.2,102.4 516.8,102.4 			"/>
			<path d="M579.7,106c-0.3-0.5-0.6-1-1.1-1.5c-0.5-0.5-1.1-1-1.8-1.5c-0.7-0.5-1.6-0.9-2.5-1.1c-1-0.3-2.1-0.4-3.5-0.4
				c-3,0-5.6,0.8-7.7,2.3c-2.1,1.5-3.8,3.5-5.1,5.8h-0.3l1.3-7.2H543l-7.2,41.3h16.9l4.1-23.8c0.4-2.5,1-4.1,1.9-4.9
				c0.5-0.5,1.2-0.7,2-0.7c0.8,0,1.4,0.3,1.8,0.8c0.4,0.5,0.6,1.2,0.6,2c0,0.5,0,0.9-0.1,1.4c-0.1,0.4-0.1,0.9-0.2,1.4l-4.1,23.8
				h16.9l5-28.7c0.1-0.7,0.2-1.3,0.3-2c0.1-0.6,0.1-1.3,0.1-1.9c0-0.9-0.1-1.8-0.3-2.7C580.4,107.6,580.1,106.8,579.7,106z"/>
			<path d="M610.1,126.3c-0.1,0.5-0.2,1-0.3,1.7c-0.1,0.6-0.3,1.2-0.6,1.9c-0.3,0.6-0.7,1.1-1.1,1.5c-0.5,0.4-1.1,0.6-1.8,0.6
				c-0.5,0-0.9-0.1-1.2-0.4c-0.3-0.2-0.5-0.5-0.7-0.8c-0.2-0.3-0.2-0.6-0.3-0.9c0-0.3,0-0.5,0-0.6c0-1.1,0.1-2.1,0.3-3l4.2-23.9h-17
				l-5,28.8c-0.1,0.7-0.2,1.3-0.2,2c-0.1,0.6-0.1,1.3-0.1,2c0,1.7,0.3,3.2,0.8,4.4c0.5,1.2,1.2,2.2,2.1,3c0.9,0.8,1.9,1.3,3.1,1.7
				c1.2,0.3,2.4,0.5,3.8,0.5c0.8,0,1.7-0.1,2.8-0.2c1.1-0.1,2.2-0.5,3.4-1c1.2-0.6,2.4-1.4,3.7-2.4c1.2-1.1,2.4-2.5,3.4-4.4h0.1
				l-1.2,7.1h15.9l7.2-41.3h-16.9L610.1,126.3z"/>
			<path d="M664.1,102.4l-0.9,5.3c-0.3-0.6-0.6-1.2-1.1-2c-0.4-0.7-1-1.4-1.8-2c-0.8-0.6-1.7-1.2-2.8-1.6c-1.1-0.4-2.4-0.6-4-0.6
				c-3.3,0-6.2,0.9-8.6,2.6c-2.5,1.7-4.5,3.9-6.1,6.6c-1.6,2.7-2.8,5.7-3.7,8.9c-0.8,3.3-1.2,6.5-1.2,9.7c0,4.6,1,8.3,3.1,11.1
				c2.1,2.8,5,4.2,8.9,4.2c3.1,0,5.7-0.7,7.9-2.2c2.2-1.5,4-3.4,5.3-5.8h0.3l-1.2,7h15.7l7.1-41.3H664.1z M661.2,122.6
				c-0.3,1.6-0.6,3-1.1,4.2c-0.4,1.1-0.8,1.9-1.2,2.5c-0.4,0.6-0.9,1.1-1.3,1.4c-0.4,0.3-0.8,0.5-1.2,0.6c-0.4,0.1-0.7,0.1-1,0.1
				c-0.3,0-0.6-0.1-0.9-0.2c-0.4-0.1-0.7-0.3-1-0.6c-0.3-0.3-0.6-0.8-0.8-1.4c-0.2-0.6-0.3-1.5-0.3-2.5c0-1.5,0.2-3.2,0.6-5
				c0.4-1.9,0.9-3.4,1.5-4.6c0.1-0.2,0.3-0.5,0.5-0.9c0.2-0.4,0.5-0.7,0.8-1.1c0.3-0.4,0.7-0.7,1.2-0.9c0.5-0.2,1-0.4,1.6-0.4
				c0.2,0,0.5,0,0.9,0.1c0.4,0.1,0.7,0.3,1,0.6c0.3,0.3,0.6,0.8,0.9,1.4c0.2,0.6,0.4,1.4,0.4,2.5C661.6,119.6,661.4,121,661.2,122.6
				z"/>
			<path d="M713.4,110.1h-0.3c-0.3-2.7-1.4-4.8-3.1-6.4c-1.8-1.5-4.1-2.3-6.8-2.3c-3,0-5.7,0.8-8.2,2.5c-2.4,1.7-4.5,3.8-6.1,6.4
				c-1.7,2.6-3,5.6-3.9,9c-0.9,3.4-1.4,6.7-1.4,10.1c0,4.3,1.1,7.8,3.3,10.4c2.2,2.6,5.3,3.9,9.4,3.9c0.8,0,1.6-0.1,2.5-0.2
				c0.9-0.2,1.8-0.5,2.8-0.9s2-1,3.1-1.8c1.1-0.8,2.2-1.8,3.3-3h0.3l-0.5,2c-0.8,3.4-2.2,6-4.3,7.7c-2.1,1.8-4.9,2.7-8.5,2.7
				c-1.9,0-3.9-0.4-6-1.1c-2.2-0.8-4.2-1.8-6.2-3.1l-2.3,13c3.6,1.3,6.7,2.2,9.3,2.5c2.6,0.4,4.9,0.6,7,0.6c2.9,0,5.8-0.3,8.7-0.8
				c2.9-0.5,5.7-1.6,8.2-3.3c2.5-1.7,4.8-4.1,6.8-7.3c2-3.2,3.4-7.5,4.4-12.8l6.2-35.3h-16L713.4,110.1z M710.8,122.6
				c-0.2,1.2-0.5,2.2-0.8,3.1c-0.4,1.3-1,2.5-1.7,3.6c-0.7,1.1-1.8,1.6-3.3,1.6c-1,0-1.8-0.3-2.4-1c-0.6-0.7-0.9-1.7-0.9-2.9
				c0-1.5,0.1-2.9,0.4-4.2c0.2-1.3,0.5-2.4,0.8-3.4c0.4-1.3,1-2.5,1.7-3.6c0.7-1.1,1.8-1.6,3.3-1.6c0.9,0,1.7,0.3,2.3,1
				c0.6,0.7,0.9,1.9,0.9,3.5C711.2,120.2,711.1,121.5,710.8,122.6z"/>
			<polygon points="782.5,102.4 775.3,143.7 792.2,143.7 799.4,102.4 			"/>
			<path d="M771.4,117.6c-1.1-1-2.6-1.7-4.5-2.2c-1.9-0.5-4.1-0.8-6.9-0.8h-5.9l2.1-12.1h-16.9l-7,41.3h22.8c3.3,0,6.3-0.4,8.7-1.3
				c2.5-0.9,4.5-2.1,6.1-3.7c1.6-1.6,2.8-3.5,3.6-5.7c0.8-2.2,1.2-4.7,1.2-7.5c0-1.6-0.3-3.1-0.8-4.5
				C773.3,119.7,772.5,118.5,771.4,117.6z M756.2,132.3c-0.9,1.1-2.1,1.6-3.5,1.6h-2.2l1.6-9.3h2.2c2.2,0,3.3,1.1,3.3,3.2
				C757.5,129.7,757.1,131.2,756.2,132.3z"/>
		</g>
	</g>
	<g>
		<polygon points="220.7,188.5 225.3,200.7 237.4,192.5 231.2,228.3 248,228.3 257.5,173.1 243.1,173.1 		"/>
		<path d="M289.1,172.2c-3,0-6,0.6-8.8,1.7c-2.8,1.1-5.4,2.7-7.6,4.8s-4,4.5-5.3,7.4c-1.3,2.9-2,6.1-2,9.6c0,4.2,1.2,7.5,3.6,10
			c2.4,2.4,5.7,3.7,9.9,3.7c2.7,0,4.8-0.4,6.3-1.1s2.8-1.5,3.9-2.2h0.3c-0.5,2.7-1.3,4.8-2.5,6.2c-1.2,1.5-2.5,2.6-3.9,3.3
			c-1.4,0.7-2.6,1.1-3.9,1.3c-1.2,0.2-2.1,0.2-2.6,0.2c-2.1,0-4.1-0.2-5.9-0.6c-1.8-0.4-3.7-0.8-5.5-1.3l-2.2,12.7
			c3.5,0.7,6.3,1.2,8.5,1.3c2.2,0.1,3.8,0.2,4.9,0.2c4.6,0,8.9-1,12.7-3c3.8-2,7-4.6,9.7-8c2.7-3.4,4.8-7.2,6.2-11.7
			c1.5-4.4,2.2-9.1,2.2-13.9c0-6.5-1.6-11.5-4.8-15.1C299.2,174,294.8,172.2,289.1,172.2z M291.4,192.8c-0.3,1.2-0.8,2.2-1.4,3.1
			c-0.6,0.9-1.4,1.6-2.2,2.1c-0.9,0.5-1.8,0.8-2.8,0.8c-1.3,0-2.4-0.5-3.2-1.4c-0.8-0.9-1.2-2.2-1.2-4c0-1.2,0.2-2.4,0.5-3.5
			c0.4-1.1,0.8-2.1,1.5-3c0.6-0.9,1.4-1.6,2.2-2.1c0.8-0.5,1.8-0.8,2.8-0.8c1.3,0,2.4,0.4,3.2,1.3c0.8,0.9,1.2,2.2,1.2,3.9
			C291.9,190.5,291.7,191.7,291.4,192.8z"/>
		<polygon points="317.2,173.1 314.9,185.9 338.9,185.9 311.5,228.3 328.9,228.3 354.8,185.9 357,173.1 		"/>
		<path d="M396.4,177c-1.4-1.4-3.2-2.6-5.6-3.5c-2.4-0.9-5.5-1.3-9.3-1.3c-2.4,0-4.8,0.1-7.3,0.4c-2.5,0.2-5.1,0.7-7.9,1.4
			l-2.5,14.4c2.3-1,4.3-1.7,6-2c1.7-0.3,3.3-0.5,4.6-0.5c1.6,0,2.9,0.2,3.9,0.6c1,0.4,1.8,0.9,2.4,1.5c0.6,0.6,1,1.3,1.2,2
			c0.2,0.7,0.3,1.4,0.3,2.1c0,1.9-0.6,3.8-1.7,5.4c-1.2,1.7-2.6,3.2-4.4,4.6c-1.8,1.4-3.7,2.7-5.7,3.9c-2,1.2-3.9,2.3-5.7,3.2
			l-6.1,3.4l-2.7,15.5h37.1l2.3-13.2h-19.2l0.1-0.2c4.6-2.3,8.4-4.7,11.5-7.1c3.1-2.4,5.5-4.8,7.3-7.2c1.8-2.4,3.1-4.8,3.8-7.1
			c0.7-2.3,1.1-4.6,1.1-6.8c0-1.6-0.2-3.3-0.7-5C398.7,180,397.8,178.4,396.4,177z"/>
		<path d="M452.4,189.1c-1.2-0.9-2.8-1.7-4.7-2.2c-1.9-0.6-4.3-0.8-7-0.8c-1.1,0-2.3,0.1-3.6,0.2c-1.3,0.2-2.6,0.4-3.9,0.7
			c-1.3,0.3-2.5,0.6-3.6,0.9c-1.1,0.3-2.1,0.7-2.9,1.1l-1.5,12.3c0.9-0.5,2-1,3.1-1.5c1.1-0.5,2.3-0.9,3.4-1.3
			c1.2-0.4,2.3-0.7,3.4-0.9c1.1-0.2,2.2-0.4,3.1-0.4c0.9,0,1.5,0.1,1.8,0.4c0.3,0.2,0.4,0.6,0.4,1c0,0.7-0.4,1.3-1.3,2
			c-0.9,0.6-2.5,1.5-4.7,2.5c-2.6,1.3-4.7,2.5-6.4,3.7c-1.7,1.2-2.9,2.4-3.9,3.6c-0.9,1.2-1.6,2.5-1.9,3.8c-0.4,1.3-0.5,2.6-0.5,4.1
			c0,1.6,0.3,3,0.8,4.4c0.6,1.4,1.4,2.5,2.6,3.5c1.2,1,2.8,1.8,4.7,2.4c1.9,0.6,4.3,0.9,7.1,0.9c1.3,0,2.8-0.1,4.3-0.3
			c1.5-0.2,2.9-0.4,4.3-0.7c1.4-0.3,2.6-0.6,3.8-0.9c1.1-0.3,2-0.7,2.6-1l1.5-12.3c-1.1,0.7-2.2,1.4-3.5,1.9
			c-1.3,0.5-2.5,0.9-3.7,1.3c-1.2,0.4-2.3,0.6-3.4,0.8c-1,0.2-1.9,0.2-2.6,0.2c-1.6,0-2.4-0.7-2.4-2.1c0-0.8,0.4-1.6,1.3-2.2
			c0.9-0.6,2.2-1.4,4.1-2.3c2.5-1.2,4.5-2.3,6.2-3.3c1.7-1.1,3-2.2,3.9-3.3c1-1.2,1.6-2.4,2-3.8c0.4-1.4,0.6-2.9,0.6-4.6
			c0-1.4-0.3-2.8-0.8-4C454.4,191.2,453.6,190.1,452.4,189.1z"/>
		<path d="M498.9,191.5c-1.5-1.7-3.4-3-5.8-4c-2.4-1-5.3-1.5-8.8-1.5c-4.3,0-8,0.8-11.3,2.3c-3.2,1.5-5.9,3.5-8.1,6
			c-2.2,2.5-3.8,5.3-4.9,8.4c-1.1,3.1-1.6,6.3-1.6,9.6c0,1.4,0.2,3,0.6,5c0.4,1.9,1.3,3.8,2.6,5.6c1.3,1.8,3.2,3.3,5.7,4.5
			c2.5,1.2,5.8,1.9,10,1.9c4,0,7.6-0.7,10.8-2.1c3.2-1.4,5.9-3.3,8.1-5.7c2.2-2.4,3.9-5.1,5.1-8.2c1.2-3.1,1.7-6.3,1.7-9.6
			c0-2.2-0.3-4.4-1-6.5C501.4,195.1,500.3,193.2,498.9,191.5z M484.5,207.5c-0.4,2-0.8,3.8-1.2,5.2c-0.1,0.5-0.3,1.1-0.6,1.6
			c-0.2,0.6-0.5,1.1-0.9,1.5c-0.3,0.5-0.7,0.9-1.2,1.1c-0.5,0.3-1,0.4-1.7,0.4c-0.5,0-1.1-0.2-1.6-0.7c-0.6-0.5-0.8-1.5-0.8-3.1
			c0-0.8,0.1-1.8,0.2-3c0.1-1.2,0.3-2.3,0.5-3.5c0.2-1.2,0.5-2.3,0.7-3.3c0.3-1.1,0.5-1.9,0.8-2.5c0.1-0.3,0.3-0.6,0.5-1
			c0.2-0.4,0.4-0.8,0.7-1.1c0.3-0.3,0.7-0.6,1.1-0.9c0.4-0.2,0.9-0.4,1.4-0.4c0.6,0,1.1,0.1,1.5,0.4c0.4,0.3,0.6,0.6,0.8,1.1
			c0.2,0.4,0.3,0.9,0.3,1.3c0,0.4,0.1,0.8,0.1,1.1C485.1,203.6,484.9,205.5,484.5,207.5z"/>
		<path d="M536.7,194.8h-0.3c-0.3-2.7-1.4-4.8-3.1-6.4c-1.8-1.5-4.1-2.3-6.8-2.3c-3,0-5.7,0.8-8.2,2.5c-2.4,1.7-4.5,3.8-6.1,6.4
			c-1.7,2.6-3,5.6-3.9,9c-0.9,3.4-1.4,6.7-1.4,10.1c0,4.3,1.1,7.8,3.3,10.4c2.2,2.6,5.3,3.9,9.4,3.9c0.8,0,1.6-0.1,2.5-0.2
			c0.9-0.2,1.8-0.5,2.8-0.9s2-1,3.1-1.8c1.1-0.8,2.2-1.8,3.3-3h0.3l-0.5,2c-0.8,3.4-2.2,6-4.3,7.7c-2.1,1.8-4.9,2.7-8.5,2.7
			c-1.9,0-3.9-0.4-6-1.1c-2.2-0.8-4.2-1.8-6.2-3.1l-2.3,13c3.6,1.3,6.7,2.2,9.3,2.5c2.6,0.4,4.9,0.6,7,0.6c2.9,0,5.8-0.3,8.7-0.8
			c2.9-0.5,5.7-1.6,8.2-3.3c2.5-1.7,4.8-4.1,6.8-7.3c2-3.2,3.4-7.5,4.4-12.8L554,187h-16L536.7,194.8z M534.1,207.3
			c-0.2,1.2-0.5,2.2-0.8,3.1c-0.4,1.3-1,2.5-1.7,3.6c-0.7,1.1-1.8,1.6-3.3,1.6c-1,0-1.8-0.3-2.4-1c-0.6-0.7-0.9-1.7-0.9-2.9
			c0-1.5,0.1-2.9,0.4-4.2c0.2-1.3,0.5-2.4,0.8-3.4c0.4-1.3,1-2.5,1.7-3.6c0.7-1.1,1.8-1.6,3.3-1.6c0.9,0,1.7,0.3,2.3,1
			c0.6,0.7,0.9,1.9,0.9,3.5C534.5,204.8,534.4,206.1,534.1,207.3z"/>
		<path d="M587.1,187l-0.9,5.3c-0.3-0.6-0.6-1.2-1.1-2c-0.4-0.7-1-1.4-1.8-2c-0.8-0.6-1.7-1.2-2.8-1.6c-1.1-0.4-2.4-0.6-4-0.6
			c-3.3,0-6.2,0.9-8.6,2.6c-2.5,1.7-4.5,3.9-6.1,6.6c-1.6,2.7-2.8,5.7-3.7,8.9c-0.8,3.3-1.2,6.5-1.2,9.7c0,4.6,1,8.3,3.1,11.1
			c2.1,2.8,5,4.2,8.9,4.2c3.1,0,5.7-0.7,7.9-2.2c2.2-1.5,4-3.4,5.3-5.8h0.3l-1.2,7h15.7l7.1-41.3H587.1z M584.1,207.2
			c-0.3,1.6-0.6,3-1.1,4.2c-0.4,1.1-0.8,1.9-1.2,2.5c-0.4,0.6-0.9,1.1-1.3,1.4c-0.4,0.3-0.8,0.5-1.2,0.6c-0.4,0.1-0.7,0.1-1,0.1
			c-0.3,0-0.6-0.1-0.9-0.2c-0.4-0.1-0.7-0.3-1-0.6c-0.3-0.3-0.6-0.8-0.8-1.4c-0.2-0.6-0.3-1.5-0.3-2.5c0-1.5,0.2-3.2,0.6-5
			c0.4-1.9,0.9-3.4,1.5-4.6c0.1-0.2,0.3-0.5,0.5-0.9c0.2-0.4,0.5-0.7,0.8-1.1c0.3-0.4,0.7-0.7,1.2-0.9c0.5-0.2,1-0.4,1.6-0.4
			c0.2,0,0.5,0,0.9,0.1c0.4,0.1,0.7,0.3,1,0.6c0.3,0.3,0.6,0.8,0.9,1.4c0.2,0.6,0.4,1.4,0.4,2.5
			C584.5,204.2,584.4,205.6,584.1,207.2z"/>
	</g>
</g>
</svg>
