<?xml version="1.0" encoding="utf-8"?>
<!-- Generator: Adobe Illustrator 22.0.1, SVG Export Plug-In . SVG Version: 6.00 Build 0)  -->
<svg version="1.1" id="Layer_2_1_" xmlns="http://www.w3.org/2000/svg" xmlns:xlink="http://www.w3.org/1999/xlink" x="0px" y="0px"
	 viewBox="0 0 580.6 162.2" style="enable-background:new 0 0 580.6 162.2;" xml:space="preserve">
<style type="text/css">
	.st0{fill-rule:evenodd;clip-rule:evenodd;fill:#FFFFFF;}
</style>
<g>
	<g>
		<rect x="143.3" class="st0" width="294.1" height="75.4"/>
		<rect y="84.9" class="st0" width="580.6" height="72.6"/>
	</g>
	<g>
		<polygon points="207.5,32.7 227.7,6.9 207.3,6.9 192.5,28.6 192.2,28.6 196,6.9 178,6.9 168.5,62 186.5,62 190.5,38.6 190.8,38.6 
			198.3,62 219.7,62 		"/>
		<path d="M248.6,20.8l-8.8,26h-0.2l-0.3-26h-17.5l5.6,42.3l-0.5,1.3c-0.4,0.8-0.8,1.4-1.3,1.9c-0.5,0.5-1,0.8-1.6,1.1
			c-0.6,0.2-1.1,0.4-1.6,0.5c-0.5,0.1-0.9,0.1-1.2,0.1c-0.8,0-1.7-0.1-2.5-0.2c-0.8-0.1-1.7-0.4-2.5-0.7l-2,11.7
			c1.8,0.5,3.5,0.9,5.3,1.2c1.7,0.3,3.3,0.4,4.6,0.4c2.5,0,4.7-0.3,6.8-0.9c2.1-0.6,4-1.6,5.8-3c1.8-1.3,3.4-3,4.9-5.1
			c1.5-2.1,2.9-4.6,4.2-7.5l19.3-42.9H248.6z"/>
		<path d="M301.5,3.3c-1.9,0.2-3.8,0.4-5.7,0.6c-1.9,0.2-3.8,0.4-5.7,0.8c-1.9,0.4-3.7,0.9-5.6,1.6c-1.9,0.7-3.7,1.7-5.5,2.9
			c-2.4,1.6-4.5,3.8-6.4,6.5c-1.8,2.7-3.4,5.6-4.6,8.8c-1.2,3.2-2.2,6.6-2.8,10c-0.6,3.5-1,6.8-1,10c0,1.7,0.2,3.7,0.6,5.8
			c0.4,2.2,1.2,4.2,2.4,6c1.2,1.9,3.1,3.4,5.5,4.7c2.4,1.3,5.6,1.9,9.6,1.9c4.8,0,8.9-0.8,12.2-2.4c3.3-1.6,6-3.6,8-5.9
			c2-2.4,3.5-5,4.4-7.8c0.9-2.8,1.3-5.4,1.3-7.8c0-2.7-0.4-5-1.2-6.9c-0.8-1.9-2-3.5-3.4-4.8c-1.5-1.3-3.2-2.2-5.2-2.8
			c-2-0.6-4.1-0.9-6.4-0.9c-1,0-2.1,0.1-3.3,0.3c-1.2,0.2-2.4,0.5-3.7,1.1c-1.3,0.5-2.6,1.3-3.9,2.2c-1.3,1-2.5,2.2-3.6,3.8h-0.5
			l0.4-1.9c0.4-1.7,0.9-3.1,1.5-4.3c0.6-1.2,1.4-2.1,2.2-2.9c0.8-0.8,1.7-1.4,2.6-1.8c0.9-0.4,1.7-0.8,2.5-1.1
			c1.8-0.6,3.7-1,5.8-1.2c2.1-0.2,4.3-0.4,6.7-0.6c1.2-0.1,2.3-0.1,3.2-0.3c1-0.1,1.8-0.3,2.6-0.5c0.8-0.2,1.6-0.4,2.3-0.7
			c0.7-0.3,1.4-0.7,2.1-1.2l2.5-14.2c-1.8,0.9-3.5,1.5-5,1.9C305.1,2.8,303.4,3.1,301.5,3.3z M282,45.4c0.1-0.8,0.2-1.6,0.3-2.4
			c0.1-0.8,0.3-1.6,0.5-2.4c0.2-0.8,0.4-1.4,0.5-1.9c0.5-1.6,1.2-2.6,1.9-3.2c0.7-0.5,1.4-0.8,2.1-0.8c0.6,0,1.1,0.1,1.5,0.4
			c0.4,0.2,0.6,0.6,0.8,0.9c0.2,0.4,0.3,0.8,0.4,1.3c0,0.4,0.1,0.9,0.1,1.2c0,1.5-0.1,3-0.4,4.4c-0.1,0.9-0.3,1.8-0.5,2.8
			c-0.2,1-0.5,1.9-0.9,2.6c-0.4,0.8-0.9,1.4-1.4,2c-0.6,0.5-1.3,0.8-2.1,0.8c-1.2,0-2-0.4-2.3-1.3c-0.3-0.8-0.5-1.7-0.5-2.5
			C281.8,46.9,281.9,46.2,282,45.4z"/>
		<path d="M353.2,25.3c-1.5-1.7-3.4-3-5.8-4c-2.4-1-5.3-1.5-8.8-1.5c-4.3,0-8,0.8-11.3,2.3c-3.2,1.5-5.9,3.5-8.1,6
			c-2.2,2.5-3.8,5.3-4.9,8.4c-1.1,3.1-1.6,6.3-1.6,9.6c0,1.4,0.2,3,0.6,5c0.4,1.9,1.3,3.8,2.6,5.6c1.3,1.8,3.2,3.3,5.7,4.5
			c2.5,1.2,5.8,1.9,10,1.9c4,0,7.6-0.7,10.8-2.1c3.2-1.4,5.9-3.3,8.1-5.7c2.2-2.4,3.9-5.1,5.1-8.2c1.2-3.1,1.7-6.3,1.7-9.6
			c0-2.2-0.3-4.4-1-6.5C355.8,28.8,354.7,26.9,353.2,25.3z M338.9,41.2c-0.4,2-0.8,3.8-1.2,5.2c-0.1,0.5-0.3,1.1-0.6,1.6
			c-0.2,0.6-0.5,1.1-0.9,1.5c-0.3,0.5-0.7,0.9-1.2,1.1c-0.5,0.3-1,0.4-1.7,0.4c-0.5,0-1.1-0.2-1.6-0.7c-0.6-0.5-0.8-1.5-0.8-3.1
			c0-0.8,0.1-1.8,0.2-3c0.1-1.2,0.3-2.3,0.5-3.5c0.2-1.2,0.5-2.3,0.7-3.3c0.3-1.1,0.5-1.9,0.8-2.5c0.1-0.3,0.3-0.6,0.5-1
			c0.2-0.4,0.4-0.8,0.7-1.1c0.3-0.3,0.7-0.6,1.1-0.9c0.4-0.2,0.9-0.4,1.4-0.4c0.6,0,1.1,0.1,1.5,0.4c0.4,0.3,0.6,0.6,0.8,1.1
			c0.2,0.4,0.3,0.9,0.3,1.3c0,0.4,0.1,0.8,0.1,1.1C339.4,37.3,339.2,39.2,338.9,41.2z"/>
		<polygon points="412.1,20.8 393.8,20.8 381.1,38.8 380.8,38.8 384,20.8 367.4,20.8 360.2,62 376.8,62 379.9,43.8 380.2,43.8 
			386.7,62 405.3,62 396.8,41 		"/>
	</g>
	<g>
		<polygon points="83,88.9 62.6,88.9 47.8,110.6 47.5,110.6 51.2,88.9 33.3,88.9 23.8,144 41.7,144 45.8,120.6 46,120.6 53.5,144 
			75,144 62.8,114.7 		"/>
		<path d="M106.4,108c-0.3-0.6-0.6-1.2-1.1-2c-0.4-0.7-1-1.4-1.8-2c-0.8-0.6-1.7-1.2-2.8-1.6c-1.1-0.4-2.4-0.6-4-0.6
			c-3.3,0-6.2,0.9-8.6,2.6c-2.5,1.7-4.5,3.9-6.1,6.6c-1.6,2.7-2.8,5.7-3.7,8.9c-0.8,3.3-1.2,6.5-1.2,9.7c0,4.6,1,8.3,3.1,11.1
			c2.1,2.8,5,4.2,8.9,4.2c3.1,0,5.7-0.7,7.9-2.2c2.2-1.5,4-3.4,5.3-5.8h0.3l-1.2,7h15.7l7.1-41.3h-16.9L106.4,108z M104.4,122.9
			c-0.3,1.6-0.6,3-1.1,4.2c-0.4,1.1-0.8,1.9-1.2,2.5c-0.4,0.6-0.9,1.1-1.3,1.4c-0.4,0.3-0.8,0.5-1.2,0.6c-0.4,0.1-0.7,0.1-1,0.1
			s-0.6-0.1-0.9-0.2c-0.4-0.1-0.7-0.3-1-0.6c-0.3-0.3-0.6-0.8-0.8-1.4c-0.2-0.6-0.3-1.5-0.3-2.5c0-1.5,0.2-3.2,0.6-5
			c0.4-1.9,0.9-3.4,1.5-4.6c0.1-0.2,0.3-0.5,0.5-0.9c0.2-0.4,0.5-0.7,0.8-1.1c0.3-0.4,0.7-0.7,1.2-0.9c0.5-0.2,1-0.4,1.6-0.4
			c0.2,0,0.5,0,0.9,0.1c0.4,0.1,0.7,0.3,1,0.6s0.6,0.8,0.9,1.4c0.2,0.6,0.4,1.4,0.4,2.5C104.8,119.9,104.6,121.3,104.4,122.9z"/>
		<polygon points="153.3,117 147.3,117 149.8,102.8 132.9,102.8 125.7,144 142.6,144 145.2,128.8 151.2,128.8 148.6,144 165.5,144 
			172.7,102.8 155.8,102.8 		"/>
		<path d="M205.7,102.8l-0.9,5.3c-0.3-0.6-0.6-1.2-1.1-2c-0.4-0.7-1-1.4-1.8-2c-0.8-0.6-1.7-1.2-2.8-1.6c-1.1-0.4-2.4-0.6-4-0.6
			c-3.3,0-6.2,0.9-8.6,2.6c-2.5,1.7-4.5,3.9-6.1,6.6c-1.6,2.7-2.8,5.7-3.7,8.9c-0.8,3.3-1.2,6.5-1.2,9.7c0,4.6,1,8.3,3.1,11.1
			c2.1,2.8,5,4.2,8.9,4.2c3.1,0,5.7-0.7,7.9-2.2c2.2-1.5,4-3.4,5.3-5.8h0.3l-1.2,7h15.7l7.1-41.3H205.7z M202.7,122.9
			c-0.3,1.6-0.6,3-1.1,4.2c-0.4,1.1-0.8,1.9-1.2,2.5c-0.4,0.6-0.9,1.1-1.3,1.4c-0.4,0.3-0.8,0.5-1.2,0.6c-0.4,0.1-0.7,0.1-1,0.1
			c-0.3,0-0.6-0.1-0.9-0.2c-0.4-0.1-0.7-0.3-1-0.6c-0.3-0.3-0.6-0.8-0.8-1.4c-0.2-0.6-0.3-1.5-0.3-2.5c0-1.5,0.2-3.2,0.6-5
			c0.4-1.9,0.9-3.4,1.5-4.6c0.1-0.2,0.3-0.5,0.5-0.9c0.2-0.4,0.5-0.7,0.8-1.1c0.3-0.4,0.7-0.7,1.2-0.9c0.5-0.2,1-0.4,1.6-0.4
			c0.2,0,0.5,0,0.9,0.1c0.4,0.1,0.7,0.3,1,0.6c0.3,0.3,0.6,0.8,0.9,1.4c0.2,0.6,0.4,1.4,0.4,2.5C203.1,119.9,203,121.3,202.7,122.9z
			"/>
		<path d="M255,110.5h-0.3c-0.3-2.7-1.4-4.8-3.1-6.4c-1.8-1.5-4.1-2.3-6.8-2.3c-3,0-5.7,0.8-8.2,2.5c-2.4,1.7-4.5,3.8-6.1,6.4
			c-1.7,2.6-3,5.6-3.9,9c-0.9,3.4-1.4,6.7-1.4,10.1c0,4.3,1.1,7.8,3.3,10.4c2.2,2.6,5.3,3.9,9.4,3.9c0.8,0,1.6-0.1,2.5-0.2
			c0.9-0.2,1.8-0.5,2.8-0.9s2-1,3.1-1.8c1.1-0.8,2.2-1.8,3.3-3h0.3l-0.5,2c-0.8,3.4-2.2,6-4.3,7.7c-2.1,1.8-4.9,2.7-8.5,2.7
			c-1.9,0-3.9-0.4-6-1.1c-2.2-0.8-4.2-1.8-6.2-3.1l-2.3,13c3.6,1.3,6.7,2.2,9.3,2.5c2.6,0.4,4.9,0.6,7,0.6c2.9,0,5.8-0.3,8.7-0.8
			c2.9-0.5,5.7-1.6,8.2-3.3c2.5-1.7,4.8-4.1,6.8-7.3c2-3.2,3.4-7.5,4.4-12.8l6.2-35.3h-16L255,110.5z M252.4,123
			c-0.2,1.2-0.5,2.2-0.8,3.1c-0.4,1.3-1,2.5-1.7,3.6c-0.7,1.1-1.8,1.6-3.3,1.6c-1,0-1.8-0.3-2.4-1c-0.6-0.7-0.9-1.7-0.9-2.9
			c0-1.5,0.1-2.9,0.4-4.2c0.2-1.3,0.5-2.4,0.8-3.4c0.4-1.3,1-2.5,1.7-3.6c0.7-1.1,1.8-1.6,3.3-1.6c0.9,0,1.7,0.3,2.3,1
			c0.6,0.7,0.9,1.9,0.9,3.5C252.8,120.5,252.6,121.8,252.4,123z"/>
		<polygon points="316.9,144 333.8,144 341,102.8 324.1,102.8 		"/>
		<path d="M312.9,117.9c-1.1-1-2.6-1.7-4.5-2.2c-1.9-0.5-4.1-0.8-6.9-0.8h-5.9l2.1-12.1h-16.9l-7,41.3h22.8c3.3,0,6.3-0.4,8.7-1.3
			c2.5-0.9,4.5-2.1,6.1-3.7c1.6-1.6,2.8-3.5,3.6-5.7c0.8-2.2,1.2-4.7,1.2-7.5c0-1.6-0.3-3.1-0.8-4.5
			C314.9,120,314.1,118.9,312.9,117.9z M297.8,132.7c-0.9,1.1-2.1,1.6-3.5,1.6H292l1.6-9.3h2.2c2.2,0,3.3,1.1,3.3,3.2
			C299.1,130.1,298.7,131.6,297.8,132.7z"/>
		<polygon points="346.5,128.3 369.1,128.3 372,112.5 349.4,112.5 		"/>
		<polygon points="380.7,104.3 385.3,116.5 397.4,108.3 391.1,144 408,144 417.5,88.9 403.1,88.9 		"/>
		<path d="M447.7,87.9c-3,0-6,0.6-8.8,1.7c-2.8,1.1-5.4,2.7-7.6,4.8c-2.2,2-4,4.5-5.3,7.4c-1.3,2.9-2,6.1-2,9.6
			c0,4.2,1.2,7.5,3.6,10c2.4,2.4,5.7,3.7,9.9,3.7c2.7,0,4.8-0.4,6.3-1.1c1.5-0.7,2.8-1.5,3.9-2.2h0.3c-0.5,2.7-1.3,4.8-2.5,6.2
			c-1.2,1.5-2.5,2.6-3.9,3.3c-1.4,0.7-2.6,1.1-3.9,1.3c-1.2,0.2-2.1,0.2-2.6,0.2c-2.1,0-4.1-0.2-5.9-0.6c-1.8-0.4-3.7-0.8-5.5-1.3
			l-2.2,12.7c3.5,0.7,6.3,1.2,8.5,1.3c2.2,0.1,3.8,0.2,4.9,0.2c4.6,0,8.9-1,12.7-3c3.8-2,7-4.6,9.7-8c2.7-3.4,4.8-7.2,6.2-11.7
			c1.5-4.4,2.2-9.1,2.2-13.9c0-6.5-1.6-11.5-4.8-15.1C457.8,89.7,453.4,87.9,447.7,87.9z M450,108.6c-0.3,1.2-0.8,2.2-1.4,3.1
			c-0.6,0.9-1.4,1.6-2.2,2.1c-0.9,0.5-1.8,0.8-2.8,0.8c-1.3,0-2.4-0.5-3.2-1.4c-0.8-0.9-1.2-2.2-1.2-4c0-1.2,0.2-2.4,0.5-3.5
			c0.4-1.1,0.8-2.1,1.5-3c0.6-0.9,1.4-1.6,2.2-2.1c0.8-0.5,1.8-0.8,2.8-0.8c1.3,0,2.4,0.4,3.2,1.3c0.8,0.9,1.2,2.2,1.2,3.9
			C450.5,106.2,450.4,107.4,450,108.6z"/>
		<path d="M511.8,92.7c-1.3-1.3-3.2-2.5-5.6-3.4c-2.4-0.9-5.5-1.4-9.3-1.4c-4.8,0-8.7,0.6-11.9,1.8c-3.1,1.2-5.6,2.7-7.5,4.5
			c-1.8,1.8-3.1,3.8-3.9,5.9c-0.7,2.1-1.1,4-1.1,5.8c0,2.4,0.6,4.5,1.7,6.3c1.1,1.8,2.8,3,4.9,3.6v0.3c-1.8,0.4-3.5,1-5,1.9
			c-1.5,0.9-2.7,2-3.8,3.4c-1,1.3-1.9,2.8-2.4,4.5c-0.6,1.7-0.9,3.4-0.9,5.3c0,1.9,0.3,3.7,1,5.3c0.7,1.7,1.8,3.1,3.3,4.3
			c1.5,1.2,3.6,2.2,6.1,2.9c2.5,0.7,5.6,1.1,9.3,1.1c4.3,0,8-0.6,11.2-1.7c3.2-1.1,5.8-2.5,7.8-4.3c2.1-1.8,3.6-3.8,4.6-6
			c1-2.2,1.5-4.5,1.5-6.8c0-2.7-0.7-5-2.2-6.7c-1.5-1.8-3.2-2.8-5.4-3.3v-0.3c1.6-0.5,3.1-1.3,4.4-2.2c1.3-1,2.5-2.1,3.4-3.4
			c0.9-1.3,1.7-2.7,2.2-4.2c0.5-1.5,0.8-3.1,0.8-4.8c0-1.3-0.2-2.7-0.7-4.2C514,95.5,513.1,94,511.8,92.7z M495.1,127.1
			c-0.2,0.8-0.5,1.6-0.9,2.3c-0.8,1.5-1.6,2.5-2.6,3.1c-1,0.6-2,0.9-2.9,0.9c-1.3,0-2.3-0.5-3-1.4c-0.8-0.9-1.2-2.3-1.2-4.1
			c0-1.2,0.2-2.4,0.7-3.7c0.7-1.8,1.6-3.1,2.7-3.9c1.1-0.7,2.2-1.1,3.3-1.1c0.5,0,1,0.1,1.4,0.2c0.5,0.2,0.9,0.4,1.2,0.8
			c0.4,0.4,0.8,1,1.1,1.7c0.3,0.7,0.5,1.6,0.5,2.6C495.4,125.5,495.3,126.3,495.1,127.1z M497.8,107.3c-0.5,1.1-1.2,1.9-2.1,2.7
			c-0.9,0.7-2,1.1-3.1,1.1c-0.8,0-1.5-0.2-2-0.5c-0.5-0.3-0.9-0.7-1.2-1.2c-0.3-0.5-0.5-1-0.6-1.6c-0.1-0.6-0.2-1.1-0.2-1.6
			c0-1.6,0.4-3.2,1.3-4.6c0.8-1.3,1.6-2.2,2.4-2.6c0.9-0.4,1.7-0.7,2.4-0.7c1.2,0,2.1,0.5,2.8,1.4c0.7,0.9,1,2.2,1,3.7
			C498.6,104.9,498.3,106.2,497.8,107.3z"/>
		<polygon points="542.4,88.9 520,104.3 524.6,116.5 536.7,108.3 530.4,144 547.3,144 556.8,88.9 		"/>
	</g>
</g>
</svg>
