<?xml version="1.0" encoding="utf-8"?>
<!-- Generator: Adobe Illustrator 22.0.1, SVG Export Plug-In . SVG Version: 6.00 Build 0)  -->
<svg version="1.1" id="Layer_2_1_" xmlns="http://www.w3.org/2000/svg" xmlns:xlink="http://www.w3.org/1999/xlink" x="0px" y="0px"
	 viewBox="0 0 799 162.2" style="enable-background:new 0 0 799 162.2;" xml:space="preserve">
<style type="text/css">
	.st0{fill-rule:evenodd;clip-rule:evenodd;fill:#FFFFFF;}
</style>
<g>
	<g>
		<rect x="63.7" class="st0" width="671.7" height="75.4"/>
		<rect y="84.5" class="st0" width="799" height="74"/>
	</g>
	<g>
		<path d="M142.6,20.7l2.3-13.8h-41.7L93.7,62l16.9,0.1h10.9c4.2,0,7.6-0.6,10.4-1.9c2.8-1.3,5.1-2.9,6.8-4.9c1.7-2,2.9-4.2,3.7-6.6
			c0.7-2.4,1.1-4.7,1.1-6.9c0-1.5-0.2-3.1-0.6-4.7c-0.4-1.6-1.2-3-2.3-4.3c-1.1-1.3-2.7-2.4-4.6-3.2c-1.9-0.8-4.5-1.3-7.5-1.3h-11.7
			l1.3-7.6H142.6z M120,39.2c1.6,0,2.8,0.4,3.7,1.3c0.9,0.8,1.3,2,1.3,3.5c0,0.8-0.2,1.7-0.5,2.5c-0.3,0.8-0.7,1.6-1.3,2.2
			c-0.6,0.7-1.3,1.2-2.1,1.6c-0.8,0.4-1.8,0.6-2.8,0.6h-5.7l2-11.7H120z"/>
		<path d="M178.7,26c-0.3-0.6-0.6-1.2-1.1-2c-0.4-0.7-1-1.4-1.8-2c-0.8-0.6-1.7-1.2-2.8-1.6c-1.1-0.4-2.4-0.6-4-0.6
			c-3.3,0-6.2,0.9-8.6,2.6c-2.5,1.7-4.5,3.9-6.1,6.6c-1.6,2.7-2.8,5.7-3.7,8.9c-0.8,3.3-1.2,6.5-1.2,9.7c0,4.6,1,8.3,3.1,11.1
			c2.1,2.8,5,4.2,8.9,4.2c3.1,0,5.7-0.7,7.9-2.2c2.2-1.5,4-3.4,5.3-5.8h0.3l-1.2,7h15.7l7.1-41.3h-16.9L178.7,26z M176.6,40.9
			c-0.3,1.6-0.6,3-1.1,4.2c-0.4,1.1-0.8,1.9-1.2,2.5c-0.4,0.6-0.9,1.1-1.3,1.4c-0.4,0.3-0.8,0.5-1.2,0.6c-0.4,0.1-0.7,0.1-1,0.1
			c-0.3,0-0.6-0.1-0.9-0.2c-0.4-0.1-0.7-0.3-1-0.6s-0.6-0.8-0.8-1.4c-0.2-0.6-0.3-1.5-0.3-2.5c0-1.5,0.2-3.2,0.6-5
			c0.4-1.9,0.9-3.4,1.5-4.6c0.1-0.2,0.3-0.5,0.5-0.9c0.2-0.4,0.5-0.7,0.8-1.1c0.3-0.4,0.7-0.7,1.2-0.9s1-0.4,1.6-0.4
			c0.2,0,0.5,0,0.9,0.1c0.4,0.1,0.7,0.3,1,0.6s0.6,0.8,0.9,1.4c0.2,0.6,0.4,1.4,0.4,2.5C177,37.9,176.9,39.3,176.6,40.9z"/>
		<path d="M225.3,19.8c-3.3,0-6.3,0.4-8.9,1.3c-2.6,0.8-4.8,2-6.8,3.3c-1.9,1.4-3.6,3-4.9,4.8c-1.3,1.8-2.4,3.7-3.2,5.6
			c-0.8,1.9-1.4,3.9-1.7,5.8c-0.4,1.9-0.5,3.7-0.5,5.3c0,2.8,0.4,5.1,1.2,7.1c0.8,1.9,1.8,3.5,3,4.8c1.2,1.3,2.5,2.3,4,3
			c1.5,0.7,2.9,1.2,4.3,1.5c1.4,0.3,2.7,0.6,3.8,0.6c1.2,0.1,2,0.1,2.5,0.1c1.9,0,3.9-0.1,5.9-0.4c2-0.2,4.3-0.8,6.7-1.7l2.1-11.9
			c-1.2,0.6-2.5,1.1-3.9,1.5c-1.4,0.4-2.7,0.6-4.1,0.6c-0.3,0-0.8-0.1-1.6-0.2c-0.8-0.1-1.6-0.4-2.4-0.9c-0.8-0.5-1.6-1.2-2.2-2.2
			c-0.6-1-1-2.4-1-4.2c0-1.4,0.2-2.8,0.6-4.2c0.4-1.4,1.1-2.8,2-3.9c0.9-1.2,2-2.1,3.3-2.9c1.3-0.7,2.9-1.1,4.8-1.1
			c0.8,0,1.7,0.1,2.9,0.4c1.2,0.2,2.5,0.7,4,1.5l2-11.8c-1.5-0.5-3.2-0.9-5.2-1.3C230.1,20,227.8,19.8,225.3,19.8z"/>
		<polygon points="290.1,20.7 271.8,20.7 259.1,38.8 258.8,38.8 262,20.7 245.4,20.7 238.2,62 254.8,62 258,43.8 258.2,43.8 
			264.7,62 283.3,62 274.8,41 		"/>
		<path d="M326.6,23.4c-1.4-1.1-3.1-2-5.3-2.6c-2.2-0.7-4.8-1-7.8-1c-3.8,0-7.2,0.7-10.3,2c-3.1,1.4-5.7,3.2-7.9,5.6
			c-2.2,2.4-3.9,5.1-5.1,8.2c-1.2,3.1-1.8,6.4-1.8,10c0,2.7,0.4,5.1,1.1,7.2c0.7,2.2,1.9,4,3.4,5.5c1.6,1.5,3.6,2.6,6,3.4
			c2.5,0.8,5.4,1.2,8.9,1.2c2.3,0,4.9-0.2,7.7-0.5c2.8-0.3,5.7-1,8.7-1.9l1.9-10.7c-0.9,0.4-2,0.7-3.2,1.1c-1.2,0.3-2.4,0.6-3.7,0.9
			c-1.3,0.3-2.5,0.5-3.8,0.6c-1.3,0.2-2.4,0.2-3.4,0.2c-2.4,0-4.1-0.5-5.2-1.5c-1.1-1-1.7-2.3-1.9-4.1c5.3-0.3,9.6-0.9,12.9-1.8
			c3.3-0.9,5.9-2,7.8-3.3c1.9-1.3,3.2-2.9,3.9-4.6c0.7-1.8,1-3.7,1-5.7c0-1.5-0.3-3-1-4.5C329,25.8,328,24.5,326.6,23.4z
			 M315.6,34.3c-0.3,0.6-0.8,1.2-1.5,1.7c-0.8,0.5-1.8,1-3.1,1.4c-1.3,0.4-3.1,0.7-5.2,0.9c0.6-3.2,1.6-5.5,2.9-6.9
			c1.3-1.4,2.7-2,4.3-2c1.1,0,1.9,0.3,2.4,0.8c0.5,0.6,0.8,1.3,0.8,2.2C316,33.1,315.9,33.7,315.6,34.3z"/>
		<polygon points="334.8,32.6 344.1,32.6 339.1,62 355.9,62 361,32.6 370.4,32.6 372.5,20.7 336.8,20.7 		"/>
		<path d="M410,3.3c-1.9,0.2-3.8,0.4-5.7,0.6c-1.9,0.2-3.8,0.4-5.7,0.8c-1.9,0.4-3.7,0.9-5.6,1.6c-1.9,0.7-3.7,1.7-5.5,2.9
			c-2.4,1.6-4.5,3.8-6.4,6.5c-1.8,2.7-3.4,5.6-4.6,8.8c-1.2,3.2-2.2,6.6-2.8,10c-0.6,3.5-1,6.8-1,10c0,1.7,0.2,3.7,0.6,5.8
			c0.4,2.2,1.2,4.2,2.4,6c1.2,1.9,3.1,3.4,5.5,4.7c2.4,1.3,5.6,1.9,9.6,1.9c4.8,0,8.9-0.8,12.2-2.4c3.3-1.6,6-3.6,8-5.9
			c2-2.4,3.5-5,4.4-7.8c0.9-2.8,1.3-5.4,1.3-7.8c0-2.7-0.4-5-1.2-6.9c-0.8-1.9-2-3.5-3.4-4.8c-1.5-1.3-3.2-2.2-5.2-2.8
			c-2-0.6-4.1-0.9-6.4-0.9c-1,0-2.1,0.1-3.3,0.3c-1.2,0.2-2.4,0.5-3.7,1.1c-1.3,0.5-2.6,1.3-3.9,2.2c-1.3,1-2.5,2.2-3.6,3.8h-0.5
			l0.4-1.9c0.4-1.7,0.9-3.1,1.5-4.3c0.6-1.2,1.4-2.1,2.2-2.9c0.8-0.8,1.7-1.4,2.6-1.8c0.9-0.4,1.7-0.8,2.5-1.1
			c1.8-0.6,3.7-1,5.8-1.2c2.1-0.2,4.3-0.4,6.7-0.6c1.2-0.1,2.3-0.1,3.2-0.3c1-0.1,1.8-0.3,2.6-0.5c0.8-0.2,1.6-0.4,2.3-0.7
			c0.7-0.3,1.4-0.7,2.1-1.2l2.5-14.2c-1.8,0.9-3.5,1.5-5,1.9C413.6,2.8,411.9,3.1,410,3.3z M390.5,45.4c0.1-0.8,0.2-1.6,0.3-2.4
			c0.1-0.8,0.3-1.6,0.5-2.4c0.2-0.8,0.4-1.4,0.5-1.9c0.5-1.6,1.2-2.6,1.9-3.2c0.7-0.5,1.4-0.8,2.1-0.8c0.6,0,1.1,0.1,1.5,0.4
			c0.4,0.2,0.6,0.6,0.8,0.9c0.2,0.4,0.3,0.8,0.4,1.3c0,0.4,0.1,0.9,0.1,1.2c0,1.5-0.1,3-0.4,4.4c-0.1,0.9-0.3,1.8-0.5,2.8
			c-0.2,1-0.5,1.9-0.9,2.6c-0.4,0.8-0.9,1.4-1.4,2c-0.6,0.5-1.3,0.8-2.1,0.8c-1.2,0-2-0.4-2.3-1.3c-0.3-0.8-0.5-1.7-0.5-2.5
			C390.4,46.9,390.4,46.2,390.5,45.4z"/>
		<path d="M464.9,30.9c-0.6-2.1-1.7-4-3.2-5.6c-1.5-1.7-3.4-3-5.8-4c-2.4-1-5.3-1.5-8.8-1.5c-4.3,0-8,0.8-11.3,2.3
			c-3.2,1.5-5.9,3.5-8.1,6c-2.2,2.5-3.8,5.3-4.9,8.4c-1.1,3.1-1.6,6.3-1.6,9.6c0,1.4,0.2,3,0.6,5c0.4,1.9,1.3,3.8,2.6,5.6
			c1.3,1.8,3.2,3.3,5.7,4.5c2.5,1.2,5.8,1.9,10,1.9c4,0,7.6-0.7,10.8-2.1c3.2-1.4,5.9-3.3,8.1-5.7s3.9-5.1,5.1-8.2
			c1.2-3.1,1.7-6.3,1.7-9.6C465.9,35.2,465.6,33,464.9,30.9z M447.4,41.2c-0.4,2-0.8,3.8-1.2,5.2c-0.1,0.5-0.3,1.1-0.6,1.6
			c-0.2,0.6-0.5,1.1-0.9,1.5c-0.3,0.5-0.7,0.9-1.2,1.1c-0.5,0.3-1,0.4-1.7,0.4c-0.5,0-1.1-0.2-1.6-0.7c-0.6-0.5-0.8-1.5-0.8-3.1
			c0-0.8,0.1-1.8,0.2-3c0.1-1.2,0.3-2.3,0.5-3.5c0.2-1.2,0.5-2.3,0.7-3.3c0.3-1.1,0.5-1.9,0.8-2.5c0.1-0.3,0.3-0.6,0.5-1
			c0.2-0.4,0.4-0.8,0.7-1.1c0.3-0.3,0.7-0.6,1.1-0.9c0.4-0.2,0.9-0.4,1.4-0.4c0.6,0,1.1,0.1,1.5,0.4c0.4,0.3,0.6,0.6,0.8,1.1
			c0.2,0.4,0.3,0.9,0.3,1.3c0,0.4,0.1,0.8,0.1,1.1C448,37.3,447.8,39.2,447.4,41.2z"/>
		<path d="M477.2,32.9c-0.8,4.2-1.4,7.5-1.9,9.9c-0.5,2.4-1.1,4.2-1.6,5.5c-0.5,1.2-1,2-1.6,2.4c-0.5,0.3-1.2,0.5-1.9,0.5
			c-0.8,0-1.5-0.1-1.9-0.2c-0.3-0.1-0.5-0.2-0.7-0.3l-1.9,11c0.7,0.3,1.5,0.5,2.3,0.7c0.7,0.2,1.5,0.3,2.4,0.4
			c0.9,0.1,1.9,0.2,3,0.2c1.7,0,3.2-0.1,4.6-0.4c1.3-0.2,2.6-0.7,3.7-1.5c1.1-0.7,2.1-1.8,3-3.1c0.9-1.3,1.7-3.1,2.5-5.2
			c0.8-2.2,1.6-4.8,2.3-8c0.7-3.2,1.5-6.9,2.3-11.2l0.2-1.1h5.8L492.8,62h16.9l7.2-41.3h-37.5L477.2,32.9z"/>
		<path d="M557.5,35.9c-1.1-1-2.6-1.7-4.5-2.2c-1.9-0.5-4.1-0.8-6.9-0.8h-5.9l2.1-12.1h-16.9l-7,41.3h22.8c3.3,0,6.3-0.4,8.7-1.3
			c2.5-0.9,4.5-2.1,6.1-3.7c1.6-1.6,2.8-3.5,3.6-5.7c0.8-2.2,1.2-4.7,1.2-7.5c0-1.6-0.3-3.1-0.8-4.5C559.5,38,558.6,36.9,557.5,35.9
			z M542.3,50.6c-0.9,1.1-2.1,1.6-3.5,1.6h-2.2l1.6-9.3h2.2c2.2,0,3.3,1.1,3.3,3.2C543.7,48.1,543.2,49.6,542.3,50.6z"/>
		<polygon points="592.2,35 586.2,35 588.7,20.7 571.8,20.7 564.6,62 581.5,62 584.1,46.8 590.1,46.8 587.5,62 604.4,62 611.6,20.7 
			594.7,20.7 		"/>
		<path d="M654.8,25.3c-1.5-1.7-3.4-3-5.8-4c-2.4-1-5.3-1.5-8.8-1.5c-4.3,0-8,0.8-11.3,2.3c-3.2,1.5-5.9,3.5-8.1,6
			c-2.2,2.5-3.8,5.3-4.9,8.4c-1.1,3.1-1.6,6.3-1.6,9.6c0,1.4,0.2,3,0.6,5c0.4,1.9,1.3,3.8,2.6,5.6c1.3,1.8,3.2,3.3,5.7,4.5
			c2.5,1.2,5.8,1.9,10,1.9c4,0,7.6-0.7,10.8-2.1c3.2-1.4,5.9-3.3,8.1-5.7c2.2-2.4,3.9-5.1,5.1-8.2c1.2-3.1,1.7-6.3,1.7-9.6
			c0-2.2-0.3-4.4-1-6.5C657.4,28.8,656.3,26.9,654.8,25.3z M640.5,41.2c-0.4,2-0.8,3.8-1.2,5.2c-0.1,0.5-0.3,1.1-0.6,1.6
			c-0.2,0.6-0.5,1.1-0.9,1.5c-0.3,0.5-0.7,0.9-1.2,1.1c-0.5,0.3-1,0.4-1.7,0.4c-0.5,0-1.1-0.2-1.6-0.7c-0.6-0.5-0.8-1.5-0.8-3.1
			c0-0.8,0.1-1.8,0.2-3c0.1-1.2,0.3-2.3,0.5-3.5c0.2-1.2,0.5-2.3,0.7-3.3c0.3-1.1,0.5-1.9,0.8-2.5c0.1-0.3,0.3-0.6,0.5-1
			c0.2-0.4,0.4-0.8,0.7-1.1c0.3-0.3,0.7-0.6,1.1-0.9c0.4-0.2,0.9-0.4,1.4-0.4c0.6,0,1.1,0.1,1.5,0.4c0.4,0.3,0.6,0.6,0.8,1.1
			c0.2,0.4,0.3,0.9,0.3,1.3c0,0.4,0.1,0.8,0.1,1.1C641,37.3,640.8,39.2,640.5,41.2z"/>
		<path d="M704.4,27.2c-0.6-1.4-1.7-2.7-3-3.8c-1.4-1.1-3.1-2-5.3-2.6c-2.2-0.7-4.8-1-7.8-1c-3.8,0-7.2,0.7-10.3,2
			c-3.1,1.4-5.7,3.2-7.9,5.6c-2.2,2.4-3.9,5.1-5.1,8.2c-1.2,3.1-1.8,6.4-1.8,10c0,2.7,0.4,5.1,1.1,7.2c0.7,2.2,1.9,4,3.4,5.5
			c1.6,1.5,3.6,2.6,6,3.4c2.5,0.8,5.4,1.2,8.9,1.2c2.3,0,4.9-0.2,7.7-0.5c2.8-0.3,5.7-1,8.7-1.9l1.9-10.7c-0.9,0.4-2,0.7-3.2,1.1
			c-1.2,0.3-2.4,0.6-3.7,0.9c-1.3,0.3-2.5,0.5-3.8,0.6c-1.3,0.2-2.4,0.2-3.4,0.2c-2.4,0-4.1-0.5-5.2-1.5c-1.1-1-1.7-2.3-1.9-4.1
			c5.3-0.3,9.6-0.9,12.9-1.8c3.3-0.9,5.9-2,7.8-3.3s3.2-2.9,3.9-4.6c0.7-1.8,1-3.7,1-5.7C705.3,30.2,705,28.7,704.4,27.2z
			 M690.3,34.3c-0.3,0.6-0.8,1.2-1.5,1.7c-0.8,0.5-1.8,1-3.1,1.4c-1.3,0.4-3.1,0.7-5.2,0.9c0.6-3.2,1.6-5.5,2.9-6.9
			c1.3-1.4,2.7-2,4.3-2c1.1,0,1.9,0.3,2.4,0.8c0.5,0.6,0.8,1.3,0.8,2.2C690.7,33.1,690.6,33.7,690.3,34.3z"/>
	</g>
	<g>
		<path d="M61,118.6c1.4-1.9,2.1-4.1,2.1-6.7c0-1.2-0.2-2.3-0.7-3.5c-0.4-1.2-1.2-2.3-2.3-3.3c-1.1-1-2.6-1.8-4.6-2.4
			c-1.9-0.6-4.4-0.9-7.4-0.9c-2.9,0-5.6,0.2-8.3,0.5c-2.7,0.3-5.5,1-8.5,2L29.4,115c1.7-0.8,3.6-1.6,5.7-2.2
			c2.1-0.6,4.3-0.9,6.6-0.9c0.3,0,0.8,0,1.3,0.1c0.6,0.1,1.2,0.2,1.7,0.4c0.6,0.2,1.1,0.5,1.5,1c0.4,0.4,0.6,1.1,0.6,1.9
			c0,0.3,0,0.6-0.1,1c-0.1,0.4-0.3,0.8-0.6,1.3c-0.3,0.4-0.8,0.8-1.5,1.1c-0.7,0.3-1.6,0.4-2.8,0.4h-6.6l-1.3,7.9h5.7
			c0.2,0,0.6,0,1.1,0c0.5,0,1,0.1,1.5,0.4c0.5,0.2,0.9,0.5,1.3,1c0.4,0.4,0.6,1.1,0.6,1.9c0,0.4-0.1,0.9-0.2,1.5
			c-0.2,0.6-0.5,1.1-0.9,1.5c-0.4,0.5-1.1,0.9-1.9,1.2c-0.8,0.3-1.9,0.5-3.2,0.5c-1.7,0-3.5-0.2-5.6-0.7c-2.1-0.5-4.2-1.4-6.4-2.6
			l-1.9,10.7c3.2,1.2,6.1,2,8.6,2.2c2.5,0.3,4.7,0.4,6.7,0.4c3.5,0,6.5-0.3,9-0.9c2.5-0.6,4.6-1.4,6.3-2.3c1.7-0.9,3-2,4-3.1
			c1-1.2,1.7-2.3,2.1-3.4c0.5-1.1,0.8-2.1,0.9-3c0.1-0.9,0.2-1.6,0.2-2.2c0-1.9-0.5-3.7-1.5-5.1c-1-1.5-2.5-2.3-4.5-2.4v-0.2
			C57.8,121.8,59.6,120.5,61,118.6z"/>
		<path d="M110.8,112.9c-0.6-2.1-1.7-4-3.2-5.6c-1.5-1.7-3.4-3-5.8-4c-2.4-1-5.3-1.5-8.8-1.5c-4.3,0-8,0.8-11.3,2.3
			c-3.2,1.5-5.9,3.5-8.1,6c-2.2,2.5-3.8,5.3-4.9,8.4c-1.1,3.1-1.6,6.3-1.6,9.6c0,1.4,0.2,3,0.6,5c0.4,1.9,1.3,3.8,2.6,5.6
			c1.3,1.8,3.2,3.3,5.7,4.5c2.5,1.2,5.8,1.9,10,1.9c4,0,7.6-0.7,10.8-2.1c3.2-1.4,5.9-3.3,8.1-5.7c2.2-2.4,3.9-5.1,5.1-8.2
			c1.2-3.1,1.7-6.3,1.7-9.6C111.8,117.2,111.5,115,110.8,112.9z M93.3,123.2c-0.4,2-0.8,3.8-1.2,5.2c-0.1,0.5-0.3,1.1-0.6,1.6
			c-0.2,0.6-0.5,1.1-0.9,1.5c-0.3,0.5-0.7,0.9-1.2,1.1c-0.5,0.3-1,0.4-1.7,0.4c-0.5,0-1.1-0.2-1.6-0.7c-0.6-0.5-0.8-1.5-0.8-3.1
			c0-0.8,0.1-1.8,0.2-3c0.1-1.2,0.3-2.3,0.5-3.5c0.2-1.2,0.5-2.3,0.7-3.3c0.3-1.1,0.5-1.9,0.8-2.5c0.1-0.3,0.3-0.6,0.5-1
			c0.2-0.4,0.4-0.8,0.7-1.1c0.3-0.3,0.7-0.6,1.1-0.9c0.4-0.2,0.9-0.4,1.4-0.4c0.6,0,1.1,0.1,1.5,0.4c0.4,0.3,0.6,0.6,0.8,1.1
			c0.2,0.4,0.3,0.9,0.3,1.3c0,0.4,0.1,0.8,0.1,1.1C93.9,119.3,93.7,121.2,93.3,123.2z"/>
		<path d="M123.1,114.9c-0.8,4.2-1.4,7.5-1.9,9.9c-0.5,2.4-1.1,4.2-1.6,5.5c-0.5,1.2-1,2-1.6,2.4c-0.5,0.3-1.2,0.5-1.9,0.5
			c-0.8,0-1.5-0.1-1.9-0.2c-0.3-0.1-0.5-0.2-0.7-0.3l-1.9,11c0.7,0.3,1.5,0.5,2.3,0.7c0.7,0.2,1.5,0.3,2.4,0.4
			c0.9,0.1,1.9,0.2,3,0.2c1.7,0,3.2-0.1,4.6-0.4c1.3-0.2,2.6-0.7,3.7-1.5c1.1-0.7,2.1-1.8,3-3.1c0.9-1.3,1.7-3.1,2.5-5.2
			c0.8-2.2,1.6-4.8,2.3-8c0.7-3.2,1.5-6.9,2.3-11.2l0.2-1.1h5.8l-5.1,29.5h16.9l7.2-41.3h-37.5L123.1,114.9z"/>
		<path d="M206,107.3c-1.5-1.7-3.4-3-5.8-4c-2.4-1-5.3-1.5-8.8-1.5c-4.3,0-8,0.8-11.3,2.3c-3.2,1.5-5.9,3.5-8.1,6
			c-2.2,2.5-3.8,5.3-4.9,8.4c-1.1,3.1-1.6,6.3-1.6,9.6c0,1.4,0.2,3,0.6,5c0.4,1.9,1.3,3.8,2.6,5.6c1.3,1.8,3.2,3.3,5.7,4.5
			c2.5,1.2,5.8,1.9,10,1.9c4,0,7.6-0.7,10.8-2.1c3.2-1.4,5.9-3.3,8.1-5.7s3.9-5.1,5.1-8.2c1.2-3.1,1.7-6.3,1.7-9.6
			c0-2.2-0.3-4.4-1-6.5C208.6,110.8,207.5,108.9,206,107.3z M191.7,123.2c-0.4,2-0.8,3.8-1.2,5.2c-0.1,0.5-0.3,1.1-0.6,1.6
			c-0.2,0.6-0.5,1.1-0.9,1.5c-0.3,0.5-0.7,0.9-1.2,1.1c-0.5,0.3-1,0.4-1.7,0.4c-0.5,0-1.1-0.2-1.6-0.7c-0.6-0.5-0.8-1.5-0.8-3.1
			c0-0.8,0.1-1.8,0.2-3c0.1-1.2,0.3-2.3,0.5-3.5c0.2-1.2,0.5-2.3,0.7-3.3c0.3-1.1,0.5-1.9,0.8-2.5c0.1-0.3,0.3-0.6,0.5-1
			c0.2-0.4,0.4-0.8,0.7-1.1c0.3-0.3,0.7-0.6,1.1-0.9c0.4-0.2,0.9-0.4,1.4-0.4c0.6,0,1.1,0.1,1.5,0.4c0.4,0.3,0.6,0.6,0.8,1.1
			c0.2,0.4,0.3,0.9,0.3,1.3c0,0.4,0.1,0.8,0.1,1.1C192.2,119.3,192.1,121.2,191.7,123.2z"/>
		<polygon points="215.8,102.7 213.7,114.6 223.1,114.6 218,144 234.8,144 239.9,114.6 249.3,114.6 251.4,102.7 		"/>
		<path d="M290.8,107.3c-1.5-1.7-3.4-3-5.8-4c-2.4-1-5.3-1.5-8.8-1.5c-4.3,0-8,0.8-11.3,2.3c-3.2,1.5-5.9,3.5-8.1,6
			c-2.2,2.5-3.8,5.3-4.9,8.4c-1.1,3.1-1.6,6.3-1.6,9.6c0,1.4,0.2,3,0.6,5c0.4,1.9,1.3,3.8,2.6,5.6c1.3,1.8,3.2,3.3,5.7,4.5
			s5.8,1.9,10,1.9c4,0,7.6-0.7,10.8-2.1c3.2-1.4,5.9-3.3,8.1-5.7c2.2-2.4,3.9-5.1,5.1-8.2c1.2-3.1,1.7-6.3,1.7-9.6
			c0-2.2-0.3-4.4-1-6.5C293.3,110.8,292.2,108.9,290.8,107.3z M276.4,123.2c-0.4,2-0.8,3.8-1.2,5.2c-0.1,0.5-0.3,1.1-0.6,1.6
			c-0.2,0.6-0.5,1.1-0.9,1.5c-0.3,0.5-0.7,0.9-1.2,1.1c-0.5,0.3-1,0.4-1.7,0.4c-0.5,0-1.1-0.2-1.6-0.7c-0.6-0.5-0.8-1.5-0.8-3.1
			c0-0.8,0.1-1.8,0.2-3c0.1-1.2,0.3-2.3,0.5-3.5c0.2-1.2,0.5-2.3,0.7-3.3c0.3-1.1,0.5-1.9,0.8-2.5c0.1-0.3,0.3-0.6,0.5-1
			c0.2-0.4,0.4-0.8,0.7-1.1c0.3-0.3,0.7-0.6,1.1-0.9c0.4-0.2,0.9-0.4,1.4-0.4c0.6,0,1.1,0.1,1.5,0.4c0.4,0.3,0.6,0.6,0.8,1.1
			c0.2,0.4,0.3,0.9,0.3,1.3c0,0.4,0.1,0.8,0.1,1.1C277,119.3,276.8,121.2,276.4,123.2z"/>
		<path d="M358.6,88.5c-2.1-0.4-4.5-0.6-7.3-0.6c-5.5,0-10.4,1-14.5,3.1c-4.1,2-7.6,4.7-10.3,8c-2.7,3.3-4.8,7-6.1,11.1
			c-1.4,4.1-2,8.3-2,12.4c0,3.9,0.6,7.2,1.9,10c1.2,2.8,2.9,5.1,5.1,7c2.1,1.8,4.6,3.2,7.4,4.1c2.8,0.9,5.8,1.3,8.9,1.3
			c1.9,0,3.9-0.1,6.2-0.4c2.3-0.3,4.8-0.9,7.6-1.8L358,128c-2.6,1.1-4.6,1.7-6.2,1.9c-1.6,0.2-2.8,0.4-3.6,0.4c-1.6,0-3-0.2-4.3-0.6
			c-1.3-0.4-2.5-1.1-3.5-2c-1-0.9-1.8-2-2.3-3.3c-0.6-1.3-0.8-2.9-0.8-4.7c0-2.2,0.4-4.4,1.1-6.5c0.7-2.1,1.7-4,3.1-5.6
			c1.3-1.6,3-2.9,4.9-3.9c1.9-1,4.1-1.5,6.5-1.5c1.4,0,2.9,0.2,4.5,0.5c1.6,0.3,3.2,0.9,4.6,1.6l2.5-14.6l-1-0.2
			C362.3,89.2,360.7,88.9,358.6,88.5z"/>
		<path d="M402.5,124.1c1.9-1.3,3.2-2.9,3.9-4.6c0.7-1.8,1-3.7,1-5.7c0-1.5-0.3-3-1-4.5c-0.6-1.4-1.7-2.7-3-3.8
			c-1.4-1.1-3.1-2-5.3-2.6c-2.2-0.7-4.8-1-7.8-1c-3.8,0-7.2,0.7-10.3,2c-3.1,1.4-5.7,3.2-7.9,5.6c-2.2,2.4-3.9,5.1-5.1,8.2
			c-1.2,3.1-1.8,6.4-1.8,10c0,2.7,0.4,5.1,1.1,7.2c0.7,2.2,1.9,4,3.4,5.5c1.6,1.5,3.6,2.6,6,3.4c2.5,0.8,5.4,1.2,8.9,1.2
			c2.3,0,4.9-0.2,7.7-0.5c2.8-0.3,5.7-1,8.7-1.9l1.9-10.7c-0.9,0.4-2,0.7-3.2,1.1c-1.2,0.3-2.4,0.6-3.7,0.9
			c-1.3,0.3-2.5,0.5-3.8,0.6c-1.3,0.2-2.4,0.2-3.4,0.2c-2.4,0-4.1-0.5-5.2-1.5c-1.1-1-1.7-2.3-1.9-4.1c5.3-0.3,9.6-0.9,12.9-1.8
			C398,126.5,400.6,125.4,402.5,124.1z M392.4,116.3c-0.3,0.6-0.8,1.2-1.5,1.7c-0.8,0.5-1.8,1-3.1,1.4c-1.3,0.4-3.1,0.7-5.2,0.9
			c0.6-3.2,1.6-5.5,2.9-6.9c1.3-1.4,2.7-2,4.3-2c1.1,0,1.9,0.3,2.4,0.8c0.5,0.6,0.8,1.3,0.8,2.2
			C392.8,115.1,392.6,115.7,392.4,116.3z"/>
		<path d="M439.7,102.7l-8.8,26h-0.2l-0.3-26H413l5.6,42.3l-0.5,1.3c-0.4,0.8-0.8,1.4-1.3,1.9c-0.5,0.5-1,0.8-1.6,1.1
			c-0.6,0.2-1.1,0.4-1.6,0.5c-0.5,0.1-0.9,0.1-1.2,0.1c-0.8,0-1.7-0.1-2.5-0.2c-0.8-0.1-1.7-0.4-2.5-0.7l-2,11.7
			c1.8,0.5,3.5,0.9,5.3,1.2c1.7,0.3,3.3,0.4,4.6,0.4c2.5,0,4.7-0.3,6.8-0.9c2.1-0.6,4-1.6,5.8-3c1.8-1.3,3.4-3,4.9-5.1
			c1.5-2.1,2.9-4.6,4.2-7.5l19.3-42.9H439.7z"/>
		<path d="M459.9,114.9c-0.8,4.2-1.4,7.5-1.9,9.9c-0.5,2.4-1.1,4.2-1.6,5.5c-0.5,1.2-1,2-1.6,2.4c-0.5,0.3-1.2,0.5-1.9,0.5
			c-0.8,0-1.5-0.1-1.9-0.2c-0.3-0.1-0.5-0.2-0.7-0.3l-1.9,11c0.7,0.3,1.5,0.5,2.3,0.7c0.7,0.2,1.5,0.3,2.4,0.4
			c0.9,0.1,1.9,0.2,3,0.2c1.7,0,3.2-0.1,4.6-0.4c1.3-0.2,2.6-0.7,3.7-1.5c1.1-0.7,2.1-1.8,3-3.1c0.9-1.3,1.7-3.1,2.5-5.2
			c0.8-2.2,1.6-4.8,2.3-8c0.7-3.2,1.5-6.9,2.3-11.2l0.2-1.1h5.8l-5.1,29.5h16.9l7.2-41.3H462L459.9,114.9z"/>
		<path d="M531.7,108c-0.3-0.6-0.6-1.2-1.1-2c-0.4-0.7-1-1.4-1.8-2c-0.8-0.6-1.7-1.2-2.8-1.6c-1.1-0.4-2.4-0.6-4-0.6
			c-3.3,0-6.2,0.9-8.6,2.6c-2.5,1.7-4.5,3.9-6.1,6.6c-1.6,2.7-2.8,5.7-3.7,8.9c-0.8,3.3-1.2,6.5-1.2,9.7c0,4.6,1,8.3,3.1,11.1
			c2.1,2.8,5,4.2,8.9,4.2c3.1,0,5.7-0.7,7.9-2.2c2.2-1.5,4-3.4,5.3-5.8h0.3l-1.2,7h15.7l7.1-41.3h-16.9L531.7,108z M529.6,122.9
			c-0.3,1.6-0.6,3-1.1,4.2c-0.4,1.1-0.8,1.9-1.2,2.5c-0.4,0.6-0.9,1.1-1.3,1.4c-0.4,0.3-0.8,0.5-1.2,0.6c-0.4,0.1-0.7,0.1-1,0.1
			c-0.3,0-0.6-0.1-0.9-0.2c-0.4-0.1-0.7-0.3-1-0.6c-0.3-0.3-0.6-0.8-0.8-1.4c-0.2-0.6-0.3-1.5-0.3-2.5c0-1.5,0.2-3.2,0.6-5
			c0.4-1.9,0.9-3.4,1.5-4.6c0.1-0.2,0.3-0.5,0.5-0.9c0.2-0.4,0.5-0.7,0.8-1.1c0.3-0.4,0.7-0.7,1.2-0.9s1-0.4,1.6-0.4
			c0.2,0,0.5,0,0.9,0.1c0.4,0.1,0.7,0.3,1,0.6c0.3,0.3,0.6,0.8,0.9,1.4c0.2,0.6,0.4,1.4,0.4,2.5C530,119.9,529.9,121.3,529.6,122.9z
			"/>
		<polygon points="555,128.3 577.5,128.3 580.4,112.5 557.9,112.5 		"/>
		<polygon points="589.8,104.2 594.4,116.5 606.5,108.3 600.3,144 617.1,144 626.6,88.9 612.2,88.9 		"/>
		<path d="M656.8,87.9c-3,0-6,0.6-8.8,1.7c-2.8,1.1-5.4,2.7-7.6,4.8c-2.2,2-4,4.5-5.3,7.4c-1.3,2.9-2,6.1-2,9.6
			c0,4.2,1.2,7.5,3.6,10c2.4,2.4,5.7,3.7,9.9,3.7c2.7,0,4.8-0.4,6.3-1.1c1.5-0.7,2.8-1.5,3.9-2.2h0.3c-0.5,2.7-1.3,4.8-2.5,6.2
			c-1.2,1.5-2.5,2.6-3.9,3.3c-1.4,0.7-2.6,1.1-3.9,1.3c-1.2,0.2-2.1,0.2-2.6,0.2c-2.1,0-4.1-0.2-5.9-0.6c-1.8-0.4-3.6-0.8-5.5-1.3
			l-2.2,12.7c3.5,0.7,6.3,1.2,8.5,1.3c2.2,0.1,3.8,0.2,4.9,0.2c4.6,0,8.9-1,12.7-3c3.8-2,7-4.6,9.7-8c2.7-3.4,4.8-7.2,6.2-11.7
			c1.5-4.4,2.2-9.1,2.2-13.9c0-6.5-1.6-11.5-4.8-15.1C666.9,89.7,662.5,87.9,656.8,87.9z M659.2,108.6c-0.3,1.2-0.8,2.2-1.4,3.1
			c-0.6,0.9-1.4,1.6-2.2,2.1c-0.9,0.5-1.8,0.8-2.8,0.8c-1.3,0-2.4-0.5-3.2-1.4c-0.8-0.9-1.2-2.2-1.2-4c0-1.2,0.2-2.4,0.5-3.5
			c0.4-1.1,0.8-2.1,1.5-3c0.6-0.9,1.4-1.6,2.2-2.1c0.8-0.5,1.8-0.8,2.8-0.8c1.3,0,2.4,0.4,3.2,1.3c0.8,0.9,1.2,2.2,1.2,3.9
			C659.7,106.2,659.5,107.4,659.2,108.6z"/>
		<path d="M722.9,92.7c-1.3-1.3-3.2-2.5-5.6-3.4c-2.4-0.9-5.5-1.4-9.3-1.4c-4.8,0-8.7,0.6-11.9,1.8c-3.1,1.2-5.6,2.7-7.5,4.5
			c-1.8,1.8-3.1,3.8-3.9,5.9c-0.7,2.1-1.1,4-1.1,5.8c0,2.4,0.6,4.5,1.7,6.3c1.1,1.8,2.8,3,4.9,3.6v0.3c-1.8,0.4-3.5,1-5,1.9
			c-1.5,0.9-2.7,2-3.8,3.4c-1,1.3-1.9,2.8-2.4,4.5c-0.6,1.7-0.9,3.4-0.9,5.3c0,1.9,0.3,3.7,1,5.3c0.7,1.7,1.8,3.1,3.3,4.3
			c1.5,1.2,3.6,2.2,6.1,2.9c2.5,0.7,5.6,1.1,9.3,1.1c4.3,0,8-0.6,11.2-1.7c3.2-1.1,5.8-2.5,7.8-4.3c2.1-1.8,3.6-3.8,4.6-6
			c1-2.2,1.5-4.5,1.5-6.8c0-2.7-0.7-5-2.2-6.7c-1.5-1.8-3.2-2.8-5.4-3.3v-0.3c1.6-0.5,3.1-1.3,4.4-2.2c1.3-1,2.5-2.1,3.4-3.4
			c0.9-1.3,1.7-2.7,2.2-4.2c0.5-1.5,0.8-3.1,0.8-4.8c0-1.3-0.2-2.7-0.7-4.2C725.1,95.5,724.2,94,722.9,92.7z M706.2,127.1
			c-0.2,0.8-0.5,1.6-0.9,2.3c-0.8,1.5-1.6,2.5-2.6,3.1c-1,0.6-2,0.9-2.9,0.9c-1.3,0-2.3-0.5-3-1.4c-0.8-0.9-1.2-2.3-1.2-4.1
			c0-1.2,0.2-2.4,0.7-3.7c0.7-1.8,1.6-3.1,2.7-3.9c1.1-0.7,2.2-1.1,3.3-1.1c0.5,0,1,0.1,1.4,0.2c0.5,0.2,0.9,0.4,1.2,0.8
			c0.4,0.4,0.8,1,1.1,1.7c0.3,0.7,0.5,1.6,0.5,2.6C706.5,125.5,706.4,126.3,706.2,127.1z M708.9,107.3c-0.5,1.1-1.2,1.9-2.1,2.7
			c-0.9,0.7-2,1.1-3.1,1.1c-0.8,0-1.5-0.2-2-0.5c-0.5-0.3-0.9-0.7-1.2-1.2c-0.3-0.5-0.5-1-0.6-1.6c-0.1-0.6-0.2-1.1-0.2-1.6
			c0-1.6,0.4-3.2,1.3-4.6c0.8-1.3,1.6-2.2,2.4-2.6c0.9-0.4,1.7-0.7,2.4-0.7c1.2,0,2.1,0.5,2.8,1.4c0.7,0.9,1,2.2,1,3.7
			C709.7,104.9,709.4,106.2,708.9,107.3z"/>
		<path d="M774.5,97c-0.4-1.5-1.3-3-2.6-4.3c-1.3-1.3-3.2-2.5-5.6-3.4c-2.4-0.9-5.5-1.4-9.3-1.4c-4.8,0-8.7,0.6-11.9,1.8
			c-3.1,1.2-5.6,2.7-7.5,4.5c-1.8,1.8-3.1,3.8-3.9,5.9c-0.7,2.1-1.1,4-1.1,5.8c0,2.4,0.6,4.5,1.7,6.3c1.1,1.8,2.8,3,4.9,3.6v0.3
			c-1.8,0.4-3.5,1-5,1.9c-1.5,0.9-2.7,2-3.8,3.4c-1,1.3-1.9,2.8-2.4,4.5c-0.6,1.7-0.9,3.4-0.9,5.3c0,1.9,0.3,3.7,1,5.3
			c0.7,1.7,1.8,3.1,3.3,4.3c1.5,1.2,3.6,2.2,6.1,2.9c2.5,0.7,5.6,1.1,9.3,1.1c4.3,0,8-0.6,11.2-1.7c3.2-1.1,5.8-2.5,7.8-4.3
			c2.1-1.8,3.6-3.8,4.6-6c1-2.2,1.5-4.5,1.5-6.8c0-2.7-0.7-5-2.2-6.7c-1.5-1.8-3.2-2.8-5.4-3.3v-0.3c1.6-0.5,3.1-1.3,4.4-2.2
			c1.3-1,2.5-2.1,3.4-3.4c0.9-1.3,1.7-2.7,2.2-4.2c0.5-1.5,0.8-3.1,0.8-4.8C775.1,100,774.9,98.6,774.5,97z M755.1,127.1
			c-0.2,0.8-0.5,1.6-0.9,2.3c-0.8,1.5-1.6,2.5-2.6,3.1c-1,0.6-2,0.9-2.9,0.9c-1.3,0-2.3-0.5-3-1.4c-0.8-0.9-1.2-2.3-1.2-4.1
			c0-1.2,0.2-2.4,0.7-3.7c0.7-1.8,1.6-3.1,2.7-3.9c1.1-0.7,2.2-1.1,3.3-1.1c0.5,0,1,0.1,1.4,0.2c0.5,0.2,0.9,0.4,1.2,0.8
			c0.4,0.4,0.8,1,1.1,1.7c0.3,0.7,0.5,1.6,0.5,2.6C755.4,125.5,755.3,126.3,755.1,127.1z M757.8,107.3c-0.5,1.1-1.2,1.9-2.1,2.7
			c-0.9,0.7-2,1.1-3.1,1.1c-0.8,0-1.5-0.2-2-0.5c-0.5-0.3-0.9-0.7-1.2-1.2c-0.3-0.5-0.5-1-0.6-1.6c-0.1-0.6-0.2-1.1-0.2-1.6
			c0-1.6,0.4-3.2,1.3-4.6c0.8-1.3,1.6-2.2,2.4-2.6c0.9-0.4,1.7-0.7,2.4-0.7c1.2,0,2.1,0.5,2.8,1.4c0.7,0.9,1,2.2,1,3.7
			C758.6,104.9,758.3,106.2,757.8,107.3z"/>
	</g>
</g>
</svg>
