<?xml version="1.0" encoding="utf-8"?>
<!-- Generator: Adobe Illustrator 22.0.1, SVG Export Plug-In . SVG Version: 6.00 Build 0)  -->
<svg version="1.1" id="Layer_2_1_" xmlns="http://www.w3.org/2000/svg" xmlns:xlink="http://www.w3.org/1999/xlink" x="0px" y="0px"
	 viewBox="0 0 837.7 161.7" style="enable-background:new 0 0 837.7 161.7;" xml:space="preserve">
<style type="text/css">
	.st0{fill-rule:evenodd;clip-rule:evenodd;fill:#FFFFFF;}
</style>
<g>
	<path class="st0" d="M0,0h837.7v74.2H0V0z"/>
	<path class="st0" d="M48.3,83.2h741v74.9h-741V83.2z"/>
	<g>
		<path d="M71,9.8c-1.1-1-2.4-1.8-3.8-2.4c-1.4-0.6-2.9-1.1-4.4-1.3c-1.5-0.3-2.9-0.5-4.3-0.6s-2.6-0.1-3.7-0.1
			c-2.3,0-4.9,0.1-7.8,0.4c-2.9,0.3-6.1,0.9-9.7,1.9l-2.4,13.8c2.4-0.9,4.8-1.6,7.2-2.1c2.5-0.5,4.8-0.7,7-0.7
			c1.5,0,2.8,0.1,3.7,0.4c1,0.3,1.7,0.6,2.2,1c0.5,0.4,0.9,0.9,1.1,1.4c0.2,0.5,0.3,1,0.3,1.5s-0.1,1-0.2,1.6
			c-0.2,0.6-0.5,1.1-1,1.6C54.7,26.6,54,27,53,27.4c-1,0.4-2.4,0.6-4.1,0.6h-8.5l-1.9,10.9h8.6c0.4,0,0.9,0,1.5,0.1
			c0.7,0.1,1.3,0.2,2,0.5c0.7,0.3,1.2,0.7,1.8,1.3c0.5,0.6,0.8,1.4,0.8,2.5c0,0.6-0.1,1.3-0.4,2c-0.3,0.7-0.7,1.4-1.4,2
			c-0.6,0.6-1.5,1.1-2.6,1.5c-1.1,0.4-2.4,0.6-4.1,0.6c-0.5,0-1.3,0-2.3-0.1c-1-0.1-2.2-0.2-3.5-0.4c-1.4-0.2-2.8-0.6-4.4-1.1
			c-1.6-0.5-3.3-1.2-5-2.1l-2.5,14.2c3.8,1.2,7,2,9.8,2.3c2.8,0.3,5.4,0.5,7.8,0.5c4.2,0,7.8-0.4,10.8-1.1c3-0.7,5.5-1.6,7.5-2.7
			c2-1.1,3.6-2.4,4.8-3.7c1.2-1.4,2.1-2.8,2.7-4.2c0.6-1.4,1-2.7,1.2-3.9c0.2-1.2,0.3-2.3,0.3-3.1c0-1.5-0.2-2.9-0.7-4.1
			c-0.5-1.2-1.1-2.2-1.9-3.1c-0.8-0.8-1.7-1.5-2.7-2c-1-0.5-2.2-0.8-3.3-0.9v-0.3c1.9-0.3,3.6-1,5-2c1.4-1,2.6-2.2,3.5-3.5
			c0.9-1.3,1.6-2.7,2.1-4.3c0.4-1.5,0.7-3,0.7-4.5c0-2.2-0.3-4-1-5.5C73,12.1,72.1,10.9,71,9.8z"/>
		<path d="M120.9,30.4c-0.6-2.1-1.7-4-3.2-5.6c-1.5-1.7-3.4-3-5.8-4c-2.4-1-5.3-1.5-8.8-1.5c-4.3,0-8,0.8-11.3,2.3
			c-3.2,1.5-5.9,3.5-8.1,6c-2.2,2.5-3.8,5.3-4.9,8.4c-1.1,3.1-1.6,6.3-1.6,9.6c0,1.4,0.2,3,0.6,5c0.4,1.9,1.3,3.8,2.6,5.6
			c1.3,1.8,3.2,3.3,5.7,4.5s5.8,1.9,10,1.9c4,0,7.6-0.7,10.8-2.1c3.2-1.4,5.9-3.3,8.1-5.7c2.2-2.4,3.9-5.1,5.1-8.2
			c1.2-3.1,1.7-6.3,1.7-9.6C121.8,34.6,121.5,32.5,120.9,30.4z M103.3,40.7c-0.4,2-0.8,3.8-1.2,5.2c-0.1,0.5-0.3,1.1-0.6,1.6
			c-0.2,0.6-0.5,1.1-0.9,1.5c-0.3,0.5-0.7,0.9-1.2,1.1c-0.5,0.3-1,0.4-1.7,0.4c-0.5,0-1.1-0.2-1.6-0.7c-0.6-0.5-0.8-1.5-0.8-3.1
			c0-0.8,0.1-1.8,0.2-3c0.1-1.2,0.3-2.3,0.5-3.5c0.2-1.2,0.5-2.3,0.7-3.3c0.3-1.1,0.5-1.9,0.8-2.5c0.1-0.3,0.3-0.6,0.5-1
			c0.2-0.4,0.4-0.8,0.7-1.1c0.3-0.3,0.7-0.6,1.1-0.9c0.4-0.2,0.9-0.4,1.4-0.4c0.6,0,1.1,0.1,1.5,0.4c0.4,0.3,0.6,0.6,0.8,1.1
			c0.2,0.4,0.3,0.9,0.3,1.3c0,0.4,0.1,0.8,0.1,1.1C103.9,36.7,103.7,38.6,103.3,40.7z"/>
		<path d="M133.2,32.3c-0.8,4.2-1.4,7.5-1.9,9.9c-0.5,2.4-1.1,4.2-1.6,5.5c-0.5,1.2-1,2-1.6,2.4c-0.5,0.3-1.2,0.5-1.9,0.5
			c-0.8,0-1.5-0.1-1.9-0.2c-0.3-0.1-0.5-0.2-0.7-0.3l-1.9,11c0.7,0.3,1.5,0.5,2.3,0.7c0.7,0.2,1.5,0.3,2.4,0.4
			c0.9,0.1,1.9,0.2,3,0.2c1.7,0,3.2-0.1,4.6-0.4c1.3-0.2,2.6-0.7,3.7-1.5c1.1-0.7,2.1-1.8,3-3.1c0.9-1.3,1.7-3.1,2.5-5.2
			c0.8-2.2,1.6-4.8,2.3-8c0.7-3.2,1.5-6.9,2.3-11.2l0.2-1.1h5.8l-5.1,29.5h16.9l7.2-41.3h-37.5L133.2,32.3z"/>
		<path d="M216.1,24.7c-1.5-1.7-3.4-3-5.8-4c-2.4-1-5.3-1.5-8.8-1.5c-4.3,0-8,0.8-11.3,2.3c-3.2,1.5-5.9,3.5-8.1,6
			c-2.2,2.5-3.8,5.3-4.9,8.4c-1.1,3.1-1.6,6.3-1.6,9.6c0,1.4,0.2,3,0.6,5c0.4,1.9,1.3,3.8,2.6,5.6c1.3,1.8,3.2,3.3,5.7,4.5
			c2.5,1.2,5.8,1.9,10,1.9c4,0,7.6-0.7,10.8-2.1c3.2-1.4,5.9-3.3,8.1-5.7c2.2-2.4,3.9-5.1,5.1-8.2c1.2-3.1,1.7-6.3,1.7-9.6
			c0-2.2-0.3-4.4-1-6.5C218.6,28.3,217.5,26.4,216.1,24.7z M201.7,40.7c-0.4,2-0.8,3.8-1.2,5.2c-0.1,0.5-0.3,1.1-0.6,1.6
			c-0.2,0.6-0.5,1.1-0.9,1.5c-0.3,0.5-0.7,0.9-1.2,1.1c-0.5,0.3-1,0.4-1.7,0.4c-0.5,0-1.1-0.2-1.6-0.7c-0.6-0.5-0.8-1.5-0.8-3.1
			c0-0.8,0.1-1.8,0.2-3c0.1-1.2,0.3-2.3,0.5-3.5c0.2-1.2,0.5-2.3,0.7-3.3c0.3-1.1,0.5-1.9,0.8-2.5c0.1-0.3,0.3-0.6,0.5-1
			c0.2-0.4,0.4-0.8,0.7-1.1c0.3-0.3,0.7-0.6,1.1-0.9c0.4-0.2,0.9-0.4,1.4-0.4c0.6,0,1.1,0.1,1.5,0.4c0.4,0.3,0.6,0.6,0.8,1.1
			c0.2,0.4,0.3,0.9,0.3,1.3c0,0.4,0.1,0.8,0.1,1.1C202.3,36.7,202.1,38.6,201.7,40.7z"/>
		<polygon points="225.8,20.2 223.7,32 233.1,32 228,61.5 244.9,61.5 250,32 259.3,32 261.4,20.2 		"/>
		<path d="M300.8,24.7c-1.5-1.7-3.4-3-5.8-4c-2.4-1-5.3-1.5-8.8-1.5c-4.3,0-8,0.8-11.3,2.3c-3.2,1.5-5.9,3.5-8.1,6
			c-2.2,2.5-3.8,5.3-4.9,8.4c-1.1,3.1-1.6,6.3-1.6,9.6c0,1.4,0.2,3,0.6,5c0.4,1.9,1.3,3.8,2.6,5.6c1.3,1.8,3.2,3.3,5.7,4.5
			s5.8,1.9,10,1.9c4,0,7.6-0.7,10.8-2.1c3.2-1.4,5.9-3.3,8.1-5.7c2.2-2.4,3.9-5.1,5.1-8.2c1.2-3.1,1.7-6.3,1.7-9.6
			c0-2.2-0.3-4.4-1-6.5C303.3,28.3,302.3,26.4,300.8,24.7z M286.4,40.7c-0.4,2-0.8,3.8-1.2,5.2c-0.1,0.5-0.3,1.1-0.6,1.6
			c-0.2,0.6-0.5,1.1-0.9,1.5c-0.3,0.5-0.7,0.9-1.2,1.1c-0.5,0.3-1,0.4-1.7,0.4c-0.5,0-1.1-0.2-1.6-0.7c-0.6-0.5-0.8-1.5-0.8-3.1
			c0-0.8,0.1-1.8,0.2-3c0.1-1.2,0.3-2.3,0.5-3.5c0.2-1.2,0.5-2.3,0.7-3.3c0.3-1.1,0.5-1.9,0.8-2.5c0.1-0.3,0.3-0.6,0.5-1
			c0.2-0.4,0.4-0.8,0.7-1.1c0.3-0.3,0.7-0.6,1.1-0.9c0.4-0.2,0.9-0.4,1.4-0.4c0.6,0,1.1,0.1,1.5,0.4c0.4,0.3,0.6,0.6,0.8,1.1
			c0.2,0.4,0.3,0.9,0.3,1.3c0,0.4,0.1,0.8,0.1,1.1C287,36.7,286.8,38.6,286.4,40.7z"/>
		<path d="M388.8,34.8c0-2.7-0.4-5.1-1.2-7.1c-0.8-2-1.9-3.6-3.3-4.8c-1.4-1.3-3.2-2.2-5.2-2.8c-2-0.6-4.3-0.9-6.7-0.9
			c-0.4,0-0.8,0-1.2,0c-0.4,0-0.8,0-1.2,0.1L373,2.1h-16.9l-2.9,17.3c-0.4-0.1-0.7-0.1-1.1-0.1c-0.4,0-0.7,0-1.1,0
			c-3.8,0-7.1,0.7-10,2s-5.4,3.2-7.5,5.6c-2,2.4-3.6,5.3-4.7,8.7c-1.1,3.4-1.6,7.2-1.6,11.3c0,2.7,0.4,5.1,1.2,7
			c0.8,1.9,1.9,3.5,3.3,4.8c1.5,1.3,3.2,2.2,5.2,2.8c2,0.6,4.2,0.9,6.6,0.9c0.4,0,0.8,0,1.2,0c0.4,0,0.8,0,1.2-0.1L343,78.7h16.9
			l2.8-16.4c0.4,0.1,0.7,0.1,1.1,0.1c0.4,0,0.7,0,1.1,0c3.8,0,7.1-0.7,10.1-2c3-1.3,5.5-3.2,7.5-5.6c2-2.4,3.6-5.3,4.7-8.7
			S388.8,39,388.8,34.8z M349,50.5c-0.2,0.1-0.5,0.1-0.7,0.1c-0.2,0-0.5,0-0.7,0c-1,0-1.9-0.4-2.5-1.2c-0.7-0.8-1-2.2-1-4.2
			c0-1.5,0.1-3,0.3-4.7c0.2-1.6,0.6-3.2,1.1-4.6c0.5-1.4,1.2-2.6,2.1-3.5c0.9-0.9,2-1.4,3.3-1.4h1.4L349,50.5z M371.5,41.1
			c-0.2,1.6-0.6,3.2-1.2,4.6c-0.5,1.4-1.3,2.6-2.1,3.5c-0.9,0.9-2,1.4-3.2,1.4c-0.2,0-0.5,0-0.7,0c-0.2,0-0.5,0-0.7-0.1l3.3-19.3
			c0.2-0.1,0.5-0.1,0.7-0.1c0.2,0,0.5,0,0.7,0c1,0,1.9,0.4,2.6,1.2c0.7,0.8,1,2.2,1,4.2C371.9,37.9,371.8,39.4,371.5,41.1z"/>
		<path d="M411.3,46.2h-0.2l-0.3-26h-17.5l5.6,42.3l-0.5,1.3c-0.4,0.8-0.8,1.4-1.3,1.9c-0.5,0.5-1,0.8-1.6,1.1
			c-0.6,0.2-1.1,0.4-1.6,0.5c-0.5,0.1-0.9,0.1-1.2,0.1c-0.8,0-1.7-0.1-2.5-0.2c-0.8-0.1-1.7-0.4-2.5-0.7l-2,11.7
			c1.8,0.5,3.5,0.9,5.3,1.2c1.7,0.3,3.3,0.4,4.6,0.4c2.5,0,4.7-0.3,6.8-0.9c2.1-0.6,4-1.6,5.8-3c1.8-1.3,3.4-3,4.9-5.1
			c1.5-2.1,2.9-4.6,4.2-7.5l19.3-42.9h-16.5L411.3,46.2z"/>
		<polygon points="436.7,32 446.1,32 441,61.5 457.8,61.5 462.9,32 472.3,32 474.4,20.2 438.8,20.2 		"/>
		<path d="M512,2.8c-1.9,0.2-3.8,0.4-5.7,0.6c-1.9,0.2-3.8,0.4-5.7,0.8c-1.9,0.4-3.7,0.9-5.6,1.6c-1.9,0.7-3.7,1.7-5.5,2.9
			c-2.4,1.6-4.5,3.8-6.4,6.5c-1.8,2.7-3.4,5.6-4.6,8.8c-1.2,3.2-2.2,6.6-2.8,10c-0.6,3.5-1,6.8-1,10c0,1.7,0.2,3.7,0.6,5.8
			c0.4,2.2,1.2,4.2,2.4,6c1.2,1.9,3.1,3.4,5.5,4.7c2.4,1.3,5.6,1.9,9.6,1.9c4.8,0,8.9-0.8,12.2-2.4c3.3-1.6,6-3.6,8-5.9
			c2-2.4,3.5-5,4.4-7.8c0.9-2.8,1.3-5.4,1.3-7.8c0-2.7-0.4-5-1.2-6.9c-0.8-1.9-2-3.5-3.4-4.8c-1.5-1.3-3.2-2.2-5.2-2.8
			c-2-0.6-4.1-0.9-6.4-0.9c-1,0-2.1,0.1-3.3,0.3c-1.2,0.2-2.4,0.5-3.7,1.1c-1.3,0.5-2.6,1.3-3.9,2.2c-1.3,1-2.5,2.2-3.6,3.8h-0.5
			l0.4-1.9c0.4-1.7,0.9-3.1,1.5-4.3c0.6-1.2,1.4-2.1,2.2-2.9c0.8-0.8,1.7-1.4,2.6-1.8c0.9-0.4,1.7-0.8,2.5-1.1
			c1.8-0.6,3.7-1,5.8-1.2s4.3-0.4,6.7-0.6c1.2-0.1,2.3-0.1,3.2-0.3c1-0.1,1.8-0.3,2.6-0.5c0.8-0.2,1.6-0.4,2.3-0.7
			c0.7-0.3,1.4-0.7,2.1-1.2L522.1,0c-1.8,0.9-3.5,1.5-5,1.9C515.5,2.3,513.8,2.6,512,2.8z M492.4,44.9c0.1-0.8,0.2-1.6,0.3-2.4
			c0.1-0.8,0.3-1.6,0.5-2.4c0.2-0.8,0.4-1.4,0.5-1.9c0.5-1.6,1.2-2.6,1.9-3.2c0.7-0.5,1.4-0.8,2.1-0.8c0.6,0,1.1,0.1,1.5,0.4
			c0.4,0.2,0.6,0.6,0.8,0.9c0.2,0.4,0.3,0.8,0.4,1.3c0,0.4,0.1,0.9,0.1,1.2c0,1.5-0.1,3-0.4,4.4c-0.1,0.9-0.3,1.8-0.5,2.8
			c-0.2,1-0.5,1.9-0.9,2.6c-0.4,0.8-0.9,1.4-1.4,2c-0.6,0.5-1.3,0.8-2.1,0.8c-1.2,0-2-0.4-2.3-1.3c-0.3-0.8-0.5-1.7-0.5-2.5
			C492.3,46.3,492.3,45.6,492.4,44.9z"/>
		<path d="M566.8,30.4c-0.6-2.1-1.7-4-3.2-5.6c-1.5-1.7-3.4-3-5.8-4c-2.4-1-5.3-1.5-8.8-1.5c-4.3,0-8,0.8-11.3,2.3
			c-3.2,1.5-5.9,3.5-8.1,6c-2.2,2.5-3.8,5.3-4.9,8.4c-1.1,3.1-1.6,6.3-1.6,9.6c0,1.4,0.2,3,0.6,5c0.4,1.9,1.3,3.8,2.6,5.6
			c1.3,1.8,3.2,3.3,5.7,4.5s5.8,1.9,10,1.9c4,0,7.6-0.7,10.8-2.1c3.2-1.4,5.9-3.3,8.1-5.7c2.2-2.4,3.9-5.1,5.1-8.2
			c1.2-3.1,1.7-6.3,1.7-9.6C567.8,34.6,567.5,32.5,566.8,30.4z M549.3,40.7c-0.4,2-0.8,3.8-1.2,5.2c-0.1,0.5-0.3,1.1-0.6,1.6
			c-0.2,0.6-0.5,1.1-0.9,1.5c-0.3,0.5-0.7,0.9-1.2,1.1c-0.5,0.3-1,0.4-1.7,0.4c-0.5,0-1.1-0.2-1.6-0.7c-0.6-0.5-0.8-1.5-0.8-3.1
			c0-0.8,0.1-1.8,0.2-3c0.1-1.2,0.3-2.3,0.5-3.5c0.2-1.2,0.5-2.3,0.7-3.3c0.3-1.1,0.5-1.9,0.8-2.5c0.1-0.3,0.3-0.6,0.5-1
			c0.2-0.4,0.4-0.8,0.7-1.1c0.3-0.3,0.7-0.6,1.1-0.9c0.4-0.2,0.9-0.4,1.4-0.4c0.6,0,1.1,0.1,1.5,0.4c0.4,0.3,0.6,0.6,0.8,1.1
			c0.2,0.4,0.3,0.9,0.3,1.3c0,0.4,0.1,0.8,0.1,1.1C549.9,36.7,549.7,38.6,549.3,40.7z"/>
		<path d="M579.1,32.3c-0.8,4.2-1.4,7.5-1.9,9.9c-0.5,2.4-1.1,4.2-1.6,5.5c-0.5,1.2-1,2-1.6,2.4c-0.5,0.3-1.2,0.5-1.9,0.5
			c-0.8,0-1.5-0.1-1.9-0.2c-0.3-0.1-0.5-0.2-0.7-0.3l-1.9,11c0.7,0.3,1.5,0.5,2.3,0.7c0.7,0.2,1.5,0.3,2.4,0.4
			c0.9,0.1,1.9,0.2,3,0.2c1.7,0,3.2-0.1,4.6-0.4c1.3-0.2,2.6-0.7,3.7-1.5c1.1-0.7,2.1-1.8,3-3.1c0.9-1.3,1.7-3.1,2.5-5.2
			c0.8-2.2,1.6-4.8,2.3-8s1.5-6.9,2.3-11.2l0.2-1.1h5.8l-5.1,29.5h16.9l7.2-41.3h-37.5L579.1,32.3z"/>
		<path d="M659.4,35.4c-1.1-1-2.6-1.7-4.5-2.2c-1.9-0.5-4.1-0.8-6.9-0.8h-5.9l2.1-12.1h-16.9l-7,41.3h22.8c3.3,0,6.3-0.4,8.7-1.3
			c2.5-0.9,4.5-2.1,6.1-3.7c1.6-1.6,2.8-3.5,3.6-5.7c0.8-2.2,1.2-4.7,1.2-7.5c0-1.6-0.3-3.1-0.8-4.5
			C661.4,37.5,660.5,36.3,659.4,35.4z M644.2,50.1c-0.9,1.1-2.1,1.6-3.5,1.6h-2.2l1.6-9.3h2.2c2.2,0,3.3,1.1,3.3,3.2
			C645.6,47.5,645.1,49,644.2,50.1z"/>
		<polygon points="694.1,34.5 688.1,34.5 690.6,20.2 673.7,20.2 666.5,61.5 683.4,61.5 686,46.3 692,46.3 689.4,61.5 706.3,61.5 
			713.5,20.2 696.6,20.2 		"/>
		<path d="M756.7,24.7c-1.5-1.7-3.4-3-5.8-4c-2.4-1-5.3-1.5-8.8-1.5c-4.3,0-8,0.8-11.3,2.3c-3.2,1.5-5.9,3.5-8.1,6
			c-2.2,2.5-3.8,5.3-4.9,8.4c-1.1,3.1-1.6,6.3-1.6,9.6c0,1.4,0.2,3,0.6,5c0.4,1.9,1.3,3.8,2.6,5.6c1.3,1.8,3.2,3.3,5.7,4.5
			c2.5,1.2,5.8,1.9,10,1.9c4,0,7.6-0.7,10.8-2.1c3.2-1.4,5.9-3.3,8.1-5.7c2.2-2.4,3.9-5.1,5.1-8.2c1.2-3.1,1.7-6.3,1.7-9.6
			c0-2.2-0.3-4.4-1-6.5C759.3,28.3,758.2,26.4,756.7,24.7z M742.4,40.7c-0.4,2-0.8,3.8-1.2,5.2c-0.1,0.5-0.3,1.1-0.6,1.6
			c-0.2,0.6-0.5,1.1-0.9,1.5c-0.3,0.5-0.7,0.9-1.2,1.1c-0.5,0.3-1,0.4-1.7,0.4c-0.5,0-1.1-0.2-1.6-0.7c-0.6-0.5-0.8-1.5-0.8-3.1
			c0-0.8,0.1-1.8,0.2-3c0.1-1.2,0.3-2.3,0.5-3.5c0.2-1.2,0.5-2.3,0.7-3.3c0.3-1.1,0.5-1.9,0.8-2.5c0.1-0.3,0.3-0.6,0.5-1
			c0.2-0.4,0.4-0.8,0.7-1.1c0.3-0.3,0.7-0.6,1.1-0.9c0.4-0.2,0.9-0.4,1.4-0.4c0.6,0,1.1,0.1,1.5,0.4c0.4,0.3,0.6,0.6,0.8,1.1
			c0.2,0.4,0.3,0.9,0.3,1.3c0,0.4,0.1,0.8,0.1,1.1C742.9,36.7,742.7,38.6,742.4,40.7z"/>
		<path d="M791.3,15.8c4.3,0,7.8-1.1,10.3-3.3c2.5-2.2,4.2-5.4,5.1-9.5l-7.8-1.4c-0.5,2.1-1.3,3.6-2.3,4.4c-1,0.8-2.3,1.3-3.8,1.3
			c-1.5,0-2.6-0.4-3.3-1.1c-0.8-0.7-1.1-1.9-1.1-3.6c0-0.2,0-0.3,0-0.5c0-0.2,0-0.3,0-0.6L780.1,3c-0.1,0.9-0.2,1.8-0.2,2.7
			c0,3.3,0.9,5.8,2.7,7.5C784.5,14.9,787.4,15.8,791.3,15.8z"/>
		<path d="M793.7,20.2l-4.2,23.9c-0.1,0.5-0.2,1-0.3,1.7c-0.1,0.6-0.3,1.2-0.6,1.9c-0.3,0.6-0.7,1.1-1.1,1.5
			c-0.5,0.4-1.1,0.6-1.8,0.6c-0.5,0-0.9-0.1-1.2-0.4c-0.3-0.2-0.5-0.5-0.7-0.8c-0.2-0.3-0.2-0.6-0.3-0.9c0-0.3,0-0.5,0-0.6
			c0-1.1,0.1-2.1,0.3-3l4.2-23.9h-17l-5,28.8c-0.1,0.7-0.2,1.3-0.2,2c-0.1,0.6-0.1,1.3-0.1,2c0,1.7,0.3,3.2,0.8,4.4
			c0.5,1.2,1.2,2.2,2.1,3c0.9,0.8,1.9,1.3,3.1,1.7c1.2,0.3,2.4,0.5,3.8,0.5c0.8,0,1.7-0.1,2.8-0.2c1.1-0.1,2.2-0.5,3.4-1
			c1.2-0.6,2.4-1.4,3.6-2.4c1.2-1.1,2.4-2.5,3.4-4.4h0.1l-1.2,7.1h15.9l7.2-41.3H793.7z"/>
	</g>
	<g>
		<path d="M124.9,108.8c0-2.3-0.3-4.6-0.9-7.1c-0.6-2.5-1.8-4.8-3.4-6.9c-1.7-2.1-3.9-3.9-6.8-5.3c-2.9-1.4-6.5-2.1-10.9-2.1
			c-4.3,0-8.1,0.6-11.3,1.9c-3.3,1.2-6.1,2.9-8.4,4.9c-2.3,2-4.3,4.3-5.9,6.9c-1.6,2.6-2.8,5.2-3.8,7.8c-0.9,2.6-1.6,5.2-2,7.7
			c-0.4,2.5-0.6,4.7-0.6,6.5c0,2.5,0.3,5.1,1,7.6c0.7,2.5,1.9,4.8,3.5,6.9c1.7,2,3.9,3.7,6.7,5c2.8,1.3,6.3,1.9,10.4,1.9
			c4.4,0,8.2-0.6,11.6-1.9c3.3-1.3,6.2-2.9,8.6-4.9c2.4-2,4.4-4.3,5.9-6.9c1.6-2.5,2.8-5.1,3.7-7.8c0.9-2.7,1.6-5.2,1.9-7.7
			C124.7,112.8,124.9,110.6,124.9,108.8z M105.8,111.7c-0.1,1.3-0.3,2.7-0.6,4.1c-0.2,1.4-0.5,2.7-0.8,3.9c-0.3,1.3-0.5,2.3-0.8,3.1
			c-0.5,1.7-1.2,3.1-1.9,4.2c-0.7,1.1-1.5,1.9-2.2,2.6c-0.8,0.6-1.5,1.1-2.3,1.3c-0.7,0.2-1.4,0.4-2,0.4c-0.4,0-0.8-0.1-1.5-0.2
			c-0.6-0.1-1.2-0.4-1.8-0.9c-0.6-0.5-1.1-1.3-1.5-2.3c-0.4-1-0.6-2.4-0.6-4.2c0-1.1,0.1-2.3,0.2-3.6c0.1-1.3,0.3-2.6,0.5-3.9
			c0.2-1.3,0.5-2.6,0.8-3.8c0.3-1.2,0.6-2.3,0.8-3.2c0.6-1.8,1.3-3.3,2.1-4.4c0.8-1.1,1.5-2,2.3-2.6c0.8-0.6,1.5-1,2.2-1.2
			c0.7-0.2,1.3-0.3,1.8-0.3c0.4,0,0.9,0.1,1.6,0.2s1.2,0.5,1.8,1c0.6,0.5,1,1.2,1.5,2.2c0.4,1,0.6,2.3,0.6,4
			C106,109.2,106,110.3,105.8,111.7z"/>
		<path d="M134,114.3c-0.8,4.2-1.4,7.5-1.9,9.9c-0.5,2.4-1.1,4.2-1.6,5.5c-0.5,1.2-1,2-1.6,2.4c-0.5,0.3-1.2,0.5-1.9,0.5
			c-0.8,0-1.5-0.1-1.9-0.2c-0.3-0.1-0.5-0.2-0.7-0.3l-1.9,11c0.7,0.3,1.5,0.5,2.3,0.7c0.7,0.2,1.5,0.3,2.4,0.4
			c0.9,0.1,1.9,0.2,3,0.2c1.7,0,3.2-0.1,4.6-0.4c1.3-0.2,2.6-0.7,3.7-1.5c1.1-0.7,2.1-1.8,3-3.1c0.9-1.3,1.7-3.1,2.5-5.2
			c0.8-2.2,1.6-4.8,2.3-8c0.7-3.2,1.5-6.9,2.3-11.2l0.2-1.1h5.8l-5.1,29.5h16.9l7.2-41.3h-37.5L134,114.3z"/>
		<path d="M201,126.1c-0.1,0.5-0.2,1-0.3,1.7c-0.1,0.6-0.3,1.2-0.6,1.9c-0.3,0.6-0.7,1.1-1.1,1.5c-0.5,0.4-1.1,0.6-1.8,0.6
			c-0.5,0-0.9-0.1-1.2-0.4c-0.3-0.2-0.5-0.5-0.7-0.8c-0.2-0.3-0.2-0.6-0.3-0.9c0-0.3,0-0.5,0-0.6c0-1.1,0.1-2.1,0.3-3l4.2-23.9h-17
			l-5,28.8c-0.1,0.7-0.2,1.3-0.2,2c-0.1,0.6-0.1,1.3-0.1,2c0,1.7,0.3,3.2,0.8,4.4c0.5,1.2,1.2,2.2,2.1,3c0.9,0.8,1.9,1.3,3.1,1.7
			c1.2,0.3,2.4,0.5,3.8,0.5c0.8,0,1.7-0.1,2.8-0.2c1.1-0.1,2.2-0.5,3.4-1c1.2-0.6,2.4-1.4,3.6-2.4c1.2-1.1,2.4-2.5,3.4-4.4h0.1
			l-1.2,7.1h15.9l7.2-41.3h-16.9L201,126.1z"/>
		<polygon points="250.9,123.8 248.8,102.2 230.7,102.2 223.6,143.5 237,143.5 240.8,120.8 241.1,120.8 242.6,135.6 254.4,135.6 
			260.9,120.8 261.1,120.8 257.3,143.5 270.7,143.5 277.8,102.2 260.4,102.2 		"/>
		<path d="M323.2,105.8c-0.3-0.5-0.6-1-1.1-1.5c-0.5-0.5-1.1-1-1.8-1.5c-0.7-0.5-1.6-0.9-2.5-1.1c-1-0.3-2.1-0.4-3.5-0.4
			c-3,0-5.6,0.8-7.7,2.3c-2.1,1.6-3.8,3.5-5.1,5.8h-0.3l1.3-7.2h-15.9l-7.2,41.3h16.9l4.1-23.8c0.4-2.5,1-4.1,1.9-4.9
			c0.5-0.5,1.2-0.7,2-0.7s1.4,0.3,1.8,0.8c0.4,0.5,0.6,1.2,0.6,2c0,0.5,0,0.9-0.1,1.4c-0.1,0.4-0.1,0.9-0.2,1.4l-4.1,23.8h16.9
			l5-28.7c0.1-0.7,0.2-1.3,0.3-2c0.1-0.6,0.1-1.3,0.1-1.9c0-0.9-0.1-1.8-0.3-2.7C323.9,107.4,323.6,106.6,323.2,105.8z"/>
		<path d="M353.6,126.1c-0.1,0.5-0.2,1-0.3,1.7c-0.1,0.6-0.3,1.2-0.6,1.9c-0.3,0.6-0.7,1.1-1.1,1.5c-0.5,0.4-1.1,0.6-1.8,0.6
			c-0.5,0-0.9-0.1-1.2-0.4c-0.3-0.2-0.5-0.5-0.7-0.8c-0.2-0.3-0.2-0.6-0.3-0.9c0-0.3,0-0.5,0-0.6c0-1.1,0.1-2.1,0.3-3l4.2-23.9h-17
			l-5,28.8c-0.1,0.7-0.2,1.3-0.2,2s-0.1,1.3-0.1,2c0,1.7,0.3,3.2,0.8,4.4c0.5,1.2,1.2,2.2,2.1,3c0.9,0.8,1.9,1.3,3.1,1.7
			c1.2,0.3,2.4,0.5,3.8,0.5c0.8,0,1.7-0.1,2.8-0.2c1.1-0.1,2.2-0.5,3.4-1c1.2-0.6,2.4-1.4,3.7-2.4c1.2-1.1,2.4-2.5,3.4-4.4h0.1
			l-1.2,7.1h15.9l7.2-41.3h-16.9L353.6,126.1z"/>
		<path d="M407.7,102.2l-0.9,5.3c-0.3-0.6-0.6-1.2-1.1-2c-0.4-0.7-1-1.4-1.8-2c-0.8-0.6-1.7-1.2-2.8-1.6c-1.1-0.4-2.4-0.6-4-0.6
			c-3.3,0-6.2,0.9-8.6,2.6c-2.5,1.7-4.5,3.9-6.1,6.6c-1.6,2.7-2.8,5.7-3.6,8.9c-0.8,3.3-1.2,6.5-1.2,9.7c0,4.6,1,8.3,3.1,11.1
			c2.1,2.8,5,4.2,8.9,4.2c3.1,0,5.7-0.7,7.9-2.2c2.2-1.5,4-3.4,5.3-5.8h0.3l-1.2,7h15.7l7.1-41.3H407.7z M404.7,122.4
			c-0.3,1.6-0.6,3-1.1,4.2c-0.4,1.1-0.8,1.9-1.2,2.5c-0.4,0.6-0.9,1.1-1.3,1.4c-0.4,0.3-0.8,0.5-1.2,0.6c-0.4,0.1-0.7,0.1-1,0.1
			s-0.6-0.1-0.9-0.2c-0.4-0.1-0.7-0.3-1-0.6s-0.6-0.8-0.8-1.4c-0.2-0.6-0.3-1.5-0.3-2.5c0-1.5,0.2-3.2,0.6-5
			c0.4-1.9,0.9-3.4,1.5-4.6c0.1-0.2,0.3-0.5,0.5-0.9c0.2-0.4,0.5-0.7,0.8-1.1c0.3-0.4,0.7-0.7,1.2-0.9c0.5-0.2,1-0.4,1.6-0.4
			c0.2,0,0.5,0,0.9,0.1c0.4,0.1,0.7,0.3,1,0.6c0.3,0.3,0.6,0.8,0.9,1.4c0.2,0.6,0.4,1.4,0.4,2.5C405.1,119.4,405,120.8,404.7,122.4z
			"/>
		<path d="M457,109.9h-0.3c-0.3-2.7-1.4-4.8-3.1-6.4c-1.8-1.5-4.1-2.3-6.8-2.3c-3,0-5.7,0.8-8.2,2.5c-2.4,1.7-4.5,3.8-6.1,6.4
			c-1.7,2.6-3,5.6-3.9,9c-0.9,3.4-1.4,6.7-1.4,10.1c0,4.3,1.1,7.8,3.3,10.4s5.3,3.9,9.4,3.9c0.8,0,1.6-0.1,2.5-0.2s1.8-0.5,2.8-0.9
			s2-1,3.1-1.8s2.2-1.8,3.3-3h0.3l-0.5,2c-0.8,3.4-2.2,6-4.3,7.7c-2.1,1.8-4.9,2.7-8.5,2.7c-1.9,0-3.9-0.4-6-1.1
			c-2.2-0.8-4.2-1.8-6.2-3.1l-2.3,13c3.6,1.3,6.7,2.2,9.3,2.5c2.6,0.4,4.9,0.6,7,0.6c2.9,0,5.8-0.3,8.7-0.8c2.9-0.5,5.7-1.6,8.2-3.3
			c2.5-1.7,4.8-4.1,6.8-7.3c2-3.2,3.4-7.5,4.4-12.8l6.2-35.3h-16L457,109.9z M454.4,122.4c-0.2,1.2-0.5,2.2-0.8,3.1
			c-0.4,1.3-1,2.5-1.7,3.6s-1.8,1.6-3.3,1.6c-1,0-1.8-0.3-2.4-1c-0.6-0.7-0.9-1.7-0.9-2.9c0-1.5,0.1-2.9,0.4-4.2
			c0.2-1.3,0.5-2.4,0.8-3.4c0.4-1.3,1-2.5,1.7-3.6c0.7-1.1,1.8-1.6,3.3-1.6c0.9,0,1.7,0.3,2.3,1c0.6,0.7,0.9,1.9,0.9,3.5
			C454.8,120,454.6,121.3,454.4,122.4z"/>
		<polygon points="518.9,143.5 535.8,143.5 543,102.2 526.1,102.2 		"/>
		<path d="M514.9,117.4c-1.1-1-2.6-1.7-4.5-2.2c-1.9-0.5-4.1-0.8-6.9-0.8h-5.9l2.1-12.1h-16.9l-7,41.3h22.8c3.3,0,6.3-0.4,8.7-1.3
			c2.5-0.9,4.5-2.1,6.1-3.7c1.6-1.6,2.8-3.5,3.6-5.7c0.8-2.2,1.2-4.7,1.2-7.5c0-1.6-0.3-3.1-0.8-4.5
			C516.9,119.5,516.1,118.3,514.9,117.4z M499.8,132.1c-0.9,1.1-2.1,1.6-3.5,1.6H494l1.6-9.3h2.2c2.2,0,3.3,1.1,3.3,3.2
			C501.1,129.5,500.7,131,499.8,132.1z"/>
		<polygon points="548.5,127.7 571.1,127.7 574,112 551.4,112 		"/>
		<polygon points="582,103.7 586.6,115.9 598.7,107.7 592.5,143.5 609.3,143.5 618.8,88.3 604.4,88.3 		"/>
		<path d="M650.4,87.4c-3,0-6,0.6-8.8,1.7c-2.8,1.1-5.4,2.7-7.6,4.8c-2.2,2-4,4.5-5.3,7.4c-1.3,2.9-2,6.1-2,9.6
			c0,4.2,1.2,7.5,3.6,10c2.4,2.4,5.7,3.7,9.9,3.7c2.7,0,4.8-0.4,6.3-1.1c1.5-0.7,2.8-1.5,3.9-2.2h0.3c-0.5,2.7-1.3,4.8-2.5,6.2
			c-1.2,1.5-2.5,2.6-3.9,3.3c-1.4,0.7-2.6,1.1-3.9,1.3c-1.2,0.2-2.1,0.2-2.6,0.2c-2.1,0-4.1-0.2-5.9-0.6c-1.8-0.4-3.6-0.8-5.5-1.3
			l-2.2,12.7c3.5,0.7,6.3,1.2,8.5,1.3c2.2,0.1,3.8,0.2,4.9,0.2c4.6,0,8.9-1,12.7-3c3.8-2,7-4.6,9.7-8c2.7-3.4,4.8-7.2,6.2-11.7
			c1.5-4.4,2.2-9.1,2.2-13.9c0-6.5-1.6-11.5-4.8-15.1C660.5,89.2,656.1,87.4,650.4,87.4z M652.7,108c-0.3,1.2-0.8,2.2-1.4,3.1
			c-0.6,0.9-1.4,1.6-2.2,2.1c-0.9,0.5-1.8,0.8-2.8,0.8c-1.3,0-2.4-0.5-3.2-1.4c-0.8-0.9-1.2-2.2-1.2-4c0-1.2,0.2-2.4,0.5-3.5
			c0.4-1.1,0.8-2.1,1.5-3c0.6-0.9,1.4-1.6,2.2-2.1c0.8-0.5,1.8-0.8,2.8-0.8c1.3,0,2.4,0.4,3.2,1.3c0.8,0.9,1.2,2.2,1.2,3.9
			C653.2,105.7,653,106.9,652.7,108z"/>
		<path d="M714.4,92.1c-1.3-1.3-3.2-2.5-5.6-3.4c-2.4-0.9-5.5-1.4-9.3-1.4c-4.8,0-8.7,0.6-11.9,1.8c-3.1,1.2-5.6,2.7-7.5,4.5
			c-1.8,1.8-3.1,3.8-3.9,5.9c-0.7,2.1-1.1,4-1.1,5.8c0,2.4,0.6,4.5,1.7,6.3c1.1,1.8,2.8,3,4.9,3.6v0.3c-1.8,0.4-3.5,1-5,1.9
			c-1.5,0.9-2.7,2-3.8,3.4c-1,1.3-1.9,2.8-2.4,4.5c-0.6,1.7-0.9,3.4-0.9,5.3c0,1.9,0.3,3.7,1,5.3s1.8,3.1,3.3,4.3
			c1.5,1.2,3.6,2.2,6.1,2.9c2.5,0.7,5.6,1.1,9.3,1.1c4.3,0,8-0.6,11.2-1.7c3.2-1.1,5.8-2.5,7.8-4.3c2.1-1.8,3.6-3.8,4.6-6
			c1-2.2,1.5-4.5,1.5-6.8c0-2.7-0.7-5-2.2-6.7c-1.5-1.8-3.2-2.8-5.4-3.3v-0.3c1.6-0.5,3.1-1.3,4.4-2.2c1.3-1,2.5-2.1,3.4-3.4
			c0.9-1.3,1.7-2.7,2.2-4.2c0.5-1.5,0.8-3.1,0.8-4.8c0-1.3-0.2-2.7-0.7-4.2C716.6,94.9,715.8,93.5,714.4,92.1z M697.7,126.6
			c-0.2,0.8-0.5,1.6-0.9,2.3c-0.8,1.5-1.6,2.5-2.6,3.1c-1,0.6-2,0.9-2.9,0.9c-1.3,0-2.3-0.5-3-1.4c-0.8-0.9-1.2-2.3-1.2-4.1
			c0-1.2,0.2-2.4,0.7-3.7c0.7-1.8,1.6-3.1,2.7-3.9c1.1-0.7,2.2-1.1,3.3-1.1c0.5,0,1,0.1,1.4,0.2c0.5,0.2,0.9,0.4,1.2,0.8
			c0.4,0.4,0.8,1,1.1,1.7c0.3,0.7,0.5,1.6,0.5,2.6C698.1,124.9,698,125.8,697.7,126.6z M700.4,106.8c-0.5,1.1-1.2,1.9-2.1,2.7
			c-0.9,0.7-2,1.1-3.1,1.1c-0.8,0-1.5-0.2-2-0.5c-0.5-0.3-0.9-0.7-1.2-1.2c-0.3-0.5-0.5-1-0.6-1.6c-0.1-0.6-0.2-1.1-0.2-1.6
			c0-1.6,0.4-3.2,1.3-4.6c0.8-1.3,1.6-2.2,2.4-2.6c0.9-0.4,1.7-0.7,2.4-0.7c1.2,0,2.1,0.5,2.8,1.4c0.7,0.9,1,2.2,1,3.7
			C701.2,104.3,701,105.6,700.4,106.8z"/>
		<path d="M766,96.5c-0.4-1.5-1.3-3-2.6-4.3c-1.3-1.3-3.2-2.5-5.6-3.4c-2.4-0.9-5.5-1.4-9.3-1.4c-4.8,0-8.7,0.6-11.9,1.8
			c-3.1,1.2-5.6,2.7-7.5,4.5c-1.8,1.8-3.1,3.8-3.9,5.9c-0.7,2.1-1.1,4-1.1,5.8c0,2.4,0.6,4.5,1.7,6.3c1.1,1.8,2.8,3,4.9,3.6v0.3
			c-1.8,0.4-3.5,1-5,1.9c-1.5,0.9-2.7,2-3.8,3.4c-1,1.3-1.9,2.8-2.4,4.5c-0.6,1.7-0.9,3.4-0.9,5.3c0,1.9,0.3,3.7,1,5.3
			s1.8,3.1,3.3,4.3c1.5,1.2,3.6,2.2,6.1,2.9c2.5,0.7,5.6,1.1,9.3,1.1c4.3,0,8-0.6,11.2-1.7c3.2-1.1,5.8-2.5,7.8-4.3
			c2.1-1.8,3.6-3.8,4.6-6c1-2.2,1.5-4.5,1.5-6.8c0-2.7-0.7-5-2.2-6.7c-1.5-1.8-3.2-2.8-5.4-3.3v-0.3c1.6-0.5,3.1-1.3,4.4-2.2
			c1.3-1,2.5-2.1,3.4-3.4c0.9-1.3,1.7-2.7,2.2-4.2c0.5-1.5,0.8-3.1,0.8-4.8C766.7,99.4,766.4,98,766,96.5z M746.6,126.6
			c-0.2,0.8-0.5,1.6-0.9,2.3c-0.8,1.5-1.6,2.5-2.6,3.1c-1,0.6-2,0.9-2.9,0.9c-1.3,0-2.3-0.5-3-1.4c-0.8-0.9-1.2-2.3-1.2-4.1
			c0-1.2,0.2-2.4,0.7-3.7c0.7-1.8,1.6-3.1,2.7-3.9c1.1-0.7,2.2-1.1,3.3-1.1c0.5,0,1,0.1,1.4,0.2c0.5,0.2,0.9,0.4,1.2,0.8
			c0.4,0.4,0.8,1,1.1,1.7c0.3,0.7,0.5,1.6,0.5,2.6C747,124.9,746.8,125.8,746.6,126.6z M749.3,106.8c-0.5,1.1-1.2,1.9-2.1,2.7
			c-0.9,0.7-2,1.1-3.1,1.1c-0.8,0-1.5-0.2-2-0.5c-0.5-0.3-0.9-0.7-1.2-1.2c-0.3-0.5-0.5-1-0.6-1.6c-0.1-0.6-0.2-1.1-0.2-1.6
			c0-1.6,0.4-3.2,1.3-4.6c0.8-1.3,1.6-2.2,2.4-2.6c0.9-0.4,1.7-0.7,2.4-0.7c1.2,0,2.1,0.5,2.8,1.4c0.7,0.9,1,2.2,1,3.7
			C750.1,104.3,749.8,105.6,749.3,106.8z"/>
	</g>
</g>
</svg>
