<?xml version="1.0" encoding="utf-8"?>
<!-- Generator: Adobe Illustrator 22.0.1, SVG Export Plug-In . SVG Version: 6.00 Build 0)  -->
<svg version="1.1" id="Layer_2_1_" xmlns="http://www.w3.org/2000/svg" xmlns:xlink="http://www.w3.org/1999/xlink" x="0px" y="0px"
	 viewBox="0 0 741 244.8" style="enable-background:new 0 0 741 244.8;" xml:space="preserve">
<style type="text/css">
	.st0{fill-rule:evenodd;clip-rule:evenodd;fill:#FFFFFF;}
</style>
<g>
	<path class="st0" d="M204.9,0h331.2v74.2H204.9V0z"/>
	<path class="st0" d="M96.4,83.2h548.2v74.9H96.4V83.2z"/>
	<path class="st0" d="M0,166.2h741v74.9H0V166.2z"/>
	<g>
		<path d="M275.5,9.8c-1.1-1-2.4-1.8-3.8-2.4c-1.4-0.6-2.9-1.1-4.4-1.3c-1.5-0.3-2.9-0.5-4.3-0.6s-2.6-0.1-3.7-0.1
			c-2.3,0-4.9,0.1-7.8,0.4c-2.9,0.3-6.1,0.9-9.7,1.9l-2.4,13.8c2.4-0.9,4.8-1.6,7.2-2.1c2.5-0.5,4.8-0.7,7-0.7
			c1.5,0,2.8,0.1,3.7,0.4c1,0.3,1.7,0.6,2.2,1c0.5,0.4,0.9,0.9,1.1,1.4c0.2,0.5,0.3,1,0.3,1.5s-0.1,1-0.2,1.6
			c-0.2,0.6-0.5,1.1-1,1.6c-0.5,0.5-1.3,0.9-2.3,1.3c-1,0.4-2.4,0.6-4.1,0.6h-8.5L243,38.8h8.6c0.4,0,0.9,0,1.5,0.1
			c0.7,0.1,1.3,0.2,2,0.5c0.7,0.3,1.2,0.7,1.8,1.3c0.5,0.6,0.8,1.4,0.8,2.5c0,0.6-0.1,1.3-0.4,2c-0.3,0.7-0.7,1.4-1.4,2
			c-0.6,0.6-1.5,1.1-2.6,1.5c-1.1,0.4-2.4,0.6-4.1,0.6c-0.5,0-1.3,0-2.3-0.1c-1-0.1-2.2-0.2-3.5-0.4c-1.4-0.2-2.8-0.6-4.4-1.1
			c-1.6-0.5-3.3-1.2-5-2.1l-2.5,14.2c3.8,1.2,7,2,9.8,2.3c2.8,0.3,5.4,0.5,7.8,0.5c4.2,0,7.8-0.4,10.8-1.1c3-0.7,5.5-1.6,7.5-2.7
			s3.6-2.4,4.8-3.7c1.2-1.4,2.1-2.8,2.7-4.2c0.6-1.4,1-2.7,1.2-3.9c0.2-1.2,0.3-2.3,0.3-3.1c0-1.5-0.2-2.9-0.7-4.1
			c-0.5-1.2-1.1-2.2-1.9-3.1c-0.8-0.8-1.7-1.5-2.7-2c-1-0.5-2.2-0.8-3.3-0.9v-0.3c1.9-0.3,3.6-1,5-2c1.4-1,2.6-2.2,3.5-3.5
			c0.9-1.3,1.6-2.7,2.1-4.3c0.4-1.5,0.7-3,0.7-4.5c0-2.2-0.3-4-1-5.5C277.5,12.1,276.6,10.9,275.5,9.8z"/>
		<path d="M325.4,30.4c-0.6-2.1-1.7-4-3.2-5.6c-1.5-1.7-3.4-3-5.8-4c-2.4-1-5.3-1.5-8.8-1.5c-4.3,0-8,0.8-11.3,2.3
			c-3.2,1.5-5.9,3.5-8.1,6c-2.2,2.5-3.8,5.3-4.9,8.4c-1.1,3.1-1.6,6.3-1.6,9.6c0,1.4,0.2,3,0.6,5c0.4,1.9,1.3,3.8,2.6,5.6
			c1.3,1.8,3.2,3.3,5.7,4.5s5.8,1.9,10,1.9c4,0,7.6-0.7,10.8-2.1c3.2-1.4,5.9-3.3,8.1-5.7c2.2-2.4,3.9-5.1,5.1-8.2
			c1.2-3.1,1.7-6.3,1.7-9.6C326.3,34.6,326,32.5,325.4,30.4z M307.8,40.7c-0.4,2-0.8,3.8-1.2,5.2c-0.1,0.5-0.3,1.1-0.6,1.6
			c-0.2,0.6-0.5,1.1-0.9,1.5c-0.3,0.5-0.7,0.9-1.2,1.1c-0.5,0.3-1,0.4-1.7,0.4c-0.5,0-1.1-0.2-1.6-0.7c-0.6-0.5-0.8-1.5-0.8-3.1
			c0-0.8,0.1-1.8,0.2-3c0.1-1.2,0.3-2.3,0.5-3.5c0.2-1.2,0.5-2.3,0.7-3.3c0.3-1.1,0.5-1.9,0.8-2.5c0.1-0.3,0.3-0.6,0.5-1
			c0.2-0.4,0.4-0.8,0.7-1.1c0.3-0.3,0.7-0.6,1.1-0.9c0.4-0.2,0.9-0.4,1.4-0.4c0.6,0,1.1,0.1,1.5,0.4c0.4,0.3,0.6,0.6,0.8,1.1
			c0.2,0.4,0.3,0.9,0.3,1.3c0,0.4,0.1,0.8,0.1,1.1C308.4,36.7,308.2,38.6,307.8,40.7z"/>
		<path d="M337.6,32.3c-0.8,4.2-1.4,7.5-1.9,9.9c-0.5,2.4-1.1,4.2-1.6,5.5c-0.5,1.2-1,2-1.6,2.4c-0.5,0.3-1.2,0.5-1.9,0.5
			c-0.8,0-1.5-0.1-1.9-0.2c-0.3-0.1-0.5-0.2-0.7-0.3l-1.9,11c0.7,0.3,1.5,0.5,2.3,0.7c0.7,0.2,1.5,0.3,2.4,0.4
			c0.9,0.1,1.9,0.2,3,0.2c1.7,0,3.2-0.1,4.6-0.4c1.3-0.2,2.6-0.7,3.7-1.5c1.1-0.7,2.1-1.8,3-3.1c0.9-1.3,1.7-3.1,2.5-5.2
			c0.8-2.2,1.6-4.8,2.3-8c0.7-3.2,1.5-6.9,2.3-11.2l0.2-1.1h5.8l-5.1,29.5h16.9l7.2-41.3h-37.5L337.6,32.3z"/>
		<path d="M420.6,24.7c-1.5-1.7-3.4-3-5.8-4c-2.4-1-5.3-1.5-8.8-1.5c-4.3,0-8,0.8-11.3,2.3c-3.2,1.5-5.9,3.5-8.1,6
			c-2.2,2.5-3.8,5.3-4.9,8.4c-1.1,3.1-1.6,6.3-1.6,9.6c0,1.4,0.2,3,0.6,5c0.4,1.9,1.3,3.8,2.6,5.6c1.3,1.8,3.2,3.3,5.7,4.5
			c2.5,1.2,5.8,1.9,10,1.9c4,0,7.6-0.7,10.8-2.1c3.2-1.4,5.9-3.3,8.1-5.7c2.2-2.4,3.9-5.1,5.1-8.2c1.2-3.1,1.7-6.3,1.7-9.6
			c0-2.2-0.3-4.4-1-6.5C423.1,28.3,422,26.4,420.6,24.7z M406.2,40.7c-0.4,2-0.8,3.8-1.2,5.2c-0.1,0.5-0.3,1.1-0.6,1.6
			c-0.2,0.6-0.5,1.1-0.9,1.5c-0.3,0.5-0.7,0.9-1.2,1.1c-0.5,0.3-1,0.4-1.7,0.4c-0.5,0-1.1-0.2-1.6-0.7c-0.6-0.5-0.8-1.5-0.8-3.1
			c0-0.8,0.1-1.8,0.2-3c0.1-1.2,0.3-2.3,0.5-3.5c0.2-1.2,0.5-2.3,0.7-3.3c0.3-1.1,0.5-1.9,0.8-2.5c0.1-0.3,0.3-0.6,0.5-1
			c0.2-0.4,0.4-0.8,0.7-1.1c0.3-0.3,0.7-0.6,1.1-0.9c0.4-0.2,0.9-0.4,1.4-0.4c0.6,0,1.1,0.1,1.5,0.4c0.4,0.3,0.6,0.6,0.8,1.1
			c0.2,0.4,0.3,0.9,0.3,1.3c0,0.4,0.1,0.8,0.1,1.1C406.8,36.7,406.6,38.6,406.2,40.7z"/>
		<polygon points="430.3,20.2 428.2,32 437.6,32 432.5,61.5 449.4,61.5 454.4,32 463.8,32 465.9,20.2 		"/>
		<path d="M505.3,24.7c-1.5-1.7-3.4-3-5.8-4c-2.4-1-5.3-1.5-8.8-1.5c-4.3,0-8,0.8-11.3,2.3c-3.2,1.5-5.9,3.5-8.1,6
			c-2.2,2.5-3.8,5.3-4.9,8.4c-1.1,3.1-1.6,6.3-1.6,9.6c0,1.4,0.2,3,0.6,5c0.4,1.9,1.3,3.8,2.6,5.6c1.3,1.8,3.2,3.3,5.7,4.5
			s5.8,1.9,10,1.9c4,0,7.6-0.7,10.8-2.1c3.2-1.4,5.9-3.3,8.1-5.7c2.2-2.4,3.9-5.1,5.1-8.2c1.2-3.1,1.7-6.3,1.7-9.6
			c0-2.2-0.3-4.4-1-6.5C507.8,28.3,506.7,26.4,505.3,24.7z M490.9,40.7c-0.4,2-0.8,3.8-1.2,5.2c-0.1,0.5-0.3,1.1-0.6,1.6
			c-0.2,0.6-0.5,1.1-0.9,1.5c-0.3,0.5-0.7,0.9-1.2,1.1c-0.5,0.3-1,0.4-1.7,0.4c-0.5,0-1.1-0.2-1.6-0.7c-0.6-0.5-0.8-1.5-0.8-3.1
			c0-0.8,0.1-1.8,0.2-3c0.1-1.2,0.3-2.3,0.5-3.5c0.2-1.2,0.5-2.3,0.7-3.3c0.3-1.1,0.5-1.9,0.8-2.5c0.1-0.3,0.3-0.6,0.5-1
			c0.2-0.4,0.4-0.8,0.7-1.1c0.3-0.3,0.7-0.6,1.1-0.9c0.4-0.2,0.9-0.4,1.4-0.4c0.6,0,1.1,0.1,1.5,0.4c0.4,0.3,0.6,0.6,0.8,1.1
			c0.2,0.4,0.3,0.9,0.3,1.3c0,0.4,0.1,0.8,0.1,1.1C491.5,36.7,491.3,38.6,490.9,40.7z"/>
	</g>
	<g>
		<path d="M76.6,191.9c0-2.3-0.3-4.6-0.9-7.1c-0.6-2.5-1.8-4.8-3.4-6.9c-1.7-2.1-3.9-3.9-6.8-5.3c-2.9-1.4-6.5-2.1-10.9-2.1
			c-4.3,0-8.1,0.6-11.3,1.9c-3.3,1.2-6.1,2.9-8.4,4.9c-2.3,2-4.3,4.3-5.9,6.9c-1.6,2.6-2.8,5.2-3.8,7.8c-0.9,2.6-1.6,5.2-2,7.7
			c-0.4,2.5-0.6,4.7-0.6,6.5c0,2.5,0.3,5.1,1,7.6c0.7,2.5,1.9,4.8,3.5,6.9c1.7,2,3.9,3.7,6.7,5c2.8,1.3,6.3,1.9,10.4,1.9
			c4.4,0,8.2-0.6,11.6-1.9c3.3-1.3,6.2-2.9,8.6-4.9c2.4-2,4.4-4.3,5.9-6.9c1.6-2.5,2.8-5.1,3.7-7.8c0.9-2.7,1.6-5.2,1.9-7.7
			C76.4,195.9,76.6,193.8,76.6,191.9z M57.5,194.8c-0.1,1.3-0.3,2.7-0.6,4.1c-0.2,1.4-0.5,2.7-0.8,3.9c-0.3,1.3-0.5,2.3-0.8,3.1
			c-0.5,1.7-1.2,3.1-1.9,4.2c-0.7,1.1-1.5,1.9-2.2,2.6c-0.8,0.6-1.5,1.1-2.3,1.3c-0.7,0.2-1.4,0.4-2,0.4c-0.4,0-0.8-0.1-1.5-0.2
			c-0.6-0.1-1.2-0.4-1.8-0.9c-0.6-0.5-1.1-1.3-1.5-2.3c-0.4-1-0.6-2.4-0.6-4.2c0-1.1,0.1-2.3,0.2-3.6c0.1-1.3,0.3-2.6,0.5-3.9
			c0.2-1.3,0.5-2.6,0.8-3.8c0.3-1.2,0.6-2.3,0.8-3.2c0.6-1.8,1.3-3.3,2.1-4.4c0.8-1.1,1.5-2,2.3-2.6c0.8-0.6,1.5-1,2.2-1.2
			c0.7-0.2,1.3-0.3,1.8-0.3c0.4,0,0.9,0.1,1.6,0.2s1.2,0.5,1.8,1c0.6,0.5,1,1.2,1.5,2.2c0.4,1,0.6,2.3,0.6,4
			C57.7,192.3,57.6,193.5,57.5,194.8z"/>
		<path d="M85.6,197.5c-0.8,4.2-1.4,7.5-1.9,9.9c-0.5,2.4-1.1,4.2-1.6,5.5c-0.5,1.2-1,2-1.6,2.4c-0.5,0.3-1.2,0.5-1.9,0.5
			c-0.8,0-1.5-0.1-1.9-0.2c-0.3-0.1-0.5-0.2-0.7-0.3l-1.9,11c0.7,0.3,1.5,0.5,2.3,0.7c0.7,0.2,1.5,0.3,2.4,0.4
			c0.9,0.1,1.9,0.2,3,0.2c1.7,0,3.2-0.1,4.6-0.4c1.3-0.2,2.6-0.7,3.7-1.5c1.1-0.7,2.1-1.8,3-3.1c0.9-1.3,1.7-3.1,2.5-5.2
			c0.8-2.2,1.6-4.8,2.3-8c0.7-3.2,1.5-6.9,2.3-11.2l0.2-1.1h5.8l-5.1,29.5h16.9l7.2-41.3H87.8L85.6,197.5z"/>
		<path d="M152.7,209.2c-0.1,0.5-0.2,1-0.3,1.7c-0.1,0.6-0.3,1.2-0.6,1.9c-0.3,0.6-0.7,1.1-1.1,1.5c-0.5,0.4-1.1,0.6-1.8,0.6
			c-0.5,0-0.9-0.1-1.2-0.4c-0.3-0.2-0.5-0.5-0.7-0.8c-0.2-0.3-0.2-0.6-0.3-0.9c0-0.3,0-0.5,0-0.6c0-1.1,0.1-2.1,0.3-3l4.2-23.9h-17
			l-5,28.8c-0.1,0.7-0.2,1.3-0.2,2c-0.1,0.6-0.1,1.3-0.1,2c0,1.7,0.3,3.2,0.8,4.4c0.5,1.2,1.2,2.2,2.1,3c0.9,0.8,1.9,1.3,3.1,1.7
			c1.2,0.3,2.4,0.5,3.8,0.5c0.8,0,1.7-0.1,2.8-0.2c1.1-0.1,2.2-0.5,3.4-1c1.2-0.6,2.4-1.4,3.6-2.4c1.2-1.1,2.4-2.5,3.4-4.4h0.1
			l-1.2,7.1h15.9l7.2-41.3h-16.9L152.7,209.2z"/>
		<polygon points="202.6,206.9 200.5,185.3 182.4,185.3 175.2,226.6 188.6,226.6 192.5,203.9 192.8,203.9 194.3,218.7 206,218.7 
			212.5,203.9 212.8,203.9 208.9,226.6 222.3,226.6 229.5,185.3 212.1,185.3 		"/>
		<path d="M274.9,188.9c-0.3-0.5-0.6-1-1.1-1.5c-0.5-0.5-1.1-1-1.8-1.5c-0.7-0.5-1.6-0.9-2.5-1.1c-1-0.3-2.1-0.4-3.5-0.4
			c-3,0-5.6,0.8-7.7,2.3c-2.1,1.6-3.8,3.5-5.1,5.8h-0.3l1.3-7.2h-15.9l-7.2,41.3h16.9l4.1-23.8c0.4-2.5,1-4.1,1.9-4.9
			c0.5-0.5,1.2-0.7,2-0.7c0.8,0,1.4,0.3,1.8,0.8c0.4,0.5,0.6,1.2,0.6,2c0,0.5,0,0.9-0.1,1.4c-0.1,0.4-0.1,0.9-0.2,1.4l-4.1,23.8
			h16.9l5-28.7c0.1-0.7,0.2-1.3,0.3-2c0.1-0.6,0.1-1.3,0.1-1.9c0-0.9-0.1-1.8-0.3-2.7C275.6,190.5,275.3,189.7,274.9,188.9z"/>
		<path d="M305.3,209.2c-0.1,0.5-0.2,1-0.3,1.7c-0.1,0.6-0.3,1.2-0.6,1.9c-0.3,0.6-0.7,1.1-1.1,1.5c-0.5,0.4-1.1,0.6-1.8,0.6
			c-0.5,0-0.9-0.1-1.2-0.4c-0.3-0.2-0.5-0.5-0.7-0.8c-0.2-0.3-0.2-0.6-0.3-0.9c0-0.3,0-0.5,0-0.6c0-1.1,0.1-2.1,0.3-3l4.2-23.9h-17
			l-5,28.8c-0.1,0.7-0.2,1.3-0.2,2s-0.1,1.3-0.1,2c0,1.7,0.3,3.2,0.8,4.4c0.5,1.2,1.2,2.2,2.1,3c0.9,0.8,1.9,1.3,3.1,1.7
			c1.2,0.3,2.4,0.5,3.8,0.5c0.8,0,1.7-0.1,2.8-0.2c1.1-0.1,2.2-0.5,3.4-1c1.2-0.6,2.4-1.4,3.7-2.4c1.2-1.1,2.4-2.5,3.4-4.4h0.1
			l-1.2,7.1h15.9l7.2-41.3h-16.9L305.3,209.2z"/>
		<path d="M359.3,185.3l-0.9,5.3c-0.3-0.6-0.6-1.2-1.1-2c-0.4-0.7-1-1.4-1.8-2c-0.8-0.6-1.7-1.2-2.8-1.6c-1.1-0.4-2.4-0.6-4-0.6
			c-3.3,0-6.2,0.9-8.6,2.6c-2.5,1.7-4.5,3.9-6.1,6.6c-1.6,2.7-2.8,5.7-3.6,8.9c-0.8,3.3-1.2,6.5-1.2,9.7c0,4.6,1,8.3,3.1,11.1
			c2.1,2.8,5,4.2,8.9,4.2c3.1,0,5.7-0.7,7.9-2.2c2.2-1.5,4-3.4,5.3-5.8h0.3l-1.2,7h15.7l7.1-41.3H359.3z M356.4,205.5
			c-0.3,1.6-0.6,3-1.1,4.2c-0.4,1.1-0.8,1.9-1.2,2.5c-0.4,0.6-0.9,1.1-1.3,1.4c-0.4,0.3-0.8,0.5-1.2,0.6c-0.4,0.1-0.7,0.1-1,0.1
			s-0.6-0.1-0.9-0.2c-0.4-0.1-0.7-0.3-1-0.6s-0.6-0.8-0.8-1.4c-0.2-0.6-0.3-1.5-0.3-2.5c0-1.5,0.2-3.2,0.6-5
			c0.4-1.9,0.9-3.4,1.5-4.6c0.1-0.2,0.3-0.5,0.5-0.9c0.2-0.4,0.5-0.7,0.8-1.1c0.3-0.4,0.7-0.7,1.2-0.9c0.5-0.2,1-0.4,1.6-0.4
			c0.2,0,0.5,0,0.9,0.1c0.4,0.1,0.7,0.3,1,0.6c0.3,0.3,0.6,0.8,0.9,1.4c0.2,0.6,0.4,1.4,0.4,2.5
			C356.8,202.5,356.7,203.9,356.4,205.5z"/>
		<path d="M408.6,193.1h-0.3c-0.3-2.7-1.4-4.8-3.1-6.4c-1.8-1.5-4.1-2.3-6.8-2.3c-3,0-5.7,0.8-8.2,2.5c-2.4,1.7-4.5,3.8-6.1,6.4
			c-1.7,2.6-3,5.6-3.9,9c-0.9,3.4-1.4,6.7-1.4,10.1c0,4.3,1.1,7.8,3.3,10.4s5.3,3.9,9.4,3.9c0.8,0,1.6-0.1,2.5-0.2s1.8-0.5,2.8-0.9
			s2-1,3.1-1.8s2.2-1.8,3.3-3h0.3l-0.5,2c-0.8,3.4-2.2,6-4.3,7.7c-2.1,1.8-4.9,2.7-8.5,2.7c-1.9,0-3.9-0.4-6-1.1
			c-2.2-0.8-4.2-1.8-6.2-3.1l-2.3,13c3.6,1.3,6.7,2.2,9.3,2.5c2.6,0.4,4.9,0.6,7,0.6c2.9,0,5.8-0.3,8.7-0.8c2.9-0.5,5.7-1.6,8.2-3.3
			c2.5-1.7,4.8-4.1,6.8-7.3c2-3.2,3.4-7.5,4.4-12.8l6.2-35.3h-16L408.6,193.1z M406.1,205.6c-0.2,1.2-0.5,2.2-0.8,3.1
			c-0.4,1.3-1,2.5-1.7,3.6s-1.8,1.6-3.3,1.6c-1,0-1.8-0.3-2.4-1c-0.6-0.7-0.9-1.7-0.9-2.9c0-1.5,0.1-2.9,0.4-4.2
			c0.2-1.3,0.5-2.4,0.8-3.4c0.4-1.3,1-2.5,1.7-3.6c0.7-1.1,1.8-1.6,3.3-1.6c0.9,0,1.7,0.3,2.3,1c0.6,0.7,0.9,1.9,0.9,3.5
			C406.4,203.1,406.3,204.4,406.1,205.6z"/>
		<polygon points="470.6,226.6 487.5,226.6 494.6,185.3 477.7,185.3 		"/>
		<path d="M466.6,200.5c-1.1-1-2.6-1.7-4.5-2.2c-1.9-0.5-4.1-0.8-6.9-0.8h-5.9l2.1-12.1h-16.9l-7,41.3h22.8c3.3,0,6.3-0.4,8.7-1.3
			c2.5-0.9,4.5-2.1,6.1-3.7c1.6-1.6,2.8-3.5,3.6-5.7c0.8-2.2,1.2-4.7,1.2-7.5c0-1.6-0.3-3.1-0.8-4.5
			C468.6,202.6,467.7,201.5,466.6,200.5z M451.4,215.2c-0.9,1.1-2.1,1.6-3.5,1.6h-2.2l1.6-9.3h2.2c2.2,0,3.3,1.1,3.3,3.2
			C452.8,212.7,452.3,214.1,451.4,215.2z"/>
		<polygon points="500.2,210.8 522.8,210.8 525.6,195.1 503.1,195.1 		"/>
		<polygon points="533.7,186.8 538.3,199 550.3,190.8 544.1,226.6 561,226.6 570.5,171.5 556.1,171.5 		"/>
		<path d="M602,170.5c-3,0-6,0.6-8.8,1.7c-2.8,1.1-5.4,2.7-7.6,4.8c-2.2,2-4,4.5-5.3,7.4c-1.3,2.9-2,6.1-2,9.6c0,4.2,1.2,7.5,3.6,10
			c2.4,2.4,5.7,3.7,9.9,3.7c2.7,0,4.8-0.4,6.3-1.1c1.5-0.7,2.8-1.5,3.9-2.2h0.3c-0.5,2.7-1.3,4.8-2.5,6.2c-1.2,1.5-2.5,2.6-3.9,3.3
			c-1.4,0.7-2.6,1.1-3.9,1.3c-1.2,0.2-2.1,0.2-2.6,0.2c-2.1,0-4.1-0.2-5.9-0.6c-1.8-0.4-3.6-0.8-5.5-1.3l-2.2,12.7
			c3.5,0.7,6.3,1.2,8.5,1.3c2.2,0.1,3.8,0.2,4.9,0.2c4.6,0,8.9-1,12.7-3c3.8-2,7-4.6,9.7-8c2.7-3.4,4.8-7.2,6.2-11.7
			c1.5-4.4,2.2-9.1,2.2-13.9c0-6.5-1.6-11.5-4.8-15.1C612.1,172.3,607.7,170.5,602,170.5z M604.4,191.1c-0.3,1.2-0.8,2.2-1.4,3.1
			c-0.6,0.9-1.4,1.6-2.2,2.1c-0.9,0.5-1.8,0.8-2.8,0.8c-1.3,0-2.4-0.5-3.2-1.4c-0.8-0.9-1.2-2.2-1.2-4c0-1.2,0.2-2.4,0.5-3.5
			c0.4-1.1,0.8-2.1,1.5-3c0.6-0.9,1.4-1.6,2.2-2.1c0.8-0.5,1.8-0.8,2.8-0.8c1.3,0,2.4,0.4,3.2,1.3c0.8,0.9,1.2,2.2,1.2,3.9
			C604.9,188.8,604.7,190,604.4,191.1z"/>
		<path d="M666.1,175.3c-1.3-1.3-3.2-2.5-5.6-3.4c-2.4-0.9-5.5-1.4-9.3-1.4c-4.8,0-8.7,0.6-11.9,1.8c-3.1,1.2-5.6,2.7-7.5,4.5
			c-1.8,1.8-3.1,3.8-3.9,5.9c-0.7,2.1-1.1,4-1.1,5.8c0,2.4,0.6,4.5,1.7,6.3c1.1,1.8,2.8,3,4.9,3.6v0.3c-1.8,0.4-3.5,1-5,1.9
			c-1.5,0.9-2.7,2-3.8,3.4c-1,1.3-1.9,2.8-2.4,4.5c-0.6,1.7-0.9,3.4-0.9,5.3c0,1.9,0.3,3.7,1,5.3s1.8,3.1,3.3,4.3
			c1.5,1.2,3.6,2.2,6.1,2.9c2.5,0.7,5.6,1.1,9.3,1.1c4.3,0,8-0.6,11.2-1.7c3.2-1.1,5.8-2.5,7.8-4.3c2.1-1.8,3.6-3.8,4.6-6
			c1-2.2,1.5-4.5,1.5-6.8c0-2.7-0.7-5-2.2-6.7c-1.5-1.8-3.2-2.8-5.4-3.3v-0.3c1.6-0.5,3.1-1.3,4.4-2.2c1.3-1,2.5-2.1,3.4-3.4
			c0.9-1.3,1.7-2.7,2.2-4.2c0.5-1.5,0.8-3.1,0.8-4.8c0-1.3-0.2-2.7-0.7-4.2C668.3,178.1,667.4,176.6,666.1,175.3z M649.4,209.7
			c-0.2,0.8-0.5,1.6-0.9,2.3c-0.8,1.5-1.6,2.5-2.6,3.1c-1,0.6-2,0.9-2.9,0.9c-1.3,0-2.3-0.5-3-1.4c-0.8-0.9-1.2-2.3-1.2-4.1
			c0-1.2,0.2-2.4,0.7-3.7c0.7-1.8,1.6-3.1,2.7-3.9c1.1-0.7,2.2-1.1,3.3-1.1c0.5,0,1,0.1,1.4,0.2c0.5,0.2,0.9,0.4,1.2,0.8
			c0.4,0.4,0.8,1,1.1,1.7c0.3,0.7,0.5,1.6,0.5,2.6C649.7,208,649.6,208.9,649.4,209.7z M652.1,189.9c-0.5,1.1-1.2,1.9-2.1,2.7
			c-0.9,0.7-2,1.1-3.1,1.1c-0.8,0-1.5-0.2-2-0.5c-0.5-0.3-0.9-0.7-1.2-1.2c-0.3-0.5-0.5-1-0.6-1.6c-0.1-0.6-0.2-1.1-0.2-1.6
			c0-1.6,0.4-3.2,1.3-4.6c0.8-1.3,1.6-2.2,2.4-2.6c0.9-0.4,1.7-0.7,2.4-0.7c1.2,0,2.1,0.5,2.8,1.4c0.7,0.9,1,2.2,1,3.7
			C652.9,187.4,652.6,188.7,652.1,189.9z"/>
		<path d="M717.6,179.6c-0.4-1.5-1.3-3-2.6-4.3c-1.3-1.3-3.2-2.5-5.6-3.4c-2.4-0.9-5.5-1.4-9.3-1.4c-4.8,0-8.7,0.6-11.9,1.8
			c-3.1,1.2-5.6,2.7-7.5,4.5c-1.8,1.8-3.1,3.8-3.9,5.9c-0.7,2.1-1.1,4-1.1,5.8c0,2.4,0.6,4.5,1.7,6.3c1.1,1.8,2.8,3,4.9,3.6v0.3
			c-1.8,0.4-3.5,1-5,1.9c-1.5,0.9-2.7,2-3.8,3.4c-1,1.3-1.9,2.8-2.4,4.5c-0.6,1.7-0.9,3.4-0.9,5.3c0,1.9,0.3,3.7,1,5.3
			s1.8,3.1,3.3,4.3c1.5,1.2,3.6,2.2,6.1,2.9c2.5,0.7,5.6,1.1,9.3,1.1c4.3,0,8-0.6,11.2-1.7c3.2-1.1,5.8-2.5,7.8-4.3
			c2.1-1.8,3.6-3.8,4.6-6c1-2.2,1.5-4.5,1.5-6.8c0-2.7-0.7-5-2.2-6.7c-1.5-1.8-3.2-2.8-5.4-3.3v-0.3c1.6-0.5,3.1-1.3,4.4-2.2
			c1.3-1,2.5-2.1,3.4-3.4c0.9-1.3,1.7-2.7,2.2-4.2c0.5-1.5,0.8-3.1,0.8-4.8C718.3,182.6,718.1,181.2,717.6,179.6z M698.3,209.7
			c-0.2,0.8-0.5,1.6-0.9,2.3c-0.8,1.5-1.6,2.5-2.6,3.1c-1,0.6-2,0.9-2.9,0.9c-1.3,0-2.3-0.5-3-1.4c-0.8-0.9-1.2-2.3-1.2-4.1
			c0-1.2,0.2-2.4,0.7-3.7c0.7-1.8,1.6-3.1,2.7-3.9c1.1-0.7,2.2-1.1,3.3-1.1c0.5,0,1,0.1,1.4,0.2c0.5,0.2,0.9,0.4,1.2,0.8
			c0.4,0.4,0.8,1,1.1,1.7c0.3,0.7,0.5,1.6,0.5,2.6C698.6,208,698.5,208.9,698.3,209.7z M701,189.9c-0.5,1.1-1.2,1.9-2.1,2.7
			c-0.9,0.7-2,1.1-3.1,1.1c-0.8,0-1.5-0.2-2-0.5c-0.5-0.3-0.9-0.7-1.2-1.2c-0.3-0.5-0.5-1-0.6-1.6c-0.1-0.6-0.2-1.1-0.2-1.6
			c0-1.6,0.4-3.2,1.3-4.6c0.8-1.3,1.6-2.2,2.4-2.6c0.9-0.4,1.7-0.7,2.4-0.7c1.2,0,2.1,0.5,2.8,1.4c0.7,0.9,1,2.2,1,3.7
			C701.8,187.4,701.5,188.7,701,189.9z"/>
	</g>
	<g>
		<path d="M190.4,117.7c0-2.7-0.4-5.1-1.2-7.1c-0.8-2-1.9-3.6-3.3-4.8c-1.4-1.3-3.2-2.2-5.2-2.8c-2-0.6-4.3-0.9-6.7-0.9
			c-0.4,0-0.8,0-1.2,0c-0.4,0-0.8,0-1.2,0.1l2.9-17.3h-16.9l-2.9,17.3c-0.4-0.1-0.7-0.1-1.1-0.1c-0.4,0-0.7,0-1.1,0
			c-3.8,0-7.1,0.7-10,2s-5.4,3.2-7.5,5.6c-2,2.4-3.6,5.3-4.7,8.7c-1.1,3.4-1.6,7.2-1.6,11.3c0,2.7,0.4,5.1,1.2,7
			c0.8,1.9,1.9,3.5,3.3,4.8c1.5,1.3,3.2,2.2,5.2,2.8c2,0.6,4.2,0.9,6.6,0.9c0.4,0,0.8,0,1.2,0c0.4,0,0.8,0,1.2-0.1l-2.8,16.4h16.9
			l2.8-16.4c0.4,0.1,0.7,0.1,1.1,0.1c0.4,0,0.7,0,1.1,0c3.8,0,7.1-0.7,10.1-2c3-1.3,5.5-3.2,7.5-5.6c2-2.4,3.6-5.3,4.7-8.7
			S190.4,121.8,190.4,117.7z M150.6,133.3c-0.2,0.1-0.5,0.1-0.7,0.1c-0.2,0-0.5,0-0.7,0c-1,0-1.9-0.4-2.5-1.2c-0.7-0.8-1-2.2-1-4.2
			c0-1.5,0.1-3,0.3-4.7c0.2-1.6,0.6-3.2,1.1-4.6c0.5-1.4,1.2-2.6,2.1-3.5c0.9-0.9,2-1.4,3.3-1.4h1.4L150.6,133.3z M173.2,123.9
			c-0.2,1.6-0.6,3.2-1.2,4.6c-0.5,1.4-1.3,2.6-2.1,3.5c-0.9,0.9-2,1.4-3.2,1.4c-0.2,0-0.5,0-0.7,0c-0.2,0-0.5,0-0.7-0.1l3.3-19.3
			c0.2-0.1,0.5-0.1,0.7-0.1c0.2,0,0.5,0,0.7,0c1,0,1.9,0.4,2.6,1.2c0.7,0.8,1,2.2,1,4.2C173.5,120.7,173.4,122.2,173.2,123.9z"/>
		<path d="M212.9,129h-0.2l-0.3-26H195l5.6,42.3l-0.5,1.3c-0.4,0.8-0.8,1.4-1.3,1.9c-0.5,0.5-1,0.8-1.6,1.1
			c-0.6,0.2-1.1,0.4-1.6,0.5c-0.5,0.1-0.9,0.1-1.2,0.1c-0.8,0-1.7-0.1-2.5-0.2c-0.8-0.1-1.7-0.4-2.5-0.7l-2,11.7
			c1.8,0.5,3.5,0.9,5.3,1.2c1.7,0.3,3.3,0.4,4.6,0.4c2.5,0,4.7-0.3,6.8-0.9c2.1-0.6,4-1.6,5.8-3c1.8-1.3,3.4-3,4.9-5.1
			c1.5-2.1,2.9-4.6,4.2-7.5l19.3-42.9h-16.5L212.9,129z"/>
		<polygon points="238.3,114.8 247.7,114.8 242.6,144.3 259.5,144.3 264.5,114.8 273.9,114.8 276,103 240.4,103 		"/>
		<path d="M313.6,85.6c-1.9,0.2-3.8,0.4-5.7,0.6c-1.9,0.2-3.8,0.4-5.7,0.8c-1.9,0.4-3.7,0.9-5.6,1.6c-1.9,0.7-3.7,1.7-5.5,2.9
			c-2.4,1.6-4.5,3.8-6.4,6.5c-1.8,2.7-3.4,5.6-4.6,8.8c-1.2,3.2-2.2,6.6-2.8,10c-0.6,3.5-1,6.8-1,10c0,1.7,0.2,3.7,0.6,5.8
			c0.4,2.2,1.2,4.2,2.4,6c1.2,1.9,3.1,3.4,5.5,4.7c2.4,1.3,5.6,1.9,9.6,1.9c4.8,0,8.9-0.8,12.2-2.4c3.3-1.6,6-3.6,8-5.9
			c2-2.4,3.5-5,4.4-7.8c0.9-2.8,1.3-5.4,1.3-7.8c0-2.7-0.4-5-1.2-6.9c-0.8-1.9-2-3.5-3.4-4.8c-1.5-1.3-3.2-2.2-5.2-2.8
			c-2-0.6-4.1-0.9-6.4-0.9c-1,0-2.1,0.1-3.3,0.3c-1.2,0.2-2.4,0.5-3.7,1.1c-1.3,0.5-2.6,1.3-3.9,2.2c-1.3,1-2.5,2.2-3.6,3.8h-0.5
			l0.4-1.9c0.4-1.7,0.9-3.1,1.5-4.3c0.6-1.2,1.4-2.1,2.2-2.9c0.8-0.8,1.7-1.4,2.6-1.8c0.9-0.4,1.7-0.8,2.5-1.1
			c1.8-0.6,3.7-1,5.8-1.2s4.3-0.4,6.7-0.6c1.2-0.1,2.3-0.1,3.2-0.3c1-0.1,1.8-0.3,2.6-0.5c0.8-0.2,1.6-0.4,2.3-0.7
			c0.7-0.3,1.4-0.7,2.1-1.2l2.5-14.2c-1.8,0.9-3.5,1.5-5,1.9C317.1,85.1,315.4,85.4,313.6,85.6z M294,127.7c0.1-0.8,0.2-1.6,0.3-2.4
			c0.1-0.8,0.3-1.6,0.5-2.4c0.2-0.8,0.4-1.4,0.5-1.9c0.5-1.6,1.2-2.6,1.9-3.2c0.7-0.5,1.4-0.8,2.1-0.8c0.6,0,1.1,0.1,1.5,0.4
			c0.4,0.2,0.6,0.6,0.8,0.9c0.2,0.4,0.3,0.8,0.4,1.3c0,0.4,0.1,0.9,0.1,1.2c0,1.5-0.1,3-0.4,4.4c-0.1,0.9-0.3,1.8-0.5,2.8
			c-0.2,1-0.5,1.9-0.9,2.6c-0.4,0.8-0.9,1.4-1.4,2c-0.6,0.5-1.3,0.8-2.1,0.8c-1.2,0-2-0.4-2.3-1.3c-0.3-0.8-0.5-1.7-0.5-2.5
			C293.9,129.1,293.9,128.4,294,127.7z"/>
		<path d="M368.5,113.2c-0.6-2.1-1.7-4-3.2-5.6c-1.5-1.7-3.4-3-5.8-4c-2.4-1-5.3-1.5-8.8-1.5c-4.3,0-8,0.8-11.3,2.3
			c-3.2,1.5-5.9,3.5-8.1,6c-2.2,2.5-3.8,5.3-4.9,8.4c-1.1,3.1-1.6,6.3-1.6,9.6c0,1.4,0.2,3,0.6,5c0.4,1.9,1.3,3.8,2.6,5.6
			c1.3,1.8,3.2,3.3,5.7,4.5s5.8,1.9,10,1.9c4,0,7.6-0.7,10.8-2.1c3.2-1.4,5.9-3.3,8.1-5.7c2.2-2.4,3.9-5.1,5.1-8.2
			c1.2-3.1,1.7-6.3,1.7-9.6C369.4,117.4,369.1,115.3,368.5,113.2z M350.9,123.5c-0.4,2-0.8,3.8-1.2,5.2c-0.1,0.5-0.3,1.1-0.6,1.6
			c-0.2,0.6-0.5,1.1-0.9,1.5c-0.3,0.5-0.7,0.9-1.2,1.1c-0.5,0.3-1,0.4-1.7,0.4c-0.5,0-1.1-0.2-1.6-0.7c-0.6-0.5-0.8-1.5-0.8-3.1
			c0-0.8,0.1-1.8,0.2-3c0.1-1.2,0.3-2.3,0.5-3.5c0.2-1.2,0.5-2.3,0.7-3.3c0.3-1.1,0.5-1.9,0.8-2.5c0.1-0.3,0.3-0.6,0.5-1
			c0.2-0.4,0.4-0.8,0.7-1.1c0.3-0.3,0.7-0.6,1.1-0.9c0.4-0.2,0.9-0.4,1.4-0.4c0.6,0,1.1,0.1,1.5,0.4c0.4,0.3,0.6,0.6,0.8,1.1
			c0.2,0.4,0.3,0.9,0.3,1.3c0,0.4,0.1,0.8,0.1,1.1C351.5,119.5,351.3,121.4,350.9,123.5z"/>
		<path d="M380.7,115.1c-0.8,4.2-1.4,7.5-1.9,9.9c-0.5,2.4-1.1,4.2-1.6,5.5c-0.5,1.2-1,2-1.6,2.4c-0.5,0.3-1.2,0.5-1.9,0.5
			c-0.8,0-1.5-0.1-1.9-0.2c-0.3-0.1-0.5-0.2-0.7-0.3l-1.9,11c0.7,0.3,1.5,0.5,2.3,0.7c0.7,0.2,1.5,0.3,2.4,0.4
			c0.9,0.1,1.9,0.2,3,0.2c1.7,0,3.2-0.1,4.6-0.4c1.3-0.2,2.6-0.7,3.7-1.5c1.1-0.7,2.1-1.8,3-3.1c0.9-1.3,1.7-3.1,2.5-5.2
			c0.8-2.2,1.6-4.8,2.3-8s1.5-6.9,2.3-11.2l0.2-1.1h5.8l-5.1,29.5h16.9l7.2-41.3h-37.5L380.7,115.1z"/>
		<path d="M461,118.2c-1.1-1-2.6-1.7-4.5-2.2c-1.9-0.5-4.1-0.8-6.9-0.8h-5.9l2.1-12.1H429l-7,41.3h22.8c3.3,0,6.3-0.4,8.7-1.3
			c2.5-0.9,4.5-2.1,6.1-3.7c1.6-1.6,2.8-3.5,3.6-5.7c0.8-2.2,1.2-4.7,1.2-7.5c0-1.6-0.3-3.1-0.8-4.5
			C463,120.3,462.1,119.1,461,118.2z M445.8,132.9c-0.9,1.1-2.1,1.6-3.5,1.6h-2.2l1.6-9.3h2.2c2.2,0,3.3,1.1,3.3,3.2
			C447.2,130.3,446.7,131.8,445.8,132.9z"/>
		<polygon points="495.7,117.3 489.7,117.3 492.2,103 475.3,103 468.1,144.3 485,144.3 487.6,129.1 493.7,129.1 491,144.3 
			507.9,144.3 515.1,103 498.2,103 		"/>
		<path d="M558.3,107.5c-1.5-1.7-3.4-3-5.8-4c-2.4-1-5.3-1.5-8.8-1.5c-4.3,0-8,0.8-11.3,2.3c-3.2,1.5-5.9,3.5-8.1,6
			c-2.2,2.5-3.8,5.3-4.9,8.4c-1.1,3.1-1.6,6.3-1.6,9.6c0,1.4,0.2,3,0.6,5c0.4,1.9,1.3,3.8,2.6,5.6c1.3,1.8,3.2,3.3,5.7,4.5
			c2.5,1.2,5.8,1.9,10,1.9c4,0,7.6-0.7,10.8-2.1c3.2-1.4,5.9-3.3,8.1-5.7c2.2-2.4,3.9-5.1,5.1-8.2c1.2-3.1,1.7-6.3,1.7-9.6
			c0-2.2-0.3-4.4-1-6.5C560.9,111.1,559.8,109.2,558.3,107.5z M544,123.5c-0.4,2-0.8,3.8-1.2,5.2c-0.1,0.5-0.3,1.1-0.6,1.6
			c-0.2,0.6-0.5,1.1-0.9,1.5c-0.3,0.5-0.7,0.9-1.2,1.1c-0.5,0.3-1,0.4-1.7,0.4c-0.5,0-1.1-0.2-1.6-0.7c-0.6-0.5-0.8-1.5-0.8-3.1
			c0-0.8,0.1-1.8,0.2-3c0.1-1.2,0.3-2.3,0.5-3.5c0.2-1.2,0.5-2.3,0.7-3.3c0.3-1.1,0.5-1.9,0.8-2.5c0.1-0.3,0.3-0.6,0.5-1
			c0.2-0.4,0.4-0.8,0.7-1.1c0.3-0.3,0.7-0.6,1.1-0.9c0.4-0.2,0.9-0.4,1.4-0.4c0.6,0,1.1,0.1,1.5,0.4c0.4,0.3,0.6,0.6,0.8,1.1
			c0.2,0.4,0.3,0.9,0.3,1.3c0,0.4,0.1,0.8,0.1,1.1C544.6,119.5,544.4,121.4,544,123.5z"/>
		<path d="M592.9,98.6c4.3,0,7.8-1.1,10.3-3.3c2.5-2.2,4.2-5.4,5.1-9.5l-7.8-1.4c-0.5,2.1-1.3,3.6-2.3,4.4c-1,0.8-2.3,1.3-3.8,1.3
			c-1.5,0-2.6-0.4-3.3-1.1c-0.8-0.7-1.1-1.9-1.1-3.6c0-0.2,0-0.3,0-0.5c0-0.2,0-0.3,0-0.6l-8.2,1.4c-0.1,0.9-0.2,1.8-0.2,2.7
			c0,3.3,0.9,5.8,2.7,7.5C586.1,97.7,589,98.6,592.9,98.6z"/>
		<path d="M595.3,103l-4.2,23.9c-0.1,0.5-0.2,1-0.3,1.7c-0.1,0.6-0.3,1.2-0.6,1.9c-0.3,0.6-0.7,1.1-1.1,1.5
			c-0.5,0.4-1.1,0.6-1.8,0.6c-0.5,0-0.9-0.1-1.2-0.4c-0.3-0.2-0.5-0.5-0.7-0.8c-0.2-0.3-0.2-0.6-0.3-0.9c0-0.3,0-0.5,0-0.6
			c0-1.1,0.1-2.1,0.3-3l4.2-23.9h-17l-5,28.8c-0.1,0.7-0.2,1.3-0.2,2c-0.1,0.6-0.1,1.3-0.1,2c0,1.7,0.3,3.2,0.8,4.4
			c0.5,1.2,1.2,2.2,2.1,3c0.9,0.8,1.9,1.3,3.1,1.7c1.2,0.3,2.4,0.5,3.8,0.5c0.8,0,1.7-0.1,2.8-0.2c1.1-0.1,2.2-0.5,3.4-1
			c1.2-0.6,2.4-1.4,3.6-2.4c1.2-1.1,2.4-2.5,3.4-4.4h0.1l-1.2,7.1H605l7.2-41.3H595.3z"/>
	</g>
</g>
</svg>
