<?xml version="1.0" encoding="utf-8"?>
<!-- Generator: Adobe Illustrator 22.0.1, SVG Export Plug-In . SVG Version: 6.00 Build 0)  -->
<svg version="1.1" id="Layer_2_1_" xmlns="http://www.w3.org/2000/svg" xmlns:xlink="http://www.w3.org/1999/xlink" x="0px" y="0px"
	 viewBox="0 0 555 157.9" style="enable-background:new 0 0 555 157.9;" xml:space="preserve">
<style type="text/css">
	.st0{fill-rule:evenodd;clip-rule:evenodd;fill:#FFFFFF;}
</style>
<g>
	<g>
		<rect x="134.5" class="st0" width="286" height="74.2"/>
		<rect y="83.9" class="st0" width="555" height="74"/>
	</g>
	<g>
		<polygon points="194.7,32.2 214.9,6.3 194.5,6.3 179.7,28 179.4,28 183.2,6.3 165.2,6.3 155.7,61.5 173.7,61.5 177.7,38.1 
			177.9,38.1 185.4,61.5 206.9,61.5 		"/>
		<path d="M235.8,20.2l-8.8,26h-0.2l-0.3-26h-17.5l5.6,42.3l-0.5,1.3c-0.4,0.8-0.8,1.4-1.3,1.9c-0.5,0.5-1,0.8-1.6,1.1
			c-0.6,0.2-1.1,0.4-1.6,0.5c-0.5,0.1-0.9,0.1-1.2,0.1c-0.8,0-1.7-0.1-2.5-0.2c-0.8-0.1-1.7-0.4-2.5-0.7l-2,11.7
			c1.8,0.5,3.5,0.9,5.3,1.2c1.7,0.3,3.3,0.4,4.6,0.4c2.5,0,4.7-0.3,6.8-0.9c2.1-0.6,4-1.6,5.8-3c1.8-1.3,3.4-3,4.9-5.1
			c1.5-2.1,2.9-4.6,4.2-7.5l19.3-42.9H235.8z"/>
		<path d="M288.7,2.8c-1.9,0.2-3.8,0.4-5.7,0.6c-1.9,0.2-3.8,0.4-5.7,0.8c-1.9,0.4-3.7,0.9-5.6,1.6c-1.9,0.7-3.7,1.7-5.5,2.9
			c-2.4,1.6-4.5,3.8-6.4,6.5c-1.8,2.7-3.4,5.6-4.6,8.8c-1.2,3.2-2.2,6.6-2.8,10c-0.6,3.5-1,6.8-1,10c0,1.7,0.2,3.7,0.6,5.8
			c0.4,2.2,1.2,4.2,2.4,6c1.2,1.9,3.1,3.4,5.5,4.7c2.4,1.3,5.6,1.9,9.6,1.9c4.8,0,8.9-0.8,12.2-2.4c3.3-1.6,6-3.6,8-5.9
			c2-2.4,3.5-5,4.4-7.8c0.9-2.8,1.3-5.4,1.3-7.8c0-2.7-0.4-5-1.2-6.9c-0.8-1.9-2-3.5-3.4-4.8c-1.5-1.3-3.2-2.2-5.2-2.8
			c-2-0.6-4.1-0.9-6.4-0.9c-1,0-2.1,0.1-3.3,0.3c-1.2,0.2-2.4,0.5-3.7,1.1c-1.3,0.5-2.6,1.3-3.9,2.2c-1.3,1-2.5,2.2-3.6,3.8h-0.5
			l0.4-1.9c0.4-1.7,0.9-3.1,1.5-4.3c0.6-1.2,1.4-2.1,2.2-2.9c0.8-0.8,1.7-1.4,2.6-1.8c0.9-0.4,1.7-0.8,2.5-1.1
			c1.8-0.6,3.7-1,5.8-1.2c2.1-0.2,4.3-0.4,6.7-0.6c1.2-0.1,2.3-0.1,3.2-0.3c1-0.1,1.8-0.3,2.6-0.5c0.8-0.2,1.6-0.4,2.3-0.7
			c0.7-0.3,1.4-0.7,2.1-1.2L298.8,0c-1.8,0.9-3.5,1.5-5,1.9C292.3,2.3,290.6,2.6,288.7,2.8z M269.2,44.9c0.1-0.8,0.2-1.6,0.3-2.4
			c0.1-0.8,0.3-1.6,0.5-2.4c0.2-0.8,0.4-1.4,0.5-1.9c0.5-1.6,1.2-2.6,1.9-3.2c0.7-0.5,1.4-0.8,2.1-0.8c0.6,0,1.1,0.1,1.5,0.4
			c0.4,0.2,0.6,0.6,0.8,0.9c0.2,0.4,0.3,0.8,0.4,1.3c0,0.4,0.1,0.9,0.1,1.2c0,1.5-0.1,3-0.4,4.4c-0.1,0.9-0.3,1.8-0.5,2.8
			c-0.2,1-0.5,1.9-0.9,2.6c-0.4,0.8-0.9,1.4-1.4,2c-0.6,0.5-1.3,0.8-2.1,0.8c-1.2,0-2-0.4-2.3-1.3c-0.3-0.8-0.5-1.7-0.5-2.5
			C269,46.3,269.1,45.6,269.2,44.9z"/>
		<path d="M340.4,24.7c-1.5-1.7-3.4-3-5.8-4c-2.4-1-5.3-1.5-8.8-1.5c-4.3,0-8,0.8-11.3,2.3c-3.2,1.5-5.9,3.5-8.1,6
			c-2.2,2.5-3.8,5.3-4.9,8.4c-1.1,3.1-1.6,6.3-1.6,9.6c0,1.4,0.2,3,0.6,5c0.4,1.9,1.3,3.8,2.6,5.6c1.3,1.8,3.2,3.3,5.7,4.5
			c2.5,1.2,5.8,1.9,10,1.9c4,0,7.6-0.7,10.8-2.1c3.2-1.4,5.9-3.3,8.1-5.7c2.2-2.4,3.9-5.1,5.1-8.2c1.2-3.1,1.7-6.3,1.7-9.6
			c0-2.2-0.3-4.4-1-6.5C343,28.3,341.9,26.4,340.4,24.7z M326.1,40.7c-0.4,2-0.8,3.8-1.2,5.2c-0.1,0.5-0.3,1.1-0.6,1.6
			c-0.2,0.6-0.5,1.1-0.9,1.5c-0.3,0.5-0.7,0.9-1.2,1.1c-0.5,0.3-1,0.4-1.7,0.4c-0.5,0-1.1-0.2-1.6-0.7c-0.6-0.5-0.8-1.5-0.8-3.1
			c0-0.8,0.1-1.8,0.2-3c0.1-1.2,0.3-2.3,0.5-3.5c0.2-1.2,0.5-2.3,0.7-3.3c0.3-1.1,0.5-1.9,0.8-2.5c0.1-0.3,0.3-0.6,0.5-1
			c0.2-0.4,0.4-0.8,0.7-1.1c0.3-0.3,0.7-0.6,1.1-0.9c0.4-0.2,0.9-0.4,1.4-0.4c0.6,0,1.1,0.1,1.5,0.4c0.4,0.3,0.6,0.6,0.8,1.1
			c0.2,0.4,0.3,0.9,0.3,1.3c0,0.4,0.1,0.8,0.1,1.1C326.6,36.7,326.4,38.6,326.1,40.7z"/>
		<polygon points="399.3,20.2 381,20.2 368.3,38.2 368,38.2 371.2,20.2 354.6,20.2 347.4,61.5 364,61.5 367.1,43.3 367.4,43.3 
			373.9,61.5 392.5,61.5 384,40.4 		"/>
	</g>
	<g>
		<path d="M44.2,88.3l-3,17.6c-0.3,1.6-0.6,3.4-1,5.3c-0.4,1.9-1,3.8-1.7,5.8c-0.7,2-1.7,4-2.9,5.9c-1.2,2-2.8,3.9-4.7,5.8h-3.6
			l-4.7,26.9h17.9l2.1-12.2h20.8l-2.1,12.2h17.9l4.7-26.9h-5l7-40.4H44.2z M61,128.7H48.4c2.5-3,4.3-6.1,5.4-9.3
			c1.1-3.2,2-6.6,2.6-10.2l1.1-6.7h8L61,128.7z"/>
		<path d="M121.7,107.2c-1.4-1.7-3.2-3.2-5.6-4.3c-2.4-1.1-5.4-1.7-9-1.7c-1.5,0-3.4,0.1-5.6,0.4c-2.2,0.3-4.7,1-7.5,2.1l-1.9,10.7
			c1.7-1.1,3.2-1.7,4.7-2.1c1.4-0.3,2.6-0.5,3.7-0.5c1.9,0,3.4,0.3,4.5,0.9c1.1,0.6,1.9,1.3,2.4,2.1c0.5,0.8,0.9,1.6,1,2.3
			c0.2,0.7,0.2,1.2,0.2,1.5H96l-1.3,7.4h12.7c-0.7,2.5-1.9,4.4-3.6,5.7c-1.7,1.3-3.7,1.9-6.1,1.9c-1.5,0-3-0.2-4.6-0.7
			c-1.5-0.5-2.9-1.2-4.3-2l-1.9,10.7c2.3,1.1,4.5,1.8,6.7,2.1c2.2,0.4,4.4,0.6,6.7,0.6c4.3,0,8-0.7,11.2-2.2
			c3.1-1.5,5.7-3.4,7.8-5.8c2-2.4,3.5-5,4.5-8c1-3,1.5-6,1.5-9.1c0-2-0.3-4.1-0.8-6.3C124,110.9,123,109,121.7,107.2z"/>
		<path d="M166.6,103.2c-1.1-0.5-2.2-0.8-3.3-0.9c-1.1-0.1-2-0.1-2.5-0.1h-10h-15.3l-7.2,41.3h25.9c2.5,0,4.7-0.4,6.5-1.2
			c1.9-0.8,3.4-1.9,4.7-3.2c1.2-1.3,2.2-2.7,2.8-4.3c0.6-1.6,0.9-3.2,0.9-4.8c0-2.3-0.6-4.2-1.9-5.6c-1.3-1.4-2.9-2.3-4.9-2.5v-0.2
			c1.5-0.5,2.8-1.1,3.9-1.9c1.1-0.8,2-1.7,2.6-2.7c0.7-1,1.2-2.1,1.5-3.3c0.3-1.2,0.5-2.3,0.5-3.4c0-2-0.4-3.6-1.2-4.7
			S167.7,103.7,166.6,103.2z M152.9,131.5c-0.2,0.6-0.4,1.1-0.9,1.5c-0.4,0.5-1,0.9-1.7,1.2c-0.7,0.3-1.7,0.5-2.8,0.5h-2.4l1.4-8.2
			h2.4c0.4,0,0.8,0,1.3,0c0.5,0,0.9,0.1,1.4,0.4c0.4,0.2,0.8,0.6,1.1,1c0.3,0.5,0.5,1.1,0.5,2C153.2,130.4,153.1,130.9,152.9,131.5z
			 M155.1,115.1c-0.1,0.5-0.3,0.9-0.7,1.4c-0.4,0.5-0.9,0.9-1.6,1.2c-0.7,0.3-1.6,0.5-2.8,0.5h-2.1l1.3-7.2h2.1c0.3,0,0.7,0,1.1,0
			c0.4,0,0.9,0.1,1.3,0.4c0.4,0.2,0.8,0.5,1.1,0.9c0.3,0.4,0.4,0.9,0.4,1.6C155.2,114.2,155.2,114.6,155.1,115.1z"/>
		<path d="M200.6,126.1c-0.1,0.5-0.2,1-0.3,1.7c-0.1,0.6-0.3,1.2-0.6,1.9c-0.3,0.6-0.7,1.1-1.1,1.5c-0.5,0.4-1.1,0.6-1.8,0.6
			c-0.5,0-0.9-0.1-1.2-0.4c-0.3-0.2-0.5-0.5-0.7-0.8c-0.2-0.3-0.2-0.6-0.3-0.9c0-0.3,0-0.5,0-0.6c0-1.1,0.1-2.1,0.3-3l4.2-23.9h-17
			l-5,28.8c-0.1,0.7-0.2,1.3-0.2,2c-0.1,0.6-0.1,1.3-0.1,2c0,1.7,0.3,3.2,0.8,4.4c0.5,1.2,1.2,2.2,2.1,3c0.9,0.8,1.9,1.3,3.1,1.7
			c1.2,0.3,2.4,0.5,3.8,0.5c0.8,0,1.7-0.1,2.8-0.2c1.1-0.1,2.2-0.5,3.4-1c1.2-0.6,2.4-1.4,3.7-2.4c1.2-1.1,2.4-2.5,3.4-4.4h0.1
			l-1.2,7.1h15.9l7.2-41.3h-16.9L200.6,126.1z"/>
		<path d="M250.5,101.2c-3.3,0-6.3,0.4-8.9,1.3c-2.6,0.8-4.8,2-6.8,3.3c-1.9,1.4-3.6,3-4.9,4.8c-1.3,1.8-2.4,3.7-3.2,5.6
			c-0.8,1.9-1.4,3.9-1.7,5.8c-0.4,1.9-0.5,3.7-0.5,5.3c0,2.8,0.4,5.1,1.2,7.1c0.8,1.9,1.8,3.5,3,4.8c1.2,1.3,2.5,2.3,4,3
			c1.5,0.7,2.9,1.2,4.3,1.5c1.4,0.3,2.7,0.6,3.8,0.6c1.2,0.1,2,0.1,2.5,0.1c1.9,0,3.9-0.1,5.9-0.4c2-0.2,4.3-0.8,6.7-1.7l2.1-11.9
			c-1.2,0.6-2.5,1.1-3.9,1.5c-1.4,0.4-2.7,0.6-4.1,0.6c-0.3,0-0.8-0.1-1.6-0.2c-0.8-0.1-1.6-0.4-2.4-0.9c-0.8-0.5-1.6-1.2-2.2-2.2
			c-0.6-1-1-2.4-1-4.2c0-1.4,0.2-2.8,0.6-4.2c0.4-1.4,1.1-2.8,2-3.9c0.9-1.2,2-2.1,3.3-2.9c1.3-0.7,2.9-1.1,4.8-1.1
			c0.8,0,1.7,0.1,2.9,0.4c1.2,0.2,2.5,0.7,4,1.5l2-11.8c-1.5-0.5-3.2-0.9-5.2-1.3C255.3,101.4,253.1,101.2,250.5,101.2z"/>
		<path d="M293.1,107.5c-0.3-0.6-0.6-1.2-1.1-2c-0.4-0.7-1-1.4-1.8-2c-0.8-0.6-1.7-1.2-2.8-1.6c-1.1-0.4-2.4-0.6-4-0.6
			c-3.3,0-6.2,0.9-8.6,2.6c-2.5,1.7-4.5,3.9-6.1,6.6c-1.6,2.7-2.8,5.7-3.7,8.9c-0.8,3.3-1.2,6.5-1.2,9.7c0,4.6,1,8.3,3.1,11.1
			c2.1,2.8,5,4.2,8.9,4.2c3.1,0,5.7-0.7,7.9-2.2c2.2-1.5,4-3.4,5.3-5.8h0.3l-1.2,7h15.7l7.1-41.3H294L293.1,107.5z M291.1,122.4
			c-0.3,1.6-0.6,3-1.1,4.2c-0.4,1.1-0.8,1.9-1.2,2.5c-0.4,0.6-0.9,1.1-1.3,1.4c-0.4,0.3-0.8,0.5-1.2,0.6c-0.4,0.1-0.7,0.1-1,0.1
			s-0.6-0.1-0.9-0.2c-0.4-0.1-0.7-0.3-1-0.6c-0.3-0.3-0.6-0.8-0.8-1.4c-0.2-0.6-0.3-1.5-0.3-2.5c0-1.5,0.2-3.2,0.6-5
			c0.4-1.9,0.9-3.4,1.5-4.6c0.1-0.2,0.3-0.5,0.5-0.9c0.2-0.4,0.5-0.7,0.8-1.1c0.3-0.4,0.7-0.7,1.2-0.9s1-0.4,1.6-0.4
			c0.2,0,0.5,0,0.9,0.1c0.4,0.1,0.7,0.3,1,0.6c0.3,0.3,0.6,0.8,0.9,1.4c0.2,0.6,0.4,1.4,0.4,2.5
			C291.5,119.4,291.3,120.8,291.1,122.4z"/>
		<polygon points="316.4,127.7 339,127.7 341.9,112 319.3,112 		"/>
		<path d="M388.3,92.2c-1.4-1.4-3.2-2.6-5.6-3.5c-2.4-0.9-5.5-1.3-9.3-1.3c-2.4,0-4.8,0.1-7.3,0.4c-2.5,0.2-5.1,0.7-7.9,1.4
			l-2.5,14.4c2.3-1,4.3-1.7,6-2c1.7-0.3,3.3-0.5,4.6-0.5c1.6,0,2.9,0.2,3.9,0.6c1,0.4,1.8,0.9,2.4,1.5c0.6,0.6,1,1.3,1.2,2
			c0.2,0.7,0.3,1.4,0.3,2.1c0,1.9-0.6,3.8-1.7,5.4c-1.2,1.7-2.6,3.2-4.4,4.6c-1.8,1.4-3.7,2.7-5.7,3.9c-2,1.2-3.9,2.3-5.7,3.2
			l-6.1,3.4l-2.7,15.5H385l2.3-13.2h-19.2l0.1-0.2c4.6-2.3,8.4-4.7,11.5-7.1c3.1-2.4,5.5-4.8,7.3-7.2c1.8-2.4,3.1-4.8,3.8-7.1
			c0.7-2.3,1.1-4.6,1.1-6.8c0-1.6-0.2-3.3-0.7-5C390.6,95.2,389.7,93.6,388.3,92.2z"/>
		<path d="M423.3,87.4c-3.2,0-6,0.6-8.5,1.7c-2.5,1.1-4.7,2.6-6.7,4.5c-1.9,1.9-3.6,4.1-5,6.6c-1.4,2.5-2.5,5.3-3.4,8.1
			c-0.9,2.9-1.5,5.8-1.9,8.9c-0.4,3.1-0.6,6.1-0.6,9c0,6.3,1.4,10.9,4.2,13.9c2.8,2.9,6.8,4.4,11.9,4.4c3.1,0,5.9-0.6,8.5-1.7
			c2.5-1.1,4.8-2.6,6.7-4.5c1.9-1.9,3.6-4.1,5-6.6c1.4-2.5,2.5-5.3,3.4-8.1c0.9-2.9,1.5-5.8,1.9-8.9c0.4-3.1,0.6-6.1,0.6-9
			c0-6.4-1.4-11-4.2-13.9C432.4,88.8,428.4,87.4,423.3,87.4z M424.1,114.5c-0.5,3-1.1,5.8-1.9,8.3c-0.8,2.5-1.8,4.7-3,6.3
			c-1.2,1.7-2.4,2.5-3.8,2.5c-1.1,0-2-0.4-2.7-1.1c-0.7-0.8-1-2.3-1-4.6c0-2.7,0.2-5.5,0.7-8.5c0.4-3,1.1-5.8,1.9-8.3
			c0.8-2.6,1.8-4.7,2.9-6.4c1.1-1.7,2.4-2.5,3.7-2.5c0.6,0,1.1,0.1,1.6,0.2c0.5,0.2,0.9,0.5,1.2,0.9c0.3,0.4,0.6,1,0.8,1.8
			c0.2,0.8,0.3,1.7,0.3,2.9C424.8,108.6,424.6,111.5,424.1,114.5z"/>
		<path d="M470.1,87.4c-3.2,0-6,0.6-8.5,1.7c-2.5,1.1-4.7,2.6-6.7,4.5c-1.9,1.9-3.6,4.1-5,6.6c-1.4,2.5-2.5,5.3-3.4,8.1
			c-0.9,2.9-1.5,5.8-1.9,8.9c-0.4,3.1-0.6,6.1-0.6,9c0,6.3,1.4,10.9,4.2,13.9c2.8,2.9,6.8,4.4,11.9,4.4c3.1,0,5.9-0.6,8.5-1.7
			c2.5-1.1,4.8-2.6,6.7-4.5c1.9-1.9,3.6-4.1,5-6.6c1.4-2.5,2.5-5.3,3.4-8.1c0.9-2.9,1.5-5.8,1.9-8.9c0.4-3.1,0.6-6.1,0.6-9
			c0-6.4-1.4-11-4.2-13.9C479.3,88.8,475.3,87.4,470.1,87.4z M471,114.5c-0.5,3-1.1,5.8-1.9,8.3c-0.8,2.5-1.8,4.7-3,6.3
			c-1.2,1.7-2.4,2.5-3.8,2.5c-1.1,0-2-0.4-2.7-1.1c-0.7-0.8-1-2.3-1-4.6c0-2.7,0.2-5.5,0.7-8.5c0.4-3,1.1-5.8,1.9-8.3
			c0.8-2.6,1.8-4.7,2.9-6.4c1.1-1.7,2.4-2.5,3.7-2.5c0.6,0,1.1,0.1,1.6,0.2c0.5,0.2,0.9,0.5,1.2,0.9c0.3,0.4,0.6,1,0.8,1.8
			c0.2,0.8,0.3,1.7,0.3,2.9C471.7,108.6,471.5,111.5,471,114.5z"/>
		<path d="M520.3,123c3.1-2.4,5.5-4.8,7.3-7.2c1.8-2.4,3.1-4.8,3.8-7.1c0.7-2.3,1.1-4.6,1.1-6.8c0-1.6-0.2-3.3-0.7-5
			c-0.5-1.7-1.4-3.3-2.8-4.7c-1.4-1.4-3.2-2.6-5.6-3.5c-2.4-0.9-5.5-1.3-9.3-1.3c-2.4,0-4.8,0.1-7.3,0.4c-2.5,0.2-5.1,0.7-7.9,1.4
			l-2.5,14.4c2.3-1,4.3-1.7,6-2c1.7-0.3,3.3-0.5,4.6-0.5c1.6,0,2.9,0.2,3.9,0.6c1,0.4,1.8,0.9,2.4,1.5c0.6,0.6,1,1.3,1.2,2
			c0.2,0.7,0.3,1.4,0.3,2.1c0,1.9-0.6,3.8-1.7,5.4c-1.2,1.7-2.6,3.2-4.4,4.6c-1.8,1.4-3.7,2.7-5.7,3.9c-2,1.2-3.9,2.3-5.7,3.2
			l-6.1,3.4l-2.7,15.5h37.1l2.3-13.2h-19.2l0.1-0.2C513.4,127.8,517.2,125.4,520.3,123z"/>
	</g>
</g>
</svg>
