<?xml version="1.0" encoding="utf-8"?>
<!-- Generator: Adobe Illustrator 22.0.1, SVG Export Plug-In . SVG Version: 6.00 Build 0)  -->
<svg version="1.1" id="Layer_2_1_" xmlns="http://www.w3.org/2000/svg" xmlns:xlink="http://www.w3.org/1999/xlink" x="0px" y="0px"
	 viewBox="0 0 513.2 166.2" style="enable-background:new 0 0 513.2 166.2;" xml:space="preserve">
<style type="text/css">
	.st0{fill-rule:evenodd;clip-rule:evenodd;fill:#FFFFFF;}
</style>
<g>
	<g>
		<rect class="st0" width="513.2" height="75.4"/>
		<rect x="41.2" y="84.5" class="st0" width="430.8" height="74"/>
	</g>
	<g>
		<polygon points="70.7,19.9 72.9,6.9 50.1,6.9 32.4,6.9 22.9,62 40.4,62 63.9,62 66.1,49 42.7,49 44.2,40.5 66.1,40.5 68.3,27.8 
			46.3,27.8 47.7,19.9 		"/>
		<path d="M110.7,21.8c-1.1-0.5-2.2-0.8-3.3-0.9c-1.1-0.1-2-0.1-2.5-0.1h-10H79.5L72.3,62h25.9c2.5,0,4.7-0.4,6.5-1.2
			c1.9-0.8,3.4-1.9,4.7-3.2c1.2-1.3,2.2-2.7,2.8-4.3c0.6-1.6,0.9-3.2,0.9-4.8c0-2.3-0.6-4.2-1.9-5.6c-1.3-1.4-2.9-2.3-4.9-2.5v-0.2
			c1.5-0.5,2.8-1.1,3.9-1.9c1.1-0.8,2-1.7,2.6-2.7c0.7-1,1.2-2.1,1.5-3.3c0.3-1.2,0.5-2.3,0.5-3.4c0-2-0.4-3.6-1.2-4.7
			S111.8,22.3,110.7,21.8z M97.1,50c-0.2,0.6-0.4,1.1-0.9,1.5c-0.4,0.5-1,0.9-1.7,1.2c-0.7,0.3-1.7,0.5-2.8,0.5h-2.4l1.4-8.2h2.4
			c0.4,0,0.8,0,1.3,0c0.5,0,0.9,0.1,1.4,0.4c0.4,0.2,0.8,0.6,1.1,1c0.3,0.5,0.5,1.1,0.5,2C97.3,48.9,97.2,49.5,97.1,50z M99.2,33.7
			c-0.1,0.5-0.3,0.9-0.7,1.4c-0.4,0.5-0.9,0.9-1.6,1.2c-0.7,0.3-1.6,0.5-2.8,0.5h-2.1l1.3-7.2h2.1c0.3,0,0.7,0,1.1,0
			c0.4,0,0.9,0.1,1.3,0.4c0.4,0.2,0.8,0.5,1.1,0.9c0.3,0.4,0.4,0.9,0.4,1.6C99.4,32.8,99.3,33.2,99.2,33.7z"/>
		<path d="M160.9,22.1c-1.3-1-2.7-1.7-4-1.9c-1.4-0.2-2.4-0.4-3.2-0.4c-2.5,0-4.9,0.6-7.2,1.9c-2.2,1.3-4.2,3.3-5.8,6.1h-0.3l1.2-7
			h-15.7l-10.2,58.5h16.9l4-22.5c0.5,1.4,1.2,2.5,2,3.3c0.8,0.8,1.7,1.5,2.6,1.9c0.9,0.4,1.8,0.7,2.6,0.8c0.9,0.1,1.7,0.2,2.4,0.2
			c2.7,0,5.3-0.6,7.6-1.9c2.4-1.3,4.4-3.1,6.2-5.6c1.8-2.4,3.1-5.3,4.2-8.7c1-3.4,1.5-7.1,1.5-11.3c0-3.7-0.5-6.6-1.5-8.7
			C163.4,24.6,162.3,23.1,160.9,22.1z M147.2,41.9c-0.3,1.6-0.6,3-1.1,4.2c-0.7,1.9-1.4,3.1-2.3,3.7c-0.8,0.6-1.7,0.9-2.4,0.9
			c-0.3,0-0.6-0.1-1-0.2c-0.4-0.1-0.7-0.3-1-0.7c-0.3-0.3-0.6-0.8-0.8-1.4c-0.2-0.6-0.3-1.4-0.3-2.3c0-1.3,0.1-2.7,0.4-4.2
			c0.2-1.5,0.6-2.9,1.1-4.2c0.6-1.7,1.3-3,2.2-3.6c0.8-0.7,1.6-1,2.4-1c0.2,0,0.5,0,0.9,0.1c0.4,0.1,0.7,0.3,1,0.6
			c0.3,0.3,0.6,0.8,0.9,1.4c0.2,0.6,0.4,1.4,0.4,2.5C147.6,38.9,147.5,40.3,147.2,41.9z"/>
		<path d="M210.3,25.3c-1.5-1.7-3.4-3-5.8-4c-2.4-1-5.3-1.5-8.8-1.5c-4.3,0-8,0.8-11.3,2.3c-3.2,1.5-5.9,3.5-8.1,6
			c-2.2,2.5-3.8,5.3-4.9,8.4c-1.1,3.1-1.6,6.3-1.6,9.6c0,1.4,0.2,3,0.6,5c0.4,1.9,1.3,3.8,2.6,5.6c1.3,1.8,3.2,3.3,5.7,4.5
			s5.8,1.9,10,1.9c4,0,7.6-0.7,10.8-2.1c3.2-1.4,5.9-3.3,8.1-5.7c2.2-2.4,3.9-5.1,5.1-8.2c1.2-3.1,1.7-6.3,1.7-9.6
			c0-2.2-0.3-4.4-1-6.5C212.8,28.8,211.7,26.9,210.3,25.3z M195.9,41.2c-0.4,2-0.8,3.8-1.2,5.2c-0.1,0.5-0.3,1.1-0.6,1.6
			c-0.2,0.6-0.5,1.1-0.9,1.5c-0.3,0.5-0.7,0.9-1.2,1.1c-0.5,0.3-1,0.4-1.7,0.4c-0.5,0-1.1-0.2-1.6-0.7c-0.6-0.5-0.8-1.5-0.8-3.1
			c0-0.8,0.1-1.8,0.2-3c0.1-1.2,0.3-2.3,0.5-3.5c0.2-1.2,0.5-2.3,0.7-3.3c0.3-1.1,0.5-1.9,0.8-2.5c0.1-0.3,0.3-0.6,0.5-1
			c0.2-0.4,0.4-0.8,0.7-1.1c0.3-0.3,0.7-0.6,1.1-0.9c0.4-0.2,0.9-0.4,1.4-0.4c0.6,0,1.1,0.1,1.5,0.4c0.4,0.3,0.6,0.6,0.8,1.1
			c0.2,0.4,0.3,0.9,0.3,1.3c0,0.4,0.1,0.8,0.1,1.1C196.5,37.3,196.3,39.2,195.9,41.2z"/>
		<path d="M255.9,3.3c-1.9,0.2-3.8,0.4-5.7,0.6c-1.9,0.2-3.8,0.4-5.7,0.8c-1.9,0.4-3.7,0.9-5.6,1.6c-1.9,0.7-3.7,1.7-5.5,2.9
			c-2.4,1.6-4.5,3.8-6.4,6.5c-1.8,2.7-3.4,5.6-4.6,8.8c-1.2,3.2-2.2,6.6-2.8,10c-0.6,3.5-1,6.8-1,10c0,1.7,0.2,3.7,0.6,5.8
			c0.4,2.2,1.2,4.2,2.4,6c1.2,1.9,3.1,3.4,5.5,4.7c2.4,1.3,5.6,1.9,9.6,1.9c4.8,0,8.9-0.8,12.2-2.4c3.3-1.6,6-3.6,8-5.9
			c2-2.4,3.5-5,4.4-7.8c0.9-2.8,1.3-5.4,1.3-7.8c0-2.7-0.4-5-1.2-6.9c-0.8-1.9-2-3.5-3.4-4.8c-1.5-1.3-3.2-2.2-5.2-2.8
			c-2-0.6-4.1-0.9-6.4-0.9c-1,0-2.1,0.1-3.3,0.3c-1.2,0.2-2.4,0.5-3.7,1.1c-1.3,0.5-2.6,1.3-3.9,2.2c-1.3,1-2.5,2.2-3.6,3.8h-0.5
			l0.4-1.9c0.4-1.7,0.9-3.1,1.5-4.3c0.6-1.2,1.4-2.1,2.2-2.9c0.8-0.8,1.7-1.4,2.6-1.8c0.9-0.4,1.7-0.8,2.5-1.1
			c1.8-0.6,3.7-1,5.8-1.2c2.1-0.2,4.3-0.4,6.7-0.6c1.2-0.1,2.3-0.1,3.2-0.3c1-0.1,1.8-0.3,2.6-0.5c0.8-0.2,1.6-0.4,2.3-0.7
			c0.7-0.3,1.4-0.7,2.1-1.2l2.5-14.2c-1.8,0.9-3.5,1.5-5,1.9C259.5,2.8,257.8,3.1,255.9,3.3z M236.4,45.4c0.1-0.8,0.2-1.6,0.3-2.4
			c0.1-0.8,0.3-1.6,0.5-2.4c0.2-0.8,0.4-1.4,0.5-1.9c0.5-1.6,1.2-2.6,1.9-3.2c0.7-0.5,1.4-0.8,2.1-0.8c0.6,0,1.1,0.1,1.5,0.4
			c0.4,0.2,0.6,0.6,0.8,0.9c0.2,0.4,0.3,0.8,0.4,1.3c0,0.4,0.1,0.9,0.1,1.2c0,1.5-0.1,3-0.4,4.4c-0.1,0.9-0.3,1.8-0.5,2.8
			c-0.2,1-0.5,1.9-0.9,2.6c-0.4,0.8-0.9,1.4-1.4,2c-0.6,0.5-1.3,0.8-2.1,0.8c-1.2,0-2-0.4-2.3-1.3c-0.3-0.8-0.5-1.7-0.5-2.5
			C236.3,46.9,236.3,46.2,236.4,45.4z"/>
		<path d="M296.5,26c-0.3-0.6-0.6-1.2-1.1-2c-0.4-0.7-1-1.4-1.8-2c-0.8-0.6-1.7-1.2-2.8-1.6c-1.1-0.4-2.4-0.6-4-0.6
			c-3.3,0-6.2,0.9-8.6,2.6c-2.5,1.7-4.5,3.9-6.1,6.6c-1.6,2.7-2.8,5.7-3.6,8.9c-0.8,3.3-1.2,6.5-1.2,9.7c0,4.6,1,8.3,3.1,11.1
			c2.1,2.8,5,4.2,8.9,4.2c3.1,0,5.7-0.7,7.9-2.2c2.2-1.5,4-3.4,5.3-5.8h0.3l-1.2,7h15.7l7.1-41.3h-16.9L296.5,26z M294.5,40.9
			c-0.3,1.6-0.6,3-1.1,4.2c-0.4,1.1-0.8,1.9-1.2,2.5c-0.4,0.6-0.9,1.1-1.3,1.4c-0.4,0.3-0.8,0.5-1.2,0.6c-0.4,0.1-0.7,0.1-1,0.1
			c-0.3,0-0.6-0.1-0.9-0.2c-0.4-0.1-0.7-0.3-1-0.6c-0.3-0.3-0.6-0.8-0.8-1.4c-0.2-0.6-0.3-1.5-0.3-2.5c0-1.5,0.2-3.2,0.6-5
			c0.4-1.9,0.9-3.4,1.5-4.6c0.1-0.2,0.3-0.5,0.5-0.9c0.2-0.4,0.5-0.7,0.8-1.1c0.3-0.4,0.7-0.7,1.2-0.9c0.5-0.2,1-0.4,1.6-0.4
			c0.2,0,0.5,0,0.9,0.1c0.4,0.1,0.7,0.3,1,0.6c0.3,0.3,0.6,0.8,0.9,1.4c0.2,0.6,0.4,1.4,0.4,2.5C294.9,37.9,294.7,39.3,294.5,40.9z"
			/>
		<path d="M343.1,19.8c-3.3,0-6.3,0.4-8.9,1.3c-2.6,0.8-4.8,2-6.8,3.3c-1.9,1.4-3.6,3-4.9,4.8c-1.3,1.8-2.4,3.7-3.2,5.6
			c-0.8,1.9-1.4,3.9-1.7,5.8c-0.4,1.9-0.5,3.7-0.5,5.3c0,2.8,0.4,5.1,1.2,7.1c0.8,1.9,1.8,3.5,3,4.8c1.2,1.3,2.5,2.3,4,3
			c1.5,0.7,2.9,1.2,4.3,1.5c1.4,0.3,2.7,0.6,3.8,0.6c1.2,0.1,2,0.1,2.5,0.1c1.9,0,3.9-0.1,5.9-0.4c2-0.2,4.3-0.8,6.7-1.7l2.1-11.9
			c-1.2,0.6-2.5,1.1-3.9,1.5c-1.4,0.4-2.7,0.6-4.1,0.6c-0.3,0-0.8-0.1-1.6-0.2c-0.8-0.1-1.6-0.4-2.4-0.9c-0.8-0.5-1.6-1.2-2.2-2.2
			c-0.6-1-1-2.4-1-4.2c0-1.4,0.2-2.8,0.6-4.2c0.4-1.4,1.1-2.8,2-3.9c0.9-1.2,2-2.1,3.3-2.9c1.3-0.7,2.9-1.1,4.8-1.1
			c0.8,0,1.7,0.1,2.9,0.4c1.2,0.2,2.5,0.7,4,1.5l2-11.8c-1.5-0.5-3.2-0.9-5.2-1.3C347.9,20,345.7,19.8,343.1,19.8z"/>
		<polygon points="408,20.8 389.7,20.8 377,38.8 376.7,38.8 379.8,20.8 363.2,20.8 356.1,62 372.7,62 375.8,43.8 376.1,43.8 
			382.6,62 401.1,62 392.7,41 		"/>
		<path d="M444.5,23.4c-1.4-1.1-3.1-2-5.3-2.6c-2.2-0.7-4.8-1-7.8-1c-3.8,0-7.2,0.7-10.3,2c-3.1,1.4-5.7,3.2-7.9,5.6
			c-2.2,2.4-3.9,5.1-5.1,8.2c-1.2,3.1-1.8,6.4-1.8,10c0,2.7,0.4,5.1,1.1,7.2c0.7,2.2,1.9,4,3.4,5.5c1.6,1.5,3.6,2.6,6,3.4
			c2.5,0.8,5.4,1.2,8.9,1.2c2.3,0,4.9-0.2,7.7-0.5c2.8-0.3,5.7-1,8.7-1.9l1.9-10.7c-0.9,0.4-2,0.7-3.2,1.1c-1.2,0.3-2.4,0.6-3.7,0.9
			c-1.3,0.3-2.5,0.5-3.8,0.6c-1.3,0.2-2.4,0.2-3.4,0.2c-2.4,0-4.1-0.5-5.2-1.5c-1.1-1-1.7-2.3-1.9-4.1c5.3-0.3,9.6-0.9,12.9-1.8
			c3.3-0.9,5.9-2,7.8-3.3c1.9-1.3,3.2-2.9,3.9-4.6c0.7-1.8,1-3.7,1-5.7c0-1.5-0.3-3-1-4.5C446.9,25.8,445.9,24.5,444.5,23.4z
			 M433.5,34.3c-0.3,0.6-0.8,1.2-1.5,1.7c-0.8,0.5-1.8,1-3.1,1.4c-1.3,0.4-3.1,0.7-5.2,0.9c0.6-3.2,1.6-5.5,2.9-6.9
			c1.3-1.4,2.7-2,4.3-2c1.1,0,1.9,0.3,2.4,0.8c0.5,0.6,0.8,1.3,0.8,2.2C433.9,33.1,433.8,33.7,433.5,34.3z"/>
		<polygon points="454.7,20.8 452.6,32.6 462,32.6 456.9,62 473.8,62 478.9,32.6 488.3,32.6 490.3,20.8 		"/>
	</g>
	<g>
		<path d="M106.8,96.7c-1.4-1.4-3.2-2.6-5.6-3.5c-2.4-0.9-5.5-1.3-9.3-1.3c-2.4,0-4.8,0.1-7.3,0.4c-2.5,0.2-5.1,0.7-7.9,1.4
			l-2.5,14.4c2.3-1,4.3-1.7,6-2c1.7-0.3,3.3-0.5,4.6-0.5c1.6,0,2.9,0.2,3.9,0.6s1.8,0.9,2.4,1.5c0.6,0.6,1,1.3,1.2,2
			c0.2,0.7,0.3,1.4,0.3,2.1c0,1.9-0.6,3.8-1.7,5.4c-1.2,1.7-2.6,3.2-4.4,4.6c-1.8,1.4-3.7,2.7-5.7,3.9c-2,1.2-3.9,2.3-5.7,3.2
			l-6.1,3.4L66.3,148h37.1l2.3-13.2H86.5l0.1-0.2c4.6-2.3,8.4-4.7,11.5-7.1c3.1-2.4,5.5-4.8,7.3-7.2c1.8-2.4,3.1-4.8,3.8-7.1
			c0.7-2.3,1.1-4.6,1.1-6.8c0-1.6-0.2-3.3-0.7-5C109.1,99.7,108.1,98.2,106.8,96.7z"/>
		<path d="M140.3,91.9c-3.2,0-6,0.6-8.5,1.7c-2.5,1.1-4.7,2.6-6.7,4.5c-1.9,1.9-3.6,4.1-5,6.6c-1.4,2.5-2.5,5.3-3.4,8.1
			c-0.9,2.9-1.5,5.8-1.9,8.9c-0.4,3.1-0.6,6.1-0.6,9c0,6.3,1.4,10.9,4.2,13.9c2.8,2.9,6.8,4.4,11.9,4.4c3.1,0,5.9-0.6,8.5-1.7
			c2.5-1.1,4.8-2.6,6.7-4.5c1.9-1.9,3.6-4.1,5-6.6c1.4-2.5,2.5-5.3,3.4-8.1c0.9-2.9,1.5-5.8,1.9-8.9c0.4-3.1,0.6-6.1,0.6-9
			c0-6.4-1.4-11-4.2-13.9C149.5,93.4,145.5,91.9,140.3,91.9z M141.2,119.1c-0.5,3-1.1,5.8-1.9,8.3c-0.8,2.5-1.8,4.7-3,6.3
			c-1.2,1.7-2.4,2.5-3.8,2.5c-1.1,0-2-0.4-2.7-1.1c-0.7-0.8-1-2.3-1-4.6c0-2.7,0.2-5.5,0.7-8.5c0.4-3,1.1-5.8,1.9-8.3
			c0.8-2.6,1.8-4.7,2.9-6.4s2.4-2.5,3.7-2.5c0.6,0,1.1,0.1,1.6,0.2c0.5,0.2,0.9,0.5,1.2,0.9c0.3,0.4,0.6,1,0.8,1.8
			c0.2,0.8,0.3,1.7,0.3,2.9C141.9,113.2,141.7,116,141.2,119.1z"/>
		<path d="M185.9,91.9c-3.2,0-6,0.6-8.5,1.7c-2.5,1.1-4.7,2.6-6.7,4.5c-1.9,1.9-3.6,4.1-5,6.6c-1.4,2.5-2.5,5.3-3.4,8.1
			c-0.9,2.9-1.5,5.8-1.9,8.9c-0.4,3.1-0.6,6.1-0.6,9c0,6.3,1.4,10.9,4.2,13.9c2.8,2.9,6.8,4.4,11.9,4.4c3.1,0,5.9-0.6,8.5-1.7
			c2.5-1.1,4.8-2.6,6.7-4.5c1.9-1.9,3.6-4.1,5-6.6c1.4-2.5,2.5-5.3,3.4-8.1c0.9-2.9,1.5-5.8,1.9-8.9c0.4-3.1,0.6-6.1,0.6-9
			c0-6.4-1.4-11-4.2-13.9C195,93.4,191.1,91.9,185.9,91.9z M186.7,119.1c-0.5,3-1.1,5.8-1.9,8.3c-0.8,2.5-1.8,4.7-3,6.3
			c-1.2,1.7-2.4,2.5-3.8,2.5c-1.1,0-2-0.4-2.7-1.1c-0.7-0.8-1-2.3-1-4.6c0-2.7,0.2-5.5,0.7-8.5c0.4-3,1.1-5.8,1.9-8.3
			c0.8-2.6,1.8-4.7,2.9-6.4c1.1-1.7,2.4-2.5,3.7-2.5c0.6,0,1.1,0.1,1.6,0.2c0.5,0.2,0.9,0.5,1.2,0.9s0.6,1,0.8,1.8
			c0.2,0.8,0.3,1.7,0.3,2.9C187.4,113.2,187.2,116,186.7,119.1z"/>
		<polygon points="208.8,105.7 232.8,105.7 205.3,148 222.8,148 248.6,105.7 250.9,92.9 211,92.9 		"/>
		<path d="M295.3,108.9c-1.2-0.9-2.8-1.7-4.7-2.2c-1.9-0.6-4.3-0.8-7-0.8c-1.1,0-2.3,0.1-3.7,0.2c-1.3,0.2-2.6,0.4-3.9,0.7
			c-1.3,0.3-2.5,0.6-3.7,0.9c-1.1,0.3-2.1,0.7-2.9,1.1L268,121c0.9-0.5,2-1,3.1-1.5c1.1-0.5,2.3-0.9,3.4-1.3
			c1.2-0.4,2.3-0.7,3.4-0.9s2.2-0.4,3.1-0.4c0.9,0,1.5,0.1,1.8,0.4c0.3,0.2,0.4,0.6,0.4,1c0,0.7-0.4,1.3-1.3,2
			c-0.9,0.6-2.5,1.5-4.7,2.5c-2.6,1.3-4.7,2.5-6.4,3.7c-1.7,1.2-2.9,2.4-3.9,3.6c-0.9,1.2-1.6,2.5-1.9,3.8c-0.4,1.3-0.5,2.6-0.5,4.1
			c0,1.6,0.3,3,0.8,4.4c0.6,1.4,1.4,2.5,2.6,3.5c1.2,1,2.8,1.8,4.7,2.4c1.9,0.6,4.3,0.9,7.1,0.9c1.3,0,2.8-0.1,4.3-0.3
			c1.5-0.2,2.9-0.4,4.3-0.7c1.4-0.3,2.6-0.6,3.8-0.9c1.1-0.3,2-0.7,2.6-1l1.5-12.3c-1.1,0.7-2.2,1.4-3.5,1.9
			c-1.3,0.5-2.5,0.9-3.7,1.3c-1.2,0.4-2.3,0.6-3.4,0.8c-1,0.2-1.9,0.2-2.6,0.2c-1.6,0-2.4-0.7-2.4-2.1c0-0.8,0.4-1.6,1.3-2.2
			c0.9-0.6,2.2-1.4,4.1-2.3c2.5-1.2,4.5-2.3,6.2-3.3c1.7-1.1,3-2.2,3.9-3.3c1-1.2,1.6-2.4,2-3.8c0.4-1.4,0.6-2.9,0.6-4.6
			c0-1.4-0.3-2.8-0.8-4C297.4,110.9,296.5,109.8,295.3,108.9z"/>
		<path d="M341.8,111.3c-1.5-1.7-3.4-3-5.8-4c-2.4-1-5.3-1.5-8.8-1.5c-4.3,0-8,0.8-11.3,2.3c-3.2,1.5-5.9,3.5-8.1,6
			c-2.2,2.5-3.8,5.3-4.9,8.4c-1.1,3.1-1.6,6.3-1.6,9.6c0,1.4,0.2,3,0.6,5c0.4,1.9,1.3,3.8,2.6,5.6c1.3,1.8,3.2,3.3,5.7,4.5
			c2.5,1.2,5.8,1.9,10,1.9c4,0,7.6-0.7,10.8-2.1c3.2-1.4,5.9-3.3,8.1-5.7c2.2-2.4,3.9-5.1,5.1-8.2c1.2-3.1,1.7-6.3,1.7-9.6
			c0-2.2-0.3-4.4-1-6.5C344.3,114.8,343.3,112.9,341.8,111.3z M327.4,127.2c-0.4,2-0.8,3.8-1.2,5.2c-0.1,0.5-0.3,1.1-0.6,1.6
			c-0.2,0.6-0.5,1.1-0.9,1.5c-0.3,0.5-0.7,0.9-1.2,1.1c-0.5,0.3-1,0.4-1.7,0.4c-0.5,0-1.1-0.2-1.6-0.7c-0.6-0.5-0.8-1.5-0.8-3.1
			c0-0.8,0.1-1.8,0.2-3c0.1-1.2,0.3-2.3,0.5-3.5c0.2-1.2,0.5-2.3,0.7-3.3c0.3-1.1,0.5-1.9,0.8-2.5c0.1-0.3,0.3-0.6,0.5-1
			c0.2-0.4,0.4-0.8,0.7-1.1c0.3-0.3,0.7-0.6,1.1-0.9c0.4-0.2,0.9-0.4,1.4-0.4c0.6,0,1.1,0.1,1.5,0.4c0.4,0.3,0.6,0.6,0.8,1.1
			c0.2,0.4,0.3,0.9,0.3,1.3c0,0.4,0.1,0.8,0.1,1.1C328,123.3,327.8,125.2,327.4,127.2z"/>
		<path d="M379.6,114.5h-0.3c-0.3-2.7-1.4-4.8-3.1-6.4c-1.8-1.5-4.1-2.3-6.8-2.3c-3,0-5.7,0.8-8.2,2.5c-2.4,1.7-4.5,3.8-6.1,6.4
			c-1.7,2.6-3,5.6-3.9,9c-0.9,3.4-1.4,6.7-1.4,10.1c0,4.3,1.1,7.8,3.3,10.4c2.2,2.6,5.3,3.9,9.4,3.9c0.8,0,1.6-0.1,2.5-0.2
			s1.8-0.5,2.8-0.9c1-0.4,2-1,3.1-1.8c1.1-0.8,2.2-1.8,3.3-3h0.3l-0.5,2c-0.8,3.4-2.2,6-4.3,7.7c-2.1,1.8-4.9,2.7-8.5,2.7
			c-1.9,0-3.9-0.4-6-1.1c-2.2-0.8-4.2-1.8-6.2-3.1l-2.3,13c3.6,1.3,6.7,2.2,9.3,2.5c2.6,0.4,4.9,0.6,7,0.6c2.9,0,5.8-0.3,8.7-0.8
			c2.9-0.5,5.7-1.6,8.2-3.3c2.5-1.7,4.8-4.1,6.8-7.3c2-3.2,3.4-7.5,4.4-12.8l6.2-35.3h-16L379.6,114.5z M377.1,127
			c-0.2,1.2-0.5,2.2-0.8,3.1c-0.4,1.3-1,2.5-1.7,3.6c-0.7,1.1-1.8,1.6-3.3,1.6c-1,0-1.8-0.3-2.4-1c-0.6-0.7-0.9-1.7-0.9-2.9
			c0-1.5,0.1-2.9,0.4-4.2s0.5-2.4,0.8-3.4c0.4-1.3,1-2.5,1.7-3.6c0.7-1.1,1.8-1.6,3.3-1.6c0.9,0,1.7,0.3,2.3,1
			c0.6,0.7,0.9,1.9,0.9,3.5C377.4,124.5,377.3,125.8,377.1,127z"/>
		<path d="M430,106.8l-0.9,5.3c-0.3-0.6-0.6-1.2-1.1-2c-0.4-0.7-1-1.4-1.8-2c-0.8-0.6-1.7-1.2-2.8-1.6c-1.1-0.4-2.4-0.6-4-0.6
			c-3.3,0-6.2,0.9-8.6,2.6c-2.5,1.7-4.5,3.9-6.1,6.6c-1.6,2.7-2.8,5.7-3.7,8.9c-0.8,3.3-1.2,6.5-1.2,9.7c0,4.6,1,8.3,3.1,11.1
			c2.1,2.8,5,4.2,8.9,4.2c3.1,0,5.7-0.7,7.9-2.2c2.2-1.5,4-3.4,5.3-5.8h0.3l-1.2,7h15.7l7.1-41.3H430z M427.1,126.9
			c-0.3,1.6-0.6,3-1.1,4.2c-0.4,1.1-0.8,1.9-1.2,2.5c-0.4,0.6-0.9,1.1-1.3,1.4c-0.4,0.3-0.8,0.5-1.2,0.6c-0.4,0.1-0.7,0.1-1,0.1
			c-0.3,0-0.6-0.1-0.9-0.2c-0.4-0.1-0.7-0.3-1-0.6c-0.3-0.3-0.6-0.8-0.8-1.4c-0.2-0.6-0.3-1.5-0.3-2.5c0-1.5,0.2-3.2,0.6-5
			c0.4-1.9,0.9-3.4,1.5-4.6c0.1-0.2,0.3-0.5,0.5-0.9c0.2-0.4,0.5-0.7,0.8-1.1c0.3-0.4,0.7-0.7,1.2-0.9s1-0.4,1.6-0.4
			c0.2,0,0.5,0,0.9,0.1c0.4,0.1,0.7,0.3,1,0.6c0.3,0.3,0.6,0.8,0.9,1.4c0.2,0.6,0.4,1.4,0.4,2.5
			C427.5,123.9,427.3,125.3,427.1,126.9z"/>
	</g>
</g>
</svg>
