<?xml version="1.0" encoding="utf-8"?>
<!-- Generator: Adobe Illustrator 22.0.1, SVG Export Plug-In . SVG Version: 6.00 Build 0)  -->
<svg version="1.1" id="Layer_2_1_" xmlns="http://www.w3.org/2000/svg" xmlns:xlink="http://www.w3.org/1999/xlink" x="0px" y="0px"
	 viewBox="0 0 695.9 158" style="enable-background:new 0 0 695.9 158;" xml:space="preserve">
<style type="text/css">
	.st0{fill-rule:evenodd;clip-rule:evenodd;fill:#FFFFFF;}
</style>
<g>
	<g>
		<rect class="st0" width="695.9" height="74.2"/>
		<rect x="0" y="83.1" class="st0" width="695.9" height="74.9"/>
	</g>
	<g>
		<path d="M50.6,27.2c-1,0.4-2.1,0.8-3.3,1c-1.2,0.3-2.3,0.4-3.3,0.4c-1.3,0-2.2-0.2-2.8-0.6c-0.6-0.4-1-0.9-1.3-1.4
			c-0.2-0.5-0.4-1.1-0.3-1.6c0-0.5,0.1-0.9,0.1-1.1l3-17.4H24.7l-3.5,20.4c-0.1,0.6-0.2,1.4-0.3,2.2c-0.1,0.8-0.2,1.7-0.2,2.7
			c0,1.4,0.2,2.9,0.6,4.3c0.4,1.5,1.1,2.8,2.2,4.1c1.1,1.2,2.6,2.2,4.5,3s4.5,1.2,7.7,1.2c1.9,0,3.9-0.2,6.1-0.5s4.3-0.8,6.1-1.2
			l-3.3,19h17.9l9.5-55.2H54.2L50.6,27.2z"/>
		<path d="M110.9,23c-1.4-1.1-3.1-2-5.3-2.6c-2.2-0.7-4.8-1-7.8-1c-3.8,0-7.2,0.7-10.3,2c-3.1,1.4-5.7,3.2-7.9,5.6
			c-2.2,2.4-3.9,5.1-5.1,8.2c-1.2,3.1-1.8,6.4-1.8,10c0,2.7,0.4,5.1,1.1,7.2c0.7,2.2,1.9,4,3.4,5.5c1.6,1.5,3.6,2.6,6,3.4
			c2.5,0.8,5.4,1.2,8.9,1.2c2.3,0,4.9-0.2,7.7-0.5c2.8-0.3,5.7-1,8.7-1.9l1.9-10.7c-0.9,0.4-2,0.7-3.2,1.1c-1.2,0.3-2.4,0.6-3.7,0.9
			c-1.3,0.3-2.5,0.5-3.8,0.6c-1.3,0.2-2.4,0.2-3.4,0.2c-2.4,0-4.1-0.5-5.2-1.5c-1.1-1-1.7-2.3-1.9-4.1c5.3-0.3,9.6-0.9,12.9-1.8
			c3.3-0.9,5.9-2,7.8-3.3c1.9-1.3,3.2-2.9,3.9-4.6c0.7-1.8,1-3.7,1-5.7c0-1.5-0.3-3-1-4.5C113.2,25.3,112.2,24.1,110.9,23z
			 M99.9,33.9c-0.3,0.6-0.8,1.2-1.5,1.7c-0.8,0.5-1.8,1-3.1,1.4c-1.3,0.4-3.1,0.7-5.2,0.9c0.6-3.2,1.6-5.5,2.9-6.9
			c1.3-1.4,2.7-2,4.3-2c1.1,0,1.9,0.3,2.4,0.8c0.5,0.6,0.8,1.3,0.8,2.2C100.3,32.7,100.1,33.3,99.9,33.9z"/>
		<polygon points="144.9,41.9 142.8,20.3 124.7,20.3 117.5,61.6 130.9,61.6 134.8,38.9 135.1,38.9 136.6,53.7 148.3,53.7 
			154.8,38.9 155.1,38.9 151.2,61.6 164.6,61.6 171.8,20.3 154.4,20.3 		"/>
		<path d="M217.2,23.9c-0.3-0.5-0.6-1-1.1-1.5c-0.5-0.5-1.1-1-1.8-1.5c-0.7-0.5-1.6-0.9-2.5-1.1c-1-0.3-2.1-0.4-3.5-0.4
			c-3,0-5.6,0.8-7.7,2.3c-2.1,1.6-3.8,3.5-5.1,5.8h-0.3l1.3-7.2h-15.9l-7.2,41.3h16.9l4.1-23.8c0.4-2.5,1-4.1,1.9-4.9
			c0.5-0.5,1.2-0.7,2-0.7s1.4,0.3,1.8,0.8c0.4,0.5,0.6,1.2,0.6,2c0,0.5,0,0.9-0.1,1.4c-0.1,0.4-0.1,0.9-0.2,1.4l-4.1,23.8H213
			l5-28.7c0.1-0.7,0.2-1.3,0.3-2c0.1-0.6,0.1-1.3,0.1-1.9c0-0.9-0.1-1.8-0.3-2.7C217.9,25.5,217.6,24.6,217.2,23.9z"/>
		<path d="M247.6,44.2c-0.1,0.5-0.2,1-0.3,1.7c-0.1,0.6-0.3,1.2-0.6,1.9c-0.3,0.6-0.7,1.1-1.1,1.5c-0.5,0.4-1.1,0.6-1.8,0.6
			c-0.5,0-0.9-0.1-1.2-0.4c-0.3-0.2-0.5-0.5-0.7-0.8c-0.2-0.3-0.2-0.6-0.3-0.9c0-0.3,0-0.5,0-0.6c0-1.1,0.1-2.1,0.3-3l4.2-23.9h-17
			l-5,28.8c-0.1,0.7-0.2,1.3-0.2,2s-0.1,1.3-0.1,2c0,1.7,0.3,3.2,0.8,4.4c0.5,1.2,1.2,2.2,2.1,3c0.9,0.8,1.9,1.3,3.1,1.7
			c1.2,0.3,2.4,0.5,3.8,0.5c0.8,0,1.7-0.1,2.8-0.2c1.1-0.1,2.2-0.5,3.4-1c1.2-0.6,2.4-1.4,3.7-2.4c1.2-1.1,2.4-2.5,3.4-4.4h0.1
			l-1.2,7.1h15.9l7.2-41.3h-16.9L247.6,44.2z"/>
		<path d="M311.9,24.8c-1.5-1.7-3.4-3-5.8-4c-2.4-1-5.3-1.5-8.8-1.5c-4.3,0-8,0.8-11.3,2.3c-3.2,1.5-5.9,3.5-8.1,6
			c-2.2,2.5-3.8,5.3-4.9,8.4c-1.1,3.1-1.6,6.3-1.6,9.6c0,1.4,0.2,3,0.6,5c0.4,1.9,1.3,3.8,2.6,5.6c1.3,1.8,3.2,3.3,5.7,4.5
			c2.5,1.2,5.8,1.9,10,1.9c4,0,7.6-0.7,10.8-2.1c3.2-1.4,5.9-3.3,8.1-5.7c2.2-2.4,3.9-5.1,5.1-8.2c1.2-3.1,1.7-6.3,1.7-9.6
			c0-2.2-0.3-4.4-1-6.5C314.4,28.3,313.4,26.5,311.9,24.8z M297.5,40.8c-0.4,2-0.8,3.8-1.2,5.2c-0.1,0.5-0.3,1.1-0.6,1.6
			c-0.2,0.6-0.5,1.1-0.9,1.5c-0.3,0.5-0.7,0.9-1.2,1.1c-0.5,0.3-1,0.4-1.7,0.4c-0.5,0-1.1-0.2-1.6-0.7c-0.6-0.5-0.8-1.5-0.8-3.1
			c0-0.8,0.1-1.8,0.2-3c0.1-1.2,0.3-2.3,0.5-3.5c0.2-1.2,0.5-2.3,0.7-3.3c0.3-1.1,0.5-1.9,0.8-2.5c0.1-0.3,0.3-0.6,0.5-1
			c0.2-0.4,0.4-0.8,0.7-1.1c0.3-0.3,0.7-0.6,1.1-0.9c0.4-0.2,0.9-0.4,1.4-0.4c0.6,0,1.1,0.1,1.5,0.4c0.4,0.3,0.6,0.6,0.8,1.1
			c0.2,0.4,0.3,0.9,0.3,1.3c0,0.4,0.1,0.8,0.1,1.1C298.1,36.8,297.9,38.7,297.5,40.8z"/>
		<polygon points="346.4,34.5 340.4,34.5 342.9,20.3 326,20.3 318.8,61.6 335.7,61.6 338.3,46.4 344.4,46.4 341.8,61.6 358.6,61.6 
			365.8,20.3 348.9,20.3 		"/>
		<path d="M397.9,25.6c-0.3-0.6-0.6-1.2-1.1-2c-0.4-0.7-1-1.4-1.8-2c-0.8-0.6-1.7-1.2-2.8-1.6c-1.1-0.4-2.4-0.6-4-0.6
			c-3.3,0-6.2,0.9-8.6,2.6c-2.5,1.7-4.5,3.9-6.1,6.6c-1.6,2.7-2.8,5.7-3.6,8.9c-0.8,3.3-1.2,6.5-1.2,9.7c0,4.6,1,8.3,3.1,11.1
			c2.1,2.8,5,4.2,8.9,4.2c3.1,0,5.7-0.7,7.9-2.2c2.2-1.5,4-3.4,5.3-5.8h0.3l-1.2,7h15.7l7.1-41.3h-16.9L397.9,25.6z M395.9,40.5
			c-0.3,1.6-0.6,3-1.1,4.2c-0.4,1.1-0.8,1.9-1.2,2.5c-0.4,0.6-0.9,1.1-1.3,1.4c-0.4,0.3-0.8,0.5-1.2,0.6c-0.4,0.1-0.7,0.1-1,0.1
			s-0.6-0.1-0.9-0.2c-0.4-0.1-0.7-0.3-1-0.6c-0.3-0.3-0.6-0.8-0.8-1.4c-0.2-0.6-0.3-1.5-0.3-2.5c0-1.5,0.2-3.2,0.6-5
			c0.4-1.9,0.9-3.4,1.5-4.6c0.1-0.2,0.3-0.5,0.5-0.9c0.2-0.4,0.5-0.7,0.8-1.1c0.3-0.4,0.7-0.7,1.2-0.9s1-0.4,1.6-0.4
			c0.2,0,0.5,0,0.9,0.1c0.4,0.1,0.7,0.3,1,0.6c0.3,0.3,0.6,0.8,0.9,1.4c0.2,0.6,0.4,1.4,0.4,2.5C396.3,37.5,396.1,38.9,395.9,40.5z"
			/>
		<polygon points="418.3,32.1 427.7,32.1 422.6,61.6 439.5,61.6 444.6,32.1 453.9,32.1 456,20.3 420.4,20.3 		"/>
		<polygon points="500.3,41.9 498.2,20.3 480.1,20.3 473,61.6 486.3,61.6 490.2,38.9 490.5,38.9 492,53.7 503.8,53.7 510.3,38.9 
			510.5,38.9 506.6,61.6 520,61.6 527.2,20.3 509.8,20.3 		"/>
		<path d="M558.7,20.3l-4.2,23.9c-0.1,0.5-0.2,1-0.3,1.7c-0.1,0.6-0.3,1.2-0.6,1.9c-0.3,0.6-0.7,1.1-1.1,1.5
			c-0.5,0.4-1.1,0.6-1.8,0.6c-0.5,0-0.9-0.1-1.2-0.4c-0.3-0.2-0.5-0.5-0.7-0.8c-0.2-0.3-0.2-0.6-0.3-0.9c0-0.3,0-0.5,0-0.6
			c0-1.1,0.1-2.1,0.3-3l4.2-23.9h-17l-5,28.8c-0.1,0.7-0.2,1.3-0.2,2c-0.1,0.6-0.1,1.3-0.1,2c0,1.7,0.3,3.2,0.8,4.4
			c0.5,1.2,1.2,2.2,2.1,3c0.9,0.8,1.9,1.3,3.1,1.7c1.2,0.3,2.4,0.5,3.8,0.5c0.8,0,1.7-0.1,2.8-0.2c1.1-0.1,2.2-0.5,3.4-1
			c1.2-0.6,2.4-1.4,3.6-2.4c1.2-1.1,2.4-2.5,3.4-4.4h0.1l-1.2,7.1h15.9l7.2-41.3H558.7z"/>
		<path d="M619.2,21.6c-1.3-1-2.7-1.7-4-1.9c-1.4-0.2-2.4-0.4-3.2-0.4c-2.5,0-4.9,0.6-7.2,1.9c-2.2,1.3-4.2,3.3-5.8,6.1h-0.3l1.2-7
			h-15.7l-10.2,58.5H591l4-22.5c0.5,1.4,1.2,2.5,2,3.3c0.8,0.8,1.7,1.5,2.6,1.9c0.9,0.4,1.8,0.7,2.6,0.8c0.9,0.1,1.7,0.2,2.4,0.2
			c2.7,0,5.3-0.6,7.6-1.9c2.4-1.3,4.4-3.1,6.2-5.6c1.8-2.4,3.1-5.3,4.2-8.7c1-3.4,1.5-7.1,1.5-11.3c0-3.7-0.5-6.6-1.5-8.7
			C621.7,24.2,620.5,22.6,619.2,21.6z M605.5,41.4c-0.3,1.6-0.6,3-1.1,4.2c-0.7,1.9-1.4,3.1-2.3,3.7c-0.8,0.6-1.7,0.9-2.4,0.9
			c-0.3,0-0.6-0.1-1-0.2c-0.4-0.1-0.7-0.3-1-0.7c-0.3-0.3-0.6-0.8-0.8-1.4s-0.3-1.4-0.3-2.3c0-1.3,0.1-2.7,0.4-4.2
			c0.2-1.5,0.6-2.9,1.1-4.2c0.6-1.7,1.4-3,2.2-3.6c0.8-0.7,1.6-1,2.4-1c0.2,0,0.5,0,0.9,0.1c0.4,0.1,0.7,0.3,1,0.6
			c0.3,0.3,0.6,0.8,0.9,1.4c0.2,0.6,0.4,1.4,0.4,2.5C605.9,38.4,605.8,39.8,605.5,41.4z"/>
		<path d="M658.3,20.3l-0.9,5.3c-0.3-0.6-0.6-1.2-1.1-2c-0.4-0.7-1-1.4-1.8-2c-0.8-0.6-1.7-1.2-2.8-1.6c-1.1-0.4-2.4-0.6-4-0.6
			c-3.3,0-6.2,0.9-8.6,2.6c-2.5,1.7-4.5,3.9-6.1,6.6c-1.6,2.7-2.8,5.7-3.7,8.9c-0.8,3.3-1.2,6.5-1.2,9.7c0,4.6,1,8.3,3.1,11.1
			c2.1,2.8,5,4.2,8.9,4.2c3.1,0,5.7-0.7,7.9-2.2c2.2-1.5,4-3.4,5.3-5.8h0.3l-1.2,7H668l7.1-41.3H658.3z M655.3,40.5
			c-0.3,1.6-0.6,3-1.1,4.2c-0.4,1.1-0.8,1.9-1.2,2.5c-0.4,0.6-0.9,1.1-1.3,1.4c-0.4,0.3-0.8,0.5-1.2,0.6c-0.4,0.1-0.7,0.1-1,0.1
			c-0.3,0-0.6-0.1-0.9-0.2c-0.4-0.1-0.7-0.3-1-0.6c-0.3-0.3-0.6-0.8-0.8-1.4c-0.2-0.6-0.3-1.5-0.3-2.5c0-1.5,0.2-3.2,0.6-5
			c0.4-1.9,0.9-3.4,1.5-4.6c0.1-0.2,0.3-0.5,0.5-0.9c0.2-0.4,0.5-0.7,0.8-1.1c0.3-0.4,0.7-0.7,1.2-0.9c0.5-0.2,1-0.4,1.6-0.4
			c0.2,0,0.5,0,0.9,0.1c0.4,0.1,0.7,0.3,1,0.6s0.6,0.8,0.9,1.4c0.2,0.6,0.4,1.4,0.4,2.5C655.7,37.5,655.6,38.9,655.3,40.5z"/>
	</g>
	<g>
		<polygon points="451.2,127.8 473.7,127.8 476.6,112.1 454,112.1 		"/>
		<path d="M68.5,105.9c-0.3-0.5-0.6-1-1.1-1.5c-0.5-0.5-1.1-1-1.8-1.5c-0.7-0.5-1.6-0.9-2.5-1.1c-1-0.3-2.1-0.4-3.5-0.4
			c-3,0-5.6,0.8-7.7,2.3c-2.1,1.6-3.8,3.5-5.1,5.8h-0.3l1.3-7.2H31.8l-7.2,41.3h16.9l4.1-23.8c0.4-2.5,1-4.1,1.9-4.9
			c0.5-0.5,1.2-0.7,2-0.7c0.8,0,1.4,0.3,1.8,0.8c0.4,0.5,0.6,1.2,0.6,2c0,0.5,0,0.9-0.1,1.4c-0.1,0.4-0.1,0.9-0.2,1.4l-4.1,23.8
			h16.9l5-28.7c0.1-0.7,0.2-1.3,0.3-2c0.1-0.6,0.1-1.3,0.1-1.9c0-0.9-0.1-1.8-0.3-2.7C69.2,107.5,68.9,106.6,68.5,105.9z"/>
		<path d="M112.8,106.8c-1.5-1.7-3.4-3-5.8-4c-2.4-1-5.3-1.5-8.8-1.5c-4.3,0-8,0.8-11.3,2.3c-3.2,1.5-5.9,3.5-8.1,6
			c-2.2,2.5-3.8,5.3-4.9,8.4c-1.1,3.1-1.6,6.3-1.6,9.6c0,1.4,0.2,3,0.6,5c0.4,1.9,1.3,3.8,2.6,5.6c1.3,1.8,3.2,3.3,5.7,4.5
			c2.5,1.2,5.8,1.9,10,1.9c4,0,7.6-0.7,10.8-2.1c3.2-1.4,5.9-3.3,8.1-5.7c2.2-2.4,3.9-5.1,5.1-8.2c1.2-3.1,1.7-6.3,1.7-9.6
			c0-2.2-0.3-4.4-1-6.5C115.3,110.3,114.2,108.5,112.8,106.8z M98.4,122.8c-0.4,2-0.8,3.8-1.2,5.2c-0.1,0.5-0.3,1.1-0.6,1.6
			c-0.2,0.6-0.5,1.1-0.9,1.5c-0.3,0.5-0.7,0.9-1.2,1.1c-0.5,0.3-1,0.4-1.7,0.4c-0.5,0-1.1-0.2-1.6-0.7c-0.6-0.5-0.8-1.5-0.8-3.1
			c0-0.8,0.1-1.8,0.2-3c0.1-1.2,0.3-2.3,0.5-3.5c0.2-1.2,0.5-2.3,0.7-3.3c0.3-1.1,0.5-1.9,0.8-2.5c0.1-0.3,0.3-0.6,0.5-1
			c0.2-0.4,0.4-0.8,0.7-1.1c0.3-0.3,0.7-0.6,1.1-0.9c0.4-0.2,0.9-0.4,1.4-0.4c0.6,0,1.1,0.1,1.5,0.4c0.4,0.3,0.6,0.6,0.8,1.1
			c0.2,0.4,0.3,0.9,0.3,1.3c0,0.4,0.1,0.8,0.1,1.1C99,118.8,98.8,120.7,98.4,122.8z"/>
		<polygon points="185.6,102.3 168.9,102.3 162.2,115.1 161.9,115.1 159.6,102.3 141.6,102.3 149,121.4 133.7,143.6 151,143.6 
			159,129.7 159.2,129.7 162.3,143.6 180.2,143.6 172.5,121 		"/>
		<path d="M224.5,106.8c-1.5-1.7-3.4-3-5.8-4c-2.4-1-5.3-1.5-8.8-1.5c-4.3,0-8,0.8-11.3,2.3c-3.2,1.5-5.9,3.5-8.1,6
			c-2.2,2.5-3.8,5.3-4.9,8.4c-1.1,3.1-1.6,6.3-1.6,9.6c0,1.4,0.2,3,0.6,5c0.4,1.9,1.3,3.8,2.6,5.6c1.3,1.8,3.2,3.3,5.7,4.5
			c2.5,1.2,5.8,1.9,10,1.9c4,0,7.6-0.7,10.8-2.1c3.2-1.4,5.9-3.3,8.1-5.7c2.2-2.4,3.9-5.1,5.1-8.2c1.2-3.1,1.7-6.3,1.7-9.6
			c0-2.2-0.3-4.4-1-6.5C227,110.3,226,108.5,224.5,106.8z M210.1,122.8c-0.4,2-0.8,3.8-1.2,5.2c-0.1,0.5-0.3,1.1-0.6,1.6
			c-0.2,0.6-0.5,1.1-0.9,1.5c-0.3,0.5-0.7,0.9-1.2,1.1c-0.5,0.3-1,0.4-1.7,0.4c-0.5,0-1.1-0.2-1.6-0.7c-0.6-0.5-0.8-1.5-0.8-3.1
			c0-0.8,0.1-1.8,0.2-3c0.1-1.2,0.3-2.3,0.5-3.5c0.2-1.2,0.5-2.3,0.7-3.3c0.3-1.1,0.5-1.9,0.8-2.5c0.1-0.3,0.3-0.6,0.5-1
			c0.2-0.4,0.4-0.8,0.7-1.1c0.3-0.3,0.7-0.6,1.1-0.9c0.4-0.2,0.9-0.4,1.4-0.4c0.6,0,1.1,0.1,1.5,0.4c0.4,0.3,0.6,0.6,0.8,1.1
			c0.2,0.4,0.3,0.9,0.3,1.3c0,0.4,0.1,0.8,0.1,1.1C210.7,118.8,210.5,120.7,210.1,122.8z"/>
		<polygon points="283.4,102.3 265.1,102.3 252.3,120.3 252.1,120.3 255.2,102.3 238.6,102.3 231.4,143.6 248.1,143.6 251.2,125.4 
			251.5,125.4 258,143.6 276.5,143.6 268.1,122.5 		"/>
		<polygon points="334.1,102.3 315.8,102.3 303.1,120.3 302.8,120.3 306,102.3 289.4,102.3 282.2,143.6 298.8,143.6 302,125.4 
			302.2,125.4 308.7,143.6 327.3,143.6 318.8,122.5 		"/>
		<path d="M370.7,105c-1.4-1.1-3.1-2-5.3-2.6c-2.2-0.7-4.8-1-7.8-1c-3.8,0-7.2,0.7-10.3,2c-3.1,1.4-5.7,3.2-7.9,5.6
			c-2.2,2.4-3.9,5.1-5.1,8.2c-1.2,3.1-1.8,6.4-1.8,10c0,2.7,0.4,5.1,1.1,7.2c0.7,2.2,1.9,4,3.4,5.5c1.6,1.5,3.6,2.6,6,3.4
			c2.5,0.8,5.4,1.2,8.9,1.2c2.3,0,4.9-0.2,7.7-0.5c2.8-0.3,5.7-1,8.7-1.9l1.9-10.7c-0.9,0.4-2,0.7-3.2,1.1c-1.2,0.3-2.4,0.6-3.7,0.9
			c-1.3,0.3-2.5,0.5-3.8,0.6c-1.3,0.2-2.4,0.2-3.4,0.2c-2.4,0-4.1-0.5-5.2-1.5c-1.1-1-1.7-2.3-1.9-4.1c5.3-0.3,9.6-0.9,12.9-1.8
			c3.3-0.9,5.9-2,7.8-3.3s3.2-2.9,3.9-4.6c0.7-1.8,1-3.7,1-5.7c0-1.5-0.3-3-1-4.5C373,107.3,372,106.1,370.7,105z M359.6,115.9
			c-0.3,0.6-0.8,1.2-1.5,1.7c-0.8,0.5-1.8,1-3.1,1.4c-1.3,0.4-3.1,0.7-5.2,0.9c0.6-3.2,1.6-5.5,2.9-6.9c1.3-1.4,2.7-2,4.3-2
			c1.1,0,1.9,0.3,2.4,0.8c0.5,0.6,0.8,1.3,0.8,2.2C360,114.7,359.9,115.3,359.6,115.9z"/>
		<path d="M439.2,106.9c-1.3-1.7-3.1-3-5.4-4c-2.2-1-5-1.5-8.3-1.5c-1.5,0-3.2,0.1-5.3,0.4c-2,0.3-4.1,0.9-6.3,2s-4.2,2.6-6.2,4.6
			c-2,2.1-3.7,4.9-5.1,8.4h-4l2.5-14.5h-16.9l-7.2,41.3h16.9l2.6-15h3.9c-0.1,2.5,0.3,4.7,1,6.7c0.8,2,1.9,3.6,3.3,5
			c1.5,1.4,3.2,2.4,5.3,3.2c2.1,0.7,4.3,1.1,6.8,1.1c4.3,0,8.1-0.8,11.4-2.4c3.2-1.6,5.9-3.7,8.1-6.1c2.1-2.5,3.7-5.3,4.8-8.4
			c1-3.1,1.6-6.1,1.6-9c0-2-0.3-4.1-0.9-6.1C441.5,110.4,440.5,108.5,439.2,106.9z M425.3,118.9c-0.1,0.9-0.2,1.8-0.4,2.8
			c-0.1,0.9-0.3,1.9-0.4,2.8c-0.2,0.9-0.3,1.6-0.4,2.1c-0.1,0.6-0.3,1.3-0.5,2c-0.2,0.7-0.5,1.4-0.9,2c-0.4,0.6-0.8,1.1-1.3,1.5
			c-0.5,0.4-1.1,0.6-1.9,0.6c-0.8,0-1.4-0.3-1.9-0.9c-0.5-0.6-0.8-1.5-0.8-2.8c0-0.8,0.1-1.7,0.2-2.7c0.1-1,0.2-2,0.4-3
			c0.2-1,0.3-2,0.6-3c0.2-0.9,0.4-1.8,0.7-2.4c0.2-0.5,0.4-1.1,0.6-1.6c0.2-0.6,0.5-1.1,0.8-1.5c0.3-0.5,0.7-0.9,1.2-1.1
			c0.5-0.3,1-0.4,1.6-0.4c0.5,0,1.1,0.2,1.7,0.7c0.6,0.4,0.9,1.4,0.9,2.9C425.5,117.3,425.4,118,425.3,118.9z"/>
		<path d="M521.7,92.3c-1.4-1.4-3.2-2.6-5.6-3.5c-2.4-0.9-5.5-1.3-9.3-1.3c-2.4,0-4.8,0.1-7.3,0.4c-2.5,0.2-5.1,0.7-7.9,1.4
			l-2.5,14.4c2.3-1,4.3-1.7,6-2s3.3-0.5,4.6-0.5c1.6,0,2.9,0.2,3.9,0.6c1,0.4,1.8,0.9,2.4,1.5c0.6,0.6,1,1.3,1.2,2
			c0.2,0.7,0.3,1.4,0.3,2.1c0,1.9-0.6,3.8-1.7,5.4c-1.2,1.7-2.6,3.2-4.4,4.6c-1.8,1.4-3.7,2.7-5.7,3.9c-2,1.2-3.9,2.3-5.7,3.2
			l-6.1,3.4l-2.7,15.5h37.1l2.3-13.2h-19.2l0.1-0.2c4.6-2.3,8.4-4.7,11.5-7.1c3.1-2.4,5.5-4.8,7.3-7.2c1.8-2.4,3.1-4.8,3.8-7.1
			c0.7-2.3,1.1-4.6,1.1-6.8c0-1.6-0.2-3.3-0.7-5C524,95.3,523,93.7,521.7,92.3z"/>
		<path d="M556.6,87.5c-3.2,0-6,0.6-8.5,1.7c-2.5,1.1-4.7,2.6-6.7,4.5c-1.9,1.9-3.6,4.1-5,6.6c-1.4,2.5-2.5,5.3-3.4,8.1
			c-0.9,2.9-1.5,5.8-1.9,8.9c-0.4,3.1-0.6,6.1-0.6,9c0,6.3,1.4,10.9,4.2,13.9c2.8,2.9,6.8,4.4,11.9,4.4c3.1,0,5.9-0.6,8.5-1.7
			c2.5-1.1,4.8-2.6,6.7-4.5c1.9-1.9,3.6-4.1,5-6.6c1.4-2.5,2.5-5.3,3.4-8.1c0.9-2.9,1.5-5.8,1.9-8.9c0.4-3.1,0.6-6.1,0.6-9
			c0-6.4-1.4-11-4.2-13.9C565.8,88.9,561.8,87.5,556.6,87.5z M557.4,114.6c-0.5,3-1.1,5.8-1.9,8.3c-0.8,2.5-1.8,4.7-3,6.3
			c-1.2,1.7-2.4,2.5-3.8,2.5c-1.1,0-2-0.4-2.7-1.1c-0.7-0.8-1-2.3-1-4.6c0-2.7,0.2-5.5,0.7-8.5c0.4-3,1.1-5.8,1.9-8.3
			c0.8-2.6,1.8-4.7,2.9-6.4c1.1-1.7,2.4-2.5,3.7-2.5c0.6,0,1.1,0.1,1.6,0.2c0.5,0.2,0.9,0.5,1.2,0.9c0.3,0.4,0.6,1,0.8,1.8
			c0.2,0.8,0.3,1.7,0.3,2.9C558.1,108.7,557.9,111.6,557.4,114.6z"/>
		<path d="M603.5,87.5c-3.2,0-6,0.6-8.5,1.7c-2.5,1.1-4.7,2.6-6.7,4.5c-1.9,1.9-3.6,4.1-5,6.6c-1.4,2.5-2.5,5.3-3.4,8.1
			c-0.9,2.9-1.5,5.8-1.9,8.9c-0.4,3.1-0.6,6.1-0.6,9c0,6.3,1.4,10.9,4.2,13.9c2.8,2.9,6.8,4.4,11.9,4.4c3.1,0,5.9-0.6,8.5-1.7
			c2.5-1.1,4.8-2.6,6.7-4.5c1.9-1.9,3.6-4.1,5-6.6c1.4-2.5,2.5-5.3,3.4-8.1c0.9-2.9,1.5-5.8,1.9-8.9c0.4-3.1,0.6-6.1,0.6-9
			c0-6.4-1.4-11-4.2-13.9C612.6,88.9,608.7,87.5,603.5,87.5z M604.3,114.6c-0.5,3-1.1,5.8-1.9,8.3c-0.8,2.5-1.8,4.7-3,6.3
			c-1.2,1.7-2.4,2.5-3.8,2.5c-1.1,0-2-0.4-2.7-1.1c-0.7-0.8-1-2.3-1-4.6c0-2.7,0.2-5.5,0.7-8.5c0.4-3,1.1-5.8,1.9-8.3
			c0.8-2.6,1.8-4.7,2.9-6.4c1.1-1.7,2.4-2.5,3.7-2.5c0.6,0,1.1,0.1,1.6,0.2c0.5,0.2,0.9,0.5,1.2,0.9c0.3,0.4,0.6,1,0.8,1.8
			c0.2,0.8,0.3,1.7,0.3,2.9C605,108.7,604.8,111.6,604.3,114.6z"/>
		<path d="M670.6,96.6c-0.4-1.5-1.3-3-2.6-4.3c-1.3-1.3-3.2-2.5-5.6-3.4c-2.4-0.9-5.5-1.4-9.3-1.4c-4.8,0-8.7,0.6-11.9,1.8
			c-3.1,1.2-5.6,2.7-7.5,4.5c-1.8,1.8-3.1,3.8-3.9,5.9c-0.7,2.1-1.1,4-1.1,5.8c0,2.4,0.6,4.5,1.7,6.3c1.1,1.8,2.8,3,4.9,3.6v0.3
			c-1.8,0.4-3.5,1-5,1.9c-1.5,0.9-2.7,2-3.8,3.4c-1,1.3-1.9,2.8-2.4,4.5c-0.6,1.7-0.9,3.4-0.9,5.3s0.3,3.7,1,5.3
			c0.7,1.7,1.8,3.1,3.3,4.3c1.5,1.2,3.6,2.2,6.1,2.9c2.5,0.7,5.6,1.1,9.3,1.1c4.3,0,8-0.6,11.2-1.7c3.2-1.1,5.8-2.5,7.8-4.3
			c2.1-1.8,3.6-3.8,4.6-6c1-2.2,1.5-4.5,1.5-6.8c0-2.7-0.7-5-2.2-6.7c-1.5-1.8-3.2-2.8-5.4-3.3v-0.3c1.6-0.5,3.1-1.3,4.4-2.2
			c1.3-1,2.5-2.1,3.4-3.4c0.9-1.3,1.7-2.7,2.2-4.2c0.5-1.5,0.8-3.1,0.8-4.8C671.3,99.5,671,98.1,670.6,96.6z M651.2,126.7
			c-0.2,0.8-0.5,1.6-0.9,2.3c-0.8,1.5-1.6,2.5-2.6,3.1c-1,0.6-2,0.9-2.9,0.9c-1.3,0-2.3-0.5-3-1.4c-0.8-0.9-1.2-2.3-1.2-4.1
			c0-1.2,0.2-2.4,0.7-3.7c0.7-1.8,1.6-3.1,2.7-3.9c1.1-0.7,2.2-1.1,3.3-1.1c0.5,0,1,0.1,1.4,0.2s0.9,0.4,1.2,0.8
			c0.4,0.4,0.8,1,1.1,1.7c0.3,0.7,0.5,1.6,0.5,2.6C651.6,125,651.5,125.9,651.2,126.7z M653.9,106.9c-0.5,1.1-1.2,1.9-2.1,2.7
			c-0.9,0.7-2,1.1-3.1,1.1c-0.8,0-1.5-0.2-2-0.5c-0.5-0.3-0.9-0.7-1.2-1.2c-0.3-0.5-0.5-1-0.6-1.6c-0.1-0.6-0.2-1.1-0.2-1.6
			c0-1.6,0.4-3.2,1.3-4.6c0.8-1.3,1.6-2.2,2.4-2.6c0.9-0.4,1.7-0.7,2.4-0.7c1.2,0,2.1,0.5,2.8,1.4c0.7,0.9,1,2.2,1,3.7
			C654.7,104.4,654.4,105.7,653.9,106.9z"/>
	</g>
</g>
</svg>
