<svg xmlns="http://www.w3.org/2000/svg" width="39" height="38" viewBox="0 0 39 38">
  <defs>
    <style>
      .cls-1 {
        fill: #3d5b96;
      }

      .cls-1, .cls-2, .cls-3, .cls-4 {
        fill-rule: evenodd;
      }

      .cls-2 {
        fill: #46668c;
      }

      .cls-3 {
        fill: #59adeb;
      }

      .cls-4 {
        fill: #fff;
      }
    </style>
  </defs>
  <g id="Фоны_значков" data-name="Фоны значков">
    <path id="Фон_значка_facebook" data-name="Фон значка facebook" class="cls-1" d="M0,38V-0.063H39.007V38H0Z"/>
    <path id="Фон_значка_вк" data-name="Фон значка вк" class="cls-2" d="M60.01,38V-0.063H99.017V38H60.01Z"/>
    <path id="Фон_значка_twitter" data-name="Фон значка twitter" class="cls-3" d="M118.993,38V-0.063H158V38H118.993Z"/>
  </g>
  <path id="Значки" class="cls-4" d="M14.3,19.654h2.709v9.708h3.846V19.654h3.729L24.7,16.134H20.74V13.577a1.327,1.327,0,0,1,1.531-1.593h2.317l0.117-3.3s-1.02-.112-2.591-0.112c-3.572.038-5.1,2.224-5.1,4.521v3.038H14.3v3.521Zm133.691-6.5a4.252,4.252,0,0,1-2.071.574,3.5,3.5,0,0,0,1.553-2.184,5.624,5.624,0,0,1-2.293.928,3.567,3.567,0,0,0-2.613-1.146,3.793,3.793,0,0,0-3.648,3.9,3,3,0,0,0,.1.929,9.849,9.849,0,0,1-7.346-4.151,4.137,4.137,0,0,0-.518,1.966,3.909,3.909,0,0,0,1.553,3.222,3.789,3.789,0,0,1-1.652-.464,3.865,3.865,0,0,0,2.909,3.8,1.843,1.843,0,0,1-.838.219,2.037,2.037,0,0,1-.739-0.11,3.557,3.557,0,0,0,3.328,2.648,6.971,6.971,0,0,1-4.463,1.611h-0.838a9.3,9.3,0,0,0,5.5,1.72c6.656,0,10.28-5.87,10.28-11.058V15.092A5.62,5.62,0,0,0,147.994,13.153ZM84.578,19.44a2.907,2.907,0,0,0-1.792-1.145v-0.1a3.672,3.672,0,0,0,1.481-1.222,3.205,3.205,0,0,0,.526-1.832,3.128,3.128,0,0,0-.382-1.578,2.864,2.864,0,0,0-1.17-1.12,4.929,4.929,0,0,0-1.529-.51,24.914,24.914,0,0,0-2.747-.1H73.637V26.11h6a9.37,9.37,0,0,0,2.461-.28,5.457,5.457,0,0,0,1.792-.892,3.924,3.924,0,0,0,1.1-1.348,4.144,4.144,0,0,0,.406-1.859A3.43,3.43,0,0,0,84.578,19.44Zm-4.037,3.589a2.277,2.277,0,0,1-1.123.229H77.364V19.872h2.1a2.715,2.715,0,0,1,1.123.2,1.419,1.419,0,0,1,.717,1.375A1.7,1.7,0,0,1,80.541,23.029ZM80.35,17.148a2.074,2.074,0,0,1-1.171.306H77.364v-2.8h1.529a3.786,3.786,0,0,1,1.314.2,1.146,1.146,0,0,1,.6,1.171A1.273,1.273,0,0,1,80.35,17.148Z"/>
</svg>
