<?xml version="1.0" encoding="utf-8"?>
<!-- Generator: Adobe Illustrator 22.0.1, SVG Export Plug-In . SVG Version: 6.00 Build 0)  -->
<svg version="1.1" id="Layer_2" xmlns="http://www.w3.org/2000/svg" xmlns:xlink="http://www.w3.org/1999/xlink" x="0px" y="0px"
	 viewBox="0 0 102.8 36.4" style="enable-background:new 0 0 102.8 36.4;" xml:space="preserve">
<g>
	<path d="M29.8,4.8H5.3L7.1,0h24.5L29.8,4.8z M28.9,7.3H4.4l-1.8,4.8h24.5L28.9,7.3z M26.2,14.5H1.8L0,19.4h24.5L26.2,14.5z"/>
	<path d="M88.1,31.5h4.4c1.3,0.2,2.5-0.3,3.4-1.3c0.6-0.8,0.9-1.8,0.9-2.8c0.1-1.3-0.5-2.5-1.5-3.3c-0.8-0.5-1.8-0.8-2.8-0.7h-4.4
		V31.5z M82.3,36.4V7.3h18.9l-1.7,4.9H88.1v6.4h4.7c3.8,0,5.7,0.9,7.1,2.1c2,1.7,3,4.3,2.9,6.9c0.2,2.8-1.1,5.5-3.4,7.2
		c-1.8,1.3-3.7,1.6-7.6,1.6L82.3,36.4z M65.5,36.4V12.1h-8.4V7.3h23.4l-1.7,4.9h-7.4v24.2L65.5,36.4z M42.2,18.9h3.3
		c0.7,0,1.4,0,2-0.2c1.4-0.5,2.3-1.8,2.2-3.3c0.2-1.5-0.8-2.9-2.2-3.2c-0.7-0.2-1.5-0.2-2.2-0.2h-3.1V18.9z M42.2,24v7.6h4
		c1.1,0.1,2.2-0.2,3.1-0.9c0.8-0.8,1.3-1.9,1.2-3c0-0.9-0.3-1.8-0.8-2.5c-0.9-1.1-1.9-1.3-3.7-1.3L42.2,24z M51.5,20.9L51.5,20.9
		c1,0.5,1.9,1,2.7,1.7c1.7,1.4,2.6,3.5,2.5,5.7c0,4-2.1,6.9-5.6,7.7c-1.4,0.3-2.8,0.5-4.2,0.4H36.4V7.3h9.3c1.5-0.1,3,0.1,4.4,0.4
		c3.4,0.9,5.6,3.2,5.6,6.9c0.1,1.8-0.6,3.5-1.9,4.7C53.2,20,52.4,20.5,51.5,20.9L51.5,20.9z"/>
</g>
</svg>
