<svg xmlns="http://www.w3.org/2000/svg" width="39" height="38" viewBox="0 0 39 38">
  <defs>
    <style>
      .cls-1 {
        fill: #3d5b96;
      }

      .cls-1, .cls-2, .cls-3, .cls-4 {
        fill-rule: evenodd;
      }

      .cls-2 {
        fill: #46668c;
      }

      .cls-3 {
        fill: #59adeb;
      }

      .cls-4 {
        fill: #fff;
      }
    </style>
  </defs>
  <g id="Фоны_значков" data-name="Фоны значков">
    <path id="Фон_значка_facebook" data-name="Фон значка facebook" class="cls-1" d="M-60,38V-0.063h39.007V38H-60Z"/>
    <path id="Фон_значка_вк" data-name="Фон значка вк" class="cls-2" d="M0.01,38V-0.063H39.017V38H0.01Z"/>
    <path id="Фон_значка_twitter" data-name="Фон значка twitter" class="cls-3" d="M58.993,38V-0.063H98V38H58.993Z"/>
  </g>
  <path id="Значки" class="cls-4" d="M-45.7,19.654h2.709v9.708h3.846V19.654h3.73l0.117-3.521H-39.26V13.577a1.327,1.327,0,0,1,1.531-1.593h2.317l0.117-3.3s-1.02-.112-2.591-0.112c-3.572.038-5.1,2.224-5.1,4.521v3.038H-45.7v3.521Zm133.691-6.5a4.251,4.251,0,0,1-2.071.574,3.5,3.5,0,0,0,1.553-2.184,5.63,5.63,0,0,1-2.293.928,3.568,3.568,0,0,0-2.613-1.146,3.793,3.793,0,0,0-3.649,3.9,2.984,2.984,0,0,0,.1.929,9.851,9.851,0,0,1-7.347-4.151,4.144,4.144,0,0,0-.518,1.966,3.91,3.91,0,0,0,1.553,3.222,3.785,3.785,0,0,1-1.652-.464,3.865,3.865,0,0,0,2.909,3.8,1.848,1.848,0,0,1-.838.219,2.039,2.039,0,0,1-.739-0.11,3.557,3.557,0,0,0,3.328,2.648,6.968,6.968,0,0,1-4.462,1.611H70.416a9.3,9.3,0,0,0,5.5,1.72c6.656,0,10.28-5.87,10.28-11.058V15.092A5.623,5.623,0,0,0,87.994,13.153ZM24.578,19.44a2.907,2.907,0,0,0-1.792-1.145v-0.1a3.672,3.672,0,0,0,1.481-1.222,3.205,3.205,0,0,0,.526-1.832,3.128,3.128,0,0,0-.382-1.578,2.864,2.864,0,0,0-1.17-1.12,4.929,4.929,0,0,0-1.529-.51,24.914,24.914,0,0,0-2.747-.1H13.637V26.11h6a9.37,9.37,0,0,0,2.461-.28,5.457,5.457,0,0,0,1.792-.892,3.924,3.924,0,0,0,1.1-1.348,4.144,4.144,0,0,0,.406-1.859A3.43,3.43,0,0,0,24.578,19.44Zm-4.037,3.589a2.277,2.277,0,0,1-1.123.229H17.364V19.872h2.1a2.715,2.715,0,0,1,1.123.2,1.419,1.419,0,0,1,.717,1.375A1.7,1.7,0,0,1,20.541,23.029ZM20.35,17.148a2.074,2.074,0,0,1-1.171.306H17.364v-2.8h1.529a3.786,3.786,0,0,1,1.314.2,1.146,1.146,0,0,1,.6,1.171A1.273,1.273,0,0,1,20.35,17.148Z"/>
</svg>
